<?xml version="1.0" encoding="UTF-8"?>
<svg version="1.1" xmlns="http://www.w3.org/2000/svg" width="512" height="512">
<path d="M0 0 C5.60436994 5.21087162 9.79301521 12.05324606 10.09375 19.828125 C10.09640072 21.16276033 10.09361506 22.49741538 10.0859375 23.83203125 C10.08980469 25.81009766 10.08980469 25.81009766 10.09375 27.828125 C9.9906406 30.59691579 9.80176317 32.78530239 8.9609375 35.39453125 C9.76273437 35.96558594 10.56453125 36.53664062 11.390625 37.125 C19.16557214 42.66791601 26.91745957 48.24195488 34.65380859 53.83862305 C36.07790096 54.86862395 37.502991 55.89724725 38.92919922 56.92431641 C40.2854791 57.90575325 41.63609478 58.89506482 42.98095703 59.89208984 C46.13832867 62.5003067 46.13832867 62.5003067 49.9609375 63.39453125 C51.4323301 61.95179191 51.4323301 61.95179191 52.96875 60.03125 C57.36845994 54.8633548 62.06527053 50.03166504 66.8359375 45.20703125 C67.68285156 44.33111328 68.52976562 43.45519531 69.40234375 42.55273438 C77.89469686 33.97584789 85.69820735 29.03655901 97.9609375 28.39453125 C110.53478494 29.12984397 118.65433368 36.50030649 127.0234375 45.20703125 C127.88904297 46.09068359 128.75464844 46.97433594 129.64648438 47.88476562 C131.76078519 50.04579132 133.86510297 52.21561744 135.9609375 54.39453125 C140.63775517 52.85426437 145.15492897 51.10858092 149.69140625 49.19921875 C151.9609375 48.39453125 151.9609375 48.39453125 154.9609375 48.39453125 C154.93999023 47.5130542 154.91904297 46.63157715 154.89746094 45.72338867 C154.82860461 42.40019935 154.77881288 39.07778609 154.74121094 35.75415039 C154.72130141 34.32564201 154.69416321 32.89721287 154.65917969 31.46899414 C154.37598102 19.59547369 155.38663721 9.11650699 163.9609375 0.1171875 C169.63460415 -4.76970115 175.79137348 -7.68299558 183.29541016 -7.7824707 C184.1437442 -7.79530594 184.99207825 -7.80814117 185.86611938 -7.82136536 C186.77654999 -7.82875229 187.68698059 -7.83613922 188.625 -7.84375 C189.57224945 -7.85182175 190.5194989 -7.85989349 191.49545288 -7.86820984 C193.5010191 -7.88203017 195.50660864 -7.89276148 197.51220703 -7.90063477 C199.55068923 -7.91213057 201.58914191 -7.93254412 203.62744141 -7.9621582 C206.58516737 -8.00511074 209.54199972 -8.02104396 212.5 -8.03125 C213.39828522 -8.04875809 214.29657043 -8.06626617 215.22207642 -8.08430481 C224.52176503 -8.05293328 232.38328665 -5.06374778 239.203125 1.328125 C245.10388541 8.26479668 247.09506082 15.66844052 247.05859375 24.56640625 C247.05647133 25.59003265 247.05647133 25.59003265 247.05430603 26.63433838 C247.04872834 28.80444809 247.03618004 30.97445295 247.0234375 33.14453125 C247.01841961 34.61979017 247.01385721 36.09505072 247.00976562 37.5703125 C246.99876625 41.17841923 246.98151703 44.786465 246.9609375 48.39453125 C247.89212402 48.5335083 248.82331055 48.67248535 249.78271484 48.81567383 C254.0950927 49.6010977 257.51179094 51.52389627 261.375 53.53125 C263.85530848 54.65752754 263.85530848 54.65752754 265.86962891 53.69799805 C268.29901644 52.18381406 270.03590837 50.47810584 272.0078125 48.40234375 C272.7709375 47.61472656 273.5340625 46.82710937 274.3203125 46.015625 C275.90268969 44.36343705 277.48088688 42.70723465 279.0546875 41.046875 C287.0765331 32.79621837 294.37179007 29.1451237 305.9609375 28.39453125 C320.21118388 29.02693863 329.58878373 39.46305643 338.8984375 49.01953125 C340.03102031 50.16363295 341.16447884 51.30686844 342.29882812 52.44921875 C343.38359931 53.54740044 344.46761183 54.64633216 345.55078125 55.74609375 C346.05077133 56.25347076 346.55076141 56.76084778 347.06590271 57.28359985 C349.57358602 59.86005593 351.88728607 62.45507914 353.9609375 65.39453125 C354.44747803 65.03327148 354.93401855 64.67201172 355.43530273 64.29980469 C364.32323229 57.70751584 373.22995855 51.14746823 382.2734375 44.76953125 C382.95913818 44.28581055 383.64483887 43.80208984 384.35131836 43.30371094 C388.18529306 40.61077189 392.05144346 37.97661569 395.9609375 35.39453125 C395.72310547 34.33105469 395.72310547 34.33105469 395.48046875 33.24609375 C393.82251832 24.14606506 394.58450867 15.60648197 398.9609375 7.39453125 C404.74681343 -0.95146677 411.61257909 -5.47004018 421.546875 -7.34765625 C430.33117036 -8.28578488 437.56213761 -6.37715854 444.9609375 -1.60546875 C447.8359375 0.89453125 447.8359375 0.89453125 449.9609375 3.39453125 C450.6621875 4.15765625 451.3634375 4.92078125 452.0859375 5.70703125 C457.65297096 13.68644588 458.39957845 22.93860968 456.9609375 32.39453125 C453.91277363 42.05785926 448.62536382 48.03145296 439.8359375 52.70703125 C431.74674915 56.4274404 423.44308352 56.52497547 415.0859375 53.51953125 C411.95671209 52.28791192 408.96066607 50.90985805 405.9609375 49.39453125 C396.01217969 56.09005829 386.12471196 62.82689096 376.62792969 70.15551758 C373.57113259 72.50162098 370.52957882 74.71162662 367.21875 76.6875 C361.25776966 80.28914596 357.53159715 82.85374267 355.6484375 89.83203125 C355.26365234 91.50265625 355.26365234 91.50265625 354.87109375 93.20703125 C351.7880441 104.004321 339.80999884 112.74390124 331.9609375 120.39453125 C333.4789137 125.07837674 335.24745112 129.58986105 337.15625 134.125 C337.9609375 136.39453125 337.9609375 136.39453125 337.9609375 139.39453125 C338.87794434 139.37358398 339.79495117 139.35263672 340.73974609 139.33105469 C344.18776785 139.26231179 347.63504685 139.21245973 351.08349609 139.17480469 C352.56733798 139.15486144 354.05110305 139.12769635 355.53466797 139.09277344 C367.42752233 138.82011191 377.1515402 139.84455463 386.203125 148.328125 C391.05440953 154.03107948 394.04999213 161.06530808 394.12207031 168.5612793 C394.13167786 169.37279953 394.1412854 170.18431976 394.15118408 171.02043152 C394.1575589 172.32516167 394.1575589 172.32516167 394.1640625 173.65625 C394.16976257 174.56147903 394.17546265 175.46670807 394.18133545 176.39936829 C394.19077323 178.31498043 394.19731458 180.23060872 394.20117188 182.14624023 C394.21084482 185.05416826 394.24186625 187.96137933 394.2734375 190.86914062 C394.27997151 192.73567291 394.28522042 194.60221023 394.2890625 196.46875 C394.3014093 197.32844894 394.3137561 198.18814789 394.32647705 199.07389832 C394.29257247 208.4200144 391.68691141 216.71077057 384.9609375 223.39453125 C377.44578824 228.98748887 370.14751735 231.67081091 360.71484375 231.58984375 C360.05886703 231.58701385 359.40289032 231.58418396 358.72703552 231.58126831 C356.65897341 231.57019109 354.59136577 231.54511188 352.5234375 231.51953125 C351.11003235 231.50948527 349.69662033 231.50036227 348.28320312 231.4921875 C344.84230356 231.47029309 341.40166498 231.43585176 337.9609375 231.39453125 C337.77917969 232.01199219 337.59742188 232.62945312 337.41015625 233.265625 C335.70373303 239.01495862 333.89439024 244.71758491 331.9609375 250.39453125 C332.50508301 250.90725586 333.04922852 251.41998047 333.60986328 251.94824219 C336.11834928 254.33031713 338.60190014 256.73698185 341.0859375 259.14453125 C341.941875 259.95019531 342.7978125 260.75585938 343.6796875 261.5859375 C350.38809326 268.1395339 356.65391696 275.85092241 357.6875 285.53125 C357.28333485 299.66148539 352.78237507 306.66265086 342.9609375 316.39453125 C347.9534369 328.1741405 361.99075686 338.5465317 370.9609375 347.45703125 C372.28278943 348.77385033 373.60440526 350.09090646 374.92578125 351.40820312 C377.32667902 353.80101905 379.72884255 356.19254602 382.1328125 358.58227539 C384.07837595 360.51692192 386.02156304 362.45370316 387.9609375 364.39453125 C389.1778125 363.89953125 390.3946875 363.40453125 391.6484375 362.89453125 C400.37753864 360.02600588 409.38931563 360.26307444 417.74609375 364.13671875 C426.22517082 368.95199709 431.34410088 376.03386458 433.9609375 385.39453125 C435.06279392 396.20809887 433.65271801 404.97303084 426.9609375 413.64453125 C420.9255495 419.92235555 413.75849865 423.53460124 405.01708984 424.10546875 C395.61402279 424.28410693 387.96845258 421.7295307 380.80859375 415.53125 C373.24677622 407.55377231 371.51576358 400.07732147 371.52734375 389.23828125 C372.04335519 384.66390955 373.34815999 380.68544101 374.9609375 376.39453125 C364.07784977 364.47495897 352.71421302 353.07163499 341.24707031 341.71777344 C340.6424295 341.11736237 340.0377887 340.51695129 339.41482544 339.89834595 C338.26538166 338.75712032 337.11383459 337.61800821 335.95993042 336.48129272 C332.07344759 332.61955143 332.07344759 332.61955143 330.9609375 330.39453125 C328.07416085 331.70328683 326.04028531 333.1323493 323.7734375 335.33203125 C317.30156759 340.94007107 310.26981114 341.94425367 301.875 341.66796875 C286.32895273 340.20922437 276.2267385 326.92659221 265.9609375 316.39453125 C265.42726563 316.57628906 264.89359375 316.75804687 264.34375 316.9453125 C258.58501967 318.88813675 252.79099828 320.67837557 246.9609375 322.39453125 C246.97664795 323.28648193 246.9923584 324.17843262 247.00854492 325.09741211 C247.06005742 328.44659384 247.09747197 331.79534691 247.12573242 335.14477539 C247.14070258 336.5869008 247.16108618 338.02898161 247.18725586 339.47094727 C247.38031322 350.39193715 246.92209312 359.69807238 239.828125 368.5390625 C231.99277725 376.32523442 222.577715 378.70096098 211.9140625 378.73046875 C211.06221375 378.73712555 210.21036499 378.74378235 209.33270264 378.75064087 C207.53757876 378.7607203 205.74241777 378.76545936 203.94726562 378.76513672 C201.23242834 378.76949674 198.51923649 378.80582905 195.8046875 378.84375 C184.3885889 378.91768753 173.89973395 378.2627316 164.5234375 370.9375 C156.44416651 362.9592199 154.71398855 353.89688359 154.3359375 342.95703125 C154.27792969 341.57354492 154.27792969 341.57354492 154.21875 340.16210938 C154.12525074 337.90643982 154.0394984 335.65076209 153.9609375 333.39453125 C153.61836914 334.3074292 153.27580078 335.22032715 152.92285156 336.16088867 C151.64241264 339.56564577 150.34986159 342.96569851 149.05371094 346.36450195 C148.49573719 347.83265826 147.9410009 349.30204941 147.38964844 350.77270508 C146.59389563 352.89351559 145.78638098 355.00952675 144.9765625 357.125 C144.73472229 357.77728073 144.49288208 358.42956146 144.24371338 359.10160828 C142.6911237 363.1150715 140.92462052 366.26293521 137.9609375 369.39453125 C134.2711433 370.6506314 132.69706921 370.73805938 129.1484375 369.08203125 C126.9609375 367.39453125 126.9609375 367.39453125 125.9609375 365.39453125 C125.42349517 359.26151008 126.989055 354.81695929 129.2421875 349.25 C129.57512817 348.39900223 129.90806885 347.54800446 130.25109863 346.67121887 C131.30997078 343.97030401 132.38467517 341.27605792 133.4609375 338.58203125 C134.53421015 335.86907651 135.60413788 333.15485501 136.67077637 330.43928528 C137.33398386 328.75365297 138.00158362 327.06974098 138.6739502 325.38774109 C140.34871356 321.51154218 140.34871356 321.51154218 140.9609375 317.39453125 C138.65810873 316.58391878 138.65810873 316.58391878 135.9609375 316.39453125 C133.86111514 317.71565709 133.86111514 317.71565709 132.0703125 319.8046875 C131.36003906 320.54783203 130.64976562 321.29097656 129.91796875 322.05664062 C129.18964844 322.84876953 128.46132812 323.64089844 127.7109375 324.45703125 C119.88726443 332.8536858 112.17170631 340.68402314 100.17578125 341.609375 C88.93321271 341.9647027 83.00590981 339.62593078 74.79638672 332.07543945 C70.25686468 327.78333582 65.79697078 323.41657377 61.37988281 318.9987793 C59.80810291 317.42923627 58.2284103 315.86793132 56.6484375 314.30664062 C55.64534749 313.30647662 54.64272461 312.30584383 53.640625 311.3046875 C52.74069824 310.40886963 51.84077148 309.51305176 50.91357422 308.59008789 C48.9609375 306.39453125 48.9609375 306.39453125 48.9609375 304.39453125 C38.58249263 311.68571721 28.25554022 319.0427805 17.984375 326.484375 C17.31116211 326.97019043 16.63794922 327.45600586 15.94433594 327.95654297 C14.60888507 328.92476129 13.27887269 329.90052045 11.95410156 330.88330078 C7.17626284 334.39453125 7.17626284 334.39453125 4.9609375 334.39453125 C5.28320312 335.09191406 5.60546875 335.78929687 5.9375 336.5078125 C8.65015215 344.15914816 7.65272119 352.83461457 4.28515625 360.11328125 C-0.34102378 368.08286572 -7.02857127 374.13270838 -15.9765625 376.70703125 C-24.91994079 378.52011379 -33.49044812 377.61630734 -41.4609375 372.98828125 C-48.09153202 368.27121401 -52.4651015 362.11641424 -55.0390625 354.39453125 C-55.81000146 343.26015048 -55.16433381 334.70376972 -48.9140625 325.14453125 C-42.11625958 318.64228498 -34.44127257 314.52636569 -25.00390625 314.33203125 C-18.07713043 314.591279 -13.12528249 315.80379903 -7.2578125 319.53125 C-5.05665693 320.62434771 -5.05665693 320.62434771 -2.71484375 319.87890625 C0.88056906 317.88437068 4.03308635 315.47840473 7.2734375 312.95703125 C12.81966061 308.71395242 18.43288857 304.62844889 24.2109375 300.70703125 C25.53281671 299.79856202 26.85443604 298.8897145 28.17578125 297.98046875 C30.60774038 296.30961931 33.05887566 294.67484442 35.52734375 293.05859375 C41.51955982 288.94840945 44.92251036 286.2737753 46.28393555 279.00146484 C48.47408396 270.56785331 55.78308352 264.18483327 61.8359375 258.33203125 C62.6196875 257.56181641 63.4034375 256.79160156 64.2109375 255.99804688 C66.1208486 254.12307317 68.03743458 252.25554115 69.9609375 250.39453125 C69.77917969 249.86085938 69.59742187 249.3271875 69.41015625 248.77734375 C67.467332 243.01861342 65.67709318 237.22459203 63.9609375 231.39453125 C63.10975342 231.41547852 62.25856934 231.43642578 61.3815918 231.45800781 C58.17037084 231.52689287 54.95953107 231.57667176 51.74780273 231.61425781 C50.3677925 231.63415795 48.98786413 231.66128865 47.6081543 231.69628906 C36.61200236 231.96789761 26.45846541 230.91799056 17.5234375 223.9375 C10.49480676 216.99672714 7.72827537 208.96475125 7.58984375 199.22070312 C7.58855469 198.39119141 7.58726563 197.56167969 7.5859375 196.70703125 C7.56144531 195.86591797 7.53695312 195.02480469 7.51171875 194.15820312 C7.48265938 188.05089165 7.48265938 188.05089165 9.796875 184.875 C11.9609375 183.39453125 11.9609375 183.39453125 14.9609375 182.39453125 C15.04197154 179.47730577 15.10144831 176.56233609 15.1484375 173.64453125 C15.17357422 172.81953125 15.19871094 171.99453125 15.22460938 171.14453125 C15.28047836 166.52602881 15.25836111 163.90278757 11.9609375 160.39453125 C11.26854448 156.79408754 11.27582745 154.51717264 13.21484375 151.33984375 C18.05234705 145.3911738 24.33546406 140.86481011 31.9609375 139.39453125 C34.42331517 139.31210931 36.88782518 139.28709826 39.3515625 139.296875 C40.40848297 139.29899742 40.40848297 139.29899742 41.48675537 139.30116272 C43.72819334 139.30674192 45.96952993 139.31929052 48.2109375 139.33203125 C49.73437355 139.33704894 51.25781118 139.34161138 52.78125 139.34570312 C56.50784522 139.35670451 60.23438146 139.37395479 63.9609375 139.39453125 C64.09991455 138.46334473 64.2388916 137.5321582 64.38208008 136.57275391 C65.16750395 132.26037605 67.09030252 128.84367781 69.09765625 124.98046875 C70.23258539 122.48913735 70.23258539 122.48913735 69.21899414 120.44262695 C67.89871789 118.29323873 66.5225821 116.77314034 64.6953125 115.0390625 C64.05489014 114.42087646 63.41446777 113.80269043 62.75463867 113.16577148 C62.08021729 112.51938721 61.4057959 111.87300293 60.7109375 111.20703125 C45.2068625 96.01820639 45.2068625 96.01820639 44.8359375 84.51953125 C44.8771875 83.48828125 44.9184375 82.45703125 44.9609375 81.39453125 C44.16042969 81.03294922 44.16042969 81.03294922 43.34375 80.6640625 C40.32015719 79.0531319 37.60206864 77.09028037 34.8359375 75.08203125 C34.23555664 74.64979248 33.63517578 74.21755371 33.01660156 73.7722168 C30.99576762 72.31611819 28.97817381 70.85560928 26.9609375 69.39453125 C24.65777404 67.72885946 22.35431541 66.06359659 20.05078125 64.3984375 C18.49848941 63.27633005 16.94640397 62.15393701 15.39453125 61.03125 C9.9531848 57.09876912 4.48447641 53.21104683 -1.0390625 49.39453125 C-1.70292969 49.74386719 -2.36679687 50.09320313 -3.05078125 50.453125 C-3.93378906 50.90816406 -4.81679688 51.36320312 -5.7265625 51.83203125 C-7.03173828 52.51072266 -7.03173828 52.51072266 -8.36328125 53.203125 C-16.23134079 56.70642158 -25.05528974 56.30479071 -33.0078125 53.30859375 C-41.239437 49.60436273 -47.81193686 43.05414445 -51.12890625 34.625 C-53.44703833 26.39712347 -52.99360737 17.39805871 -49.36328125 9.640625 C-44.97805771 2.20256147 -38.97607771 -3.62646368 -30.6953125 -6.38671875 C-19.44170973 -9.09328144 -9.13704082 -7.19410685 0 0 Z " fill="#67A1DE" transform="translate(55.0390625,7.60546875)"/>
<path d="M0 0 C5.60436994 5.21087162 9.79301521 12.05324606 10.09375 19.828125 C10.09640072 21.16276033 10.09361506 22.49741538 10.0859375 23.83203125 C10.08980469 25.81009766 10.08980469 25.81009766 10.09375 27.828125 C9.9906406 30.59691579 9.80176317 32.78530239 8.9609375 35.39453125 C9.76273437 35.96558594 10.56453125 36.53664062 11.390625 37.125 C19.16557214 42.66791601 26.91745957 48.24195488 34.65380859 53.83862305 C36.07790096 54.86862395 37.502991 55.89724725 38.92919922 56.92431641 C40.2854791 57.90575325 41.63609478 58.89506482 42.98095703 59.89208984 C46.13832867 62.5003067 46.13832867 62.5003067 49.9609375 63.39453125 C51.4323301 61.95179191 51.4323301 61.95179191 52.96875 60.03125 C57.36845994 54.8633548 62.06527053 50.03166504 66.8359375 45.20703125 C67.68285156 44.33111328 68.52976562 43.45519531 69.40234375 42.55273438 C77.89469686 33.97584789 85.69820735 29.03655901 97.9609375 28.39453125 C110.53478494 29.12984397 118.65433368 36.50030649 127.0234375 45.20703125 C127.88904297 46.09068359 128.75464844 46.97433594 129.64648438 47.88476562 C131.76078519 50.04579132 133.86510297 52.21561744 135.9609375 54.39453125 C140.63775517 52.85426437 145.15492897 51.10858092 149.69140625 49.19921875 C151.9609375 48.39453125 151.9609375 48.39453125 154.9609375 48.39453125 C154.93999023 47.5130542 154.91904297 46.63157715 154.89746094 45.72338867 C154.82860461 42.40019935 154.77881288 39.07778609 154.74121094 35.75415039 C154.72130141 34.32564201 154.69416321 32.89721287 154.65917969 31.46899414 C154.37598102 19.59547369 155.38663721 9.11650699 163.9609375 0.1171875 C169.63460415 -4.76970115 175.79137348 -7.68299558 183.29541016 -7.7824707 C184.1437442 -7.79530594 184.99207825 -7.80814117 185.86611938 -7.82136536 C186.77654999 -7.82875229 187.68698059 -7.83613922 188.625 -7.84375 C189.57224945 -7.85182175 190.5194989 -7.85989349 191.49545288 -7.86820984 C193.5010191 -7.88203017 195.50660864 -7.89276148 197.51220703 -7.90063477 C199.55068923 -7.91213057 201.58914191 -7.93254412 203.62744141 -7.9621582 C206.58516737 -8.00511074 209.54199972 -8.02104396 212.5 -8.03125 C213.39828522 -8.04875809 214.29657043 -8.06626617 215.22207642 -8.08430481 C224.52176503 -8.05293328 232.38328665 -5.06374778 239.203125 1.328125 C245.10388541 8.26479668 247.09506082 15.66844052 247.05859375 24.56640625 C247.05647133 25.59003265 247.05647133 25.59003265 247.05430603 26.63433838 C247.04872834 28.80444809 247.03618004 30.97445295 247.0234375 33.14453125 C247.01841961 34.61979017 247.01385721 36.09505072 247.00976562 37.5703125 C246.99876625 41.17841923 246.98151703 44.786465 246.9609375 48.39453125 C247.89212402 48.5335083 248.82331055 48.67248535 249.78271484 48.81567383 C254.0950927 49.6010977 257.51179094 51.52389627 261.375 53.53125 C263.85530848 54.65752754 263.85530848 54.65752754 265.86962891 53.69799805 C268.29901644 52.18381406 270.03590837 50.47810584 272.0078125 48.40234375 C272.7709375 47.61472656 273.5340625 46.82710937 274.3203125 46.015625 C275.90268969 44.36343705 277.48088688 42.70723465 279.0546875 41.046875 C287.0765331 32.79621837 294.37179007 29.1451237 305.9609375 28.39453125 C320.21118388 29.02693863 329.58878373 39.46305643 338.8984375 49.01953125 C340.03102031 50.16363295 341.16447884 51.30686844 342.29882812 52.44921875 C343.38359931 53.54740044 344.46761183 54.64633216 345.55078125 55.74609375 C346.05077133 56.25347076 346.55076141 56.76084778 347.06590271 57.28359985 C349.57358602 59.86005593 351.88728607 62.45507914 353.9609375 65.39453125 C354.44747803 65.03327148 354.93401855 64.67201172 355.43530273 64.29980469 C364.32323229 57.70751584 373.22995855 51.14746823 382.2734375 44.76953125 C382.95913818 44.28581055 383.64483887 43.80208984 384.35131836 43.30371094 C388.18529306 40.61077189 392.05144346 37.97661569 395.9609375 35.39453125 C395.72310547 34.33105469 395.72310547 34.33105469 395.48046875 33.24609375 C393.82251832 24.14606506 394.58450867 15.60648197 398.9609375 7.39453125 C404.74681343 -0.95146677 411.61257909 -5.47004018 421.546875 -7.34765625 C430.33117036 -8.28578488 437.56213761 -6.37715854 444.9609375 -1.60546875 C447.8359375 0.89453125 447.8359375 0.89453125 449.9609375 3.39453125 C450.6621875 4.15765625 451.3634375 4.92078125 452.0859375 5.70703125 C457.65297096 13.68644588 458.39957845 22.93860968 456.9609375 32.39453125 C453.91277363 42.05785926 448.62536382 48.03145296 439.8359375 52.70703125 C431.74674915 56.4274404 423.44308352 56.52497547 415.0859375 53.51953125 C411.95671209 52.28791192 408.96066607 50.90985805 405.9609375 49.39453125 C396.01217969 56.09005829 386.12471196 62.82689096 376.62792969 70.15551758 C373.57113259 72.50162098 370.52957882 74.71162662 367.21875 76.6875 C361.25776966 80.28914596 357.53159715 82.85374267 355.6484375 89.83203125 C355.26365234 91.50265625 355.26365234 91.50265625 354.87109375 93.20703125 C351.7880441 104.004321 339.80999884 112.74390124 331.9609375 120.39453125 C333.4789137 125.07837674 335.24745112 129.58986105 337.15625 134.125 C337.9609375 136.39453125 337.9609375 136.39453125 337.9609375 139.39453125 C338.87794434 139.37358398 339.79495117 139.35263672 340.73974609 139.33105469 C344.18776785 139.26231179 347.63504685 139.21245973 351.08349609 139.17480469 C352.56733798 139.15486144 354.05110305 139.12769635 355.53466797 139.09277344 C367.42752233 138.82011191 377.1515402 139.84455463 386.203125 148.328125 C391.05440953 154.03107948 394.04999213 161.06530808 394.12207031 168.5612793 C394.13167786 169.37279953 394.1412854 170.18431976 394.15118408 171.02043152 C394.1575589 172.32516167 394.1575589 172.32516167 394.1640625 173.65625 C394.16976257 174.56147903 394.17546265 175.46670807 394.18133545 176.39936829 C394.19077323 178.31498043 394.19731458 180.23060872 394.20117188 182.14624023 C394.21084482 185.05416826 394.24186625 187.96137933 394.2734375 190.86914062 C394.27997151 192.73567291 394.28522042 194.60221023 394.2890625 196.46875 C394.3014093 197.32844894 394.3137561 198.18814789 394.32647705 199.07389832 C394.29257247 208.4200144 391.68691141 216.71077057 384.9609375 223.39453125 C377.44578824 228.98748887 370.14751735 231.67081091 360.71484375 231.58984375 C360.05886703 231.58701385 359.40289032 231.58418396 358.72703552 231.58126831 C356.65897341 231.57019109 354.59136577 231.54511188 352.5234375 231.51953125 C351.11003235 231.50948527 349.69662033 231.50036227 348.28320312 231.4921875 C344.84230356 231.47029309 341.40166498 231.43585176 337.9609375 231.39453125 C337.77917969 232.01199219 337.59742188 232.62945312 337.41015625 233.265625 C335.70373303 239.01495862 333.89439024 244.71758491 331.9609375 250.39453125 C332.50508301 250.90725586 333.04922852 251.41998047 333.60986328 251.94824219 C336.11834928 254.33031713 338.60190014 256.73698185 341.0859375 259.14453125 C341.941875 259.95019531 342.7978125 260.75585938 343.6796875 261.5859375 C350.38809326 268.1395339 356.65391696 275.85092241 357.6875 285.53125 C357.28333485 299.66148539 352.78237507 306.66265086 342.9609375 316.39453125 C347.9534369 328.1741405 361.99075686 338.5465317 370.9609375 347.45703125 C372.28278943 348.77385033 373.60440526 350.09090646 374.92578125 351.40820312 C377.32667902 353.80101905 379.72884255 356.19254602 382.1328125 358.58227539 C384.07837595 360.51692192 386.02156304 362.45370316 387.9609375 364.39453125 C389.1778125 363.89953125 390.3946875 363.40453125 391.6484375 362.89453125 C400.37753864 360.02600588 409.38931563 360.26307444 417.74609375 364.13671875 C426.22517082 368.95199709 431.34410088 376.03386458 433.9609375 385.39453125 C435.06279392 396.20809887 433.65271801 404.97303084 426.9609375 413.64453125 C420.9255495 419.92235555 413.75849865 423.53460124 405.01708984 424.10546875 C395.61402279 424.28410693 387.96845258 421.7295307 380.80859375 415.53125 C373.24677622 407.55377231 371.51576358 400.07732147 371.52734375 389.23828125 C372.04335519 384.66390955 373.34815999 380.68544101 374.9609375 376.39453125 C364.07784977 364.47495897 352.71421302 353.07163499 341.24707031 341.71777344 C340.6424295 341.11736237 340.0377887 340.51695129 339.41482544 339.89834595 C338.26538166 338.75712032 337.11383459 337.61800821 335.95993042 336.48129272 C332.07344759 332.61955143 332.07344759 332.61955143 330.9609375 330.39453125 C328.07416085 331.70328683 326.04028531 333.1323493 323.7734375 335.33203125 C317.30156759 340.94007107 310.26981114 341.94425367 301.875 341.66796875 C286.32895273 340.20922437 276.2267385 326.92659221 265.9609375 316.39453125 C265.42726563 316.57628906 264.89359375 316.75804687 264.34375 316.9453125 C258.58501967 318.88813675 252.79099828 320.67837557 246.9609375 322.39453125 C246.97664795 323.28648193 246.9923584 324.17843262 247.00854492 325.09741211 C247.06005742 328.44659384 247.09747197 331.79534691 247.12573242 335.14477539 C247.14070258 336.5869008 247.16108618 338.02898161 247.18725586 339.47094727 C247.38031322 350.39193715 246.92209312 359.69807238 239.828125 368.5390625 C231.99277725 376.32523442 222.577715 378.70096098 211.9140625 378.73046875 C211.06221375 378.73712555 210.21036499 378.74378235 209.33270264 378.75064087 C207.53757876 378.7607203 205.74241777 378.76545936 203.94726562 378.76513672 C201.23242834 378.76949674 198.51923649 378.80582905 195.8046875 378.84375 C184.3885889 378.91768753 173.89973395 378.2627316 164.5234375 370.9375 C156.44416651 362.9592199 154.71398855 353.89688359 154.3359375 342.95703125 C154.27792969 341.57354492 154.27792969 341.57354492 154.21875 340.16210938 C154.12525074 337.90643982 154.0394984 335.65076209 153.9609375 333.39453125 C153.61836914 334.3074292 153.27580078 335.22032715 152.92285156 336.16088867 C151.64241264 339.56564577 150.34986159 342.96569851 149.05371094 346.36450195 C148.49573719 347.83265826 147.9410009 349.30204941 147.38964844 350.77270508 C146.59389563 352.89351559 145.78638098 355.00952675 144.9765625 357.125 C144.73472229 357.77728073 144.49288208 358.42956146 144.24371338 359.10160828 C142.6911237 363.1150715 140.92462052 366.26293521 137.9609375 369.39453125 C134.2711433 370.6506314 132.69706921 370.73805938 129.1484375 369.08203125 C126.9609375 367.39453125 126.9609375 367.39453125 125.9609375 365.39453125 C125.42349517 359.26151008 126.989055 354.81695929 129.2421875 349.25 C129.57512817 348.39900223 129.90806885 347.54800446 130.25109863 346.67121887 C131.30997078 343.97030401 132.38467517 341.27605792 133.4609375 338.58203125 C134.53421015 335.86907651 135.60413788 333.15485501 136.67077637 330.43928528 C137.33398386 328.75365297 138.00158362 327.06974098 138.6739502 325.38774109 C140.34871356 321.51154218 140.34871356 321.51154218 140.9609375 317.39453125 C138.65810873 316.58391878 138.65810873 316.58391878 135.9609375 316.39453125 C133.86111514 317.71565709 133.86111514 317.71565709 132.0703125 319.8046875 C131.36003906 320.54783203 130.64976562 321.29097656 129.91796875 322.05664062 C129.18964844 322.84876953 128.46132812 323.64089844 127.7109375 324.45703125 C119.88726443 332.8536858 112.17170631 340.68402314 100.17578125 341.609375 C88.93321271 341.9647027 83.00590981 339.62593078 74.79638672 332.07543945 C70.25686468 327.78333582 65.79697078 323.41657377 61.37988281 318.9987793 C59.80810291 317.42923627 58.2284103 315.86793132 56.6484375 314.30664062 C55.64534749 313.30647662 54.64272461 312.30584383 53.640625 311.3046875 C52.74069824 310.40886963 51.84077148 309.51305176 50.91357422 308.59008789 C48.9609375 306.39453125 48.9609375 306.39453125 48.9609375 304.39453125 C38.58249263 311.68571721 28.25554022 319.0427805 17.984375 326.484375 C17.31116211 326.97019043 16.63794922 327.45600586 15.94433594 327.95654297 C14.60888507 328.92476129 13.27887269 329.90052045 11.95410156 330.88330078 C7.17626284 334.39453125 7.17626284 334.39453125 4.9609375 334.39453125 C5.28320312 335.09191406 5.60546875 335.78929687 5.9375 336.5078125 C8.65015215 344.15914816 7.65272119 352.83461457 4.28515625 360.11328125 C-0.34102378 368.08286572 -7.02857127 374.13270838 -15.9765625 376.70703125 C-24.91994079 378.52011379 -33.49044812 377.61630734 -41.4609375 372.98828125 C-48.09153202 368.27121401 -52.4651015 362.11641424 -55.0390625 354.39453125 C-55.81000146 343.26015048 -55.16433381 334.70376972 -48.9140625 325.14453125 C-42.11625958 318.64228498 -34.44127257 314.52636569 -25.00390625 314.33203125 C-18.07713043 314.591279 -13.12528249 315.80379903 -7.2578125 319.53125 C-5.05665693 320.62434771 -5.05665693 320.62434771 -2.71484375 319.87890625 C0.88056906 317.88437068 4.03308635 315.47840473 7.2734375 312.95703125 C12.81966061 308.71395242 18.43288857 304.62844889 24.2109375 300.70703125 C25.53281671 299.79856202 26.85443604 298.8897145 28.17578125 297.98046875 C30.60774038 296.30961931 33.05887566 294.67484442 35.52734375 293.05859375 C41.51955982 288.94840945 44.92251036 286.2737753 46.28393555 279.00146484 C48.47408396 270.56785331 55.78308352 264.18483327 61.8359375 258.33203125 C62.6196875 257.56181641 63.4034375 256.79160156 64.2109375 255.99804688 C66.1208486 254.12307317 68.03743458 252.25554115 69.9609375 250.39453125 C69.77917969 249.86085938 69.59742187 249.3271875 69.41015625 248.77734375 C67.467332 243.01861342 65.67709318 237.22459203 63.9609375 231.39453125 C63.10975342 231.41547852 62.25856934 231.43642578 61.3815918 231.45800781 C58.17037084 231.52689287 54.95953107 231.57667176 51.74780273 231.61425781 C50.3677925 231.63415795 48.98786413 231.66128865 47.6081543 231.69628906 C36.61200236 231.96789761 26.45846541 230.91799056 17.5234375 223.9375 C10.49480676 216.99672714 7.72827537 208.96475125 7.58984375 199.22070312 C7.58855469 198.39119141 7.58726563 197.56167969 7.5859375 196.70703125 C7.56144531 195.86591797 7.53695312 195.02480469 7.51171875 194.15820312 C7.48254954 188.02780712 7.48254954 188.02780712 9.8671875 184.87109375 C13.26655621 182.47377776 13.26655621 182.47377776 15.9609375 182.39453125 C21.62760417 184.72786458 21.62760417 184.72786458 22.9609375 187.39453125 C23.16041205 190.68955523 23.30601661 193.97761665 23.390625 197.27734375 C23.66771885 203.48886413 25.08678386 207.50289484 29.578125 212.03613281 C33.11952201 214.89639697 36.49653025 215.04814043 40.921875 214.92578125 C41.6712735 214.92904419 42.420672 214.93230713 43.19277954 214.93566895 C46.37355953 214.9487424 49.55290787 214.90425932 52.73339844 214.86474609 C68.93776132 214.72155094 68.93776132 214.72155094 74.62915039 218.94604492 C76.72365689 221.22408471 77.81842239 223.65413983 78.88671875 226.53515625 C79.75576104 228.84838883 80.7000441 231.02397936 81.75390625 233.25390625 C82.07544678 233.94508545 82.3969873 234.63626465 82.72827148 235.34838867 C83.36864061 236.7225174 84.01750291 238.09272988 84.67602539 239.45825195 C86.89864753 244.3579718 87.50338405 248.00803697 86.9609375 253.39453125 C85.08781097 257.8467124 82.87436548 260.81924541 79.3984375 264.14453125 C78.51929688 265.00046875 77.64015625 265.85640625 76.734375 266.73828125 C74.88541667 268.50911458 73.03645833 270.27994792 71.1875 272.05078125 C70.30835937 272.90671875 69.42921875 273.76265625 68.5234375 274.64453125 C67.72035156 275.4128125 66.91726562 276.18109375 66.08984375 276.97265625 C62.83691826 280.67323204 61.11137317 283.99046497 60.5859375 288.89453125 C61.31097302 295.66152947 64.93154886 299.80427164 69.65234375 304.4140625 C70.19825668 304.95810226 70.74416962 305.50214203 71.30662537 306.06266785 C72.45375725 307.20311421 73.60446302 308.33997593 74.75854492 309.47338867 C76.5285824 311.21208505 78.28755169 312.96140039 80.04492188 314.71289062 C81.16343875 315.82224384 82.28255837 316.93098973 83.40234375 318.0390625 C84.19300987 318.82335381 84.19300987 318.82335381 84.99964905 319.62348938 C88.9912737 323.53695852 91.01421241 324.61241859 96.5859375 324.89453125 C102.20014922 324.79487069 104.74248775 323.91011275 108.625 319.9375 C109.39585937 319.09832031 110.16671875 318.25914062 110.9609375 317.39453125 C112.83513636 315.47931099 114.72448256 313.58003705 116.61791992 311.68383789 C117.95215456 310.34382804 119.27814674 308.99555084 120.5949707 307.63842773 C129.04916496 299.01275327 129.04916496 299.01275327 135.2734375 298.76953125 C142.49426158 298.96410435 148.76289133 302.47770952 155.14746094 305.55322266 C157.43376794 306.61388689 159.78536265 307.45872098 162.1484375 308.33203125 C166.90377542 310.58981515 169.15185061 313.4525825 170.9609375 318.39453125 C171.63641485 324.12473774 171.62213672 329.81851184 171.5859375 335.58203125 C171.58207797 337.90232992 171.58559534 340.22185603 171.60653687 342.54206848 C171.61854274 343.97780277 171.61609441 345.41375574 171.59683228 346.84941101 C171.62921186 352.64656052 173.20975789 355.49582382 177.05908203 359.66943359 C181.17263592 362.11486282 184.68327577 362.00594597 189.390625 361.99609375 C190.29918243 362.004664 191.20773987 362.01323425 192.14382935 362.02206421 C194.06183548 362.03352611 195.97992853 362.03456938 197.89794922 362.02587891 C200.82020793 362.01956523 203.73839915 362.06646426 206.66015625 362.1171875 C208.52864075 362.12173486 210.39713608 362.12313983 212.265625 362.12109375 C213.56595169 362.14872299 213.56595169 362.14872299 214.89254761 362.1769104 C220.55048162 362.09139257 223.53349719 360.85006217 227.67288208 356.97445679 C230.5806676 353.40777439 230.09521131 349.29266854 230.1015625 344.9453125 C230.11990049 343.44204226 230.13947171 341.93878666 230.16015625 340.43554688 C230.18902168 338.07665436 230.21093507 335.71869926 230.21142578 333.35961914 C230.23535758 317.09796143 230.23535758 317.09796143 234.37573242 311.81811523 C237.25951373 309.22835259 240.38667256 307.81212385 243.9609375 306.39453125 C245.35666687 305.75652081 246.75119815 305.115883 248.14453125 304.47265625 C249.56114467 303.86013711 250.97912277 303.25076467 252.3984375 302.64453125 C253.09775391 302.32871094 253.79707031 302.01289063 254.51757812 301.6875 C261.05049326 298.91596025 266.67549461 298.08410889 273.37890625 300.7578125 C278.65697911 304.21208055 282.91325944 309.07598541 287.2734375 313.58203125 C289.05909968 315.41090518 290.8467572 317.23783375 292.63671875 319.0625 C293.41958252 319.86969482 294.20244629 320.67688965 295.0090332 321.50854492 C298.11361474 324.50828131 300.34441989 324.67977086 304.5859375 324.89453125 C305.58882813 324.96671875 306.59171875 325.03890625 307.625 325.11328125 C312.68062752 324.02401256 315.34405912 320.95623284 318.9609375 317.39453125 C319.77868652 316.61239258 320.59643555 315.83025391 321.43896484 315.02441406 C324.09648928 312.46391589 326.7188208 309.87127575 329.3359375 307.26953125 C330.23699219 306.38910156 331.13804687 305.50867188 332.06640625 304.6015625 C332.92621094 303.74691406 333.78601563 302.89226562 334.671875 302.01171875 C335.83662354 300.86098877 335.83662354 300.86098877 337.02490234 299.68701172 C339.87158991 296.31621774 340.82539826 293.42075695 341.3984375 289.08203125 C340.30537195 279.8690502 332.65507276 273.80012234 326.2734375 267.70703125 C324.5542486 266.06453479 322.84171232 264.41503971 321.13671875 262.7578125 C320.38302002 262.03891846 319.62932129 261.32002441 318.8527832 260.5793457 C315.44313472 256.64168351 314.51691321 252.79054895 314.65820312 247.59814453 C315.23612811 243.39140994 316.97983942 239.67789277 318.7109375 235.83203125 C319.05898438 235.02056641 319.40703125 234.20910156 319.765625 233.37304688 C320.78903658 231.02488585 321.86118288 228.70779062 322.9609375 226.39453125 C323.26193359 225.73211426 323.56292969 225.06969727 323.87304688 224.38720703 C326.20555385 219.72094973 329.23653184 217.35527261 333.9609375 215.39453125 C337.68969727 214.89624023 337.68969727 214.89624023 341.65234375 214.890625 C342.71484596 214.87649315 342.71484596 214.87649315 343.79881287 214.86207581 C346.0406551 214.83364214 348.28143045 214.83033953 350.5234375 214.83203125 C352.76885796 214.82840921 355.01351203 214.81874364 357.2587738 214.79127502 C359.29291551 214.76693442 361.32728525 214.76455671 363.36157227 214.76342773 C367.9482662 214.29334061 371.23008305 212.82696252 374.7734375 209.89453125 C376.87910536 207.23474027 377.09233669 204.64489412 377.13793945 201.38549805 C377.15077469 200.58423996 377.16360992 199.78298187 377.17683411 198.95744324 C377.18422104 198.09492447 377.19160797 197.2324057 377.19921875 196.34375 C377.2072905 195.45218704 377.21536224 194.56062408 377.22367859 193.64204407 C377.23750656 191.75495339 377.24823447 189.86783783 377.25610352 187.98071289 C377.27331095 185.10319325 377.31720738 182.22682444 377.36132812 179.34960938 C377.37145605 177.51433135 377.37997184 175.67904357 377.38671875 173.84375 C377.41298088 172.55908089 377.41298088 172.55908089 377.43977356 171.24845886 C377.4202955 165.85082436 376.78643011 162.5152163 372.9609375 158.39453125 C368.0176169 155.5779795 363.66890672 154.99251358 358.0859375 155.09375 C356.59114139 155.08611104 355.09634943 155.07762169 353.6015625 155.06835938 C351.27766333 155.07056934 348.954602 155.08210626 346.63085938 155.10961914 C331.95676592 155.24451412 331.95676592 155.24451412 327.66796875 151.953125 C324.24676692 148.13699477 322.42675342 143.51657579 320.6484375 138.76953125 C319.98643126 137.08954637 319.32369659 135.4098483 318.66015625 133.73046875 C318.38002686 132.9936084 318.09989746 132.25674805 317.8112793 131.49755859 C316.9830957 129.36289249 316.9830957 129.36289249 315.88012695 127.26708984 C314.75390932 124.97277663 314.55837522 123.19415157 314.4609375 120.64453125 C314.38359375 119.44570312 314.38359375 119.44570312 314.3046875 118.22265625 C316.42450296 109.08726105 326.204564 102.04541599 332.6796875 95.84179688 C333.45828125 95.08189453 334.236875 94.32199219 335.0390625 93.5390625 C335.74450195 92.86206299 336.44994141 92.18506348 337.17675781 91.48754883 C339.94942149 88.23494268 340.84395484 85.28025709 341.3984375 81.08203125 C340.27274582 71.59405855 332.03526778 64.98209581 325.5859375 58.58203125 C324.66554688 57.64166016 323.74515625 56.70128906 322.796875 55.73242188 C316.77132917 49.71118001 312.58877902 46.05565147 304.0234375 44.83203125 C294.46671525 45.26394131 286.49431409 56.7608087 280.40820312 63.11328125 C279.26834961 64.28117187 279.26834961 64.28117187 278.10546875 65.47265625 C277.42846924 66.1780957 276.75146973 66.88353516 276.05395508 67.61035156 C273.17505365 70.064453 270.45131699 71.29534217 266.671875 71.546875 C260.71653966 70.99914349 256.0539618 69.36385204 250.703125 66.71875 C248.03743366 65.4314717 245.36616104 64.40514663 242.5859375 63.39453125 C237.65159043 61.44428931 234.31415457 59.05474488 231.85302734 54.21655273 C230.73446046 50.67809773 230.6822639 47.35111693 230.6875 43.6796875 C230.66721374 42.17382066 230.64636301 40.66796133 230.625 39.16210938 C230.6024151 36.80763363 230.58592862 34.45345604 230.58007812 32.09887695 C230.57051785 29.8127772 230.53670928 27.52799059 230.5 25.2421875 C230.50756821 24.19660423 230.50756821 24.19660423 230.51528931 23.12989807 C230.41478179 18.09731047 229.25158457 15.18512335 225.9609375 11.39453125 C221.16231965 8.12150805 216.91650078 7.93978462 211.30859375 7.9609375 C210.49023544 7.95569565 209.67187714 7.9504538 208.82872009 7.9450531 C207.10498179 7.93865508 205.3811997 7.93994104 203.6574707 7.94848633 C201.03452037 7.9569953 198.41375119 7.92820804 195.79101562 7.89648438 C194.10937565 7.89487197 192.42773185 7.89545065 190.74609375 7.8984375 C189.96984146 7.88720352 189.19358917 7.87596954 188.39381409 7.86439514 C182.8106544 7.93508726 179.50592995 9.09052857 174.9609375 12.39453125 C171.63705814 16.33675742 171.53322892 20.14411103 171.5546875 25.109375 C171.53843323 26.20941612 171.53843323 26.20941612 171.52185059 27.3316803 C171.48772157 29.66522094 171.47202652 31.99827439 171.4609375 34.33203125 C171.44630704 37.40410988 171.41251691 40.4751126 171.3671875 43.546875 C171.37020874 44.24393051 171.37322998 44.94098602 171.37634277 45.65916443 C171.28235099 51.83271143 169.62551946 55.73237227 165.27734375 60.07421875 C161.79830224 62.76164137 158.03491278 64.1368439 153.8984375 65.51953125 C148.39551452 67.39374141 148.39551452 67.39374141 143.2421875 70.046875 C140.77260789 71.50578761 139.36323902 71.82696922 136.5234375 71.83203125 C135.80285156 71.85136719 135.08226562 71.87070313 134.33984375 71.890625 C125.8704559 70.12443082 119.68343197 61.1558589 114.03710938 55.21679688 C108.50588987 49.53548841 104.51961989 45.96436655 96.4609375 44.95703125 C87.69094953 46.05327975 82.1223712 52.76542992 76.19824219 58.76611328 C74.71086995 60.26959953 73.20809325 61.75633774 71.703125 63.2421875 C70.74122391 64.20607061 69.78025364 65.1708837 68.8203125 66.13671875 C67.95889648 67.00151855 67.09748047 67.86631836 66.20996094 68.75732422 C62.9495803 72.58044966 61.12282994 75.88353513 60.5859375 80.89453125 C61.24919068 87.08489425 64.12918793 90.94105291 68.5234375 95.1796875 C69.84214844 96.47036133 69.84214844 96.47036133 71.1875 97.78710938 C72.56035156 99.1087207 72.56035156 99.1087207 73.9609375 100.45703125 C75.7780461 102.21399612 77.59072362 103.97555802 79.3984375 105.7421875 C80.20152344 106.51570557 81.00460938 107.28922363 81.83203125 108.08618164 C86.03056913 112.63861004 87.68031115 116.26197728 87.515625 122.3828125 C86.43761508 128.23595089 83.51214358 133.42272572 80.81542969 138.67480469 C79.69571491 140.92831066 78.76879636 143.24602932 77.8359375 145.58203125 C75.92319709 149.95989832 73.22429376 152.26285312 68.9609375 154.39453125 C66.49124171 154.50275157 64.0447061 154.55585171 61.57421875 154.5703125 C60.06313733 154.5935252 58.5520696 154.61764311 57.04101562 154.64257812 C54.6624251 154.67757539 52.28433326 154.70696946 49.90551758 154.72045898 C47.60696927 154.73603993 45.30987701 154.77632375 43.01171875 154.8203125 C42.31041336 154.81840408 41.60910797 154.81649567 40.8865509 154.81452942 C35.42051177 154.94832374 32.37823565 156.39841205 27.9609375 159.39453125 C27.1565625 160.30203125 26.3521875 161.20953125 25.5234375 162.14453125 C22.83402171 164.50596951 22.22631579 164.79029133 18.8359375 164.95703125 C14.9609375 164.39453125 14.9609375 164.39453125 12.9609375 162.83203125 C11.49621273 159.26176463 11.31955682 157.24281534 11.9609375 153.39453125 C15.99516191 146.78393299 22.31372073 142.25684978 29.63110352 139.84375 C32.89212163 139.21498825 36.03167266 139.28370083 39.3515625 139.296875 C40.40848297 139.29899742 40.40848297 139.29899742 41.48675537 139.30116272 C43.72819334 139.30674192 45.96952993 139.31929052 48.2109375 139.33203125 C49.73437355 139.33704894 51.25781118 139.34161138 52.78125 139.34570312 C56.50784522 139.35670451 60.23438146 139.37395479 63.9609375 139.39453125 C64.09991455 138.46334473 64.2388916 137.5321582 64.38208008 136.57275391 C65.16750395 132.26037605 67.09030252 128.84367781 69.09765625 124.98046875 C70.23258539 122.48913735 70.23258539 122.48913735 69.21899414 120.44262695 C67.89871789 118.29323873 66.5225821 116.77314034 64.6953125 115.0390625 C64.05489014 114.42087646 63.41446777 113.80269043 62.75463867 113.16577148 C62.08021729 112.51938721 61.4057959 111.87300293 60.7109375 111.20703125 C45.2068625 96.01820639 45.2068625 96.01820639 44.8359375 84.51953125 C44.8771875 83.48828125 44.9184375 82.45703125 44.9609375 81.39453125 C44.16042969 81.03294922 44.16042969 81.03294922 43.34375 80.6640625 C40.32015719 79.0531319 37.60206864 77.09028037 34.8359375 75.08203125 C34.23555664 74.64979248 33.63517578 74.21755371 33.01660156 73.7722168 C30.99576762 72.31611819 28.97817381 70.85560928 26.9609375 69.39453125 C24.65777404 67.72885946 22.35431541 66.06359659 20.05078125 64.3984375 C18.49848941 63.27633005 16.94640397 62.15393701 15.39453125 61.03125 C9.9531848 57.09876912 4.48447641 53.21104683 -1.0390625 49.39453125 C-1.70292969 49.74386719 -2.36679687 50.09320313 -3.05078125 50.453125 C-3.93378906 50.90816406 -4.81679688 51.36320312 -5.7265625 51.83203125 C-7.03173828 52.51072266 -7.03173828 52.51072266 -8.36328125 53.203125 C-16.23134079 56.70642158 -25.05528974 56.30479071 -33.0078125 53.30859375 C-41.239437 49.60436273 -47.81193686 43.05414445 -51.12890625 34.625 C-53.44703833 26.39712347 -52.99360737 17.39805871 -49.36328125 9.640625 C-44.97805771 2.20256147 -38.97607771 -3.62646368 -30.6953125 -6.38671875 C-19.44170973 -9.09328144 -9.13704082 -7.19410685 0 0 Z " fill="#000101" transform="translate(55.0390625,7.60546875)"/>
<path d="M0 0 C-0.144375 1.04929688 -0.28875 2.09859375 -0.4375 3.1796875 C-6.04401717 48.07165801 -0.67757855 95.67652285 20.96875 135.91796875 C22 138 22 138 22 140 C22.66 140 23.32 140 24 140 C24.36351562 138.88109375 24.72703125 137.7621875 25.1015625 136.609375 C27.45005922 129.57765094 29.9632579 122.60554638 32.50585938 115.64208984 C33.08717085 114.04217696 33.66298847 112.44025767 34.23339844 110.83642578 C35.06676605 108.4952642 35.9181393 106.16135012 36.7734375 103.828125 C37.02257904 103.11658264 37.27172058 102.40504028 37.52841187 101.67193604 C39.22564695 97.11833183 41.16047595 94.16248673 45 91 C48.806902 89.91231371 50.91591635 89.50767774 54.55249023 91.15917969 C57.52431194 93.39434534 58.2855519 95.00826742 59.66015625 98.453125 C59.90016861 99.04611389 60.14018097 99.63910278 60.38746643 100.25006104 C61.28200867 102.49143813 62.14259145 104.74415137 63 107 C63.36841003 107.96301025 63.73682007 108.92602051 64.11639404 109.91821289 C67.02964751 117.55480297 69.89008791 125.21070947 72.73876953 132.87158203 C74.35038582 137.20413819 75.96635143 141.53507123 77.58340454 145.86560059 C78.47677678 148.26001507 79.36790526 150.65526802 80.25668335 153.0513916 C82.18762006 158.24094677 84.1430387 163.41016069 86.25439453 168.52929688 C86.75822411 169.7629599 86.75822411 169.7629599 87.27223206 171.02154541 C87.87929907 172.49483322 88.49957763 173.96279177 89.13682556 175.42327881 C91.01605999 179.99582362 91.18838865 183.20771383 90 188 C87.74582958 190.5881216 86.39479021 190.94242643 83 191.4375 C79.21390496 190.88536114 78.42434429 189.91112207 76 187 C74.515625 183.87109375 74.515625 183.87109375 73.25 180.4375 C72.82203125 179.30183594 72.3940625 178.16617188 71.953125 176.99609375 C71 174 71 174 71 171 C61.76 171.33 52.52 171.66 43 172 C56.32178272 187.77176575 70.1370412 202.94928461 87 215 C87.64420898 215.46680176 88.28841797 215.93360352 88.95214844 216.41455078 C110.59695784 231.95135868 134.49062837 243.3007754 160.09960938 250.46386719 C162.76344314 251.21538041 165.41312548 252.01170036 168.0625 252.8125 C168.83722656 253.04582031 169.61195313 253.27914062 170.41015625 253.51953125 C170.93480469 253.67808594 171.45945312 253.83664062 172 254 C172 254.33 172 254.66 172 255 C170.824375 255.20625 169.64875 255.4125 168.4375 255.625 C161.31656309 257.20242273 154.68739189 260.15822751 148 263 C146.71222656 263.51240234 146.71222656 263.51240234 145.3984375 264.03515625 C140.41521341 266.1908206 138.01098809 269.07381266 136 274 C135.63833569 276.78451398 135.4633401 279.17574462 135.49609375 281.9453125 C135.48667252 282.67821503 135.47725128 283.41111755 135.46754456 284.16622925 C135.43909654 286.48611011 135.43580936 288.8049596 135.4375 291.125 C135.43388286 293.4520294 135.42427883 295.7783187 135.39674377 298.10519409 C135.38005477 299.54644457 135.37700148 300.98793907 135.38975525 302.42922974 C135.3252159 308.59620792 133.53404611 311.36403063 129.40576172 315.76660156 C125.42903928 318.88707875 121.39850194 318.75618575 116.5078125 318.734375 C115.15065628 318.74866547 115.15065628 318.74866547 113.76608276 318.76324463 C111.85825381 318.77537218 109.95030443 318.77460728 108.04248047 318.76171875 C105.13944151 318.75005801 102.24224579 318.80226242 99.33984375 318.859375 C83.85828051 318.96980223 83.85828051 318.96980223 78.7421875 314.640625 C74.89009756 310.30486973 74.85701757 306.07833657 74.82421875 300.515625 C74.80101139 299.00779868 74.77689369 297.49998615 74.75195312 295.9921875 C74.71693372 293.62458175 74.68754256 291.25748093 74.67407227 288.88964844 C74.65849538 286.59768956 74.61822237 284.30719234 74.57421875 282.015625 C74.57708138 280.9683725 74.57708138 280.9683725 74.58000183 279.89996338 C74.44632847 274.46502893 72.9648674 271.3993682 70 267 C68.27427433 265.6070846 68.27427433 265.6070846 66.25 265 C63.16827746 263.83862357 60.17319368 262.63157603 57.20703125 261.203125 C46.57104586 255.89831668 46.57104586 255.89831668 35 256 C28.29504747 259.83743673 22.9614376 265.83100273 17.625 271.3125 C16.03606261 272.93575844 14.44502376 274.5569634 12.8515625 276.17578125 C12.15885254 276.88645752 11.46614258 277.59713379 10.75244141 278.3293457 C7.76692301 281.17552882 5.41834842 281.2952735 1.375 281.5 C0.37210937 281.5721875 -0.63078125 281.644375 -1.6640625 281.71875 C-6.7251771 280.62829908 -9.37872752 277.56679945 -13 274 C-13.84868652 273.18692383 -14.69737305 272.37384766 -15.57177734 271.53613281 C-18.36484223 268.84037856 -21.12252168 266.11214418 -23.875 263.375 C-24.83330511 262.43747115 -25.79163829 261.49997099 -26.75 260.5625 C-27.65492187 259.66273438 -28.55984375 258.76296875 -29.4921875 257.8359375 C-30.31058105 257.02688965 -31.12897461 256.2178418 -31.97216797 255.38427734 C-34.91190825 251.92779967 -35.87764458 249.10119875 -36.375 244.625 C-35.42380706 235.43013491 -28.19782157 229.92952645 -21.875 223.875 C-20.05295195 222.12961597 -18.23754781 220.37726295 -16.4296875 218.6171875 C-15.62772949 217.85003418 -14.82577148 217.08288086 -13.99951172 216.29248047 C-10.51738599 212.30015317 -9.55332397 208.49346928 -9.69726562 203.20361328 C-10.27519061 198.99687869 -12.01890192 195.28336152 -13.75 191.4375 C-14.09804687 190.62603516 -14.44609375 189.81457031 -14.8046875 188.97851562 C-15.82814004 186.63026064 -16.89845417 184.3125336 -18 182 C-18.46889648 180.98897217 -18.46889648 180.98897217 -18.94726562 179.95751953 C-21.24298471 175.43143567 -23.33421421 173.83402678 -28 172 C-30.73390146 171.76682992 -33.23813429 171.6746266 -35.9609375 171.734375 C-37.50000246 171.73160351 -39.03906568 171.7276608 -40.578125 171.72265625 C-42.97678731 171.73099175 -45.3741169 171.74998507 -47.77246094 171.79052734 C-62.88990019 172.00489301 -62.88990019 172.00489301 -67.9765625 167.765625 C-73.22907197 161.89887793 -73.33520068 156.28224997 -73.47851562 148.70703125 C-73.6037527 144.6444852 -73.6037527 144.6444852 -75.34765625 141.0703125 C-77.13107202 139.81722466 -77.13107202 139.81722466 -80 139 C-80 132.73 -80 126.46 -80 120 C-75.545 119.01 -75.545 119.01 -71 118 C-68.77831634 115.61881834 -68.77831634 115.61881834 -67 113 C-62.40277716 110.13314926 -58.48672748 109.58187738 -53.1875 109.62890625 C-51.68489349 109.61152952 -50.18228937 109.59394508 -48.6796875 109.57617188 C-46.3362188 109.56610036 -43.99290353 109.56250516 -41.64941406 109.56420898 C-39.3699881 109.56062498 -37.09171873 109.53324319 -34.8125 109.50390625 C-33.77162231 109.51618004 -33.77162231 109.51618004 -32.7097168 109.52870178 C-27.70106262 109.4526454 -24.87214929 108.11700894 -21 105 C-19.71656056 103.21930884 -19.71656056 103.21930884 -19.0625 101.1875 C-17.63749502 97.51280631 -16.01429305 94.03001133 -14.22509766 90.51708984 C-11.01475248 84.08193123 -8.23931955 78.270344 -10 71 C-14.34558784 63.37110123 -21.4521261 57.45112761 -27.71875 51.44726562 C-28.49734375 50.68736328 -29.2759375 49.92746094 -30.078125 49.14453125 C-30.78356445 48.46753174 -31.48900391 47.79053223 -32.21582031 47.09301758 C-34.98848399 43.84041143 -35.88301734 40.88572584 -36.4375 36.6875 C-35.35997876 27.60553525 -27.76322261 21.29221504 -21.55297852 15.16186523 C-20.05834064 13.68338561 -18.58051283 12.18943986 -17.10351562 10.69335938 C-16.14419012 9.73601526 -15.18393495 8.77960163 -14.22265625 7.82421875 C-13.36422119 6.96916748 -12.50578613 6.11411621 -11.62133789 5.2331543 C-8.00888584 2.15565603 -4.82080333 0 0 0 Z " fill="#348BD8" transform="translate(151,52)"/>
<path d="M0 0 C1.94140625 0.33984375 1.94140625 0.33984375 4.44140625 1.83984375 C6.52387938 5.3106323 6.40760329 8.42831642 5.94140625 12.33984375 C5.012763 15.55105925 3.75865328 18.58300558 2.44140625 21.65234375 C1.78077795 23.22994453 1.12433509 24.80930635 0.47265625 26.390625 C0.03276367 27.42183472 0.03276367 27.42183472 -0.41601562 28.47387695 C-1.22139464 30.48367904 -1.22139464 30.48367904 -1.05859375 33.33984375 C0.71001009 34.90658194 0.71001009 34.90658194 3.00390625 36.40234375 C12.94964069 43.83036869 18.35024104 54.53317031 20.31640625 66.58984375 C21.96225993 81.25557567 18.08054505 93.85472066 8.94140625 105.33984375 C0.79652708 114.16876551 -10.00118776 119.65982715 -22.0390625 120.67578125 C-36.82568159 120.99495456 -49.18920107 117.48273328 -60.34765625 107.23828125 C-69.55033977 97.48412606 -73.85105912 85.67394367 -74.05859375 72.33984375 C-73.48495315 59.67194713 -68.50278988 48.73401194 -60.05859375 39.33984375 C-49.20609667 29.43104207 -37.24041234 26.08699612 -22.87890625 26.171875 C-20.05859375 26.33984375 -20.05859375 26.33984375 -17.05859375 27.33984375 C-16.96320313 26.53933594 -16.8678125 25.73882812 -16.76953125 24.9140625 C-15.87895496 20.43671466 -14.3478896 16.3921718 -12.68359375 12.15234375 C-12.379375 11.34603516 -12.07515625 10.53972656 -11.76171875 9.70898438 C-11.46007812 8.93361328 -11.1584375 8.15824219 -10.84765625 7.359375 C-10.57646973 6.65917236 -10.3052832 5.95896973 -10.02587891 5.23754883 C-7.65100697 0.57831623 -5.27690122 -0.24295125 0 0 Z " fill="#000000" transform="translate(179.05859375,391.66015625)"/>
<path d="M0 0 C0.98592888 -0.00006042 0.98592888 -0.00006042 1.99177551 -0.00012207 C3.37946149 0.00522044 4.76714798 0.02274971 6.15454102 0.05175781 C8.24657997 0.09329431 10.33535587 0.09284711 12.42773438 0.0859375 C25.17485179 0.14554339 34.67041286 2.13171244 43.8046875 11.328125 C50.42283456 18.67800822 52.48666454 25.92653328 52.35546875 35.6875 C51.46750158 45.12532247 46.33561354 52.02955181 39.35546875 58.09375 C31.37961532 64.21221291 23.85050186 65.01965448 14.08203125 64.78125 C13.02113281 64.76771484 11.96023438 64.75417969 10.8671875 64.74023438 C8.27159438 64.70515879 5.67709058 64.65600844 3.08203125 64.59375 C3.10297852 65.5724707 3.12392578 66.55119141 3.14550781 67.55957031 C3.21801088 71.19727904 3.26386758 74.83492416 3.30175781 78.47314453 C3.32185005 80.04649604 3.34912924 81.61977308 3.38378906 83.19287109 C3.43241619 85.45689272 3.4550226 87.71992573 3.47265625 89.984375 C3.49330139 90.68556458 3.51394653 91.38675415 3.53521729 92.10919189 C3.53676072 95.48283162 3.30666275 97.29015124 1.27636719 100.03417969 C-1.955506 102.33115409 -4.05655939 102.21433365 -7.91796875 101.59375 C-10.97400109 98.82140079 -12.15690095 96.6073974 -12.43263245 92.57141113 C-12.45933837 90.96513492 -12.46412195 89.35840108 -12.45141602 87.75195312 C-12.46003159 86.87167953 -12.46864716 85.99140594 -12.4775238 85.0844574 C-12.50018641 82.18100399 -12.49344483 79.27851547 -12.484375 76.375 C-12.48961018 74.35387892 -12.49588627 72.33276029 -12.50315857 70.31164551 C-12.51356312 66.07825208 -12.50900001 61.84519479 -12.49438477 57.61181641 C-12.47719064 52.18752737 -12.50069996 46.76429696 -12.53587437 41.34012604 C-12.55783632 37.16734807 -12.55640988 32.99482392 -12.54810905 28.82200623 C-12.547289 26.82212665 -12.55416272 24.82222854 -12.56888008 22.82240295 C-12.58630517 20.0261223 -12.57180121 17.23175077 -12.54907227 14.43554688 C-12.56076447 13.61046127 -12.57245667 12.78537567 -12.58450317 11.93528748 C-12.51422876 7.68495785 -12.27478848 6.05415172 -9.5819397 2.57958984 C-6.18251731 0.0455125 -4.21278293 -0.02470676 0 0 Z " fill="#010203" transform="translate(269.91796875,141.40625)"/>
<path d="M0 0 C4.3849894 3.30442763 5.80502216 7.77744079 7.68359375 12.7421875 C8.19484047 14.05689529 8.19484047 14.05689529 8.71641541 15.39816284 C9.8241592 18.26056867 10.91408377 21.12924734 12 24 C12.36522766 24.96119751 12.73045532 25.92239502 13.10675049 26.91271973 C15.78577933 33.97340924 18.42763305 41.0477351 21.0625 48.125 C22.21586782 51.2192829 23.36995179 54.31329244 24.52572632 57.40667725 C25.27558163 59.41520746 26.02336075 61.42451415 26.76895142 63.43463135 C28.49546213 68.07114841 30.26005991 72.68109945 32.15185547 77.25292969 C32.48487167 78.06768768 32.81788788 78.88244568 33.16099548 79.72189331 C33.77780611 81.22058599 34.40775162 82.7139767 35.05397034 84.20022583 C36.96357066 88.86201229 37.22819053 92.11396258 36 97 C33.74582958 99.5881216 32.39479021 99.94242643 29 100.4375 C26 100 26 100 22 96 C20.02 90.72 18.04 85.44 16 80 C2.14 79.67 -11.72 79.34 -26 79 C-26.33 80.65 -26.66 82.3 -27 84 C-27.74831102 86.22339894 -28.54299959 88.43154438 -29.375 90.625 C-29.79523438 91.75164062 -30.21546875 92.87828125 -30.6484375 94.0390625 C-31.87617715 96.72873492 -32.63556037 98.27878324 -35 100 C-38.89504791 100.49573337 -41.09493717 100.58016848 -44.4375 98.4375 C-46.58928768 95.08071121 -46.27475736 92.95984253 -46 89 C-45.19987471 86.3545582 -44.35186626 83.91347236 -43.31640625 81.3671875 C-43.02949417 80.63294556 -42.74258209 79.89870361 -42.44697571 79.14221191 C-41.49631409 76.71538876 -40.52959634 74.29531559 -39.5625 71.875 C-38.1866441 68.3872831 -36.81812841 64.89669803 -35.44921875 61.40625 C-35.0904364 60.49491302 -34.73165405 59.58357605 -34.36199951 58.6446228 C-31.62083756 51.65837144 -28.98948285 44.63546771 -26.39453125 37.59375 C-25.63285845 35.53657395 -24.87105938 33.47944464 -24.10913086 31.42236328 C-22.99483488 28.41269761 -21.88475475 25.40182906 -20.78811646 22.38568115 C-19.76429202 19.57271315 -18.7236995 16.76646388 -17.6796875 13.9609375 C-17.38121414 13.12614868 -17.08274078 12.29135986 -16.77522278 11.43127441 C-13.55167018 2.86625543 -9.57911577 -2.14704319 0 0 Z " fill="#010203" transform="translate(205,143)"/>
<path d="M0 0 C7.42363164 6.09798313 12.58037606 13.11174196 13.9375 22.78125 C14.19052479 30.11896897 13.31213944 35.95878565 9.4375 42.21875 C9.025 42.91613281 8.6125 43.61351562 8.1875 44.33203125 C3.52225065 51.36966593 -4.2638146 56.52514073 -12.5625 58.21875 C-23.13829041 59.29482406 -31.5539229 56.49114872 -39.8125 49.84765625 C-46.72608179 43.41246963 -49.67316235 35.80330499 -50.125 26.46875 C-49.90797298 17.26483117 -46.39806024 9.90339112 -40.125 3.21875 C-29.30255755 -6.57639659 -12.22895384 -8.50061426 0 0 Z " fill="#49659E" transform="translate(170.5625,438.78125)"/>
<path d="M0 0 C3.83163756 1.20625627 4.53781124 1.58772094 6.375 5.0625 C6.67110266 8.07697358 6.79521459 10.88408826 6.77905273 13.8984375 C6.78591599 14.78992493 6.79277924 15.68141235 6.79985046 16.59991455 C6.81814796 19.54593849 6.81427712 22.49143145 6.80859375 25.4375 C6.81315379 27.48486505 6.81845883 29.53222856 6.82447815 31.57958984 C6.8334148 35.87018046 6.83097938 40.16058498 6.82104492 44.45117188 C6.80954846 49.95278697 6.82977449 55.4537609 6.85896206 60.95529175 C6.87729586 65.1829029 6.87703733 69.41035956 6.87132454 73.63800049 C6.87117101 75.66661479 6.8772412 77.69523936 6.88961601 79.72381592 C6.90447268 82.55847586 6.89388861 85.39194031 6.87670898 88.2265625 C6.89121094 89.48596649 6.89121094 89.48596649 6.90600586 90.77081299 C6.86005944 94.38620532 6.70479819 96.6045233 4.56239319 99.57958984 C1.31984001 101.77782977 -0.80593587 101.67627816 -4.625 101.0625 C-7.68103234 98.29015079 -8.8639322 96.0761474 -9.1396637 92.04016113 C-9.16636962 90.43388492 -9.1711532 88.82715108 -9.15844727 87.22070312 C-9.16706284 86.34042953 -9.17567841 85.46015594 -9.18455505 84.5532074 C-9.20721766 81.64975399 -9.20047608 78.74726547 -9.19140625 75.84375 C-9.19664143 73.82262892 -9.20291752 71.80151029 -9.21018982 69.78039551 C-9.22059437 65.54700208 -9.21603126 61.31394479 -9.20141602 57.08056641 C-9.18422189 51.65627737 -9.20773121 46.23304696 -9.24290562 40.80887604 C-9.26486757 36.63609807 -9.26344113 32.46357392 -9.2551403 28.29075623 C-9.25432025 26.29087665 -9.26119397 24.29097854 -9.27591133 22.29115295 C-9.29333642 19.4948723 -9.27883246 16.70050077 -9.25610352 13.90429688 C-9.26779572 13.07921127 -9.27948792 12.25412567 -9.29153442 11.40403748 C-9.22138191 7.16108028 -8.9629779 5.50800285 -6.31211853 2.01379395 C-3.625 0.0625 -3.625 0.0625 0 0 Z " fill="#010202" transform="translate(346.625,141.9375)"/>
<path d="M0 0 C3.3 -0.103125 6.6 -0.20625 10 -0.3125 C11.53527344 -0.38078003 11.53527344 -0.38078003 13.1015625 -0.45043945 C19.68824209 -0.54921416 23.92128327 0.75289507 29 5 C33.25049947 9.57746097 34.49234574 13.44580185 34.40234375 19.5859375 C33.67202944 23.96782338 31.30390739 27.12140905 28 30 C21.9669927 34.09588578 16.63890275 34.51764964 9.5 34.25 C6.365 34.1675 3.23 34.085 0 34 C0 22.78 0 11.56 0 0 Z " fill="#659DD9" transform="translate(273,157)"/>
<path d="M0 0 C2.3335527 0.14280856 4.66679588 0.28918437 7 0.4375 C8.90494792 0.55655924 10.80989583 0.67561849 12.71484375 0.79467773 C14.69735346 0.97280708 16.67250695 1.22945433 18.64453125 1.5 C23.34380269 2.09680666 28.01763194 2.22396152 32.75 2.31640625 C34.09807739 2.3475779 34.09807739 2.3475779 35.47338867 2.37937927 C38.31552236 2.44423053 41.15774033 2.50345696 44 2.5625 C45.93881044 2.60574665 47.87761268 2.64936279 49.81640625 2.69335938 C54.54418671 2.79984487 59.27205107 2.90128947 64 3 C60.83122618 6.74414651 57.67049986 10.45561887 54.203125 13.9296875 C53.55472656 14.579375 52.90632813 15.2290625 52.23828125 15.8984375 C51.58214844 16.55070312 50.92601562 17.20296875 50.25 17.875 C49.24259766 18.88820313 49.24259766 18.88820313 48.21484375 19.921875 C47.57160156 20.56382812 46.92835938 21.20578125 46.265625 21.8671875 C45.68586914 22.44581543 45.10611328 23.02444336 44.50878906 23.62060547 C40.90421886 26.91604587 36.74249387 26.52427504 32.07421875 26.44140625 C26.78230543 25.68157626 24.5101122 22.82760978 21 19 C19.14274981 17.08412785 17.27080058 15.1838984 15.3918457 13.28930664 C14.06854781 11.95127163 12.75545202 10.60305303 11.45385742 9.24389648 C7.8944808 5.5933373 4.79897754 2.97865536 0 1 C0 0.67 0 0.34 0 0 Z " fill="#358BD8" transform="translate(325,307)"/>
<path d="M0 0 C5.57296939 2.34211096 8.67605054 5.79342969 10.95703125 11.375 C11.88664985 17.15929349 10.29636518 21.67746604 6.95703125 26.375 C1.72694628 30.53772069 -2.37155102 31.93095148 -9.04296875 31.375 C-14.40252792 29.41691471 -17.27088706 26.38607074 -20.04296875 21.375 C-21.45442667 17.14062624 -21.93221725 13.51238653 -20.171875 9.28125 C-15.75531052 1.51968094 -9.16413061 -2.80355812 0 0 Z " fill="#48639C" transform="translate(463.04296875,384.625)"/>
<path d="M0 0 C4.42484878 2.21242439 7.19476657 4.94799616 10 9 C11.55933311 13.67799933 11.57094713 17.49750756 9.8125 22.125 C7.19539125 26.27627595 4.72801733 29.42399422 0 31 C-4.77254372 31.67848764 -9.14145696 32.06074402 -13.4296875 29.61328125 C-18.38524892 25.42919002 -20.65431913 22.11112781 -21.375 15.625 C-20.78407167 9.9126928 -18.60090645 6.44843917 -14.375 2.625 C-9.68182858 -0.58611729 -5.59290325 -0.61952159 0 0 Z " fill="#48639C" transform="translate(39,16)"/>
<path d="M0 0 C5.35755096 1.92063148 8.45837216 4.91674432 11 10 C11.52940021 15.31135952 11.66363629 19.67272741 9.25 24.5 C5.80209219 28.33100868 3.00500299 30.68450055 -2.26953125 31.23828125 C-8.04295046 31.4067835 -11.57781849 31.1063114 -16 27 C-19.43433594 22.39075966 -20.67086775 18.90199084 -20.38671875 13.140625 C-19.37235061 7.52573871 -15.45317661 4.16409917 -11 1 C-7.54155176 -0.72922412 -3.78834735 -0.35136443 0 0 Z " fill="#F7ED95" transform="translate(35,338)"/>
<path d="M0 0 C5.67476113 1.96434039 9.31400331 5.62800662 12 11 C12.87349412 17.01463095 12.01700225 21.37977679 8.47265625 26.3359375 C5.59136756 29.59171729 2.88171781 30.75749477 -1.39453125 31.30859375 C-7.10017203 31.59088182 -10.62190477 30.96113378 -15 27 C-18.42917072 23.30010527 -19.29969749 20.4207651 -19.5 15.5 C-19.29969749 10.5792349 -18.42917072 7.69989473 -15 4 C-10.20662513 -0.2360057 -6.14861504 -0.89575147 0 0 Z " fill="#F7ED95" transform="translate(485,16)"/>
<path d="M0 0 C2.73469596 2.73469596 3.69441481 5.97493093 5.0390625 9.52734375 C5.32478119 10.27206436 5.61049988 11.01678497 5.90487671 11.78407288 C6.50758209 13.35919201 7.10758138 14.93534887 7.70507812 16.51245117 C8.62115274 18.92735807 9.54821404 21.33783573 10.4765625 23.74804688 C11.06056103 25.27839215 11.64391606 26.80898318 12.2265625 28.33984375 C12.50464752 29.06179428 12.78273254 29.78374481 13.06924438 30.52757263 C14.18658274 33.49475034 15 35.80131698 15 39 C5.43 39 -4.14 39 -14 39 C-12.69737778 33.13820001 -11.5929514 28.48027753 -9.43359375 23.06640625 C-8.94826172 21.84115234 -8.46292969 20.61589844 -7.96289062 19.35351562 C-7.4544979 18.08981526 -6.94603361 16.82614368 -6.4375 15.5625 C-5.92452997 14.27172275 -5.41215575 12.98070856 -4.90039062 11.68945312 C-1.21625406 2.43250812 -1.21625406 2.43250812 0 0 Z " fill="#659DD9" transform="translate(200,168)"/>
</svg>
