<?xml version="1.0" encoding="UTF-8"?>
<!DOCTYPE svg PUBLIC "-//W3C//DTD SVG 1.1//EN" "http://www.w3.org/Graphics/SVG/1.1/DTD/svg11.dtd">
<svg xmlns="http://www.w3.org/2000/svg" version="1.1" width="512px" height="512px" style="shape-rendering:geometricPrecision; text-rendering:geometricPrecision; image-rendering:optimizeQuality; fill-rule:evenodd; clip-rule:evenodd" xmlns:xlink="http://www.w3.org/1999/xlink">
<g><path style="opacity:1" fill="#020101" d="M 119.5,48.5 C 127.499,47.7821 135.166,48.9488 142.5,52C 146.664,56.6347 148.664,62.1347 148.5,68.5C 155.055,70.295 161.221,72.9617 167,76.5C 173.572,67.945 181.405,66.445 190.5,72C 194.333,75.8333 198.167,79.6667 202,83.5C 206.828,92.3663 205.328,100.2 197.5,107C 199.235,109.637 200.568,112.47 201.5,115.5C 250.5,116.833 299.5,116.833 348.5,115.5C 352.884,107.897 357.884,100.73 363.5,94C 376.167,92.3333 388.833,90.6667 401.5,89C 422.38,66.5585 448.046,53.0585 478.5,48.5C 480.614,49.0339 482.448,50.0339 484,51.5C 490.966,71.7644 492.299,92.4311 488,113.5C 486.068,121.729 483.901,129.896 481.5,138C 485.476,150.758 489.142,163.592 492.5,176.5C 492.485,178.634 491.985,180.634 491,182.5C 485,191.833 479,201.167 473,210.5C 472.667,258.833 472.333,307.167 472,355.5C 470.697,364.957 465.53,371.124 456.5,374C 421.5,374.333 386.5,374.667 351.5,375C 356.195,385.919 360.195,397.086 363.5,408.5C 369.176,408.334 374.843,408.501 380.5,409C 383.756,410.587 385.923,413.087 387,416.5C 387.667,428.167 387.667,439.833 387,451.5C 385.833,455.333 383.333,457.833 379.5,459C 320.833,459.667 262.167,459.667 203.5,459C 200.063,457.895 197.563,455.728 196,452.5C 195.333,440.167 195.333,427.833 196,415.5C 197.25,412.829 199.083,410.663 201.5,409C 207.416,408.81 213.249,408.31 219,407.5C 222.975,396.572 227.142,385.738 231.5,375C 196.5,374.667 161.5,374.333 126.5,374C 117.814,371.313 112.647,365.479 111,356.5C 110.667,318.5 110.333,280.5 110,242.5C 105.955,238.171 104.455,233.171 105.5,227.5C 99.1889,224.715 92.8556,221.715 86.5,218.5C 79.6418,225.929 71.6418,227.429 62.5,223C 58.6667,219.167 54.8333,215.333 51,211.5C 45.7313,202.403 47.2313,194.569 55.5,188C 52.3509,182.056 49.6843,175.89 47.5,169.5C 32.582,169.582 26.2486,162.249 28.5,147.5C 26.3716,132.798 32.705,125.298 47.5,125C 49.39,118.667 52.0566,112.667 55.5,107C 47.7708,100.917 45.9375,93.4169 50,84.5C 54.5,80 59,75.5 63.5,71C 72.4732,66.6554 79.9732,68.4887 86,76.5C 91.7788,72.9617 97.9455,70.295 104.5,68.5C 103.787,57.1679 108.787,50.5013 119.5,48.5 Z"/></g>
<g><path style="opacity:1" fill="#5586d6" d="M 119.5,63.5 C 124.167,63.5 128.833,63.5 133.5,63.5C 131.881,73.1038 135.547,79.6038 144.5,83C 150.499,84.4986 156.166,86.8319 161.5,90C 168.955,92.1243 174.955,90.1243 179.5,84C 180.167,83.3333 180.833,83.3333 181.5,84C 184.5,87 187.5,90 190.5,93C 185.781,96.1106 183.114,100.444 182.5,106C 186.177,115.86 190.01,125.693 194,135.5C 198.568,139.986 204.068,141.653 210.5,140.5C 210.5,145.167 210.5,149.833 210.5,154.5C 202.192,152.459 196.026,155.126 192,162.5C 189.376,171.074 186.209,179.408 182.5,187.5C 182.692,189.577 183.192,191.577 184,193.5C 185.833,196.9 187.833,199.9 190,202.5C 187,205.5 184,208.5 181,211.5C 177.212,206.857 172.378,204.191 166.5,203.5C 157.585,207.085 148.585,210.585 139.5,214C 134.111,218.612 132.111,224.445 133.5,231.5C 128.833,231.5 124.167,231.5 119.5,231.5C 121.04,223.422 118.374,217.256 111.5,213C 102.696,210.093 94.0297,206.927 85.5,203.5C 80.0681,204.471 75.5681,207.137 72,211.5C 68.6507,208.318 65.484,204.985 62.5,201.5C 67.241,198.018 69.9077,193.351 70.5,187.5C 66.7845,179.398 63.6178,171.064 61,162.5C 56.6647,155.88 50.498,153.213 42.5,154.5C 42.5,149.833 42.5,145.167 42.5,140.5C 50.8127,141.579 56.9794,138.579 61,131.5C 63.9807,122.887 67.1473,114.387 70.5,106C 69.3627,100.725 66.6961,96.3922 62.5,93C 65.6667,89.8333 68.8333,86.6667 72,83.5C 77.7862,90.5021 84.9528,92.3354 93.5,89C 99.4574,85.5236 105.791,82.8569 112.5,81C 118.037,76.5761 120.37,70.7428 119.5,63.5 Z"/></g>
<g><path style="opacity:1" fill="#f5c43c" d="M 468.5,64.5 C 470.167,64.5 471.833,64.5 473.5,64.5C 475.637,77.7657 475.971,91.099 474.5,104.5C 460.507,97.1723 446.841,89.339 433.5,81C 444.482,73.8403 456.148,68.3403 468.5,64.5 Z"/></g>
<g><path style="opacity:1" fill="#b21e1e" d="M 441.5,102.5 C 435.136,107.864 429.469,113.864 424.5,120.5C 409.795,119.386 399.962,125.719 395,139.5C 393.88,146.472 394.713,153.138 397.5,159.5C 391.329,170.68 387.329,182.68 385.5,195.5C 380.982,192.495 376.316,189.662 371.5,187C 370.196,186.196 369.529,185.029 369.5,183.5C 375.843,146.204 393.176,115.204 421.5,90.5C 428.562,94.0229 435.228,98.0229 441.5,102.5 Z"/></g>
<g><path style="opacity:1" fill="#020304" d="M 114.5,94.5 C 147.501,91.0716 169.001,105.072 179,136.5C 182.261,168.837 168.428,189.67 137.5,199C 114.338,203.002 95.8382,195.502 82,176.5C 66.9742,147.963 71.8076,123.463 96.5,103C 102.208,99.3101 108.208,96.4768 114.5,94.5 Z"/></g>
<g><path style="opacity:1" fill="#e31e1e" d="M 441.5,102.5 C 451.966,107.565 461.966,113.398 471.5,120C 460.875,157.267 439.542,186.601 407.5,208C 406.5,208.667 405.5,208.667 404.5,208C 398.101,203.81 391.768,199.643 385.5,195.5C 387.329,182.68 391.329,170.68 397.5,159.5C 404.526,170.506 414.526,174.672 427.5,172C 442.875,166.095 449.041,154.929 446,138.5C 442.311,128.308 435.144,122.308 424.5,120.5C 429.469,113.864 435.136,107.864 441.5,102.5 Z"/></g>
<g><path style="opacity:1" fill="#f27f00" d="M 380.5,105.5 C 382.924,105.192 385.257,105.526 387.5,106.5C 378.213,118.732 370.713,132.065 365,146.5C 357.555,149.26 350.055,151.927 342.5,154.5C 341.479,153.998 341.312,153.332 342,152.5C 351.749,138.004 361.249,123.337 370.5,108.5C 373.759,107.02 377.092,106.02 380.5,105.5 Z"/></g>
<g><path style="opacity:1" fill="#b2b2b2" d="M 154.5,120.5 C 126.67,117.163 108.503,128.83 100,155.5C 99.5004,162.158 99.3337,168.825 99.5,175.5C 89.6576,165.155 85.8243,152.821 88,138.5C 98.2625,111.412 117.096,102.578 144.5,112C 148.613,113.948 151.946,116.781 154.5,120.5 Z"/></g>
<g><path style="opacity:1" fill="#dfdfdf" d="M 154.5,120.5 C 162.128,127.6 165.794,136.433 165.5,147C 163.636,171.697 150.303,184.864 125.5,186.5C 115.389,186.107 106.722,182.441 99.5,175.5C 99.3337,168.825 99.5004,162.158 100,155.5C 108.503,128.83 126.67,117.163 154.5,120.5 Z"/></g>
<g><path style="opacity:1" fill="#050202" d="M 424.5,120.5 C 435.144,122.308 442.311,128.308 446,138.5C 449.041,154.929 442.875,166.095 427.5,172C 414.526,174.672 404.526,170.506 397.5,159.5C 394.713,153.138 393.88,146.472 395,139.5C 399.962,125.719 409.795,119.386 424.5,120.5 Z"/></g>
<g><path style="opacity:1" fill="#696969" d="M 338.5,132.5 C 299.67,131.501 260.67,131.168 221.5,131.5C 240.261,130.827 259.761,130.494 280,130.5C 299.833,130.833 319.667,131.167 339.5,131.5C 339.376,132.107 339.043,132.44 338.5,132.5 Z"/></g>
<g><path style="opacity:1" fill="#aeaeae" d="M 221.5,131.5 C 260.67,131.168 299.67,131.501 338.5,132.5C 332.069,143.04 325.402,153.373 318.5,163.5C 286.167,163.5 253.833,163.5 221.5,163.5C 223.968,158.33 224.968,152.83 224.5,147C 225.001,141.461 224.001,136.294 221.5,131.5 Z"/></g>
<g><path style="opacity:1" fill="#f4f4f4" d="M 415.5,134.5 C 428.32,133.153 433.82,138.819 432,151.5C 424.333,162.167 416.667,162.167 409,151.5C 406.788,144.015 408.954,138.348 415.5,134.5 Z"/></g>
<g><path style="opacity:1" fill="#f37f00" d="M 471.5,157.5 C 474.883,163.693 476.716,170.36 477,177.5C 467.333,192.5 457.667,207.5 448,222.5C 445.941,213.685 444.941,204.685 445,195.5C 455.568,184.027 464.401,171.36 471.5,157.5 Z"/></g>
<g><path style="opacity:1" fill="#dfdfdf" d="M 221.5,163.5 C 253.833,163.5 286.167,163.5 318.5,163.5C 316.101,169.271 317.935,172.938 324,174.5C 335.539,170.982 347.039,167.315 358.5,163.5C 358.833,164 359.167,164.5 359.5,165C 357.761,170.379 356.761,175.879 356.5,181.5C 352.114,182.366 348.614,184.699 346,188.5C 343,193.5 340,198.5 337,203.5C 335.779,209.977 337.612,215.311 342.5,219.5C 329.668,237.953 327.001,257.786 334.5,279C 335.873,279.875 337.373,280.375 339,280.5C 359.677,277.093 375.51,266.593 386.5,249C 392.052,250.235 397.385,249.568 402.5,247C 410.139,238.889 414.972,229.389 417,218.5C 421.843,215.412 426.509,212.079 431,208.5C 432.643,221.609 434.809,234.609 437.5,247.5C 442.374,251.827 446.541,251.161 450,245.5C 452.178,241.806 454.345,238.139 456.5,234.5C 457.498,261.995 457.831,289.662 457.5,317.5C 357.167,317.5 256.833,317.5 156.5,317.5C 156.5,285.833 156.5,254.167 156.5,222.5C 160.086,221.374 163.419,219.707 166.5,217.5C 173.199,226.169 181.199,227.669 190.5,222C 195.034,217.801 199.201,213.301 203,208.5C 204.277,204.903 204.61,201.236 204,197.5C 202.077,193.742 199.577,190.409 196.5,187.5C 200.13,181.951 202.796,175.951 204.5,169.5C 210.907,169.457 216.573,167.457 221.5,163.5 Z"/></g>
<g><path style="opacity:1" fill="#f4c33c" d="M 357.5,195.5 C 372.319,203.834 386.819,212.834 401,222.5C 401.667,223.5 401.667,224.5 401,225.5C 398.71,228.58 396.543,231.747 394.5,235C 379.852,226.743 365.352,217.91 351,208.5C 353.105,204.29 355.272,199.957 357.5,195.5 Z"/></g>
<g><path style="opacity:1" fill="#050505" d="M 251.5,213.5 C 256.823,213.33 259.823,215.83 260.5,221C 255.871,244.477 251.371,267.977 247,291.5C 243.667,298.499 239.334,299.166 234,293.5C 233.833,292.333 233.667,291.167 233.5,290C 237.536,266.08 242.036,242.246 247,218.5C 248.025,216.313 249.525,214.646 251.5,213.5 Z"/></g>
<g><path style="opacity:1" fill="#a6a6a6" d="M 156.5,222.5 C 156.5,254.167 156.5,285.833 156.5,317.5C 256.833,317.5 357.167,317.5 457.5,317.5C 347.001,318.499 236.335,318.833 125.5,318.5C 125.5,294.167 125.5,269.833 125.5,245.5C 140.61,247.39 148.277,240.723 148.5,225.5C 151.195,224.492 153.862,223.492 156.5,222.5 Z"/></g>
<g><path style="opacity:1" fill="#f47f00" d="M 353.5,227.5 C 354.552,227.351 355.552,227.517 356.5,228C 360.898,231.394 365.565,234.394 370.5,237C 372.327,237.899 373.66,239.233 374.5,241C 368.053,253.388 358.053,261.221 344.5,264.5C 342.809,250.941 345.809,238.608 353.5,227.5 Z"/></g>
<g><path style="opacity:1" fill="#050505" d="M 222.5,228.5 C 230.805,228.767 233.305,232.767 230,240.5C 222.416,245.041 214.916,249.708 207.5,254.5C 215.337,259.251 223.004,264.251 230.5,269.5C 232.112,279.875 228.112,282.708 218.5,278C 209.167,272.333 199.833,266.667 190.5,261C 185.732,257.294 185.399,253.294 189.5,249C 200.564,242.142 211.564,235.308 222.5,228.5 Z"/></g>
<g><path style="opacity:1" fill="#050505" d="M 268.5,228.5 C 271.794,228.259 274.794,229.092 277.5,231C 286.57,237.064 295.903,242.731 305.5,248C 310.833,252.333 310.833,256.667 305.5,261C 294.218,267.963 282.718,274.463 271,280.5C 265.455,279.422 263.455,276.089 265,270.5C 272.422,264.58 280.256,259.247 288.5,254.5C 281.084,249.708 273.584,245.041 266,240.5C 263.517,235.713 264.35,231.713 268.5,228.5 Z"/></g>
<g><path style="opacity:1" fill="#323232" d="M 456.5,234.5 C 456.56,233.957 456.893,233.624 457.5,233.5C 458.829,261.664 458.829,289.664 457.5,317.5C 457.831,289.662 457.498,261.995 456.5,234.5 Z"/></g>
<g><path style="opacity:1" fill="#304f80" d="M 457.5,332.5 C 346.833,332.5 236.167,332.5 125.5,332.5C 125.5,339.5 125.5,346.5 125.5,353.5C 124.508,346.352 124.175,339.019 124.5,331.5C 235.668,331.167 346.668,331.501 457.5,332.5 Z"/></g>
<g><path style="opacity:1" fill="#5687d8" d="M 457.5,332.5 C 457.666,340.174 457.5,347.841 457,355.5C 455.891,357.815 454.057,359.315 451.5,360C 344.5,360.667 237.5,360.667 130.5,360C 127.507,358.841 125.84,356.675 125.5,353.5C 125.5,346.5 125.5,339.5 125.5,332.5C 236.167,332.5 346.833,332.5 457.5,332.5 Z"/></g>
<g><path style="opacity:1" fill="#aeaeae" d="M 273.5,374.5 C 269.301,385.765 265.301,397.098 261.5,408.5C 252.475,408.832 243.475,408.498 234.5,407.5C 238.303,396.756 242.303,386.089 246.5,375.5C 255.475,374.502 264.475,374.168 273.5,374.5 Z"/></g>
<g><path style="opacity:1" fill="#e0e0e0" d="M 273.5,374.5 C 294.5,374.5 315.5,374.5 336.5,374.5C 340.096,385.618 344.096,396.618 348.5,407.5C 319.508,408.5 290.508,408.833 261.5,408.5C 265.301,397.098 269.301,385.765 273.5,374.5 Z"/></g>
<g><path style="opacity:1" fill="#5688d8" d="M 209.5,422.5 C 264.167,422.5 318.833,422.5 373.5,422.5C 373.5,429.833 373.5,437.167 373.5,444.5C 318.833,444.5 264.167,444.5 209.5,444.5C 209.5,437.167 209.5,429.833 209.5,422.5 Z"/></g>
</svg>
