<?xml version="1.0" encoding="UTF-8"?>
<!DOCTYPE svg PUBLIC "-//W3C//DTD SVG 1.1//EN" "http://www.w3.org/Graphics/SVG/1.1/DTD/svg11.dtd">
<svg xmlns="http://www.w3.org/2000/svg" version="1.1" width="512px" height="512px" style="shape-rendering:geometricPrecision; text-rendering:geometricPrecision; image-rendering:optimizeQuality; fill-rule:evenodd; clip-rule:evenodd" xmlns:xlink="http://www.w3.org/1999/xlink">
<g><path style="opacity:1" fill="#51afe7" d="M 232.5,-0.5 C 238.167,-0.5 243.833,-0.5 249.5,-0.5C 249.5,8.5 249.5,17.5 249.5,26.5C 239.354,40.0988 229.188,53.7655 219,67.5C 218.825,72.0195 218.325,76.3528 217.5,80.5C 217.5,76.8333 217.5,73.1667 217.5,69.5C 207.167,69.5 196.833,69.5 186.5,69.5C 186.5,73.1667 186.5,76.8333 186.5,80.5C 194.167,80.5 201.833,80.5 209.5,80.5C 208.075,81.922 207.075,83.5887 206.5,85.5C 204.167,85.5 201.833,85.5 199.5,85.5C 199.025,88.0821 199.692,90.0821 201.5,91.5C 175.718,127.122 149.718,162.622 123.5,198C 147.831,198.5 172.164,198.667 196.5,198.5C 196.5,210.833 196.5,223.167 196.5,235.5C 152.165,235.333 107.832,235.5 63.5,236C 59,237.833 55.8333,241 54,245.5C 53.3333,265.5 53.3333,285.5 54,305.5C 55.3498,310.185 58.1832,313.685 62.5,316C 103.167,316.667 143.833,316.667 184.5,316C 189.428,314.073 192.594,310.573 194,305.5C 194.333,287.833 194.667,270.167 195,252.5C 195.383,251.944 195.883,251.611 196.5,251.5C 196.5,299.833 196.5,348.167 196.5,396.5C 203.687,396.175 210.687,396.509 217.5,397.5C 207.167,397.5 196.833,397.5 186.5,397.5C 186.5,400.833 186.5,404.167 186.5,407.5C 196.833,407.5 207.167,407.5 217.5,407.5C 210.687,408.491 203.687,408.825 196.5,408.5C 196.5,440.833 196.5,473.167 196.5,505.5C 172.736,499.807 150.403,490.807 129.5,478.5C 130.498,451.338 130.831,424.005 130.5,396.5C 139.173,396.666 147.84,396.5 156.5,396C 141.386,374.553 125.886,353.386 110,332.5C 93.9739,353.692 78.1406,375.026 62.5,396.5C 71.1411,397.498 79.8078,397.831 88.5,397.5C 88.5,414.833 88.5,432.167 88.5,449.5C 36.447,404.402 6.78032,347.402 -0.5,278.5C -0.5,263.167 -0.5,247.833 -0.5,232.5C 10.3875,142.857 54.7208,75.3573 132.5,30C 163.971,13.3053 197.304,3.1386 232.5,-0.5 Z"/></g>
<g><path style="opacity:1" fill="#f0f1f2" d="M 249.5,-0.5 C 253.5,-0.5 257.5,-0.5 261.5,-0.5C 261.5,8.5 261.5,17.5 261.5,26.5C 261.333,37.1719 261.5,47.8385 262,58.5C 281.874,67.1207 286.874,81.1207 277,100.5C 273.077,105.709 267.91,108.709 261.5,109.5C 261.333,149.501 261.5,189.501 262,229.5C 281.881,238.142 286.881,252.142 277,271.5C 272.999,276.334 267.999,279.667 262,281.5C 261.5,321.499 261.333,361.499 261.5,401.5C 274.545,404.384 281.211,412.551 281.5,426C 281.507,439.655 275.007,448.489 262,452.5C 261.5,472.164 261.333,491.831 261.5,511.5C 257.5,511.5 253.5,511.5 249.5,511.5C 249.833,491.822 249.5,472.155 248.5,452.5C 233.214,446.269 227.047,434.936 230,418.5C 233.366,409.634 239.533,403.634 248.5,400.5C 249.833,360.833 249.833,321.167 248.5,281.5C 233.214,275.269 227.047,263.936 230,247.5C 233.366,238.634 239.533,232.634 248.5,229.5C 249.833,189.833 249.833,150.167 248.5,110.5C 231.887,103.273 226.053,90.9396 231,73.5C 234.842,66.1567 240.675,61.1567 248.5,58.5C 249.499,47.8541 249.832,37.1874 249.5,26.5C 249.5,17.5 249.5,8.5 249.5,-0.5 Z"/></g>
<g><path style="opacity:1" fill="#51afe7" d="M 261.5,-0.5 C 267.167,-0.5 272.833,-0.5 278.5,-0.5C 368.144,10.3879 435.644,54.7213 481,132.5C 497.695,163.971 507.861,197.304 511.5,232.5C 511.5,247.833 511.5,263.167 511.5,278.5C 506.409,329.328 488.075,374.661 456.5,414.5C 455.948,408.244 452.948,403.411 447.5,400C 439.251,398.594 430.917,398.094 422.5,398.5C 422.5,375.833 422.5,353.167 422.5,330.5C 431.173,330.666 439.84,330.5 448.5,330C 432.545,308.589 416.711,287.089 401,265.5C 385.693,286.973 370.193,308.307 354.5,329.5C 362.807,330.498 371.14,330.831 379.5,330.5C 379.5,353.167 379.5,375.833 379.5,398.5C 357.833,398.5 336.167,398.5 314.5,398.5C 314.5,349.833 314.5,301.167 314.5,252.5C 306.981,252.825 299.648,252.492 292.5,251.5C 302.833,251.5 313.167,251.5 323.5,251.5C 323.5,248.167 323.5,244.833 323.5,241.5C 313.167,241.5 302.833,241.5 292.5,241.5C 299.648,240.508 306.981,240.175 314.5,240.5C 314.5,226.5 314.5,212.5 314.5,198.5C 338.836,198.667 363.169,198.5 387.5,198C 384.526,194.872 382.193,191.372 380.5,187.5C 398.17,187.667 415.836,187.5 433.5,187C 439.333,185.167 443.167,181.333 445,175.5C 445.667,156.167 445.667,136.833 445,117.5C 443.162,111.161 438.995,107.494 432.5,106.5C 395.004,105.502 357.337,105.168 319.5,105.5C 300.399,78.951 281.066,52.6176 261.5,26.5C 261.5,17.5 261.5,8.5 261.5,-0.5 Z"/></g>
<g><path style="opacity:1" fill="#2b8fc8" d="M 249.5,26.5 C 249.832,37.1874 249.499,47.8541 248.5,58.5C 240.675,61.1567 234.842,66.1567 231,73.5C 226.053,90.9396 231.887,103.273 248.5,110.5C 249.833,150.167 249.833,189.833 248.5,229.5C 239.533,232.634 233.366,238.634 230,247.5C 227.047,263.936 233.214,275.269 248.5,281.5C 249.833,321.167 249.833,360.833 248.5,400.5C 239.533,403.634 233.366,409.634 230,418.5C 227.047,434.936 233.214,446.269 248.5,452.5C 249.5,472.155 249.833,491.822 249.5,511.5C 243.833,511.5 238.167,511.5 232.5,511.5C 220.564,509.917 208.564,507.917 196.5,505.5C 196.5,473.167 196.5,440.833 196.5,408.5C 203.687,408.825 210.687,408.491 217.5,407.5C 217.5,404.167 217.5,400.833 217.5,397.5C 210.687,396.509 203.687,396.175 196.5,396.5C 196.5,348.167 196.5,299.833 196.5,251.5C 200.59,245.905 205.256,240.739 210.5,236C 205.845,235.501 201.179,235.334 196.5,235.5C 196.5,223.167 196.5,210.833 196.5,198.5C 172.164,198.667 147.831,198.5 123.5,198C 149.718,162.622 175.718,127.122 201.5,91.5C 206.833,91.5 212.167,91.5 217.5,91.5C 217.5,89.5 217.5,87.5 217.5,85.5C 213.833,85.5 210.167,85.5 206.5,85.5C 207.075,83.5887 208.075,81.922 209.5,80.5C 212.167,80.5 214.833,80.5 217.5,80.5C 218.325,76.3528 218.825,72.0195 219,67.5C 229.188,53.7655 239.354,40.0988 249.5,26.5 Z"/></g>
<g><path style="opacity:1" fill="#2b8fc8" d="M 261.5,26.5 C 281.066,52.6176 300.399,78.951 319.5,105.5C 309.145,105.168 298.812,105.501 288.5,106.5C 288.624,107.107 288.957,107.44 289.5,107.5C 294.163,112.331 298.663,117.331 303,122.5C 303.333,139.833 303.667,157.167 304,174.5C 305.336,180.501 308.836,184.668 314.5,187C 336.497,187.5 358.497,187.667 380.5,187.5C 382.193,191.372 384.526,194.872 387.5,198C 363.169,198.5 338.836,198.667 314.5,198.5C 314.5,212.5 314.5,226.5 314.5,240.5C 306.981,240.175 299.648,240.508 292.5,241.5C 292.5,244.833 292.5,248.167 292.5,251.5C 299.648,252.492 306.981,252.825 314.5,252.5C 314.5,301.167 314.5,349.833 314.5,398.5C 309.489,398.334 304.489,398.501 299.5,399C 304.333,404.5 309.167,410 314,415.5C 314.5,433.164 314.667,450.83 314.5,468.5C 314.5,480.833 314.5,493.167 314.5,505.5C 302.443,507.954 290.443,509.954 278.5,511.5C 272.833,511.5 267.167,511.5 261.5,511.5C 261.333,491.831 261.5,472.164 262,452.5C 275.007,448.489 281.507,439.655 281.5,426C 281.211,412.551 274.545,404.384 261.5,401.5C 261.333,361.499 261.5,321.499 262,281.5C 267.999,279.667 272.999,276.334 277,271.5C 286.881,252.142 281.881,238.142 262,229.5C 261.5,189.501 261.333,149.501 261.5,109.5C 267.91,108.709 273.077,105.709 277,100.5C 286.874,81.1207 281.874,67.1207 262,58.5C 261.5,47.8385 261.333,37.1719 261.5,26.5 Z"/></g>
<g><path style="opacity:1" fill="#edf0f2" d="M 217.5,80.5 C 214.833,80.5 212.167,80.5 209.5,80.5C 201.833,80.5 194.167,80.5 186.5,80.5C 186.5,76.8333 186.5,73.1667 186.5,69.5C 196.833,69.5 207.167,69.5 217.5,69.5C 217.5,73.1667 217.5,76.8333 217.5,80.5 Z"/></g>
<g><path style="opacity:1" fill="#cecece" d="M 251.5,68.5 C 266.396,68.6652 272.562,75.9985 270,90.5C 265.446,98.5792 258.613,101.413 249.5,99C 238.308,92.1092 236.641,83.4425 244.5,73C 246.898,71.4758 249.231,69.9758 251.5,68.5 Z"/></g>
<g><path style="opacity:1" fill="#e1e9ef" d="M 206.5,85.5 C 210.167,85.5 213.833,85.5 217.5,85.5C 217.5,87.5 217.5,89.5 217.5,91.5C 212.167,91.5 206.833,91.5 201.5,91.5C 199.692,90.0821 199.025,88.0821 199.5,85.5C 201.833,85.5 204.167,85.5 206.5,85.5 Z"/></g>
<g><path style="opacity:1" fill="#a4d0ea" d="M 319.5,105.5 C 357.337,105.168 395.004,105.502 432.5,106.5C 384.664,106.168 336.997,106.501 289.5,107.5C 288.957,107.44 288.624,107.107 288.5,106.5C 298.812,105.501 309.145,105.168 319.5,105.5 Z"/></g>
<g><path style="opacity:1" fill="#f1f2f2" d="M 432.5,106.5 C 438.995,107.494 443.162,111.161 445,117.5C 445.667,136.833 445.667,156.167 445,175.5C 443.167,181.333 439.333,185.167 433.5,187C 415.836,187.5 398.17,187.667 380.5,187.5C 358.497,187.667 336.497,187.5 314.5,187C 308.836,184.668 305.336,180.501 304,174.5C 303.667,157.167 303.333,139.833 303,122.5C 298.663,117.331 294.163,112.331 289.5,107.5C 336.997,106.501 384.664,106.168 432.5,106.5 Z"/></g>
<g><path style="opacity:1" fill="#afb5b5" d="M 325.5,124.5 C 358.167,124.5 390.833,124.5 423.5,124.5C 423.5,125.833 423.5,127.167 423.5,128.5C 390.833,128.5 358.167,128.5 325.5,128.5C 325.5,127.167 325.5,125.833 325.5,124.5 Z"/></g>
<g><path style="opacity:1" fill="#aeb5b4" d="M 326.5,144.5 C 358.833,144.5 391.167,144.5 423.5,144.5C 423.5,145.833 423.5,147.167 423.5,148.5C 391.167,148.5 358.833,148.5 326.5,148.5C 326.5,147.167 326.5,145.833 326.5,144.5 Z"/></g>
<g><path style="opacity:1" fill="#d3d3d9" d="M 326.5,144.5 C 326.5,145.833 326.5,147.167 326.5,148.5C 358.833,148.5 391.167,148.5 423.5,148.5C 391.004,149.498 358.338,149.832 325.5,149.5C 325.216,147.585 325.549,145.919 326.5,144.5 Z"/></g>
<g><path style="opacity:1" fill="#b1b6b7" d="M 326.5,164.5 C 348.833,164.5 371.167,164.5 393.5,164.5C 393.768,166.099 393.434,167.432 392.5,168.5C 370.5,168.5 348.5,168.5 326.5,168.5C 326.5,167.167 326.5,165.833 326.5,164.5 Z"/></g>
<g><path style="opacity:1" fill="#cdcdcd" d="M 326.5,164.5 C 326.5,165.833 326.5,167.167 326.5,168.5C 348.5,168.5 370.5,168.5 392.5,168.5C 370.34,169.497 348.006,169.831 325.5,169.5C 325.216,167.585 325.549,165.919 326.5,164.5 Z"/></g>
<g><path style="opacity:1" fill="#f2f2f2" d="M 196.5,235.5 C 201.179,235.334 205.845,235.501 210.5,236C 205.256,240.739 200.59,245.905 196.5,251.5C 195.883,251.611 195.383,251.944 195,252.5C 194.667,270.167 194.333,287.833 194,305.5C 192.594,310.573 189.428,314.073 184.5,316C 143.833,316.667 103.167,316.667 62.5,316C 58.1832,313.685 55.3498,310.185 54,305.5C 53.3333,285.5 53.3333,265.5 54,245.5C 55.8333,241 59,237.833 63.5,236C 107.832,235.5 152.165,235.333 196.5,235.5 Z"/></g>
<g><path style="opacity:1" fill="#cecece" d="M 251.5,239.5 C 260.871,238.772 267.371,242.772 271,251.5C 272.219,260.885 268.386,267.385 259.5,271C 250.115,272.219 243.615,268.386 240,259.5C 239.035,255.218 239.702,251.218 242,247.5C 244.772,244.217 247.939,241.55 251.5,239.5 Z"/></g>
<g><path style="opacity:1" fill="#f2f3f2" d="M 292.5,241.5 C 302.833,241.5 313.167,241.5 323.5,241.5C 323.5,244.833 323.5,248.167 323.5,251.5C 313.167,251.5 302.833,251.5 292.5,251.5C 292.5,248.167 292.5,244.833 292.5,241.5 Z"/></g>
<g><path style="opacity:1" fill="#aeb5b4" d="M 172.5,254.5 C 172.5,255.5 172.5,256.5 172.5,257.5C 140.167,257.5 107.833,257.5 75.5,257.5C 75.5,256.5 75.5,255.5 75.5,254.5C 107.833,254.5 140.167,254.5 172.5,254.5 Z"/></g>
<g><path style="opacity:1" fill="#bfc3c5" d="M 172.5,254.5 C 140.167,254.5 107.833,254.5 75.5,254.5C 75.5,255.5 75.5,256.5 75.5,257.5C 107.833,257.5 140.167,257.5 172.5,257.5C 140.004,258.498 107.338,258.832 74.5,258.5C 74.5,256.833 74.5,255.167 74.5,253.5C 107.338,253.168 140.004,253.502 172.5,254.5 Z"/></g>
<g><path style="opacity:1" fill="#e0e9ee" d="M 292.5,257.5 C 298.5,257.5 304.5,257.5 310.5,257.5C 310.5,259.5 310.5,261.5 310.5,263.5C 304.5,263.5 298.5,263.5 292.5,263.5C 292.5,261.5 292.5,259.5 292.5,257.5 Z"/></g>
<g><path style="opacity:1" fill="#2b8fc8" d="M 422.5,398.5 C 408.167,398.5 393.833,398.5 379.5,398.5C 379.5,375.833 379.5,353.167 379.5,330.5C 371.14,330.831 362.807,330.498 354.5,329.5C 370.193,308.307 385.693,286.973 401,265.5C 416.711,287.089 432.545,308.589 448.5,330C 439.84,330.5 431.173,330.666 422.5,330.5C 422.5,353.167 422.5,375.833 422.5,398.5 Z"/></g>
<g><path style="opacity:1" fill="#d4d4d4" d="M 74.5,274.5 C 107.329,273.502 140.329,273.168 173.5,273.5C 173.784,275.415 173.451,277.081 172.5,278.5C 172.5,277.167 172.5,275.833 172.5,274.5C 139.833,274.5 107.167,274.5 74.5,274.5 Z"/></g>
<g><path style="opacity:1" fill="#b0b5b6" d="M 74.5,274.5 C 107.167,274.5 139.833,274.5 172.5,274.5C 172.5,275.833 172.5,277.167 172.5,278.5C 139.833,278.5 107.167,278.5 74.5,278.5C 74.5,277.167 74.5,275.833 74.5,274.5 Z"/></g>
<g><path style="opacity:1" fill="#afb5b5" d="M 105.5,294.5 C 127.833,294.5 150.167,294.5 172.5,294.5C 172.5,295.833 172.5,297.167 172.5,298.5C 150.167,298.5 127.833,298.5 105.5,298.5C 105.5,297.167 105.5,295.833 105.5,294.5 Z"/></g>
<g><path style="opacity:1" fill="#2b8fc8" d="M 129.5,478.5 C 114.441,470.769 100.774,461.103 88.5,449.5C 88.5,432.167 88.5,414.833 88.5,397.5C 79.8078,397.831 71.1411,397.498 62.5,396.5C 78.1406,375.026 93.9739,353.692 110,332.5C 125.886,353.386 141.386,374.553 156.5,396C 147.84,396.5 139.173,396.666 130.5,396.5C 130.831,424.005 130.498,451.338 129.5,478.5 Z"/></g>
<g><path style="opacity:1" fill="#f2f2f3" d="M 217.5,397.5 C 217.5,400.833 217.5,404.167 217.5,407.5C 207.167,407.5 196.833,407.5 186.5,407.5C 186.5,404.167 186.5,400.833 186.5,397.5C 196.833,397.5 207.167,397.5 217.5,397.5 Z"/></g>
<g><path style="opacity:1" fill="#f2f2f2" d="M 314.5,398.5 C 336.167,398.5 357.833,398.5 379.5,398.5C 393.833,398.5 408.167,398.5 422.5,398.5C 430.917,398.094 439.251,398.594 447.5,400C 452.948,403.411 455.948,408.244 456.5,414.5C 456.667,432.503 456.5,450.503 456,468.5C 454.5,474.667 450.667,478.5 444.5,480C 422.503,480.5 400.503,480.667 378.5,480.5C 360.338,479.668 342.005,479.168 323.5,479C 319.168,476.511 316.168,473.011 314.5,468.5C 314.667,450.83 314.5,433.164 314,415.5C 309.167,410 304.333,404.5 299.5,399C 304.489,398.501 309.489,398.334 314.5,398.5 Z"/></g>
<g><path style="opacity:1" fill="#cecece" d="M 249.5,411.5 C 259.718,409.395 266.884,413.062 271,422.5C 271.833,436.333 265.333,442.833 251.5,442C 240.67,437.182 237.503,429.349 242,418.5C 244.396,415.933 246.896,413.6 249.5,411.5 Z"/></g>
<g><path style="opacity:1" fill="#e0e9ed" d="M 199.5,413.5 C 205.5,413.5 211.5,413.5 217.5,413.5C 217.5,415.5 217.5,417.5 217.5,419.5C 211.5,419.5 205.5,419.5 199.5,419.5C 199.5,417.5 199.5,415.5 199.5,413.5 Z"/></g>
<g><path style="opacity:1" fill="#b6babc" d="M 336.5,416.5 C 369.167,416.5 401.833,416.5 434.5,416.5C 434.5,418.167 434.5,419.833 434.5,421.5C 401.833,421.5 369.167,421.5 336.5,421.5C 336.5,419.833 336.5,418.167 336.5,416.5 Z"/></g>
<g><path style="opacity:1" fill="#b5babb" d="M 336.5,436.5 C 369.167,436.5 401.833,436.5 434.5,436.5C 434.5,438.167 434.5,439.833 434.5,441.5C 401.833,441.5 369.167,441.5 336.5,441.5C 336.5,439.833 336.5,438.167 336.5,436.5 Z"/></g>
<g><path style="opacity:1" fill="#aeb5b4" d="M 336.5,457.5 C 358.833,457.5 381.167,457.5 403.5,457.5C 403.5,458.833 403.5,460.167 403.5,461.5C 381.167,461.5 358.833,461.5 336.5,461.5C 336.5,460.167 336.5,458.833 336.5,457.5 Z"/></g>
<g><path style="opacity:1" fill="#56b0e7" d="M 314.5,468.5 C 316.168,473.011 319.168,476.511 323.5,479C 342.005,479.168 360.338,479.668 378.5,480.5C 358.316,491.585 336.982,499.919 314.5,505.5C 314.5,493.167 314.5,480.833 314.5,468.5 Z"/></g>
</svg>
