<?xml version="1.0" encoding="UTF-8"?>
<svg version="1.1" xmlns="http://www.w3.org/2000/svg" width="512" height="512">
<path d="M0 0 C1.62944769 -0.02155526 3.25878036 -0.05562971 4.88769531 -0.10253906 C20.16863189 -0.53811861 20.16863189 -0.53811861 24.68896484 3.18237305 C26.69417507 5.36045817 28.08598006 7.66338376 29.20458984 10.4050293 C29.11177734 12.2922168 29.11177734 12.2922168 29.01708984 14.2175293 C29.10130889 16.36482191 29.10130889 16.36482191 30.20458984 18.4050293 C34.20415683 21.53289578 38.35144523 23.89714777 43.20458984 25.4050293 C46.38586575 24.73368956 46.38586575 24.73368956 49.20458984 23.4050293 C55.12181784 22.1643202 59.97799872 21.99366144 65.20458984 25.4050293 C69.74419483 30.23166422 73.05594891 35.74062774 76.45458984 41.4050293 C77.26669922 42.71987305 77.26669922 42.71987305 78.09521484 44.0612793 C81.52314453 49.75164257 84.22512238 54.67622129 82.57958984 61.4675293 C81.42297358 65.52733002 79.54521801 67.76360237 76.20458984 70.4050293 C73.39208984 71.7175293 73.39208984 71.7175293 71.20458984 72.4050293 C71.53458984 73.3950293 71.86458984 74.3850293 72.20458984 75.4050293 C72.29767529 77.06961603 72.33455169 78.73784926 72.32958984 80.4050293 C72.33216797 81.2712793 72.33474609 82.1375293 72.33740234 83.0300293 C72.20458984 85.4050293 72.20458984 85.4050293 71.20458984 88.4050293 C71.90583984 88.5906543 72.60708984 88.7762793 73.32958984 88.9675293 C77.48528563 91.04537719 79.94803883 93.33133592 82.20458984 97.4050293 C84.03699861 107.00224774 80.69023665 113.56003744 75.51708984 121.4050293 C74.89125 122.41436523 74.26541016 123.42370117 73.62060547 124.46362305 C70.18926109 129.87472737 67.09858477 134.45803183 61.20458984 137.4050293 C54.56297767 137.92204102 48.85979977 138.17516925 43.20458984 134.4050293 C43.20458984 131.7650293 43.20458984 129.1250293 43.20458984 126.4050293 C42.48013672 126.81495117 41.75568359 127.22487305 41.00927734 127.6472168 C39.55908203 128.45545898 39.55908203 128.45545898 38.07958984 129.2800293 C37.12826172 129.81370117 36.17693359 130.34737305 35.19677734 130.8972168 C32.20458984 132.4050293 32.20458984 132.4050293 26.20458984 134.4050293 C26.53458984 145.6250293 26.86458984 156.8450293 27.20458984 168.4050293 C31.82458984 168.4050293 36.44458984 168.4050293 41.20458984 168.4050293 C47.82304446 170.64225339 52.40184707 174.4859775 56.20458984 180.4050293 C56.89599609 183.15893555 56.89599609 183.15893555 57.20458984 185.4050293 C57.86458984 185.0750293 58.52458984 184.7450293 59.20458984 184.4050293 C67.10465409 183.77260946 74.76429109 183.2441649 81.20458984 188.4050293 C85.45923777 192.38545187 88.39330458 195.50010493 89.20458984 201.4050293 C89.86458984 201.0750293 90.52458984 200.7450293 91.20458984 200.4050293 C99.09826492 199.77312092 106.77214724 199.23892886 113.20458984 204.4050293 C118.47861361 209.42740978 121.952694 213.78693341 122.47201538 221.2461853 C122.48990778 222.7682859 122.49688302 224.29053941 122.49511719 225.81274414 C122.50183441 226.64769409 122.50855164 227.48264404 122.51547241 228.34289551 C122.53444972 231.10064681 122.53837781 233.85815425 122.54052734 236.6159668 C122.54696021 238.54586891 122.55368893 240.47577006 122.56069946 242.40567017 C122.57267497 246.45577245 122.57638048 250.50578947 122.57519531 254.5559082 C122.5749932 259.70776669 122.60218205 264.85906684 122.63673973 270.01079369 C122.65915887 274.00206938 122.66302814 277.9932145 122.66197586 281.98454666 C122.66431366 283.88127167 122.67303263 285.77800131 122.68864059 287.67466354 C122.85425738 309.89844549 117.91121152 328.75757837 102.20458984 345.4050293 C94.05196663 353.4050293 94.05196663 353.4050293 91.20458984 353.4050293 C91.20458984 368.9150293 91.20458984 384.4250293 91.20458984 400.4050293 C57.54458984 400.4050293 23.88458984 400.4050293 -10.79541016 400.4050293 C-11.12541016 387.2050293 -11.45541016 374.0050293 -11.79541016 360.4050293 C-15.42541016 358.0950293 -19.05541016 355.7850293 -22.79541016 353.4050293 C-28.8143467 348.01261324 -33.18813336 342.33753385 -37.53369141 335.5612793 C-38.13996872 334.63391968 -38.74624603 333.70656006 -39.37089539 332.75109863 C-41.29239728 329.80825706 -43.20063423 326.857106 -45.10791016 323.9050293 C-47.00117006 320.9925455 -48.897208 318.08189088 -50.79423523 315.17185974 C-52.03099901 313.27432933 -53.26621463 311.3757889 -54.49983215 309.47621155 C-58.67934287 303.05628307 -62.95692037 296.71434333 -67.39570618 290.47045898 C-72.77592521 282.80742961 -76.1090986 274.84716498 -74.79541016 265.4050293 C-73.29431598 256.94797192 -69.52282528 250.2815097 -62.84228516 244.8034668 C-55.93100809 240.15059917 -48.06918726 238.32757601 -39.79541016 239.4050293 C-32.60927365 241.25661043 -28.64779744 243.52803989 -22.79541016 248.4050293 C-22.46541016 210.7850293 -22.13541016 173.1650293 -21.79541016 134.4050293 C-24.76541016 133.4150293 -24.76541016 133.4150293 -27.79541016 132.4050293 C-29.77626077 131.40684609 -31.735876 130.36525577 -33.67041016 129.2800293 C-34.63720703 128.74120117 -35.60400391 128.20237305 -36.60009766 127.6472168 C-37.32455078 127.23729492 -38.04900391 126.82737305 -38.79541016 126.4050293 C-38.85728516 127.6631543 -38.91916016 128.9212793 -38.98291016 130.2175293 C-39.08837891 132.36206055 -39.08837891 132.36206055 -39.79541016 134.4050293 C-44.31082081 137.9979367 -48.3619611 137.91798178 -53.92431641 137.7409668 C-57.97209223 137.26734949 -59.87348276 136.257387 -62.79541016 133.4050293 C-65.04535504 130.54612497 -66.89680359 127.50479512 -68.79541016 124.4050293 C-69.58560133 123.23647957 -70.3787737 122.06994232 -71.17431641 120.9050293 C-75.74612086 114.03305802 -79.09516611 108.50687975 -78.35791016 99.9362793 C-77.26492731 95.01785649 -75.20400756 92.4111703 -71.17041016 89.5300293 C-68.79541016 88.4050293 -68.79541016 88.4050293 -66.79541016 88.4050293 C-67.12541016 87.4150293 -67.45541016 86.4250293 -67.79541016 85.4050293 C-67.8884956 83.74044256 -67.925372 82.07220933 -67.92041016 80.4050293 C-67.92298828 79.5387793 -67.92556641 78.6725293 -67.92822266 77.7800293 C-67.79541016 75.4050293 -67.79541016 75.4050293 -66.79541016 72.4050293 C-67.51728516 72.1781543 -68.23916016 71.9512793 -68.98291016 71.7175293 C-72.87529646 69.90108236 -75.85678502 67.28227957 -77.79541016 63.4050293 C-79.15552865 53.60179816 -76.42965937 47.47537426 -71.10791016 39.4050293 C-70.48207031 38.39569336 -69.85623047 37.38635742 -69.21142578 36.34643555 C-65.7800814 30.93533122 -62.68940508 26.35202676 -56.79541016 23.4050293 C-54.83991759 23.28245469 -52.87970397 23.22950542 -50.92041016 23.2175293 C-49.87111328 23.20334961 -48.82181641 23.18916992 -47.74072266 23.17456055 C-44.79541016 23.4050293 -44.79541016 23.4050293 -42.66259766 24.47924805 C-40.85497681 25.58700537 -40.85497681 25.58700537 -38.89697266 25.18237305 C-34.15751959 23.42930398 -29.76642243 21.58697128 -25.79541016 18.4050293 C-24.76680767 15.83140663 -24.49834862 13.63237223 -24.24072266 10.8815918 C-23.50295458 6.77856585 -20.94386988 4.02474006 -17.79541016 1.4050293 C-12.17792995 -0.46746411 -5.89098436 0.05854321 0 0 Z " fill="#6E81A4" transform="translate(237.79541015625,103.594970703125)"/>
<path d="M0 0 C4.23679903 0.88266647 5.42954228 2.11948414 8 5.625 C8.7325739 9.5753148 8.63124967 13.4766409 8.56762695 17.48364258 C8.56835709 18.68406189 8.56908722 19.8844812 8.56983948 21.12127686 C8.56695702 24.40436221 8.54191918 27.68637588 8.50696969 30.96924806 C8.47566929 34.40317245 8.47277259 37.83711891 8.46684265 41.27116394 C8.45131486 47.77002978 8.4103014 54.26847403 8.3600952 60.7671544 C8.30416811 68.16731171 8.27670687 75.56748939 8.25161803 82.9678055 C8.1993841 98.18712099 8.11045365 113.40598952 8 128.625 C13.28 128.625 18.56 128.625 24 128.625 C23.97381592 127.10624268 23.94763184 125.58748535 23.9206543 124.02270508 C23.83012105 118.38532252 23.7727382 112.74800415 23.7253418 107.11010742 C23.70020504 104.67054436 23.66609054 102.23105655 23.62280273 99.79174805 C23.56211771 96.28415354 23.533781 92.7775551 23.51171875 89.26953125 C23.48591232 88.17977493 23.4601059 87.09001862 23.43351746 85.96723938 C23.43071747 78.39976286 23.43071747 78.39976286 26.34301758 74.4362793 C29 72.625 29 72.625 32 72 C36.22891198 72.88102333 37.43247843 74.13074145 40 77.625 C40.69750101 81.5102386 40.58149477 85.33330149 40.48828125 89.26953125 C40.48120651 90.3944548 40.47413177 91.51937836 40.46684265 92.6783905 C40.43889144 96.26544149 40.37614717 99.85092212 40.3125 103.4375 C40.28741827 105.87172222 40.26460489 108.30596895 40.24414062 110.74023438 C40.18906162 116.70242644 40.10277994 122.66344713 40 128.625 C45.28 128.625 50.56 128.625 56 128.625 C55.94199219 126.15644531 55.88398438 123.68789063 55.82421875 121.14453125 C55.78518889 118.74506846 55.75484987 116.34564147 55.7253418 113.94604492 C55.70024653 112.28247161 55.66616204 110.61900804 55.62280273 108.95581055 C55.5619254 106.56010847 55.53374231 104.16586749 55.51171875 101.76953125 C55.48591232 101.0297554 55.4601059 100.28997955 55.43351746 99.52778625 C55.43137321 95.55134805 55.85002781 93.81510229 58.34301758 90.6550293 C61 88.625 61 88.625 64 88 C68.10088626 88.8543513 69.41795197 90.35203822 72 93.625 C72.43900428 96.54886291 72.58958897 98.86540945 72.48828125 101.76953125 C72.47766914 102.9242115 72.47766914 102.9242115 72.46684265 104.10221863 C72.43896925 106.54832303 72.37625137 108.99209384 72.3125 111.4375 C72.28740768 113.10087827 72.26459613 114.76429262 72.24414062 116.42773438 C72.19342534 120.4951002 72.09558199 124.55745528 72 128.625 C77.28 128.625 82.56 128.625 88 128.625 C87.91298828 126.65466797 87.91298828 126.65466797 87.82421875 124.64453125 C87.77730952 122.90888977 87.73181061 121.17320977 87.6875 119.4375 C87.6246582 118.14102539 87.6246582 118.14102539 87.56054688 116.81835938 C87.47341912 112.27029077 87.50180659 110.28174742 90.33203125 106.55078125 C93 104.625 93 104.625 96 104 C100.08741407 104.8515446 101.4090025 106.38064946 104 109.625 C104.49604791 112.41838994 104.68637114 114.60348801 104.64697266 117.39013672 C104.65573425 118.15681168 104.66449585 118.92348663 104.67352295 119.71339417 C104.69549613 122.24440457 104.68095845 124.77365964 104.6640625 127.3046875 C104.66743472 129.07765027 104.67229071 130.85061078 104.67855835 132.62356567 C104.68592973 136.34431919 104.67522878 140.06447259 104.65185547 143.78515625 C104.62357505 148.51354111 104.63963651 153.2404938 104.66971779 157.96882439 C104.68796256 161.63591894 104.68195153 165.30268586 104.66907883 168.96979141 C104.66578108 170.71019796 104.66970149 172.45063587 104.68147659 174.19100571 C104.7795536 192.78428924 100.37096699 208.36403873 87.41796875 222.25 C77.87335526 231.625 77.87335526 231.625 74 231.625 C72.99314613 234.64556161 72.84627314 236.76054614 72.79467773 239.92260742 C72.77449585 241.01859253 72.75431396 242.11457764 72.73352051 243.24377441 C72.71704468 244.39438354 72.70056885 245.54499268 72.68359375 246.73046875 C72.66494263 247.78899048 72.6462915 248.84751221 72.6270752 249.93811035 C72.55872326 253.89615449 72.4986092 257.85433742 72.4375 261.8125 C72.293125 270.660625 72.14875 279.50875 72 288.625 C49.23 288.625 26.46 288.625 3 288.625 C2.8125 264.375 2.8125 264.375 2.79223633 256.73339844 C2.76579152 254.73369712 2.73751465 252.73401883 2.70703125 250.734375 C2.71101929 249.69684082 2.71500732 248.65930664 2.71911621 247.59033203 C2.72933788 241.73912115 2.72933788 241.73912115 -0.39013672 237.02612305 C-1.2513916 236.56375244 -2.11264648 236.10138184 -3 235.625 C-3.81339844 235.12097656 -4.62679687 234.61695313 -5.46484375 234.09765625 C-7.11019575 233.15931174 -8.75602771 232.22180832 -10.40234375 231.28515625 C-17.28191195 226.88843973 -21.13324853 221.95058962 -25.5078125 215.14453125 C-26.11454803 214.21767014 -26.72128357 213.29080902 -27.34640503 212.33586121 C-29.28159656 209.37549314 -31.20359687 206.40683137 -33.125 203.4375 C-35.02123125 200.52695478 -36.92012558 197.61816019 -38.8192749 194.70951843 C-40.06666374 192.79625966 -41.3113503 190.88123627 -42.55328369 188.96443176 C-45.50806943 184.40876511 -48.49146142 179.88060631 -51.56933594 175.40698242 C-52.40523758 174.18473213 -52.40523758 174.18473213 -53.25802612 172.93778992 C-54.29658934 171.42493132 -55.3441014 169.91815911 -56.40237427 168.41902161 C-59.67102403 163.64420412 -61.44775309 159.71229962 -60.6640625 153.76171875 C-59.2408648 149.18237085 -57.0973638 147.31681631 -53.125 144.8125 C-49.67931091 143.50313814 -47.64647042 143.09322306 -44 143.625 C-35.59815943 148.09406413 -29.80204284 155.9353478 -24.015625 163.26953125 C-21.47559059 166.23782727 -19.94410687 167.54632443 -16 167.875 C-12.81861771 167.85340733 -12.81861771 167.85340733 -10 165.625 C-8.89227614 162.30182842 -8.87530061 159.83877012 -8.87542725 156.33755493 C-8.87286423 155.01963455 -8.87030121 153.70171417 -8.86766052 152.34385681 C-8.86973049 150.87979119 -8.87185324 149.41572564 -8.87402344 147.95166016 C-8.87262874 146.41255136 -8.87072947 144.87344294 -8.86836243 143.33433533 C-8.86386418 140.01784583 -8.86200932 136.70136872 -8.86190033 133.38487625 C-8.86076069 128.14086007 -8.84792784 122.8969144 -8.83233643 117.65292358 C-8.82976357 116.76816082 -8.82719072 115.88339805 -8.8245399 114.97182429 C-8.81927333 113.16255564 -8.81398785 111.35328705 -8.80868387 109.54401851 C-8.77356069 97.33434774 -8.74702362 85.12476454 -8.74951172 72.91503906 C-8.75109956 64.68045543 -8.73508287 56.44611203 -8.69880509 48.21160543 C-8.68033209 43.85351828 -8.67101379 39.4958323 -8.68328094 35.13771439 C-8.69470776 31.03843313 -8.68303797 26.93987048 -8.65364647 22.84068489 C-8.64699972 21.33666725 -8.64888338 19.83258395 -8.65994453 18.3285923 C-8.67380312 16.27367218 -8.65694363 14.22118279 -8.63250732 12.16641235 C-8.63104076 11.01714579 -8.6295742 9.86787922 -8.6280632 8.68378639 C-7.62223498 3.78521303 -4.88348048 1.01739177 0 0 Z " fill="#FEDAAB" transform="translate(240,215.375)"/>
<path d="M0 0 C6.7085858 3.79883774 11.38044074 8.74427083 13.9453125 16.1015625 C14.52834644 20.3011217 14.55012241 24.45996107 14.5546875 28.6953125 C14.57122375 29.88257935 14.58776001 31.06984619 14.60479736 32.29309082 C14.65314713 36.0626347 14.67462054 39.83177548 14.6953125 43.6015625 C14.72348289 46.1666868 14.7534118 48.73179244 14.78515625 51.296875 C14.85890292 57.56503131 14.91062173 63.83307486 14.9453125 70.1015625 C15.90445557 70.08416016 16.86359863 70.06675781 17.85180664 70.04882812 C19.11114014 70.03529297 20.37047363 70.02175781 21.66796875 70.0078125 C22.91586182 69.99041016 24.16375488 69.97300781 25.44946289 69.95507812 C32.40204479 70.24640777 36.23256379 73.07942224 40.8828125 78.0390625 C43.46448198 80.99710293 44.4103013 83.20749361 44.9453125 87.1015625 C45.6053125 86.7715625 46.2653125 86.4415625 46.9453125 86.1015625 C54.84537675 85.46914266 62.50501375 84.9406981 68.9453125 90.1015625 C73.19996043 94.08198507 76.13402724 97.19663814 76.9453125 103.1015625 C77.6053125 102.7715625 78.2653125 102.4415625 78.9453125 102.1015625 C86.83898758 101.46965413 94.51286989 100.93546206 100.9453125 106.1015625 C106.21933627 111.12394298 109.69341666 115.48346661 110.21273804 122.94271851 C110.23063044 124.4648191 110.23760567 125.98707261 110.23583984 127.50927734 C110.24255707 128.34422729 110.24927429 129.17917725 110.25619507 130.03942871 C110.27517238 132.79718002 110.27910047 135.55468746 110.28125 138.3125 C110.28768286 140.24240212 110.29441158 142.17230327 110.30142212 144.10220337 C110.31339763 148.15230565 110.31710314 152.20232267 110.31591797 156.25244141 C110.31571586 161.40429989 110.34290471 166.55560004 110.37746239 171.70732689 C110.39988153 175.69860258 110.40375079 179.6897477 110.40269852 183.68107986 C110.40503632 185.57780488 110.41375529 187.47453451 110.42936325 189.37119675 C110.59498004 211.5949787 105.65193418 230.45411157 89.9453125 247.1015625 C81.79268929 255.1015625 81.79268929 255.1015625 78.9453125 255.1015625 C78.9453125 270.6115625 78.9453125 286.1215625 78.9453125 302.1015625 C73.3353125 302.1015625 67.7253125 302.1015625 61.9453125 302.1015625 C61.82170194 294.50274594 61.73096462 286.90451476 61.6706543 279.30493164 C61.64551249 276.719867 61.61139435 274.13487343 61.56811523 271.55004883 C61.50745328 267.83396876 61.47909831 264.11882864 61.45703125 260.40234375 C61.43122482 259.24696609 61.4054184 258.09158844 61.37882996 256.90119934 C61.37601731 248.85220412 61.37601731 248.85220412 64.35571289 244.92333984 C65.21028076 244.32215332 66.06484863 243.7209668 66.9453125 243.1015625 C67.57953125 242.62332031 68.21375 242.14507812 68.8671875 241.65234375 C69.47046875 241.24371094 70.07375 240.83507812 70.6953125 240.4140625 C80.1034434 233.42009349 85.87908565 225.04340928 89.9453125 214.1015625 C90.19838669 213.48316498 90.45146088 212.86476746 90.71220398 212.22763062 C93.84211059 203.54034709 93.39927225 194.65218348 93.37890625 185.546875 C93.38347367 183.75470788 93.38878091 181.9625425 93.39479065 180.17037964 C93.40368242 176.43350048 93.40133977 172.69683556 93.39135742 168.95996094 C93.37981144 164.1714422 93.40018462 159.38365476 93.42927456 154.59523201 C93.44760304 150.90291665 93.44735188 147.21077822 93.44163704 143.5184288 C93.44148374 141.7521753 93.44753524 139.98590988 93.45992851 138.21969986 C93.47479168 135.75683384 93.46420103 133.29534221 93.44702148 130.83251953 C93.46152344 129.74154213 93.46152344 129.74154213 93.47631836 128.62852478 C93.42658928 125.2273661 93.17069539 123.40127349 91.10145569 120.64962769 C88.96992291 118.87865677 88.96992291 118.87865677 85.9453125 118.6015625 C82.10510405 119.24159724 81.22242541 119.94422107 78.9453125 123.1015625 C78.3118044 126.3441632 78.24888519 129.55440678 78.1953125 132.8515625 C78.16566406 133.73972656 78.13601563 134.62789062 78.10546875 135.54296875 C78.03496189 137.72868147 77.98785016 139.91512661 77.9453125 142.1015625 C72.6653125 142.1015625 67.3853125 142.1015625 61.9453125 142.1015625 C61.90664063 138.38132812 61.90664063 138.38132812 61.8671875 134.5859375 C61.82875721 132.17973557 61.78360041 129.77374723 61.73779297 127.36767578 C61.70959532 125.69753239 61.68837471 124.02725585 61.67431641 122.35693359 C61.65286913 119.95340878 61.60621405 117.55148267 61.5546875 115.1484375 C61.55284454 114.0310318 61.55284454 114.0310318 61.55096436 112.89105225 C61.45327415 109.42100442 61.20048307 107.44237343 59.09472656 104.62988281 C56.15363552 102.53864816 54.47782821 102.51280988 50.9453125 103.1015625 C48.63994353 104.57622869 48.63994353 104.57622869 46.9453125 107.1015625 C46.52744548 109.90852253 46.34056937 112.34008191 46.3359375 115.1484375 C46.31940125 115.91963928 46.30286499 116.69084106 46.28582764 117.4854126 C46.23736657 119.94087704 46.21598213 122.39572234 46.1953125 124.8515625 C46.16715104 126.51956237 46.13722336 128.18753342 46.10546875 129.85546875 C46.02829065 133.93778417 45.98775964 138.01814801 45.9453125 142.1015625 C40.6653125 142.1015625 35.3853125 142.1015625 29.9453125 142.1015625 C29.9359668 140.57756836 29.92662109 139.05357422 29.91699219 137.48339844 C29.87713942 131.832547 29.81139293 126.18224269 29.73779297 120.53173828 C29.70955615 118.08552068 29.68835519 115.63921138 29.67431641 113.19287109 C29.65292519 109.67758136 29.60629212 106.16339738 29.5546875 102.6484375 C29.55345886 101.5535199 29.55223022 100.45860229 29.55096436 99.33050537 C29.53124573 98.30974915 29.5115271 97.28899292 29.49121094 96.23730469 C29.48232849 95.34017761 29.47344604 94.44305054 29.46429443 93.51873779 C28.77817834 90.32312972 27.47468626 89.11045063 24.9453125 87.1015625 C21.9453125 86.43489583 21.9453125 86.43489583 18.9453125 87.1015625 C16.41593874 89.11045063 15.11244666 90.32312972 14.42633057 93.51873779 C14.4130069 94.86442841 14.4130069 94.86442841 14.39941406 96.23730469 C14.37969543 97.25806091 14.35997681 98.27881714 14.33966064 99.33050537 C14.33843201 100.42542297 14.33720337 101.52034058 14.3359375 102.6484375 C14.31940125 103.774776 14.30286499 104.9011145 14.28582764 106.06158447 C14.2372512 109.65829875 14.21595441 113.25458992 14.1953125 116.8515625 C14.16716103 119.29038598 14.13723477 121.72918967 14.10546875 124.16796875 C14.03148905 130.14579852 13.98197288 136.12339206 13.9453125 142.1015625 C8.6653125 142.1015625 3.3853125 142.1015625 -2.0546875 142.1015625 C-2.06015594 139.80345612 -2.06015594 139.80345612 -2.06573486 137.45892334 C-2.10263599 123.03820383 -2.16011704 108.61773366 -2.23859024 94.19718552 C-2.27840699 86.78298324 -2.31078599 79.36888752 -2.32568359 71.95458984 C-2.33868657 65.49259454 -2.36561618 59.0308334 -2.40930057 52.56896996 C-2.43194635 49.14710454 -2.44759635 45.72552825 -2.44657135 42.30358124 C-2.44892697 38.4842537 -2.47589544 34.66584896 -2.50878906 30.84667969 C-2.5037587 29.71091995 -2.49872833 28.57516022 -2.49354553 27.40498352 C-2.50745834 26.36454391 -2.52137115 25.32410431 -2.53570557 24.25213623 C-2.53939274 23.34877911 -2.54307991 22.44542198 -2.54687881 21.5146904 C-3.22006057 18.31570284 -4.52420464 17.10867418 -7.0546875 15.1015625 C-10.0546875 14.43489583 -10.0546875 14.43489583 -13.0546875 15.1015625 C-15.92182509 17.26989878 -16.94370887 18.45045013 -17.55411625 22.03171444 C-17.55390697 23.17930516 -17.55369768 24.32689589 -17.55348206 25.50926208 C-17.56784805 27.48820465 -17.56784805 27.48820465 -17.58250427 29.50712585 C-17.57300681 30.9675621 -17.56315291 32.42799605 -17.55297852 33.88842773 C-17.55680181 35.42768886 -17.56242095 36.96694642 -17.56970215 38.50619507 C-17.58165664 41.8200392 -17.58116055 45.13356653 -17.57110786 48.44741631 C-17.5555565 53.68739617 -17.56921851 58.92705014 -17.58714294 64.16700745 C-17.61797434 74.34488432 -17.61946369 84.52266185 -17.61749268 94.70057678 C-17.61610019 107.65230464 -17.62643 120.60395605 -17.6660704 133.55562741 C-17.68101128 138.76441395 -17.68072854 143.97291248 -17.66859257 149.18170345 C-17.66388303 152.42256871 -17.67139929 155.66332366 -17.68213654 158.90417099 C-17.68454348 160.40659096 -17.68180446 161.90902935 -17.67352867 163.41142845 C-17.66290129 165.46353681 -17.6706626 167.51479809 -17.68287659 169.56687927 C-17.68229028 170.71484702 -17.68170397 171.86281477 -17.68109989 173.04556942 C-18.0993393 176.46681977 -19.00999263 178.35181471 -21.0546875 181.1015625 C-23.90793187 182.52818469 -25.88923299 182.41190118 -29.0546875 182.1015625 C-32.85613617 179.45707647 -35.58535341 176.41892568 -38.4296875 172.7890625 C-45.06393397 164.03007744 -45.06393397 164.03007744 -54.0546875 158.1015625 C-58.97195482 157.75849734 -62.24593534 158.42760237 -66.0546875 161.6015625 C-66.7146875 162.4265625 -67.3746875 163.2515625 -68.0546875 164.1015625 C-68.3846875 164.4315625 -68.7146875 164.7615625 -69.0546875 165.1015625 C-70.28786563 173.81059351 -68.09634971 179.10780947 -63.16796875 186.1328125 C-62.5551152 187.04881226 -61.94226166 187.96481201 -61.31083679 188.90856934 C-59.35293353 191.82281631 -57.36114976 194.71190242 -55.3671875 197.6015625 C-54.07776906 199.50885767 -52.79063975 201.41770249 -51.50585938 203.328125 C-48.96360033 207.09897658 -46.4032591 210.85639997 -43.82543945 214.60302734 C-41.31810145 218.24754771 -38.83879717 221.9085748 -36.38354492 225.58837891 C-35.80086349 226.45628052 -35.21818207 227.32418213 -34.61784363 228.21838379 C-33.52738419 229.84358084 -32.4426592 231.47264697 -31.36494446 233.10632324 C-27.44352771 238.91905077 -23.2910432 242.79746263 -17.0546875 246.1015625 C-15.54916985 247.03017591 -14.04878087 247.96717747 -12.5546875 248.9140625 C-11.925625 249.29175781 -11.2965625 249.66945313 -10.6484375 250.05859375 C-9.0546875 251.1015625 -9.0546875 251.1015625 -7.0546875 253.1015625 C-6.81417847 255.20230103 -6.81417847 255.20230103 -6.82763672 257.82666016 C-6.82778778 258.80752594 -6.82793884 259.78839172 -6.82809448 260.79898071 C-6.83841705 261.86047333 -6.84873962 262.92196594 -6.859375 264.015625 C-6.8622049 265.10040131 -6.86503479 266.18517761 -6.86795044 267.30282593 C-6.87917172 270.77751563 -6.90427988 274.25195032 -6.9296875 277.7265625 C-6.93971478 280.07812129 -6.94884107 282.4296841 -6.95703125 284.78125 C-6.97911743 290.5547862 -7.0136606 296.32813107 -7.0546875 302.1015625 C-12.3346875 302.1015625 -17.6146875 302.1015625 -23.0546875 302.1015625 C-23.02737549 300.92650146 -23.00006348 299.75144043 -22.97192383 298.54077148 C-22.88473943 294.15878431 -22.87049759 289.77900484 -22.87768555 285.39624023 C-22.87073225 283.50381215 -22.84429384 281.61134732 -22.79760742 279.71948242 C-22.09399355 268.91111041 -22.09399355 268.91111041 -26.30224609 259.54345703 C-29.04524663 257.77178014 -29.04524663 257.77178014 -31.90893555 256.69555664 C-40.02128797 252.58492032 -45.00841518 244.7186156 -49.79296875 237.2578125 C-50.39924606 236.33045288 -51.00552338 235.40309326 -51.63017273 234.44763184 C-53.55167462 231.50479026 -55.45991157 228.5536392 -57.3671875 225.6015625 C-59.2604474 222.6890787 -61.15648534 219.77842408 -63.05351257 216.86839294 C-64.29027636 214.97086253 -65.52549197 213.0723221 -66.7591095 211.17274475 C-70.93862022 204.75281627 -75.21619772 198.41087653 -79.65498352 192.16699219 C-85.03520255 184.50396281 -88.36837594 176.54369818 -87.0546875 167.1015625 C-85.55359332 158.64450512 -81.78210262 151.9780429 -75.1015625 146.5 C-68.19028543 141.84713237 -60.3284646 140.02410921 -52.0546875 141.1015625 C-45.07942107 142.89881081 -40.46613404 145.48856434 -35.0546875 150.1015625 C-35.05322094 149.41833672 -35.05175438 148.73511093 -35.05024338 148.03118134 C-35.01315205 131.38790829 -34.95410666 114.74487152 -34.87078476 98.10176849 C-34.83101694 90.05319393 -34.79861303 82.00471683 -34.78369141 73.95605469 C-34.77066313 66.9388201 -34.74366865 59.92180015 -34.70007443 52.90468645 C-34.6774858 49.19094661 -34.66177524 45.47747124 -34.66280365 41.76365662 C-34.66369104 37.61231763 -34.63339102 33.46175643 -34.60058594 29.31054688 C-34.60813148 27.47419174 -34.60813148 27.47419174 -34.61582947 25.60073853 C-34.51585603 17.41984985 -33.4479976 11.92586547 -27.87109375 5.640625 C-27.12730469 5.00898438 -26.38351563 4.37734375 -25.6171875 3.7265625 C-24.87597656 3.07945312 -24.13476562 2.43234375 -23.37109375 1.765625 C-16.42365906 -3.22528087 -7.75505918 -3.35947908 0 0 Z " fill="#000000" transform="translate(250.0546875,201.8984375)"/>
<path d="M0 0 C1.62944769 -0.02155526 3.25878036 -0.05562971 4.88769531 -0.10253906 C20.16863189 -0.53811861 20.16863189 -0.53811861 24.68896484 3.18237305 C26.69417507 5.36045817 28.08598006 7.66338376 29.20458984 10.4050293 C29.11177734 12.2922168 29.11177734 12.2922168 29.01708984 14.2175293 C29.10130889 16.36482191 29.10130889 16.36482191 30.20458984 18.4050293 C34.20415683 21.53289578 38.35144523 23.89714777 43.20458984 25.4050293 C46.38586575 24.73368956 46.38586575 24.73368956 49.20458984 23.4050293 C55.12181784 22.1643202 59.97799872 21.99366144 65.20458984 25.4050293 C69.74419483 30.23166422 73.05594891 35.74062774 76.45458984 41.4050293 C77.26669922 42.71987305 77.26669922 42.71987305 78.09521484 44.0612793 C81.52314453 49.75164257 84.22512238 54.67622129 82.57958984 61.4675293 C81.42297358 65.52733002 79.54521801 67.76360237 76.20458984 70.4050293 C73.39208984 71.7175293 73.39208984 71.7175293 71.20458984 72.4050293 C71.53458984 73.3950293 71.86458984 74.3850293 72.20458984 75.4050293 C72.29767529 77.06961603 72.33455169 78.73784926 72.32958984 80.4050293 C72.33216797 81.2712793 72.33474609 82.1375293 72.33740234 83.0300293 C72.20458984 85.4050293 72.20458984 85.4050293 71.20458984 88.4050293 C71.90583984 88.5906543 72.60708984 88.7762793 73.32958984 88.9675293 C77.48528563 91.04537719 79.94803883 93.33133592 82.20458984 97.4050293 C84.03699861 107.00224774 80.69023665 113.56003744 75.51708984 121.4050293 C74.89125 122.41436523 74.26541016 123.42370117 73.62060547 124.46362305 C70.18926109 129.87472737 67.09858477 134.45803183 61.20458984 137.4050293 C54.56297767 137.92204102 48.85979977 138.17516925 43.20458984 134.4050293 C43.0842232 128.62743046 43.37253165 123.12542941 44.20458984 117.4050293 C48.16894517 117.95819516 51.52082764 118.86123798 55.20458984 120.4050293 C56.70996019 117.94984195 58.2090341 115.49118409 59.70458984 113.0300293 C60.13384766 112.33135742 60.56310547 111.63268555 61.00537109 110.9128418 C63.36471291 107.41165264 63.36471291 107.41165264 64.20458984 103.4050293 C62.51950594 102.08039115 60.73759862 100.97135177 58.93115234 99.8190918 C56.84490858 98.11044871 56.19899722 96.91604087 55.20458984 94.4050293 C54.74702803 89.79172958 54.83427502 85.16366592 54.82958984 80.5300293 C54.80509766 79.26288086 54.78060547 77.99573242 54.75537109 76.69018555 C54.71871543 65.07033869 54.71871543 65.07033869 59.20458984 60.4050293 C61.95458984 58.5300293 61.95458984 58.5300293 64.20458984 57.4050293 C62.71940185 53.36201755 60.77580986 49.79356673 58.57958984 46.0925293 C57.94794922 45.02389648 57.31630859 43.95526367 56.66552734 42.85424805 C55.94236328 41.64188477 55.94236328 41.64188477 55.20458984 40.4050293 C54.04958984 40.9000293 52.89458984 41.3950293 51.70458984 41.9050293 C46.98769664 43.92655496 41.96281203 44.47683669 37.14257812 42.60375977 C35.04233904 41.51223766 33.03111796 40.33563756 31.01708984 39.0925293 C30.33195312 38.6884082 29.64681641 38.28428711 28.94091797 37.86791992 C27.61507616 37.08313387 26.29431296 36.28968619 24.97949219 35.48657227 C23.45304282 34.55642499 21.90670521 33.65905719 20.35693359 32.76831055 C16.64713319 30.41854586 14.58062893 27.53314655 13.20458984 23.4050293 C13.20458984 21.0950293 13.20458984 18.7850293 13.20458984 16.4050293 C5.94458984 16.4050293 -1.31541016 16.4050293 -8.79541016 16.4050293 C-8.79541016 19.0450293 -8.79541016 21.6850293 -8.79541016 24.4050293 C-11.50720878 30.16760138 -15.48122602 32.39529847 -20.79541016 35.4050293 C-21.87822266 36.09467773 -22.96103516 36.78432617 -24.07666016 37.49487305 C-30.04739877 41.23952703 -35.22796409 44.35125454 -42.51416016 43.97924805 C-45.52394404 43.22164834 -48.06870589 41.86632339 -50.79541016 40.4050293 C-52.3007805 42.86021665 -53.79985441 45.3188745 -55.29541016 47.7800293 C-55.72466797 48.47870117 -56.15392578 49.17737305 -56.59619141 49.8972168 C-58.95553322 53.39840595 -58.95553322 53.39840595 -59.79541016 57.4050293 C-58.86728516 58.0031543 -57.93916016 58.6012793 -56.98291016 59.2175293 C-53.63924083 61.51220432 -52.5304301 62.81504687 -50.79541016 66.4050293 C-50.18411544 70.84550366 -50.33176342 75.30180678 -50.35791016 79.7800293 C-50.32793945 81.58987305 -50.32793945 81.58987305 -50.29736328 83.4362793 C-50.30112436 90.28143478 -50.54637021 94.91765348 -54.79541016 100.4050293 C-57.54541016 102.3425293 -57.54541016 102.3425293 -59.79541016 103.4050293 C-58.31022217 107.44804105 -56.36663017 111.01649186 -54.17041016 114.7175293 C-53.53876953 115.78616211 -52.90712891 116.85479492 -52.25634766 117.95581055 C-51.77423828 118.76405273 -51.29212891 119.57229492 -50.79541016 120.4050293 C-49.90853516 119.9100293 -49.02166016 119.4150293 -48.10791016 118.9050293 C-44.91954778 117.46124256 -43.2135347 117.10343007 -39.79541016 117.4050293 C-39.6605342 120.17747944 -39.56140209 122.94340018 -39.48291016 125.7175293 C-39.44101563 126.50321289 -39.39912109 127.28889648 -39.35595703 128.09838867 C-39.30912701 130.29939979 -39.33934779 132.25052779 -39.79541016 134.4050293 C-43.92581735 138.28010223 -48.54123971 137.91227646 -53.92431641 137.7409668 C-57.97209223 137.26734949 -59.87348276 136.257387 -62.79541016 133.4050293 C-65.04535504 130.54612497 -66.89680359 127.50479512 -68.79541016 124.4050293 C-69.58560133 123.23647957 -70.3787737 122.06994232 -71.17431641 120.9050293 C-75.74612086 114.03305802 -79.09516611 108.50687975 -78.35791016 99.9362793 C-77.26492731 95.01785649 -75.20400756 92.4111703 -71.17041016 89.5300293 C-68.79541016 88.4050293 -68.79541016 88.4050293 -66.79541016 88.4050293 C-67.12541016 87.4150293 -67.45541016 86.4250293 -67.79541016 85.4050293 C-67.8884956 83.74044256 -67.925372 82.07220933 -67.92041016 80.4050293 C-67.92298828 79.5387793 -67.92556641 78.6725293 -67.92822266 77.7800293 C-67.79541016 75.4050293 -67.79541016 75.4050293 -66.79541016 72.4050293 C-67.51728516 72.1781543 -68.23916016 71.9512793 -68.98291016 71.7175293 C-72.87529646 69.90108236 -75.85678502 67.28227957 -77.79541016 63.4050293 C-79.15552865 53.60179816 -76.42965937 47.47537426 -71.10791016 39.4050293 C-70.48207031 38.39569336 -69.85623047 37.38635742 -69.21142578 36.34643555 C-65.7800814 30.93533122 -62.68940508 26.35202676 -56.79541016 23.4050293 C-54.83991759 23.28245469 -52.87970397 23.22950542 -50.92041016 23.2175293 C-49.87111328 23.20334961 -48.82181641 23.18916992 -47.74072266 23.17456055 C-44.79541016 23.4050293 -44.79541016 23.4050293 -42.66259766 24.47924805 C-40.85497681 25.58700537 -40.85497681 25.58700537 -38.89697266 25.18237305 C-34.15751959 23.42930398 -29.76642243 21.58697128 -25.79541016 18.4050293 C-24.76680767 15.83140663 -24.49834862 13.63237223 -24.24072266 10.8815918 C-23.50295458 6.77856585 -20.94386988 4.02474006 -17.79541016 1.4050293 C-12.17792995 -0.46746411 -5.89098436 0.05854321 0 0 Z " fill="#000000" transform="translate(237.79541015625,103.594970703125)"/>
<path d="M0 0 C8.80288754 6.34043826 15.4186507 14.72648904 17.58203125 25.4921875 C18.92007691 37.90936834 17.85729499 48.88109459 10.39453125 59.2421875 C3.58210875 67.3274193 -4.72289951 73.55522767 -15.48876953 74.71533203 C-28.40007937 75.61089799 -39.16843729 74.04490094 -49.3515625 65.46484375 C-57.86959925 57.33325857 -62.42046403 48.68416257 -62.88867188 36.85693359 C-63.04371176 24.34263074 -60.22647828 14.71931927 -51.41796875 5.4921875 C-37.63784493 -7.66275112 -16.31305228 -10.17259803 0 0 Z " fill="#000001" transform="translate(70.41796875,261.5078125)"/>
<path d="M0 0 C8.80288754 6.34043826 15.4186507 14.72648904 17.58203125 25.4921875 C18.92007691 37.90936834 17.85729499 48.88109459 10.39453125 59.2421875 C3.58210875 67.3274193 -4.72289951 73.55522767 -15.48876953 74.71533203 C-28.40007937 75.61089799 -39.16843729 74.04490094 -49.3515625 65.46484375 C-57.86959925 57.33325857 -62.42046403 48.68416257 -62.88867188 36.85693359 C-63.04371176 24.34263074 -60.22647828 14.71931927 -51.41796875 5.4921875 C-37.63784493 -7.66275112 -16.31305228 -10.17259803 0 0 Z " fill="#000001" transform="translate(486.41796875,13.5078125)"/>
<path d="M0 0 C8.34468007 4.97590182 13.53387008 11.86345977 16.109375 21.2578125 C17.10789012 32.35758522 16.45884702 41.9922991 9.359375 51.0703125 C3.70168013 57.1280464 -3.34488592 60.84888618 -11.625 61.59375 C-22.24007794 61.83258597 -31.18444828 60.63001931 -39.2890625 53.1015625 C-47.32833275 43.84659773 -48.61982016 35.03008751 -48.06982422 23.20654297 C-47.37894187 15.69343275 -43.42276801 9.23166585 -37.890625 4.2578125 C-27.15195714 -3.81766573 -12.32399863 -5.91386512 0 0 Z " fill="#000000" transform="translate(455.890625,234.7421875)"/>
<path d="M0 0 C8.34468007 4.97590182 13.53387008 11.86345977 16.109375 21.2578125 C17.10789012 32.35758522 16.45884702 41.9922991 9.359375 51.0703125 C3.70168013 57.1280464 -3.34488592 60.84888618 -11.625 61.59375 C-22.24007794 61.83258597 -31.18444828 60.63001931 -39.2890625 53.1015625 C-47.32833275 43.84659773 -48.61982016 35.03008751 -48.06982422 23.20654297 C-47.37894187 15.69343275 -43.42276801 9.23166585 -37.890625 4.2578125 C-27.15195714 -3.81766573 -12.32399863 -5.91386512 0 0 Z " fill="#000000" transform="translate(103.890625,10.7421875)"/>
<path d="M0 0 C1.55129505 2.1059646 2.87648775 4.12755043 4.1875 6.375 C4.55552734 6.97828125 4.92355469 7.5815625 5.30273438 8.203125 C8 12.70690805 8 12.70690805 8 15 C6.61743164 16.06225586 6.61743164 16.06225586 4.66015625 17.21484375 C3.93602539 17.64772705 3.21189453 18.08061035 2.46582031 18.52661133 C1.67272461 18.99220459 0.87962891 19.45779785 0.0625 19.9375 C-1.6091899 20.93824065 -3.27973841 21.94089008 -4.94921875 22.9453125 C-6.22418213 23.71149902 -6.22418213 23.71149902 -7.52490234 24.49316406 C-11.14549647 26.69737663 -14.70125278 28.99493331 -18.25 31.3125 C-27.490913 37.33362046 -36.7976725 43.24891526 -46.10791016 49.16210938 C-49.07701912 51.04894479 -52.04459758 52.93816543 -55.01171875 54.828125 C-55.99374268 55.45356201 -56.9757666 56.07899902 -57.98754883 56.72338867 C-59.85599753 57.91346427 -61.72433198 59.10371927 -63.5925293 60.29418945 C-65.27475072 61.36524239 -66.95835376 62.43412947 -68.64355469 63.50048828 C-70.20335146 64.49305684 -71.75626675 65.49653067 -73.30175781 66.51123047 C-74.00913086 66.97029785 -74.71650391 67.42936523 -75.4453125 67.90234375 C-76.36981201 68.51130493 -76.36981201 68.51130493 -77.31298828 69.13256836 C-79 70 -79 70 -82 70 C-83.54295801 67.85224966 -84.8759056 65.78165246 -86.1875 63.5 C-86.55552734 62.87996094 -86.92355469 62.25992188 -87.30273438 61.62109375 C-88.2116735 60.0865212 -89.1071247 58.5439744 -90 57 C-87.37441955 54.23454732 -84.79925495 52.06151173 -81.5703125 50.0390625 C-80.2709375 49.21921875 -80.2709375 49.21921875 -78.9453125 48.3828125 C-78.01460938 47.80273438 -77.08390625 47.22265625 -76.125 46.625 C-74.12751719 45.36732564 -72.13012381 44.10950921 -70.1328125 42.8515625 C-68.60188965 41.8910498 -68.60188965 41.8910498 -67.04003906 40.91113281 C-62.34715687 37.9609335 -57.67401499 34.9799636 -53 32 C-51.1732982 30.83704932 -49.34647478 29.67428965 -47.51953125 28.51171875 C-46.61283691 27.93470215 -45.70614258 27.35768555 -44.77197266 26.76318359 C-41.95677102 24.97250311 -39.14060415 23.18334923 -36.32421875 21.39453125 C-35.38940674 20.80043457 -34.45459473 20.20633789 -33.49145508 19.59423828 C-31.64149512 18.4187043 -29.79108144 17.24388401 -27.94018555 16.06982422 C-23.58688846 13.30366259 -19.24997976 10.51713184 -14.9453125 7.67578125 C-14.16067627 7.15975342 -13.37604004 6.64372559 -12.56762695 6.11206055 C-11.10387285 5.14684172 -9.64382794 4.17596531 -8.18823242 3.19848633 C-3.33244259 0 -3.33244259 0 0 0 Z " fill="#000000" transform="translate(413,73)"/>
<path d="M0 0 C6.06343563 3.8805988 10.95667407 9.08758162 13.1875 16 C14.28146397 24.39553743 12.81376604 31.28126393 7.64453125 38.0078125 C2.96879743 43.12223073 -1.62616785 45.51037051 -8.484375 46.3125 C-14.78354151 46.5909162 -19.72160615 45.8531501 -24.8125 42 C-30.94998905 36.1959359 -34.90461478 30.73804388 -35.25 22.125 C-35.02618613 15.15233713 -33.53760694 10.85729496 -28.71875 5.8046875 C-20.54144386 -1.80020721 -10.69057161 -5.44614025 0 0 Z " fill="#7AAFF4" transform="translate(474.8125,26)"/>
<path d="M0 0 C6.50099074 3.68128391 11.87819747 8.78320492 13.9453125 16.1015625 C15.20812266 24.11138693 13.56404504 30.47013291 8.9453125 37.1015625 C4.47848837 42.13071841 -0.87231967 45.59365876 -7.66015625 46.41796875 C-13.9993508 46.68902397 -18.94468892 45.99390357 -24.0546875 42.1015625 C-30.86659264 35.8341258 -33.94720538 30.47312925 -34.4296875 21.1640625 C-34.24524636 14.74745219 -32.3750711 10.54316016 -27.9609375 5.8984375 C-19.70920848 -1.74816473 -10.78719099 -4.67299367 0 0 Z " fill="#7AAFF5" transform="translate(58.0546875,273.8984375)"/>
<path d="M0 0 C9.37016513 6.6217538 15.92910203 14.61006117 18 26 C18.54557652 32.68331232 18.29707085 38.68305516 16 45 C13 45 13 45 10.6875 42.75 C9.800625 41.8425 8.91375 40.935 8 40 C6.9275 39.443125 5.855 38.88625 4.75 38.3125 C2 36 2 36 1.57421875 33.80859375 C1.48149473 32.07332998 1.39712846 30.33760323 1.3203125 28.6015625 C0.79110138 24.30333563 -1.19961627 21.23350975 -4 18 C-10.42887903 12.98547436 -16.03467406 12.19789725 -24 13 C-29.6566678 14.90279136 -33.1150826 18.83173459 -36.1015625 23.8515625 C-37.15038145 26.35960781 -37.10041176 28.17062781 -37.0625 30.875 C-37.31510204 34.17825744 -37.50209214 35.5223323 -39.921875 37.84375 C-42.23636843 39.32623599 -44.60209923 40.65851705 -47 42 C-49.44188167 44.18465172 -49.44188167 44.18465172 -51 46 C-55.16981611 38.7028218 -55.34347701 30.14655041 -53.23828125 22.08203125 C-48.93850602 10.84823115 -42.08298936 3.03270619 -31.234375 -2.0546875 C-21.28293302 -6.26491295 -9.57565634 -4.53903102 0 0 Z " fill="#020203" transform="translate(258,152)"/>
<path d="M0 0 C2.89808082 0.31330603 4.57892719 0.62653995 6.78625488 2.58427429 C8.45972837 5.91500071 8.43477282 9.00570428 8.41992188 12.65161133 C8.42839142 13.41814026 8.43686096 14.18466919 8.44558716 14.97442627 C8.46899142 17.51046354 8.46997748 20.04589405 8.46875 22.58203125 C8.47585682 24.35642231 8.48355658 26.13081109 8.49182129 27.90519714 C8.50527922 31.63176844 8.50683226 35.35812798 8.50097656 39.0847168 C8.4951227 43.82089541 8.52548487 48.55603386 8.56609344 53.29201221 C8.5921876 56.96334643 8.59482759 60.63443876 8.59120178 64.30585289 C8.5928773 66.04907501 8.60236583 67.79231025 8.62034607 69.53544044 C8.79108063 88.15694744 4.39162417 103.71689368 -8.58203125 117.625 C-18.12664474 127 -18.12664474 127 -22 127 C-23.00685387 130.02056161 -23.15372686 132.13554614 -23.20532227 135.29760742 C-23.22526749 136.37850143 -23.24521271 137.45939545 -23.26576233 138.57304382 C-23.29083107 140.32159416 -23.29083107 140.32159416 -23.31640625 142.10546875 C-23.33718735 143.29981033 -23.35796844 144.49415192 -23.37937927 145.72468567 C-23.44484276 149.54556443 -23.5037451 153.36651276 -23.5625 157.1875 C-23.60568824 159.77539786 -23.64930263 162.36328865 -23.69335938 164.95117188 C-23.80052092 171.30070739 -23.9022934 177.65031234 -24 184 C-26.64 184 -29.28 184 -32 184 C-32.20910696 176.42889493 -32.36873047 168.85809122 -32.46630955 161.28475094 C-32.51316168 157.76732396 -32.57662553 154.25188075 -32.67895508 150.7355957 C-32.79603482 146.68682566 -32.8392203 142.64011736 -32.87890625 138.58984375 C-32.92535782 137.33541977 -32.97180939 136.08099579 -33.01966858 134.78855896 C-33.02461384 126.19922346 -33.02461384 126.19922346 -30.04196167 122.70828247 C-27.77128096 120.94580214 -25.45769391 119.48338476 -23 118 C-22.45070328 117.44646347 -21.90140656 116.89292694 -21.33546448 116.32261658 C-20 115 -20 115 -18 115 C-17.73832031 114.43410156 -17.47664063 113.86820312 -17.20703125 113.28515625 C-15.89772431 110.80637127 -14.35895758 108.68711143 -12.6875 106.4375 C-2.4458638 91.89480244 -0.55223524 77.03673044 -0.48828125 59.765625 C-0.47140105 58.03398392 -0.45324642 56.30235484 -0.43388367 54.57073975 C-0.38673975 50.05326084 -0.35670154 45.53583061 -0.33044434 41.01818848 C-0.30045735 36.39223623 -0.2539902 31.76645119 -0.20898438 27.140625 C-0.12335737 18.09383812 -0.05583336 9.04701644 0 0 Z " fill="#D9B687" transform="translate(336,320)"/>
<path d="M0 0 C4.9527965 2.86206683 8.45506135 7.06640009 10.625 12.375 C10.8203125 14.953125 10.8203125 14.953125 10.75 17.625 C10.73195313 18.51703125 10.71390625 19.4090625 10.6953125 20.328125 C10.67210937 21.00359375 10.64890625 21.6790625 10.625 22.375 C11.40875 22.66375 12.1925 22.9525 13 23.25 C15.625 24.375 15.625 24.375 17.625 26.375 C17.33120834 31.66324991 14.23558319 35.20421396 11.1875 39.3125 C9.625 40.375 9.625 40.375 7.3125 40.25 C4.23459875 39.24789262 1.5052003 37.84574058 -1.375 36.375 C-7.51350773 34.50675852 -13.95994882 34.33328883 -19.75 37.25 C-20.96450678 37.94769538 -22.17303182 38.6559186 -23.375 39.375 C-24.70363884 40.05097415 -26.0358194 40.72015838 -27.375 41.375 C-28.50533298 40.12982035 -29.62905036 38.87863348 -30.75 37.625 C-31.37648437 36.92890625 -32.00296875 36.2328125 -32.6484375 35.515625 C-34.76631863 32.88983573 -36.45904815 30.76179449 -36.25 27.3125 C-35.10770492 24.78313233 -33.72590021 23.799788 -31.375 22.375 C-30.715 22.375 -30.055 22.375 -29.375 22.375 C-29.43300781 21.7459375 -29.49101562 21.116875 -29.55078125 20.46875 C-29.90775635 13.69642235 -28.79563277 9.55542902 -24.375 4.375 C-17.74602338 -2.2871215 -8.70650003 -3.99669811 0 0 Z " fill="#E1E9EF" transform="translate(249.375,165.625)"/>
<path d="M0 0 C4.51138601 1.56693178 8.29788812 4.00258391 12.25 6.625 C13.75593191 7.61286162 15.26248281 8.59978006 16.76953125 9.5859375 C17.59533691 10.12702148 18.42114258 10.66810547 19.27197266 11.22558594 C22.27835695 13.18105408 25.29940049 15.11223554 28.32421875 17.0390625 C29.41766602 17.73563965 30.51111328 18.4322168 31.63769531 19.14990234 C33.78853203 20.51876128 35.9401857 21.88633767 38.09277344 23.25244141 C44.5119531 27.34510383 50.80369829 31.57688888 57 36 C54.6284752 40.92536417 52.13765072 45.51764183 49 50 C44.38160408 49.47537774 41.2720684 47.42504379 37.5625 44.8125 C36.23210226 43.89995768 34.89995969 42.98995574 33.56640625 42.08203125 C32.8408252 41.58783691 32.11524414 41.09364258 31.36767578 40.58447266 C26.96587931 37.6387458 22.47767735 34.82843156 18 32 C11.36684205 27.79389959 4.74262129 23.57702587 -1.8125 19.25 C-2.74545898 18.64091797 -2.74545898 18.64091797 -3.69726562 18.01953125 C-7.88190329 15.23619343 -7.88190329 15.23619343 -9 13 C-7.68889201 11.01989841 -6.37618664 9.04088963 -5.0625 7.0625 C-4.50272461 6.21655273 -4.50272461 6.21655273 -3.93164062 5.35351562 C-1.11328125 1.11328125 -1.11328125 1.11328125 0 0 Z " fill="#000000" transform="translate(344,197)"/>
<path d="M0 0 C3.0778526 1.33065056 3.80451634 3.34164508 5.328125 6.2734375 C6.10929687 7.73910156 6.10929687 7.73910156 6.90625 9.234375 C8.078125 11.8984375 8.078125 11.8984375 8.078125 14.8984375 C7.3660791 15.30457275 6.6540332 15.71070801 5.92041016 16.12915039 C3.75985246 17.36180505 1.59955951 18.59492378 -0.56054688 19.82836914 C-3.06858719 21.26043893 -5.5778691 22.69030244 -8.08789062 24.11889648 C-14.56468184 27.80946455 -21.0185215 31.53238207 -27.4296875 35.3359375 C-28.61781545 36.03669216 -29.80612576 36.73713773 -30.99462891 37.43725586 C-33.25027906 38.76914674 -35.50015677 40.11087053 -37.74365234 41.46313477 C-38.76152832 42.06182373 -39.7794043 42.6605127 -40.828125 43.27734375 C-41.71822266 43.8091626 -42.60832031 44.34098145 -43.52539062 44.88891602 C-45.921875 45.8984375 -45.921875 45.8984375 -48.1315918 45.70996094 C-50.97303804 44.42195231 -51.79316893 42.28596376 -53.234375 39.5859375 C-54.03294922 38.13767578 -54.03294922 38.13767578 -54.84765625 36.66015625 C-56.03453348 33.60880279 -56.21014706 32.83240287 -54.921875 29.8984375 C-52.71069336 28.28955078 -52.71069336 28.28955078 -49.76171875 26.71875 C-48.66851318 26.12594238 -47.57530762 25.53313477 -46.44897461 24.92236328 C-45.86356903 24.61268616 -45.27816345 24.30300903 -44.67501831 23.98394775 C-41.59767109 22.35597185 -38.54302674 20.6861873 -35.484375 19.0234375 C-34.85792587 18.68458527 -34.23147675 18.34573303 -33.58604431 17.99661255 C-27.09539339 14.47649421 -20.7234206 10.7671087 -14.359375 7.0234375 C-12.37893855 5.85932005 -10.39847264 4.69525271 -8.41796875 3.53125 C-7.59482178 3.04543457 -6.7716748 2.55961914 -5.92358398 2.05908203 C-2.17422303 -0.11489796 -2.17422303 -0.11489796 0 0 Z " fill="#000000" transform="translate(147.921875,225.1015625)"/>
<path d="M0 0 C4.29677197 1.47477331 7.69526767 3.75879561 11.3125 6.4375 C12.561553 7.34635499 13.81159087 8.25385766 15.0625 9.16015625 C16.03316406 9.86422607 16.03316406 9.86422607 17.0234375 10.58251953 C20.25165097 12.89761432 23.53233149 15.13444995 26.8125 17.375 C28.14207025 18.29015661 29.47149501 19.20552465 30.80078125 20.12109375 C33.78550932 22.17420548 36.78646508 24.20159416 39.79296875 26.22265625 C41.36231952 27.29377234 42.93133816 28.36537522 44.5 29.4375 C45.24870361 29.93362793 45.99740723 30.42975586 46.76879883 30.94091797 C47.45353271 31.41287598 48.1382666 31.88483398 48.84375 32.37109375 C49.45412109 32.78286865 50.06449219 33.19464355 50.69335938 33.61889648 C52 35 52 35 52 39 C50.25 41.796875 50.25 41.796875 48 44.75 C47.2575 45.73484375 46.515 46.7196875 45.75 47.734375 C44.88375 48.85585937 44.88375 48.85585937 44 50 C39.09304932 48.38975793 35.3204044 45.56148203 31.1875 42.5625 C29.66470731 41.47175547 28.14125417 40.38193248 26.6171875 39.29296875 C25.84729492 38.7417334 25.07740234 38.19049805 24.28417969 37.62255859 C20.82278914 35.16377262 17.31851922 32.76948063 13.8125 30.375 C12.50620894 29.47569817 11.20021716 28.57596146 9.89453125 27.67578125 C7.23626015 25.84390177 4.56469824 24.03338299 1.88671875 22.23046875 C0.59071615 21.34177213 -0.70487408 20.45247375 -2 19.5625 C-2.60610107 19.16144043 -3.21220215 18.76038086 -3.83666992 18.34716797 C-5.5 17.19140625 -5.5 17.19140625 -8 15 C-8 10.18497681 -6.86271681 9.00731581 -4 5.25 C-3.2575 4.26515625 -2.515 3.2803125 -1.75 2.265625 C-1.1725 1.51796875 -0.595 0.7703125 0 0 Z " fill="#000000" transform="translate(136,61)"/>
<path d="M0 0 C5.67476113 1.96434039 9.31400331 5.62800662 12 11 C12.54360446 15.95482094 12.56437074 19.87125852 10.3125 24.375 C6.72054254 28.45235712 3.52833982 31.59004052 -2.05078125 32.23828125 C-7.58896758 32.42001793 -10.64755155 31.74513006 -15 28 C-19.3022759 23.23261319 -20.36282503 19.56252705 -20.28125 13.28125 C-19.69180611 8.50020514 -16.85179203 5.75038822 -13.375 2.6875 C-8.92314854 -0.47565762 -5.3540278 -0.48837416 0 0 Z " fill="#D37E81" transform="translate(444,248)"/>
<path d="M0 0 C5.67476113 1.96434039 9.31400331 5.62800662 12 11 C12.54360446 15.95482094 12.56437074 19.87125852 10.3125 24.375 C6.72054254 28.45235712 3.52833982 31.59004052 -2.05078125 32.23828125 C-7.58896758 32.42001793 -10.64755155 31.74513006 -15 28 C-19.3022759 23.23261319 -20.36282503 19.56252705 -20.28125 13.28125 C-19.69180611 8.50020514 -16.85179203 5.75038822 -13.375 2.6875 C-8.92314854 -0.47565762 -5.3540278 -0.48837416 0 0 Z " fill="#D37E81" transform="translate(92,24)"/>
</svg>
