<?xml version="1.0" encoding="UTF-8"?>
<svg version="1.1" xmlns="http://www.w3.org/2000/svg" width="512" height="512">
<path d="M0 0 C5.67536735 3.40522041 9.30731148 7.77657435 11.4453125 14.0546875 C12.20552975 20.46349575 12.16189175 26.61844691 8.859375 32.296875 C6.2561951 35.53287211 3.04204862 37.99940971 -0.5546875 40.0546875 C-1.2146875 40.0546875 -1.8746875 40.0546875 -2.5546875 40.0546875 C-2.5546875 55.2346875 -2.5546875 70.4146875 -2.5546875 86.0546875 C4.0453125 86.0546875 10.6453125 86.0546875 17.4453125 86.0546875 C21.82829122 113.35255984 21.82829122 113.35255984 23.4453125 124.0546875 C24.38890625 124.34601563 25.3325 124.63734375 26.3046875 124.9375 C33.97387449 127.36880186 40.93748306 130.08408001 47.95703125 134.11328125 C50.35011517 135.33833051 50.35011517 135.33833051 52.33422852 134.30395508 C54.56607115 132.98322664 56.62890957 131.55427651 58.7109375 130.0078125 C59.51917969 129.4096875 60.32742188 128.8115625 61.16015625 128.1953125 C61.99675781 127.57140625 62.83335937 126.9475 63.6953125 126.3046875 C64.51644531 125.69625 65.33757812 125.0878125 66.18359375 124.4609375 C71.28478284 120.67748822 76.36823997 116.87041932 81.4453125 113.0546875 C84.73365933 114.49666218 86.94342532 116.28592857 89.49536133 118.79833984 C90.27909622 119.56608734 91.06283112 120.33383484 91.87031555 121.12484741 C92.70588486 121.95505402 93.54145416 122.78526062 94.40234375 123.640625 C95.26470139 124.49395416 96.12705902 125.34728333 97.01554871 126.22647095 C98.83462591 128.03104846 100.65091077 129.83844449 102.46459961 131.6484375 C105.25240664 134.42430479 108.05831342 137.18097922 110.86523438 139.9375 C112.62875014 141.69155694 114.3911587 143.44672789 116.15234375 145.203125 C116.99803421 146.02928314 117.84372467 146.85544128 118.71504211 147.70663452 C119.86700325 148.86771225 119.86700325 148.86771225 121.04223633 150.05224609 C121.72522293 150.73016205 122.40820953 151.408078 123.1118927 152.10653687 C124.4453125 154.0546875 124.4453125 154.0546875 124.25193787 156.16390991 C123.17672426 158.68427422 121.71396804 160.60098804 120.0234375 162.7578125 C119.32734375 163.65628906 118.63125 164.55476562 117.9140625 165.48046875 C117.181875 166.41246094 116.4496875 167.34445313 115.6953125 168.3046875 C112.91198654 171.86394066 110.16030522 175.44303499 107.4453125 179.0546875 C106.58691772 180.15248535 106.58691772 180.15248535 105.71118164 181.27246094 C104.32930849 183.18926016 103.23219858 184.82706609 102.4453125 187.0546875 C103.20574101 190.60206322 103.20574101 190.60206322 105.3828125 193.8046875 C106.07677264 195.00932231 106.76419942 196.21774251 107.4453125 197.4296875 C107.78949219 198.03039062 108.13367188 198.63109375 108.48828125 199.25 C110.9064934 203.8100572 113.4453125 209.82173543 113.4453125 215.0546875 C114.50105469 215.16425781 115.55679687 215.27382812 116.64453125 215.38671875 C128.62548941 216.65954158 140.52404241 218.30623455 152.4453125 220.0546875 C152.4453125 227.6446875 152.4453125 235.2346875 152.4453125 243.0546875 C159.21006249 243.04958588 165.969713 243.02654101 172.73339844 242.95703125 C175.0341201 242.93885912 177.33495107 242.93130493 179.63574219 242.93457031 C182.94291956 242.93742379 186.24782448 242.90214456 189.5546875 242.859375 C191.0986319 242.8730159 191.0986319 242.8730159 192.67376709 242.88693237 C195.39699824 242.83146517 197.80677699 242.73234903 200.4453125 242.0546875 C203.12482933 239.27655553 203.12482933 239.27655553 204.4453125 236.0546875 C208.27204812 232.02242388 212.50533282 229.43262211 218.05859375 228.71875 C224.42673232 228.6265917 229.22923314 229.22877052 234.4453125 233.0546875 C239.34573572 237.84621242 242.17762177 242.84634025 242.61328125 249.6953125 C242.3456911 256.79140685 240.24567516 261.8189178 235.4453125 267.0546875 C230.39941015 271.59725794 224.04296951 272.28317779 217.4453125 272.0546875 C211.56068528 270.98662252 206.2028478 267.71606237 202.4453125 263.0546875 C201.7853125 261.0746875 201.1253125 259.0946875 200.4453125 257.0546875 C184.6053125 257.0546875 168.7653125 257.0546875 152.4453125 257.0546875 C152.4453125 264.6446875 152.4453125 272.2346875 152.4453125 280.0546875 C139.50454566 282.64284087 126.54197259 284.44859078 113.4453125 286.0546875 C113.27733154 286.73635986 113.10935059 287.41803223 112.9362793 288.12036133 C111.25427507 294.64509618 109.09629747 300.63918818 106.2578125 306.7421875 C105.88978516 307.55107422 105.52175781 308.35996094 105.14257812 309.19335938 C104.25085873 311.15050974 103.34917576 313.10311576 102.4453125 315.0546875 C102.82751953 315.54235596 103.20972656 316.03002441 103.60351562 316.5324707 C107.31378892 321.27132909 111.00820438 326.02209273 114.68798828 330.78466797 C115.75802906 332.1668907 116.83112599 333.54676372 117.90966797 334.92236328 C119.07933103 336.41552173 120.23200682 337.92194743 121.3828125 339.4296875 C122.01058594 340.24179687 122.63835937 341.05390625 123.28515625 341.890625 C124.4453125 344.0546875 124.4453125 344.0546875 124.25440979 345.93206787 C123.20938748 348.67362304 121.74381086 350.11636311 119.65991211 352.18066406 C118.85915756 352.98119202 118.05840302 353.78171997 117.23338318 354.60650635 C116.36359329 355.46081238 115.49380341 356.31511841 114.59765625 357.1953125 C113.7112294 358.07749451 112.82480255 358.95967651 111.91151428 359.86859131 C109.55768194 362.20847327 107.19757496 364.54164148 104.83416748 366.87182617 C102.42242833 369.25283413 100.01919771 371.64239603 97.61523438 374.03125 C92.89973191 378.7136553 88.17577094 383.38739478 83.4453125 388.0546875 C79.42312606 385.81807531 75.6446566 383.61232038 72.03515625 380.7421875 C71.27267578 380.14148438 70.51019531 379.54078125 69.72460938 378.921875 C68.95181641 378.30570312 68.17902344 377.68953125 67.3828125 377.0546875 C64.41788308 374.70242815 61.44384564 372.36399279 58.4453125 370.0546875 C57.86668457 369.60480469 57.28805664 369.15492188 56.69189453 368.69140625 C53.90504053 366.53888107 53.90504053 366.53888107 50.54589844 366.34765625 C48.35233228 367.08598349 46.26085027 367.92981713 44.14453125 368.8671875 C42.92540039 369.39699219 42.92540039 369.39699219 41.68164062 369.9375 C39.99224656 370.67798537 38.30471325 371.42273161 36.61914062 372.171875 C31.83035989 374.24310771 27.65183658 375.60500121 22.4453125 376.0546875 C22.41953125 376.77527344 22.39375 377.49585938 22.3671875 378.23828125 C21.71158955 390.64994246 19.51103505 402.81408036 17.4453125 415.0546875 C10.8453125 415.0546875 4.2453125 415.0546875 -2.5546875 415.0546875 C-2.5546875 430.2346875 -2.5546875 445.4146875 -2.5546875 461.0546875 C-1.2346875 461.3846875 0.0853125 461.7146875 1.4453125 462.0546875 C5.66165512 464.75677374 9.28662892 468.12262893 11.01171875 472.93359375 C12.22028632 478.84577567 12.22925815 484.78537114 10.2578125 490.4921875 C6.32938447 496.04617195 1.95053653 499.94672292 -4.5546875 502.0546875 C-12.31336583 503.1491719 -17.73522042 501.54178235 -24.2421875 497.3046875 C-28.70877393 492.95881962 -31.11922415 488.41179317 -31.578125 482.15625 C-31.49581627 474.77590069 -29.4807046 470.21658483 -24.50390625 464.78125 C-22.5546875 463.0546875 -22.5546875 463.0546875 -19.97705078 462.08032227 C-17.4126404 460.34594645 -17.4126404 460.34594645 -17.07655334 458.04644775 C-16.87641762 455.32718925 -16.83658825 452.64465158 -16.84765625 449.91796875 C-16.82497429 448.42610298 -16.82497429 448.42610298 -16.80183411 446.90409851 C-16.7588182 443.72490005 -16.75010556 440.54664848 -16.7421875 437.3671875 C-16.71905405 435.2128652 -16.69369114 433.05856561 -16.66601562 430.90429688 C-16.59882376 425.62057289 -16.57800604 420.33951686 -16.5546875 415.0546875 C-25.1346875 415.0546875 -33.7146875 415.0546875 -42.5546875 415.0546875 C-43.2718377 410.62628503 -43.98556938 406.19759487 -44.69091797 401.76733398 C-44.93147733 400.26278855 -45.17395878 398.75854904 -45.41845703 397.25463867 C-45.7711088 395.08331136 -46.11665713 392.9109497 -46.4609375 390.73828125 C-46.62499084 389.74253334 -46.62499084 389.74253334 -46.7923584 388.72666931 C-47.4587212 384.4654669 -47.65223729 380.36394953 -47.5546875 376.0546875 C-48.0909375 375.99152344 -48.6271875 375.92835938 -49.1796875 375.86328125 C-55.9828865 374.80028141 -61.81074759 372.38661115 -68.01953125 369.53100586 C-72.63229234 367.27180529 -72.63229234 367.27180529 -77.5546875 366.0546875 C-79.67598545 367.07419944 -79.67598545 367.07419944 -81.71484375 368.73828125 C-82.5039917 369.33302246 -83.29313965 369.92776367 -84.10620117 370.54052734 C-84.93482666 371.1845752 -85.76345215 371.82862305 -86.6171875 372.4921875 C-88.32275389 373.78537097 -90.0284824 375.07834064 -91.734375 376.37109375 C-92.55905273 377.00289551 -93.38373047 377.63469727 -94.23339844 378.28564453 C-97.20304342 380.54879636 -100.21496014 382.74423485 -103.2421875 384.9296875 C-104.09167969 385.54585938 -104.94117188 386.16203125 -105.81640625 386.796875 C-106.39003906 387.21195312 -106.96367187 387.62703125 -107.5546875 388.0546875 C-115.48237496 381.4131685 -122.75523195 374.14972478 -130.09130859 366.86816406 C-131.74259436 365.23357117 -133.39924462 363.60438095 -135.06103516 361.98046875 C-137.46684441 359.62908957 -139.85609255 357.26198668 -142.2421875 354.890625 C-142.99097168 354.16451019 -143.73975586 353.43839539 -144.51123047 352.6902771 C-145.52854248 351.66869003 -145.52854248 351.66869003 -146.56640625 350.62646484 C-147.16928467 350.03167328 -147.77216309 349.43688171 -148.39331055 348.82406616 C-149.5546875 347.0546875 -149.5546875 347.0546875 -149.32192993 344.95991516 C-148.38100712 342.62340184 -147.14976221 340.84236696 -145.640625 338.82421875 C-145.04378906 338.02048828 -144.44695312 337.21675781 -143.83203125 336.38867188 C-143.20425781 335.55658203 -142.57648438 334.72449219 -141.9296875 333.8671875 C-141.32511719 333.05443359 -140.72054687 332.24167969 -140.09765625 331.40429688 C-135.98878497 325.89805892 -131.79128914 320.46306322 -127.5546875 315.0546875 C-127.81685059 314.46042969 -128.07901367 313.86617188 -128.34912109 313.25390625 C-129.54917966 310.5236536 -130.7394785 307.78924744 -131.9296875 305.0546875 C-132.5484375 303.65283203 -132.5484375 303.65283203 -133.1796875 302.22265625 C-133.57929688 301.30097656 -133.97890625 300.37929688 -134.390625 299.4296875 C-134.75720215 298.59179688 -135.1237793 297.75390625 -135.50146484 296.890625 C-136.82554401 293.3253715 -137.68114186 289.75603502 -138.5546875 286.0546875 C-139.62952393 285.90845947 -140.70436035 285.76223145 -141.81176758 285.61157227 C-145.79849639 285.06841636 -149.78469834 284.52147579 -153.77075195 283.97338867 C-155.49619634 283.7366775 -157.221782 283.5009937 -158.94750977 283.26635742 C-161.4276248 282.92897048 -163.90720876 282.58789525 -166.38671875 282.24609375 C-167.15869095 282.14188614 -167.93066315 282.03767853 -168.72602844 281.93031311 C-171.79119828 281.50478251 -174.61136407 281.03579531 -177.5546875 280.0546875 C-177.5546875 272.4646875 -177.5546875 264.8746875 -177.5546875 257.0546875 C-183.46597066 257.03682093 -189.36937254 257.03999204 -195.27929688 257.09741211 C-197.28901967 257.11054861 -199.29886339 257.11128902 -201.30859375 257.09936523 C-204.19913081 257.08436986 -207.08630147 257.11400317 -209.9765625 257.15234375 C-211.32364288 257.13096092 -211.32364288 257.13096092 -212.69793701 257.10914612 C-215.17543481 257.16659702 -217.20094261 257.2748362 -219.5546875 258.0546875 C-221.56788988 260.26504699 -222.34658064 262.24654677 -223.5546875 265.0546875 C-228.15011213 269.65011213 -233.57656803 271.66863498 -239.9296875 272.4921875 C-246.566595 271.69118142 -252.47725273 269.7271767 -257.0546875 264.6796875 C-261.39044995 258.89867091 -262.28782943 253.12169499 -261.5546875 246.0546875 C-260.39887943 239.8751196 -257.42108373 236.4910608 -252.6875 232.5 C-246.92867482 228.59749942 -241.3267324 228.30329488 -234.5546875 229.0546875 C-228.25602303 230.85584669 -224.28666833 234.81183553 -220.5546875 240.0546875 C-220.2246875 240.7146875 -219.8946875 241.3746875 -219.5546875 242.0546875 C-205.6946875 242.3846875 -191.8346875 242.7146875 -177.5546875 243.0546875 C-177.5546875 235.4646875 -177.5546875 227.8746875 -177.5546875 220.0546875 C-172.64374647 219.33999754 -167.73261897 218.62703139 -162.82080078 217.91845703 C-161.15040645 217.67695814 -159.48015719 217.43445358 -157.81005859 217.19091797 C-155.4076025 216.84076821 -153.0046456 216.49425452 -150.6015625 216.1484375 C-149.4841568 215.98438416 -149.4841568 215.98438416 -148.34417725 215.8170166 C-145.02699607 215.34292917 -141.91525028 215.0546875 -138.5546875 215.0546875 C-138.40773438 214.42304688 -138.26078125 213.79140625 -138.109375 213.140625 C-135.72684462 203.6378889 -131.96119006 194.78868923 -127.5546875 186.0546875 C-128.0079541 185.46042969 -128.4612207 184.86617187 -128.92822266 184.25390625 C-131.01237212 181.52108319 -133.09603279 178.78788781 -135.1796875 176.0546875 C-135.89253906 175.12011719 -136.60539062 174.18554688 -137.33984375 173.22265625 C-138.74895158 171.37401019 -140.15428688 169.52248193 -141.55566406 167.66796875 C-142.83073904 166.00109008 -144.12763103 164.35052428 -145.45214844 162.72265625 C-146.0093457 162.02785156 -146.56654297 161.33304688 -147.140625 160.6171875 C-147.87998291 159.72193359 -147.87998291 159.72193359 -148.63427734 158.80859375 C-149.5546875 157.0546875 -149.5546875 157.0546875 -149.34880066 155.20294189 C-148.32425214 152.4313081 -146.86768923 151.00737886 -144.76928711 148.92871094 C-143.96853256 148.12818298 -143.16777802 147.32765503 -142.34275818 146.50286865 C-141.47296829 145.64856262 -140.60317841 144.79425659 -139.70703125 143.9140625 C-138.37739098 142.59078949 -138.37739098 142.59078949 -137.02088928 141.24078369 C-134.66705694 138.90090173 -132.30694996 136.56773352 -129.94354248 134.23754883 C-127.53180333 131.85654087 -125.12857271 129.46697897 -122.72460938 127.078125 C-118.00910691 122.3957197 -113.28514594 117.72198022 -108.5546875 113.0546875 C-105.05881929 114.39956568 -102.34841403 115.76718086 -99.41015625 118.1015625 C-98.65025391 118.6996875 -97.89035156 119.2978125 -97.10742188 119.9140625 C-96.32689453 120.53796875 -95.54636719 121.161875 -94.7421875 121.8046875 C-91.68289903 124.22544887 -88.61965427 126.64112152 -85.5546875 129.0546875 C-84.80952881 129.64934814 -84.06437012 130.24400879 -83.29663086 130.85668945 C-82.59030518 131.40800537 -81.88397949 131.95932129 -81.15625 132.52734375 C-80.52928223 133.02242432 -79.90231445 133.51750488 -79.25634766 134.02758789 C-77.48014617 135.33498801 -77.48014617 135.33498801 -74.7421875 134.7421875 C-73.6903125 134.1853125 -72.6384375 133.6284375 -71.5546875 133.0546875 C-69.85161315 132.25176991 -68.14259774 131.4614019 -66.4296875 130.6796875 C-65.60210937 130.28007812 -64.77453125 129.88046875 -63.921875 129.46875 C-58.90248956 127.36084103 -53.73182184 125.73022684 -48.5546875 124.0546875 C-48.40845947 123.04567383 -48.26223145 122.03666016 -48.11157227 120.99707031 C-47.5675685 117.24709477 -47.02088067 113.49751459 -46.47338867 109.74804688 C-46.23698075 108.12640846 -46.00129704 106.50466429 -45.76635742 104.8828125 C-45.4281832 102.54919586 -45.08739088 100.21597419 -44.74609375 97.8828125 C-44.58978233 96.79821747 -44.58978233 96.79821747 -44.43031311 95.69171143 C-43.9483635 92.41343513 -43.35972446 89.27483536 -42.5546875 86.0546875 C-33.9746875 86.0546875 -25.3946875 86.0546875 -16.5546875 86.0546875 C-16.5546875 70.8746875 -16.5546875 55.6946875 -16.5546875 40.0546875 C-19.5246875 39.0646875 -19.5246875 39.0646875 -22.5546875 38.0546875 C-24.3828125 36.46875 -24.3828125 36.46875 -25.8046875 34.6796875 C-26.28421875 34.09445313 -26.76375 33.50921875 -27.2578125 32.90625 C-30.67502163 28.02746347 -32.00946285 22.90944999 -31.30859375 16.96875 C-29.80361537 10.016549 -26.40343776 5.14881268 -20.5546875 1.0546875 C-14.82158377 -2.52204613 -6.19593812 -2.29268658 0 0 Z " fill="#2DCBE0" transform="translate(268.5546875,0.9453125)"/>
<path d="M0 0 C18.27193725 14.92028012 32.52746273 35.0561196 35.7890625 58.90039062 C38.37845832 84.6744694 33.38191091 110.11127143 16.71923828 130.57275391 C-0.24702206 150.71612808 -22.69750473 162.6576104 -49 165 C-68.02352979 166.50502609 -85.61794885 161.53412677 -102 152 C-103.30324219 151.24203125 -103.30324219 151.24203125 -104.6328125 150.46875 C-122.7617724 139.09867062 -136.10384293 121.12055238 -143 101 C-143.31839844 100.1028125 -143.63679687 99.205625 -143.96484375 98.28125 C-150.87155381 74.60110124 -145.90068803 48.09042766 -134.3046875 26.90234375 C-130.27474183 20.23887544 -125.36879503 14.61283116 -120 9 C-119.38640625 8.31164062 -118.7728125 7.62328125 -118.140625 6.9140625 C-88.33706051 -25.30944953 -33.63424501 -26.05195856 0 0 Z " fill="#FDFEFE" transform="translate(314,178)"/>
<path d="M0 0 C0.65754776 -0.00335861 1.31509552 -0.00671722 1.99256897 -0.01017761 C4.15383826 -0.01963309 6.31502971 -0.02162764 8.47631836 -0.02270508 C9.98416678 -0.0259202 11.4920149 -0.02928447 12.99986267 -0.03279114 C16.15453821 -0.03876799 19.30918639 -0.0406324 22.46386719 -0.04003906 C26.50461704 -0.03993724 30.54519197 -0.05361633 34.58590031 -0.07081127 C37.6974315 -0.08192935 40.80892026 -0.08395837 43.92046928 -0.08342934 C45.41040083 -0.0846087 46.9003335 -0.08902808 48.39024544 -0.0967617 C50.47252837 -0.10656271 52.55442963 -0.1036839 54.63671875 -0.09765625 C56.41279259 -0.09979378 56.41279259 -0.09979378 58.2247467 -0.10197449 C61.16303452 0.13786611 62.82745749 0.51230998 65.25366211 2.14526367 C66.77858209 5.19510363 66.48928759 7.78760057 66.25366211 11.14526367 C65.14251709 12.84387207 65.14251709 12.84387207 63.25366211 14.14526367 C60.35845947 14.52380371 60.35845947 14.52380371 56.78198242 14.5300293 C56.12954559 14.53540207 55.47710876 14.54077484 54.80490112 14.54631042 C53.38899953 14.55608809 51.97303802 14.55903258 50.55710602 14.55595398 C48.31152349 14.55147324 46.06672806 14.56548445 43.82122803 14.58435059 C39.04871901 14.6211474 34.27629206 14.63483366 29.50366211 14.64526367 C23.98537814 14.65736212 18.46747652 14.67905792 12.94936371 14.7252655 C10.74524174 14.73877792 8.54161011 14.73467433 6.33746338 14.7298584 C4.97260937 14.73920726 3.60776065 14.74937814 2.24291992 14.76049805 C1.05950012 14.76255249 -0.12391968 14.76460693 -1.34320068 14.76672363 C-6.55677726 15.34664368 -10.47609923 16.77474301 -14.12133789 20.70776367 C-16.29036343 23.96130198 -16.87851953 25.67054221 -16.95507812 29.53149414 C-16.97436874 30.4393869 -16.99365936 31.34727966 -17.01353455 32.28268433 C-17.07117517 36.43166201 -17.12053264 40.5804655 -17.15136719 44.72973633 C-17.17298057 46.92000055 -17.20712249 49.11017765 -17.25390625 51.30004883 C-17.32070521 54.454576 -17.34833125 57.60731778 -17.36743164 60.76245117 C-17.3952623 61.74172577 -17.42309296 62.72100037 -17.45176697 63.72994995 C-17.44384828 66.33915156 -17.38603691 68.61517461 -16.74633789 71.14526367 C-13.96872786 73.79179243 -13.96872786 73.79179243 -10.74633789 75.14526367 C-6.71407427 78.97199929 -4.1242725 83.20528399 -3.41040039 88.75854492 C-3.31824209 95.12668349 -3.92042091 99.92918431 -7.74633789 105.14526367 C-12.53083215 110.03849644 -17.56136727 112.9375425 -24.42211914 113.27807617 C-30.91000402 112.97297509 -35.89223799 111.5590824 -40.74633789 107.14526367 C-45.09389938 102.36403021 -46.64459102 97.35880902 -46.93774414 90.95385742 C-46.48797897 84.35424203 -44.16390843 79.03401286 -39.24633789 74.58276367 C-36.78227129 72.60591024 -34.80252915 71.84728692 -31.74633789 71.14526367 C-31.75522034 70.55137344 -31.76410278 69.95748322 -31.77325439 69.34559631 C-31.86214636 63.13202597 -31.92224492 56.91863797 -31.96606445 50.70458984 C-31.98610789 48.38941096 -32.01335014 46.07428225 -32.0480957 43.75927734 C-32.09693331 40.42036516 -32.11938014 37.08212568 -32.13696289 33.74291992 C-32.15760803 32.7175563 -32.17825317 31.69219269 -32.19952393 30.63575745 C-32.20229086 21.6575493 -29.70143171 14.40656225 -23.58618164 7.71557617 C-16.6524212 1.79758955 -8.8895981 0.02859898 0 0 Z " fill="#62767E" transform="translate(47.746337890625,309.854736328125)"/>
<path d="M0 0 C4.77601073 3.50514092 7.96758874 7.71039445 9.8203125 13.3359375 C10.7276824 20.39443125 10.15588414 26.55097418 5.8203125 32.3359375 C3.67124795 34.61687647 1.49934443 36.69495274 -1.1796875 38.3359375 C-2.1696875 38.3359375 -3.1596875 38.3359375 -4.1796875 38.3359375 C-4.13797868 44.9200547 -4.06561364 51.50332932 -3.97216797 58.08691406 C-3.94398388 60.32544341 -3.92275664 62.5640718 -3.90869141 64.80273438 C-3.88722702 68.02525444 -3.8405569 71.24658688 -3.7890625 74.46875 C-3.78783386 75.46584991 -3.78660522 76.46294983 -3.78533936 77.49026489 C-3.66492826 83.23352975 -3.20214099 86.89983969 0.8203125 91.3359375 C4.85492933 94.31797167 7.77849888 94.71233343 12.75024414 94.72070312 C13.42729904 94.7260759 14.10435394 94.73144867 14.80192566 94.73698425 C16.26472694 94.74673129 17.72758584 94.74971572 19.19041634 94.74662781 C21.50673514 94.74213657 23.82229531 94.75618465 26.13853455 94.77502441 C31.88823698 94.81797435 37.63792163 94.82905888 43.38775635 94.84124756 C48.25292024 94.85277723 53.11773686 94.87633637 57.98275566 94.91593933 C60.26290864 94.92950861 62.54259166 94.92533978 64.82276917 94.92053223 C66.22177734 94.92987258 67.62078031 94.94004134 69.01977539 94.95117188 C70.2393544 94.95322632 71.45893341 94.95528076 72.71546936 94.95739746 C76.06001927 95.36516236 77.45370454 95.98248374 79.8203125 98.3359375 C80.31640625 100.2734375 80.31640625 100.2734375 80.2578125 102.3359375 C80.25652344 103.0165625 80.25523438 103.6971875 80.25390625 104.3984375 C79.67007142 107.00728503 78.98219124 107.74450773 76.8203125 109.3359375 C73.71751404 109.73034668 73.71751404 109.73034668 69.84545898 109.75585938 C69.13931961 109.76432892 68.43318024 109.77279846 67.7056427 109.78152466 C65.36738114 109.80494943 63.0297764 109.80591488 60.69140625 109.8046875 C59.0605493 109.81179071 57.42969484 109.81948995 55.79884338 109.82775879 C52.37485831 109.84121966 48.95110376 109.84276742 45.52709961 109.83691406 C41.16141849 109.83104553 36.79686011 109.86148211 32.43139553 109.90203094 C29.05878348 109.9280321 25.68643631 109.93077366 22.31373787 109.92713928 C20.7059353 109.92882196 19.09811935 109.93838164 17.49041557 109.95628357 C6.73299995 110.0627983 -1.4038723 109.08494111 -9.9921875 102.0234375 C-14.60788884 96.35271871 -18.34513309 91.09696756 -18.2421875 83.5925293 C-18.22853149 82.15039314 -18.22853149 82.15039314 -18.21459961 80.67912292 C-18.20307861 79.64161392 -18.19155762 78.60410492 -18.1796875 77.53515625 C-18.17852913 75.33919263 -18.17991081 73.14322646 -18.18359375 70.94726562 C-18.18801471 67.4834415 -18.17967094 64.02231863 -18.12841797 60.55883789 C-18.08313521 57.21625565 -18.09507985 53.87788676 -18.1171875 50.53515625 C-18.08947266 49.50371994 -18.06175781 48.47228363 -18.03320312 47.40959167 C-18.08218804 44.4580823 -18.21931966 42.1303569 -19.1796875 39.3359375 C-21.31859508 37.2744661 -23.37940475 35.94583372 -26.00415039 34.56599426 C-29.49506274 32.59221946 -30.97218278 30.08782718 -32.1796875 26.3359375 C-33.98560202 18.61327674 -33.3594245 12.15487986 -29.1796875 5.3359375 C-21.79969673 -3.27405173 -9.97605061 -5.69483051 0 0 Z " fill="#62767E" transform="translate(34.1796875,82.6640625)"/>
<path d="M0 0 C3.625 0.25 3.625 0.25 5.5 1.5625 C7.73855385 4.92033077 7.75331199 7.90818005 7.7668457 11.81958008 C7.77388016 12.96119095 7.78091461 14.10280182 7.78816223 15.27900696 C7.79232651 16.51337997 7.79649078 17.74775299 7.80078125 19.01953125 C7.82397832 21.62565913 7.8480956 24.23177895 7.87304688 26.83789062 C7.90942666 30.95255549 7.9391987 35.06707048 7.95092773 39.18188477 C7.9629753 43.14887982 8.00660044 47.11526051 8.05078125 51.08203125 C8.04887283 52.31033157 8.04696442 53.5386319 8.04499817 54.80415344 C8.06450033 63.32463323 8.06450033 63.32463323 12.625 70.25 C18.30553444 73.64599594 23.43234396 73.65164039 29.93359375 73.54296875 C31.38367577 73.53660149 31.38367577 73.53660149 32.86305237 73.53010559 C35.92982649 73.51340522 38.9959268 73.47576899 42.0625 73.4375 C44.15038109 73.422442 46.23827255 73.40875555 48.32617188 73.39648438 C53.42603815 73.36352999 58.5254051 73.31180751 63.625 73.25 C64.24358887 72.13544434 64.86217773 71.02088867 65.49951172 69.87255859 C68.17623092 65.04972278 71.65427027 62.57954262 76.625 60.25 C83.41481875 58.3450195 89.31919916 59.23472618 95.625 62.25 C100.71566853 65.41752709 103.22919413 69.64416817 105.375 75.1875 C106.26410826 82.52264315 105.62162384 87.92785528 101.625 94.25 C97.55486241 98.77344676 93.15343035 101.79642001 87.01171875 102.5859375 C80.66857725 102.67773405 75.78507436 102.13695558 70.625 98.25 C67.84728939 95.52687322 65.37068207 92.74136415 63.625 89.25 C63.05616592 89.24413376 62.48733185 89.23826752 61.90126038 89.23222351 C55.94679546 89.16797431 49.99285536 89.08347571 44.03881836 88.98754883 C41.82079007 88.95442464 39.60268003 88.92635431 37.38452148 88.90356445 C34.18438076 88.86978798 30.98498087 88.81746047 27.78515625 88.76171875 C26.80354019 88.75532883 25.82192413 88.7489389 24.81056213 88.74235535 C14.34767246 88.52210109 7.40462994 85.98782595 -0.203125 78.72265625 C-6.06774215 72.04585291 -7.47349097 64.30265446 -7.53613281 55.59936523 C-7.54574036 54.51481552 -7.5553479 53.43026581 -7.56524658 52.31285095 C-7.56949646 51.15644608 -7.57374634 50.0000412 -7.578125 48.80859375 C-7.58382507 47.60815933 -7.58952515 46.40772491 -7.59539795 45.1709137 C-7.60482468 42.63844682 -7.61137266 40.10596781 -7.61523438 37.57348633 C-7.62497396 33.69786393 -7.65603385 29.82276447 -7.6875 25.94726562 C-7.69402725 23.48437814 -7.69927881 21.02148688 -7.703125 18.55859375 C-7.7154718 17.40016464 -7.7278186 16.24173553 -7.74053955 15.04820251 C-7.73753845 13.96680496 -7.73453735 12.88540741 -7.73144531 11.77124023 C-7.73509094 10.82337143 -7.73873657 9.87550262 -7.74249268 8.89891052 C-7.03693948 3.81323835 -5.13433239 0.38032092 0 0 Z " fill="#62767E" transform="translate(325.375,405.75)"/>
<path d="M0 0 C1.23203156 -0.0127597 2.46406311 -0.02551941 3.73342896 -0.03866577 C5.0812362 -0.04172479 6.42904554 -0.04395182 7.77685547 -0.04541016 C9.16348406 -0.05184066 10.55011129 -0.05856921 11.93673706 -0.06558228 C14.84701679 -0.07756259 17.75717782 -0.08126273 20.66748047 -0.08007812 C24.37622472 -0.07987578 28.08419539 -0.10708568 31.79275703 -0.14162254 C34.66003833 -0.16399851 37.5271373 -0.1679123 40.39449692 -0.16685867 C41.76029989 -0.16920213 43.12610886 -0.17795418 44.4918251 -0.19352341 C54.24324088 -0.29420964 63.19989981 0.59415974 70.61499023 7.6262207 C80.9085053 19.82773213 78.65326044 34.62555294 78.31787109 49.63745117 C78.25516552 52.92735585 78.240469 56.21494898 78.22998047 59.50537109 C78.19174164 60.5137352 78.15350281 61.5220993 78.11410522 62.5610199 C78.11425472 65.35734899 78.18467349 67.61963192 79.01904297 70.29052734 C80.9366459 72.13689789 82.72251046 73.22279046 85.11711121 74.37109375 C87.58029142 75.56184658 88.63529465 76.98794583 89.95654297 79.35302734 C90.33681641 80.00400391 90.71708984 80.65498047 91.10888672 81.32568359 C93.67504752 86.86550712 93.78489895 92.58124667 91.83154297 98.35302734 C89.45270613 104.02057871 86.31135246 107.90402819 80.76904297 110.66552734 C74.11430044 113.30314503 67.56031359 113.25036101 60.94091797 110.47021484 C55.64665327 107.22048326 51.90568545 102.15513771 50.01904297 96.29052734 C49.11320526 89.24395264 49.67281132 83.06030733 54.01904297 77.29052734 C56.74216974 74.51281674 59.52767882 72.03620942 63.01904297 70.29052734 C63.12067005 63.84942132 63.19060349 57.40852295 63.23876953 50.96679688 C63.25885404 48.77661411 63.28612714 46.58648476 63.32080078 44.39648438 C63.36945706 41.24384359 63.39204375 38.0919133 63.40966797 34.93896484 C63.43031311 33.96373871 63.45095825 32.98851257 63.472229 31.98373413 C63.47410822 26.25821362 63.03424504 22.71616087 59.01904297 18.29052734 C55.26743246 15.59219128 52.70989633 14.91961317 48.11474609 14.9375 C46.95003784 14.9338443 45.78532959 14.9301886 44.58532715 14.92642212 C43.33626587 14.93571747 42.08720459 14.94501282 40.80029297 14.95458984 C38.82839937 14.94528091 36.85650541 14.93594343 34.88462067 14.92491722 C30.0327657 14.90251384 25.18095476 14.9124812 20.32910156 14.93017578 C17.60212094 14.93898825 14.87573677 14.93454177 12.14880371 14.91635132 C9.5834991 14.90043777 7.01796638 14.90512134 4.45275879 14.93252563 C-5.18346281 14.85012133 -5.18346281 14.85012133 -8.30712891 11.98339844 C-9.98095703 9.29052734 -9.98095703 9.29052734 -9.98095703 5.60302734 C-8.28873132 -0.00247034 -5.2800599 0.03708657 0 0 Z " fill="#62767E" transform="translate(417.98095703125,314.70947265625)"/>
<path d="M0 0 C4.22851202 2.49580964 7.1472736 6.27335379 9.5625 10.5 C9.5625 11.16 9.5625 11.82 9.5625 12.5 C10.14164154 12.49111755 10.72078308 12.48223511 11.31747437 12.4730835 C17.38521379 12.38408473 23.45276559 12.32404945 29.52099609 12.28027344 C31.78083843 12.26024911 34.04062955 12.23302138 36.30029297 12.19824219 C39.56230362 12.14931922 42.82362487 12.12693868 46.0859375 12.109375 C47.08426605 12.08872986 48.0825946 12.06808472 49.11117554 12.04681396 C58.1401804 12.04397314 66.29484257 14.40513743 73.02734375 20.66015625 C78.58322519 27.31873172 80.64633218 34.79841397 80.75537109 43.3125 C80.77143402 44.4571875 80.78749695 45.601875 80.80404663 46.78125 C80.84864454 51.98175074 80.88994401 57.18216808 80.91259766 62.3828125 C80.92596467 65.12794102 80.95387985 67.87233106 80.99462891 70.6171875 C81.05341047 74.57810471 81.0712498 78.5386616 81.0859375 82.5 C81.10860687 83.7271875 81.13127625 84.954375 81.15463257 86.21875 C81.13106575 95.68411499 81.13106575 95.68411499 78.26025391 98.81640625 C75.5625 100.5 75.5625 100.5 71.875 100.4375 C68.5625 99.5 68.5625 99.5 66.5625 97.5 C66.29748535 95.14265442 66.29748535 95.14265442 66.27539062 92.15161133 C66.26197632 91.03317337 66.24856201 89.91473541 66.23474121 88.7624054 C66.22682556 86.94062019 66.22682556 86.94062019 66.21875 85.08203125 C66.2041272 83.8362883 66.18950439 82.59054535 66.17443848 81.30705261 C66.12779326 77.30889791 66.09331702 73.31079902 66.0625 69.3125 C66.0218895 64.06884665 65.96756336 58.82548505 65.90625 53.58203125 C65.89833435 51.77542778 65.89833435 51.77542778 65.89025879 49.93232727 C66.03820055 40.29190105 66.03820055 40.29190105 62.16015625 31.7578125 C58.04116756 28.71835519 55.16738296 27.39421339 50.09106445 27.29467773 C49.19035721 27.27473251 48.28964996 27.25478729 47.36164856 27.23423767 C46.39281235 27.21752518 45.42397614 27.20081268 44.42578125 27.18359375 C43.43120407 27.16281265 42.43662689 27.14203156 41.41191101 27.12062073 C38.23301133 27.05520588 35.05402866 26.9962776 31.875 26.9375 C29.72069452 26.89430712 27.56639746 26.85069258 25.41210938 26.80664062 C20.12899412 26.69953274 14.84579621 26.59775127 9.5625 26.5 C9.26601562 27.27214844 8.96953125 28.04429688 8.6640625 28.83984375 C6.45611384 34.17180487 3.22877766 37.39694533 -1.96484375 39.765625 C-7.75836956 41.48629301 -14.17633559 41.72816288 -19.875 39.58203125 C-25.40061642 36.34828982 -29.30510265 32.17657555 -31.8125 26.25 C-32.96735899 19.32084604 -32.5047317 12.40404602 -28.4375 6.5 C-20.60903394 -1.37749611 -10.8812737 -4.78691692 0 0 Z " fill="#62767E" transform="translate(124.4375,1.5)"/>
<path d="M0 0 C5.15252326 5.13144954 7.05199835 10.04112555 7.55859375 17.23046875 C7.40643612 23.77324673 4.37044027 28.39344729 0.29296875 33.3046875 C-2.09119082 35.22655905 -4.60043732 35.83667085 -7.5 36.75 C-7.49111755 37.34389023 -7.48223511 37.93778046 -7.4730835 38.54966736 C-7.38419153 44.7632377 -7.32409297 50.9766257 -7.28027344 57.19067383 C-7.26023 59.50585271 -7.23298775 61.82098142 -7.19824219 64.13598633 C-7.14940458 67.47489851 -7.12695775 70.81313799 -7.109375 74.15234375 C-7.08872986 75.17770737 -7.06808472 76.20307098 -7.04681396 77.25950623 C-7.04383901 86.91268726 -10.01401284 93.96064258 -16.5703125 101.0234375 C-22.6280008 106.4434744 -29.45622946 107.84285058 -37.40429688 107.94287109 C-38.56900513 107.95893402 -39.73371338 107.97499695 -40.93371582 107.99154663 C-46.22583335 108.03613546 -51.51780713 108.07744491 -56.81005859 108.10009766 C-59.60368387 108.11346467 -62.39658348 108.1413797 -65.18994141 108.18212891 C-69.22050253 108.24090629 -73.25028288 108.25874867 -77.28125 108.2734375 C-78.53031128 108.29610687 -79.77937256 108.31877625 -81.06628418 108.34213257 C-90.69715753 108.31856586 -90.69715753 108.31856586 -93.82617188 105.44775391 C-95.5 102.75 -95.5 102.75 -95.5 99.0625 C-94.5 95.75 -94.5 95.75 -91.5 93.75 C-88.99116516 93.4984436 -88.99116516 93.4984436 -85.9621582 93.49462891 C-84.82700272 93.48766998 -83.69184723 93.48071106 -82.52229309 93.47354126 C-80.68014473 93.47503677 -80.68014473 93.47503677 -78.80078125 93.4765625 C-76.20377179 93.45626666 -73.60676661 93.43541575 -71.00976562 93.4140625 C-66.91284424 93.38936516 -62.81598565 93.3741613 -58.71899414 93.36914062 C-54.76685967 93.36313048 -50.81525085 93.32579029 -46.86328125 93.2890625 C-45.6453035 93.29410797 -44.42732574 93.29915344 -43.17243958 93.30435181 C-36.59080937 93.22850461 -30.78258636 93.05163841 -25.5 88.75 C-21.67482684 83.72664271 -22.02801619 78.16588476 -21.98828125 72.1015625 C-21.96135445 70.58276993 -21.96135445 70.58276993 -21.93388367 69.03329468 C-21.87990042 65.81390489 -21.84592293 62.59466237 -21.8125 59.375 C-21.7793164 57.18617748 -21.74482578 54.99737436 -21.70898438 52.80859375 C-21.62418098 47.45586125 -21.55578051 42.1031094 -21.5 36.75 C-22.27214844 36.46382812 -23.04429687 36.17765625 -23.83984375 35.8828125 C-29.19562297 33.6020842 -32.38454571 29.21404398 -34.76953125 24.0546875 C-36.6391239 18.15597273 -36.41182136 12.02422403 -33.875 6.375 C-30.50349668 0.54062545 -25.35773415 -3.12090708 -18.9375 -5 C-11.8345468 -5.51657841 -5.58219015 -4.6552582 0 0 Z " fill="#62767E" transform="translate(503.5,89.25)"/>
<path d="M0 0 C5.56385788 3.21114083 9.45081319 8.00868958 11.48828125 14.12109375 C12.14935078 21.43620737 12.25667832 28.19031733 7.48828125 34.12109375 C1.14394984 39.95481499 -3.86421348 41.49158294 -12.43359375 41.3984375 C-18.35520119 40.86489165 -22.51499771 38.52473889 -26.44921875 34.12109375 C-28.26351468 31.48211785 -28.89644203 30.12623478 -29.51171875 27.12109375 C-35.93511971 27.16285471 -42.35766064 27.23527039 -48.78051758 27.32861328 C-50.96370676 27.35677094 -53.1469969 27.37801127 -55.33032227 27.39208984 C-58.47594698 27.41359104 -61.62036449 27.46027959 -64.765625 27.51171875 C-65.73568985 27.51294739 -66.7057547 27.51417603 -67.70521545 27.51544189 C-73.7974183 27.64595744 -77.63812096 28.34467685 -82.51171875 32.12109375 C-86.88382642 37.63794534 -85.91589603 44.77333691 -85.8828125 51.47265625 C-85.89574411 53.44587695 -85.90869802 55.41909781 -85.92298222 57.39230919 C-85.95294777 62.24195327 -85.94948745 67.09168958 -85.94750977 71.94140625 C-85.94746856 74.67011251 -85.9580165 77.39842218 -85.97926331 80.12704468 C-85.99801084 82.6934031 -85.99980192 85.25995245 -85.98301697 87.82632446 C-85.99305252 88.98788055 -86.00308807 90.14943665 -86.01342773 91.34619141 C-86.01326157 92.36734039 -86.0130954 93.38848938 -86.01292419 94.44058228 C-86.64595177 97.84245917 -87.80633157 99.02549504 -90.51171875 101.12109375 C-93.51171875 101.62109375 -93.51171875 101.62109375 -96.51171875 101.12109375 C-99.27530318 98.99747361 -100.38520899 97.81205945 -101.01965332 94.34687805 C-101.02442688 92.74878548 -101.02442688 92.74878548 -101.02929688 91.1184082 C-101.04190552 89.90647293 -101.05451416 88.69453766 -101.06750488 87.44587708 C-101.05940796 86.13858139 -101.05131104 84.83128571 -101.04296875 83.484375 C-101.04566595 82.12159448 -101.04955027 80.75881583 -101.05456543 79.39604187 C-101.0604599 76.53866264 -101.05190684 73.68178385 -101.03320312 70.82446289 C-101.01052071 67.1840369 -101.02346684 63.54479761 -101.04749298 59.90441608 C-101.0620459 57.0876953 -101.05730022 54.27124898 -101.04698181 51.45451927 C-101.04305722 49.46668598 -101.05509711 47.47884153 -101.06750488 45.49104309 C-100.95903973 34.9298552 -98.64855844 27.63659704 -91.44921875 19.84765625 C-86.44637875 15.38948028 -80.34169686 12.99042543 -73.6730957 13.00756836 C-72.20191032 13.00768166 -72.20191032 13.00768166 -70.70100403 13.00779724 C-69.6446727 13.01295853 -68.58834137 13.01811981 -67.5 13.0234375 C-65.87495796 13.02555992 -65.87495796 13.02555992 -64.21708679 13.02772522 C-60.7527695 13.03332816 -57.28851655 13.04588117 -53.82421875 13.05859375 C-51.47721447 13.06360837 -49.13020919 13.06817134 -46.78320312 13.07226562 C-41.02601967 13.08329854 -35.26887381 13.10003955 -29.51171875 13.12109375 C-29.37145264 12.49855713 -29.23118652 11.87602051 -29.08666992 11.23461914 C-28.41918713 8.78094675 -27.46741047 7.48643285 -25.82421875 5.55859375 C-25.10685547 4.69041016 -25.10685547 4.69041016 -24.375 3.8046875 C-17.8164854 -2.1213498 -8.19175967 -2.86647889 0 0 Z " fill="#62767E" transform="translate(408.51171875,0.87890625)"/>
<path d="M0 0 C3 0.5625 3 0.5625 5.15614319 2.73260498 C7.26341863 5.96678685 7.50108063 7.58454362 7.50170898 11.40332031 C7.51108994 12.5551178 7.52047089 13.70691528 7.53013611 14.89361572 C7.51890213 16.13012878 7.50766815 17.36664185 7.49609375 18.640625 C7.49754898 19.92177185 7.49900421 21.2029187 7.50050354 22.52288818 C7.50188579 25.23307898 7.48936692 27.94273951 7.46655273 30.65283203 C7.43828151 34.10364386 7.44087627 37.55356779 7.45364285 41.00444412 C7.46233256 44.3207612 7.44712209 47.63682275 7.43359375 50.953125 C7.43652939 52.18154114 7.43946503 53.40995728 7.44248962 54.67559814 C7.32904415 65.08988409 5.62419839 74.01755523 -2 81.5625 C-8.08585307 85.98507885 -13.29234322 88.6959412 -20.86035156 88.67602539 C-21.82104553 88.67594986 -22.7817395 88.67587433 -23.77154541 88.67579651 C-24.80084167 88.67063522 -25.83013794 88.66547394 -26.890625 88.66015625 C-28.48025055 88.65803383 -28.48025055 88.65803383 -30.10198975 88.65586853 C-33.48468862 88.65027382 -36.86732115 88.63772225 -40.25 88.625 C-42.54426988 88.61998432 -44.83854079 88.61542153 -47.1328125 88.61132812 C-52.75523094 88.60030611 -58.37761073 88.58357321 -64 88.5625 C-64.29729004 89.51479492 -64.59458008 90.46708984 -64.90087891 91.44824219 C-66.02464671 94.63233418 -66.79207452 95.7596946 -69.375 97.8125 C-69.96023437 98.29203125 -70.54546875 98.7715625 -71.1484375 99.265625 C-77.34089112 103.60295538 -83.61082338 103.37249923 -91 102.5625 C-97.08497256 100.31087407 -100.77169508 96.08087619 -104.1875 90.6875 C-106.58864228 84.40758941 -106.1149969 78.79378118 -104 72.5625 C-100.66803455 66.4730459 -96.56931236 62.78391487 -90 60.5625 C-83.59119175 59.80228275 -77.43624059 59.84592075 -71.7578125 63.1484375 C-68.52181539 65.7516174 -66.05527779 68.96576388 -64 72.5625 C-64 73.2225 -64 73.8825 -64 74.5625 C-57.54007316 74.4954507 -51.08074918 74.4056247 -44.62133789 74.30004883 C-42.42447073 74.26681945 -40.2275186 74.23878134 -38.03051758 74.21606445 C-34.87023757 74.18248246 -31.71073479 74.13016366 -28.55078125 74.07421875 C-27.57039383 74.06782883 -26.59000641 74.0614389 -25.57991028 74.05485535 C-20.50229632 73.94567697 -17.20444279 73.70264588 -13 70.5625 C-12.34 70.5625 -11.68 70.5625 -11 70.5625 C-9.07666141 65.81826481 -7.87584561 62.10484816 -7.8581543 56.96118164 C-7.85111984 55.81311539 -7.84408539 54.66504913 -7.83683777 53.48219299 C-7.83059135 51.62122231 -7.83059135 51.62122231 -7.82421875 49.72265625 C-7.80102725 47.10741377 -7.77691019 44.49217936 -7.75195312 41.87695312 C-7.71552335 37.74454701 -7.68577473 33.61229176 -7.67407227 29.47973633 C-7.66205838 25.49792926 -7.61846608 21.51673922 -7.57421875 17.53515625 C-7.57612717 16.29653336 -7.57803558 15.05791046 -7.58000183 13.78175354 C-7.56351089 12.63053513 -7.54701996 11.47931671 -7.5300293 10.29321289 C-7.52122993 8.77456383 -7.52122993 8.77456383 -7.51225281 7.22523499 C-6.65270862 2.75724896 -4.3921809 0.82353392 0 0 Z " fill="#62767E" transform="translate(193,409.4375)"/>
<path d="M0 0 C5.07948024 1.54967194 6.28960917 4.67287155 8.6875 9.125 C11.2471259 14.14984386 13.69385338 19.22457408 16.125 24.3125 C16.77368721 25.65969853 17.42277349 27.00670497 18.07226562 28.35351562 C19.65474031 31.63911014 21.21981896 34.93267496 22.78094482 38.22845459 C23.67203907 40.09265518 24.58216439 41.9464651 25.49658203 43.79931641 C26.32005127 45.501604 26.32005127 45.501604 27.16015625 47.23828125 C27.6487915 48.23255127 28.13742676 49.22682129 28.64086914 50.2512207 C29.79664178 53.42467527 29.96105437 55.77299154 29.6875 59.125 C28.625 61 28.625 61 26.6875 62.125 C23.3125 62.8125 23.3125 62.8125 19.6875 62.125 C16.38985751 58.56657456 14.85366739 54.78966958 13.6875 50.125 C0.3225 50.62 0.3225 50.62 -13.3125 51.125 C-14.9625 54.425 -16.6125 57.725 -18.3125 61.125 C-19.3125 62.125 -19.3125 62.125 -22.6875 62.375 C-26.3125 62.125 -26.3125 62.125 -28.25 61.0625 C-29.92639324 58.00554762 -29.56452491 55.57758935 -29.3125 52.125 C-28.40802761 49.30663983 -27.15056358 46.70857283 -25.83984375 44.05859375 C-25.4791127 43.3026442 -25.11838165 42.54669464 -24.74671936 41.76783752 C-23.59374403 39.35975863 -22.42219124 36.96127371 -21.25 34.5625 C-20.48901538 32.9791009 -19.72923908 31.39512048 -18.97070312 29.81054688 C-17.1256866 25.96685792 -15.26054011 22.13350377 -13.38250732 18.30584717 C-12.67660096 16.86709637 -11.97234053 15.42753668 -11.26983643 13.98712158 C-10.31069306 12.0217172 -9.34591167 10.05920201 -8.37890625 8.09765625 C-7.83306885 6.987854 -7.28723145 5.87805176 -6.72485352 4.73461914 C-4.24920927 0.16034752 -4.24920927 0.16034752 0 0 Z " fill="#657981" transform="translate(218.3125,219.875)"/>
<path d="M0 0 C0.94359375 -0.00515625 1.8871875 -0.0103125 2.859375 -0.015625 C3.8390625 -0.00015625 4.81875 0.0153125 5.828125 0.03125 C6.79234375 0.01578125 7.7565625 0.0003125 8.75 -0.015625 C16.08494957 0.02423886 21.53378353 1.41113473 27.1015625 6.3125 C27.54757812 6.8796875 27.99359375 7.446875 28.453125 8.03125 C28.91460937 8.5984375 29.37609375 9.165625 29.8515625 9.75 C33.93449707 15.67935722 34.02046551 21.4719623 33.078125 28.53125 C30.58038955 34.50858931 26.73876212 38.51224354 21.078125 41.53125 C17.51767323 42.71806726 14.64004163 42.62814832 10.890625 42.59375 C9.61832031 42.58472656 8.34601563 42.57570313 7.03515625 42.56640625 C5.57142578 42.54900391 5.57142578 42.54900391 4.078125 42.53125 C4.10169067 43.46191284 4.10169067 43.46191284 4.12573242 44.41137695 C4.18808714 47.22207528 4.22711648 50.03262812 4.265625 52.84375 C4.30333008 54.30844727 4.30333008 54.30844727 4.34179688 55.80273438 C4.35629883 57.20942383 4.35629883 57.20942383 4.37109375 58.64453125 C4.39465942 59.94064331 4.39465942 59.94064331 4.41870117 61.26293945 C4.078125 63.53125 4.078125 63.53125 2.77856445 65.30932617 C-0.08642995 67.368091 -2.53255007 66.95491562 -5.921875 66.53125 C-8.13436222 64.34924341 -8.85904937 62.96167 -9.30955505 59.87524414 C-9.31495804 58.86582764 -9.32036102 57.85641113 -9.32592773 56.81640625 C-9.34495399 55.09442017 -9.34495399 55.09442017 -9.36436462 53.33764648 C-9.36142899 52.10216064 -9.35849335 50.8666748 -9.35546875 49.59375 C-9.3607106 48.32152588 -9.36595245 47.04930176 -9.37135315 45.73852539 C-9.37777748 43.04835069 -9.37786957 40.35902402 -9.36791992 37.66894531 C-9.35642295 34.22534714 -9.37665438 30.78277331 -9.40583706 27.33930969 C-9.42861364 24.04911781 -9.4217323 20.75900227 -9.41796875 17.46875 C-9.42920273 16.23326416 -9.44043671 14.99777832 -9.45201111 13.72485352 C-9.44263016 12.57686279 -9.43324921 11.42887207 -9.42358398 10.24609375 C-9.42341782 9.23667725 -9.42325165 8.22726074 -9.42308044 7.18725586 C-8.42287667 1.88694018 -5.11190334 0.02713942 0 0 Z " fill="#657981" transform="translate(265.921875,217.46875)"/>
<path d="M0 0 C5.15252326 5.13144954 7.05199835 10.04112555 7.55859375 17.23046875 C7.40979017 23.62902256 4.51394207 28.64813639 0.2265625 33.2734375 C-4.57921517 37.38335596 -10.16540343 38.21677405 -16.33203125 37.97265625 C-22.08331725 37.38198363 -26.48898447 35.97212161 -30.5 31.75 C-35.02707136 25.05292749 -36.78701175 18.78480232 -35.5 10.75 C-33.43063074 3.95229538 -29.4352033 0.20950206 -23.5 -3.5 C-15.45886892 -6.51542416 -6.65832205 -5.55269661 0 0 Z " fill="#485E65" transform="translate(503.5,89.25)"/>
<path d="M0 0 C5.40412141 3.10294447 9.16547887 8.25200624 10.953125 14.20703125 C12.49305215 21.9999959 10.42571975 27.97389921 6.21484375 34.4140625 C1.48701798 38.93633063 -3.63600872 41.33991674 -10.22265625 41.6015625 C-17.12886037 41.20520644 -21.82130771 39.45092143 -26.53515625 34.2890625 C-31.13170624 28.83734042 -32.12872137 23.94641246 -31.96875 16.9453125 C-31.18563145 9.88733266 -27.65378907 5.62620932 -22.24609375 1.29296875 C-16.68356387 -2.66656607 -6.37886933 -2.00451988 0 0 Z " fill="#475E65" transform="translate(499.66015625,385.8359375)"/>
<path d="M0 0 C4.69312605 2.74337222 8.55675955 7.26290772 10.26953125 12.453125 C11.45626989 19.28665302 11.3291853 26.46450926 7.625 32.5 C3.63546648 36.83644948 -0.59762515 40.17506082 -6.546875 40.87109375 C-14.16499432 41.01247806 -19.63111803 40.80873939 -25.375 35.5 C-29.98624741 30.52470674 -31.9288482 26.30381489 -32.375 19.5 C-31.59289691 12.37417183 -29.28530619 7.18643648 -23.9375 2.25 C-16.94875663 -2.52280035 -7.84674543 -3.41688722 0 0 Z " fill="#475E65" transform="translate(119.375,471.5)"/>
<path d="M0 0 C4.52545748 3.49867301 7.82216887 8.81178414 8.859375 14.4375 C9.41349297 20.97609209 8.396792 25.84176141 4.859375 31.4375 C0.78923741 35.96094676 -3.61219465 38.98392001 -9.75390625 39.7734375 C-16.09704775 39.86523405 -20.98055064 39.32445558 -26.140625 35.4375 C-30.82614839 30.84405021 -33.25558455 27.61531159 -33.43383789 20.92724609 C-33.54499647 8.37898995 -33.54499647 8.37898995 -29.140625 3.4375 C-20.10305306 -3.91395777 -10.54643667 -5.73726155 0 0 Z " fill="#475E65" transform="translate(422.140625,468.5625)"/>
<path d="M0 0 C4.77601073 3.50514092 7.96758874 7.71039445 9.8203125 13.3359375 C10.72965662 20.40978886 10.14218749 26.53119044 5.8203125 32.3359375 C2.94226832 35.52757003 0.24980998 37.87051972 -3.8671875 39.2109375 C-5.506875 39.2728125 -5.506875 39.2728125 -7.1796875 39.3359375 C-8.07945313 39.41972656 -8.97921875 39.50351563 -9.90625 39.58984375 C-16.61378571 39.98889967 -20.97905165 39.26668644 -26.3359375 35.09375 C-31.45517203 30.21312386 -32.94969835 25.20924004 -33.3359375 18.1796875 C-32.97707529 11.64839521 -30.63510926 6.26919125 -25.8046875 1.8359375 C-18.18496759 -3.86677042 -8.33947309 -4.7605899 0 0 Z " fill="#485E65" transform="translate(34.1796875,82.6640625)"/>
<path d="M0 0 C0.75152344 -0.02900391 1.50304687 -0.05800781 2.27734375 -0.08789062 C8.39961278 -0.15734045 11.85292505 1.56309149 16.359375 5.83984375 C21.03300589 11.61786002 22.21998124 16.21430849 22.0625 23.52734375 C21.41043089 29.33890965 19.03198101 33.00138306 15 37.125 C8.46901765 41.52085351 3.34015854 42.9822577 -4.5703125 41.94140625 C-10.49644489 40.55057926 -14.63935837 37.61042015 -18.1875 32.6875 C-21.34938018 26.96600254 -22.05387971 20.96411044 -20.65234375 14.59765625 C-17.04819879 4.22208742 -10.63060907 0.13399927 0 0 Z " fill="#485E65" transform="translate(22.25,380.6875)"/>
<path d="M0 0 C1.83984375 1.1484375 1.83984375 1.1484375 3.5625 2.5 C4.16191406 2.96664063 4.76132813 3.43328125 5.37890625 3.9140625 C9.84536686 8.45306423 10.21383981 13.41019998 10.3125 19.5 C10.21383981 25.58980002 9.84536686 30.54693577 5.37890625 35.0859375 C4.77949219 35.55257812 4.18007812 36.01921875 3.5625 36.5 C2.99402344 36.94601563 2.42554688 37.39203125 1.83984375 37.8515625 C-3.99671413 41.49476423 -10.79725855 41.45453471 -17.4375 40.5 C-23.11077148 38.36343142 -27.07685223 34.44212907 -30.4375 29.5 C-33.30374042 22.72524992 -32.65916846 16.16500539 -30.375 9.3125 C-23.35127104 -0.88323559 -11.8668452 -5.22049198 0 0 Z " fill="#475E65" transform="translate(124.4375,1.5)"/>
<path d="M0 0 C5.56385788 3.21114083 9.45081319 8.00868958 11.48828125 14.12109375 C12.14935078 21.43620737 12.25667832 28.19031733 7.48828125 34.12109375 C1.14394984 39.95481499 -3.86421348 41.49158294 -12.43359375 41.3984375 C-18.2788678 40.87176941 -22.46415857 38.56659481 -26.38671875 34.24609375 C-31.14707304 27.24557274 -31.2861988 20.61307803 -29.88671875 12.49609375 C-27.70179726 7.13310464 -24.70825608 3.44520358 -19.73828125 0.44921875 C-13.62686666 -2.06637563 -6.26540659 -2.1924051 0 0 Z " fill="#475E65" transform="translate(408.51171875,0.87890625)"/>
<path d="M0 0 C2.66524166 2.0948799 3.86494593 3.28431665 4.50120544 6.65600586 C4.50137161 7.66542236 4.50153778 8.67483887 4.50170898 9.71484375 C4.51108994 10.86283447 4.52047089 12.0108252 4.53013611 13.19360352 C4.51890213 14.42908936 4.50766815 15.6645752 4.49609375 16.9375 C4.49754898 18.20972412 4.49900421 19.48194824 4.50050354 20.79272461 C4.49884318 23.48313372 4.48935144 26.17213008 4.46655273 28.86230469 C4.43816733 32.30579027 4.44090637 35.7483891 4.45364285 39.19194031 C4.46228078 42.48218383 4.44715018 45.77228422 4.43359375 49.0625 C4.43652939 50.29798584 4.43946503 51.53347168 4.44248962 52.80639648 C4.42980545 53.95438721 4.41712128 55.10237793 4.40405273 56.28515625 C4.39864975 57.29457275 4.39324677 58.30398926 4.38768005 59.34399414 C3.93717437 62.43042 3.21248722 63.81799341 1 66 C-4.92348058 66.74043507 -4.92348058 66.74043507 -7.6934967 64.83520508 C-9.53700651 62.24568343 -9.38777934 60.36229255 -9.40405273 57.19921875 C-9.41673691 56.0078833 -9.42942108 54.81654785 -9.44248962 53.58911133 C-9.43955399 52.30157959 -9.43661835 51.01404785 -9.43359375 49.6875 C-9.43815457 48.35375705 -9.44345985 47.02001646 -9.44947815 45.6862793 C-9.4584117 42.89199267 -9.45598326 40.09799182 -9.44604492 37.30371094 C-9.43454784 33.72211699 -9.45477493 30.14150788 -9.48396206 26.56004333 C-9.50230351 23.80621066 -9.50203598 21.05261499 -9.49632454 18.29873657 C-9.49609649 16.33608826 -9.51301225 14.3734623 -9.53013611 12.41088867 C-9.52075516 11.21955322 -9.51137421 10.02821777 -9.50170898 8.80078125 C-9.50154282 7.75059814 -9.50137665 6.70041504 -9.50120544 5.6184082 C-9 3 -9 3 -7.12489319 1.16479492 C-4.4456218 -0.30389147 -3.01270128 -0.52722272 0 0 Z " fill="#657981" transform="translate(319,218)"/>
<path d="M0 0 C16.17 0 32.34 0 49 0 C49 4.62 49 9.24 49 14 C32.83 14 16.66 14 0 14 C0 9.38 0 4.76 0 0 Z " fill="#62777F" transform="translate(420,244)"/>
<path d="M0 0 C4.62 0 9.24 0 14 0 C14 15.51 14 31.02 14 47 C9.38 47 4.76 47 0 47 C0 31.49 0 15.98 0 0 Z " fill="#627880" transform="translate(252,415)"/>
<path d="M0 0 C4.62 0 9.24 0 14 0 C14 15.18 14 30.36 14 46 C9.38 46 4.76 46 0 46 C0 30.82 0 15.64 0 0 Z " fill="#62777F" transform="translate(252,41)"/>
<path d="M0 0 C14.19 0 28.38 0 43 0 C43 4.62 43 9.24 43 14 C28.81 14 14.62 14 0 14 C0 9.38 0 4.76 0 0 Z " fill="#62777F" transform="translate(49,244)"/>
<path d="M0 0 C10.9030837 -0.43612335 10.9030837 -0.43612335 15 3 C16.58939347 6.17878694 16.41576711 8.4956772 16 12 C13.23437502 15.42064142 11.75325298 16.79649742 7.375 17.3046875 C4.91457954 17.31167733 2.45483316 17.16586711 0 17 C0 11.39 0 5.78 0 0 Z " fill="#F3F5F5" transform="translate(270,231)"/>
<path d="M0 0 C0.66 0 1.32 0 2 0 C3.00484204 1.95585325 4.00373805 3.91476237 5 5.875 C5.556875 6.96554688 6.11375 8.05609375 6.6875 9.1796875 C8 12 8 12 8 14 C3.38 14 -1.24 14 -6 14 C-4.02 9.38 -2.04 4.76 0 0 Z " fill="#F7F8F8" transform="translate(217,243)"/>
</svg>
