<?xml version="1.0" encoding="UTF-8"?>
<svg version="1.1" xmlns="http://www.w3.org/2000/svg" width="512" height="512">
<path d="M0 0 C0.65838867 0.31694824 1.31677734 0.63389648 1.99511719 0.96044922 C18.34140638 8.91905393 32.32935527 20.00446694 45 33 C45.63035156 33.58523437 46.26070313 34.17046875 46.91015625 34.7734375 C75.17692241 61.59446077 91.17272919 103.11355076 92.203125 141.671875 C92.79054777 187.31125648 78.55353669 230.11319261 46.59375 263.36328125 C44 266 44 266 41.87158203 267.50878906 C38.8744235 271.49822366 39.43622294 275.63820373 39.4609375 280.49609375 C39.44914459 281.5217897 39.43735168 282.54748566 39.42520142 283.60426331 C39.38989571 286.88216288 39.3807683 290.15942573 39.375 293.4375 C39.35864888 296.71181212 39.33657622 299.98583933 39.30337524 303.26002502 C39.28377653 305.29668348 39.27440697 307.33347228 39.27645874 309.370224 C39.21012299 318.21337456 39.21012299 318.21337456 37 322 C34.18175808 323.40912096 31.82748718 323.11183553 28.6796875 323.09765625 C27.42285156 323.09443359 26.16601562 323.09121094 24.87109375 323.08789062 C23.55238281 323.07951172 22.23367188 323.07113281 20.875 323.0625 C19.53515789 323.05748489 18.195314 323.05292201 16.85546875 323.04882812 C13.57029343 323.03701095 10.28514119 323.01907501 7 323 C7 327.62 7 332.24 7 337 C8.05600403 336.99111755 9.11200806 336.98223511 10.20001221 336.9730835 C20.14681962 336.89203319 30.09356013 336.83205168 40.04062271 336.79275131 C45.1546631 336.77186736 50.26843713 336.74353484 55.38232422 336.69824219 C60.31658296 336.65481345 65.25058535 336.63086898 70.18502045 336.62049103 C72.06853014 336.61309432 73.95202564 336.59865039 75.83542633 336.57707977 C78.47164848 336.54808508 81.10680838 336.54404231 83.74316406 336.54589844 C84.52359573 336.53151733 85.3040274 336.51713623 86.10810852 336.50231934 C89.66132527 336.52942891 91.60421255 336.69296173 94.45355225 338.90338135 C97.07065026 342.45154939 97.12240739 344.53075039 97.11352539 348.91845703 C97.11344986 350.15959259 97.11337433 351.40072815 97.11329651 352.67947388 C97.1081895 354.03892049 97.1029735 355.39836669 97.09765625 356.7578125 C97.09579142 358.14500884 97.09436782 359.53220584 97.09336853 360.91940308 C97.08954848 364.57234512 97.07972255 368.22524748 97.06866455 371.87817383 C97.05843944 375.60497501 97.05386855 379.33178259 97.04882812 383.05859375 C97.03809983 390.37241394 97.02102954 397.68620141 97 405 C98.01425049 404.98428955 99.02850098 404.9685791 100.07348633 404.95239258 C103.83610087 404.89809681 107.59868078 404.86365149 111.36157227 404.83520508 C112.99021223 404.82011757 114.61881156 404.79964494 116.24731445 404.77368164 C118.58815535 404.73729551 120.92845919 404.7202738 123.26953125 404.70703125 C123.99775589 404.69154739 124.72598053 404.67606354 125.47627258 404.66011047 C130.49801312 404.65843828 130.49801312 404.65843828 132.69308472 406.15200806 C134.55117667 408.77936961 134.37419588 410.70721376 134.37231445 413.90844727 C134.37854324 415.12303116 134.38477203 416.33761505 134.39118958 417.58900452 C134.37737495 419.55781837 134.37737495 419.55781837 134.36328125 421.56640625 C134.36276261 422.92496236 134.36328047 424.28351922 134.36479187 425.64207458 C134.36470219 428.48765279 134.35428037 431.33294742 134.33618164 434.1784668 C134.31347271 437.82941085 134.31295458 441.47994135 134.31969929 445.13093662 C134.32303714 447.93531483 134.31641308 450.73959839 134.30657005 453.54395866 C134.30083982 455.54594517 134.30215508 457.54794779 134.30354309 459.54994202 C134.29401108 460.76137375 134.28447906 461.97280548 134.2746582 463.22094727 C134.27005081 464.29111588 134.26544342 465.36128448 134.26069641 466.46388245 C134 469 134 469 132 471 C129.20948909 471.19863343 126.51820952 471.27269851 123.7265625 471.25878906 C122.87116882 471.2622937 122.01577515 471.26579834 121.13446045 471.26940918 C118.29789186 471.27823477 115.46157127 471.27237445 112.625 471.265625 C110.65966748 471.26697141 108.69433528 471.26891174 106.72900391 471.27142334 C102.60641311 471.27437572 98.48390887 471.27007328 94.36132812 471.26074219 C89.0681367 471.2493476 83.77514809 471.25590646 78.48196411 471.26788712 C74.42259178 471.27510263 70.3632678 471.27281921 66.30389404 471.26763153 C64.35178605 471.26629418 62.39967372 471.26794573 60.4475708 471.27259064 C57.72274085 471.2776508 54.99824264 471.26995288 52.2734375 471.25878906 C51.46090515 471.26283752 50.6483728 471.26688599 49.81121826 471.27105713 C44.22852813 471.22852813 44.22852813 471.22852813 42 469 C41.73930359 466.46388245 41.73930359 466.46388245 41.7253418 463.22094727 C41.71580978 462.00951553 41.70627777 460.7980838 41.69645691 459.54994202 C41.69782402 457.57809181 41.69782402 457.57809181 41.69921875 455.56640625 C41.69533295 454.20881519 41.69099852 452.85122534 41.68623352 451.49363708 C41.67876605 448.64635276 41.6790662 445.79919241 41.68432617 442.9519043 C41.69011987 439.30207465 41.67319545 435.65275263 41.6499815 432.00300694 C41.63525275 429.19859344 41.63437127 426.39430242 41.63749123 423.5898571 C41.63672759 421.58955021 41.62284568 419.58926232 41.60881042 417.58900452 C41.61815361 415.76712868 41.61815361 415.76712868 41.62768555 413.90844727 C41.62705612 412.83748306 41.6264267 411.76651886 41.6257782 410.6631012 C42 408 42 408 43.30117798 406.15200806 C46.21334234 404.17720625 49.55569779 404.63668295 52.94921875 404.70703125 C53.63423462 404.71005249 54.31925049 404.71307373 55.02502441 404.71618652 C57.57933661 404.73186062 60.13343373 404.77374487 62.6875 404.8125 C68.400625 404.874375 74.11375 404.93625 80 405 C80 388.17 80 371.34 80 354 C73.98265625 354.02320313 67.9653125 354.04640625 61.765625 354.0703125 C57.95572486 354.08053039 54.14584159 354.09015825 50.3359375 354.09765625 C44.28739925 354.1096163 38.23892149 354.12377205 32.19042969 354.15087891 C27.31454556 354.17259411 22.4387263 354.18456586 17.56279755 354.18975449 C15.70164722 354.19345261 13.84050049 354.20067403 11.97937775 354.21146011 C9.37451986 354.22595741 6.76993074 354.22797868 4.16503906 354.22705078 C3.39395813 354.23424133 2.6228772 354.24143188 1.82843018 354.24884033 C-4.94114953 354.22271072 -4.94114953 354.22271072 -8 352 C-13.3748385 343.93774225 -10 332.6896279 -10 323 C-28.15 323 -46.3 323 -65 323 C-65 350.06 -65 377.12 -65 405 C-53.45 405 -41.9 405 -30 405 C-28 407 -28 407 -27.75276184 409.62550354 C-27.75418686 410.73723434 -27.75561188 411.84896515 -27.75708008 412.99438477 C-27.75400345 414.25231339 -27.75092682 415.510242 -27.74775696 416.80628967 C-27.75465418 418.18466372 -27.76192111 419.56303596 -27.76953125 420.94140625 C-27.77072296 422.3486273 -27.77117623 423.75584915 -27.7709198 425.16307068 C-27.77248487 428.11291479 -27.78077701 431.06263758 -27.79418945 434.01245117 C-27.81119496 437.80131829 -27.81500337 441.59005217 -27.81424427 445.37895298 C-27.81451563 448.28449281 -27.81999107 451.19000328 -27.82724571 454.09553337 C-27.83043666 455.49303909 -27.83240078 456.89054816 -27.83313942 458.28805733 C-27.83529758 460.23705357 -27.84482687 462.18603752 -27.85473633 464.13500977 C-27.85854813 465.24594498 -27.86235992 466.35688019 -27.86628723 467.5014801 C-28 470 -28 470 -29 471 C-31.76401408 471.10050214 -34.50307226 471.13616075 -37.26757812 471.12939453 C-38.5674894 471.13202301 -38.5674894 471.13202301 -39.8936615 471.13470459 C-42.77287773 471.13912425 -45.65203309 471.13618472 -48.53125 471.1328125 C-50.52282727 471.13348551 -52.51440446 471.1344555 -54.50598145 471.13571167 C-58.68579895 471.1371888 -62.86559513 471.13503361 -67.04541016 471.13037109 C-72.41602526 471.1246738 -77.7865904 471.12795273 -83.15720367 471.13394356 C-87.2714272 471.13754877 -91.38563879 471.13641077 -95.49986267 471.13381577 C-97.48070786 471.13314639 -99.46155412 471.1339753 -101.44239807 471.13629532 C-104.20576876 471.13882119 -106.96905734 471.13498218 -109.73242188 471.12939453 C-110.55947128 471.13141876 -111.38652069 471.13344299 -112.2386322 471.13552856 C-117.88573756 471.11426244 -117.88573756 471.11426244 -119 470 C-119.10450769 468.04719816 -119.13855374 466.09059455 -119.14526367 464.13500977 C-119.15164352 462.88023331 -119.15802338 461.62545685 -119.16459656 460.33265686 C-119.16612512 458.95224038 -119.16723914 457.57182338 -119.16796875 456.19140625 C-119.17117967 454.78515081 -119.17454362 453.37889571 -119.17805481 451.97264099 C-119.18405232 449.02105942 -119.18589408 446.06950716 -119.18530273 443.11791992 C-119.18520109 439.33019954 -119.19885285 435.54266653 -119.21607494 431.75499058 C-119.22717742 428.84941235 -119.22922248 425.94387967 -119.22869301 423.03828239 C-119.2298758 421.64159436 -119.23431421 420.24490524 -119.24202538 418.84823799 C-119.25178925 416.89697799 -119.24769234 414.94566336 -119.24291992 412.99438477 C-119.24434494 411.88265396 -119.24576996 410.77092316 -119.24723816 409.62550354 C-119 407 -119 407 -117 405 C-105.45 405 -93.9 405 -82 405 C-82 377.94 -82 350.88 -82 323 C-100.15 323 -118.3 323 -137 323 C-137 331.25 -137 339.5 -137 348 C-141 353 -141 353 -143 354 C-145.65480381 354.09309071 -148.2831472 354.1257896 -150.93798828 354.11352539 C-151.75758026 354.11367142 -152.57717224 354.11381744 -153.42160034 354.1139679 C-156.1378644 354.11326974 -158.85406038 354.10548188 -161.5703125 354.09765625 C-163.45075442 354.09579173 -165.33119683 354.09436798 -167.2116394 354.09336853 C-172.16661922 354.08954607 -177.12156983 354.07971808 -182.07653809 354.06866455 C-188.01865536 354.0566485 -193.96078238 354.0520469 -199.90290833 354.04621124 C-208.93529254 354.0365062 -217.96761265 354.01734773 -227 354 C-227 370.83 -227 387.66 -227 405 C-215.61636289 404.88134667 -215.61636289 404.88134667 -204.2331543 404.72973633 C-202.80518261 404.72097383 -201.37720343 404.71332933 -199.94921875 404.70703125 C-199.20885376 404.69168335 -198.46848877 404.67633545 -197.70568848 404.66052246 C-192.50160196 404.65786596 -192.50160196 404.65786596 -190.30117798 406.15873718 C-188.46491127 408.75719002 -188.62578793 410.63464914 -188.62768555 413.80078125 C-188.61834236 415.58778442 -188.61834236 415.58778442 -188.60881042 417.41088867 C-188.61802017 418.69842041 -188.62722992 419.98595215 -188.63671875 421.3125 C-188.63723746 422.64624023 -188.63671934 423.97998123 -188.63520813 425.3137207 C-188.63529782 428.10802637 -188.64571951 430.9020433 -188.66381836 433.69628906 C-188.68650571 437.27763485 -188.68704936 440.8585588 -188.68030071 444.43995667 C-188.67695882 447.19376371 -188.68359491 449.94747462 -188.69342995 452.70126343 C-188.69914989 454.66387132 -188.69784619 456.62649559 -188.69645691 458.58911133 C-188.70598892 459.78044678 -188.71552094 460.97178223 -188.7253418 462.19921875 C-188.73225288 463.77449341 -188.73225288 463.77449341 -188.73930359 465.3815918 C-189 468 -189 468 -191 471 C-193.82988613 471.29681708 -196.44125536 471.39895765 -199.2734375 471.37231445 C-200.12883118 471.37596512 -200.98422485 471.37961578 -201.86553955 471.38337708 C-204.7022263 471.39150457 -207.53834575 471.37785434 -210.375 471.36328125 C-212.34033203 471.36276291 -214.30566458 471.36327961 -216.27099609 471.36479187 C-220.39363323 471.36470205 -224.51607521 471.3542523 -228.63867188 471.33618164 C-233.93187659 471.31349415 -239.22479594 471.3129493 -244.51803589 471.31969929 C-248.57741853 471.32303554 -252.63673572 471.31641567 -256.69610596 471.30657005 C-258.64821022 471.30271182 -260.60032176 471.3015724 -262.5524292 471.3031559 C-265.27728224 471.3035254 -268.00176492 471.29093872 -270.7265625 471.2746582 C-271.94536102 471.27837433 -271.94536102 471.27837433 -273.18878174 471.28216553 C-278.77125949 471.22874051 -278.77125949 471.22874051 -281 469 C-281.25396729 466.41918945 -281.25396729 466.41918945 -281.25878906 463.11328125 C-281.26509338 461.87860107 -281.27139771 460.6439209 -281.27789307 459.37182617 C-281.27431338 458.018716 -281.27021145 456.66560713 -281.265625 455.3125 C-281.26697175 453.93009371 -281.26891236 452.54768787 -281.27142334 451.1652832 C-281.27437418 448.26671849 -281.27007836 445.36827697 -281.26074219 442.46972656 C-281.24934755 438.75039363 -281.25590725 435.03134932 -281.26788712 431.31202698 C-281.27510688 428.45704973 -281.27281728 425.60214115 -281.26763153 422.74716187 C-281.26629535 421.37559983 -281.26794166 420.00403161 -281.27259064 418.63247681 C-281.27765748 416.7172253 -281.26856831 414.80195199 -281.25878906 412.88671875 C-281.25719788 411.79576904 -281.25560669 410.70481934 -281.25396729 409.58081055 C-281 407 -281 407 -279 405 C-276.34708243 404.82489614 -273.80013826 404.76844517 -271.1484375 404.8046875 C-270.37440582 404.8075174 -269.60037415 404.81034729 -268.80288696 404.81326294 C-266.32676843 404.82447246 -263.8510095 404.84957797 -261.375 404.875 C-259.69792188 404.88502882 -258.02083811 404.89415484 -256.34375 404.90234375 C-252.22902777 404.92441426 -248.11457489 404.95894898 -244 405 C-244.01110306 404.22183426 -244.02220612 403.44366852 -244.03364563 402.641922 C-244.13392665 395.30017949 -244.2100041 387.95877009 -244.25906086 380.61652088 C-244.28512982 376.8419499 -244.32047629 373.06794586 -244.37719727 369.29370117 C-244.43161681 365.64969519 -244.46144086 362.00623369 -244.47438622 358.36185265 C-244.48360857 356.97314573 -244.50161853 355.58446785 -244.52865028 354.19599342 C-244.56506071 352.24790256 -244.56704339 350.29926109 -244.56762695 348.35083008 C-244.58428154 346.68870232 -244.58428154 346.68870232 -244.60127258 344.99299622 C-243.76967104 340.85347556 -242.41872059 339.44709156 -239 337 C-236.01199498 336.530692 -233.60728464 336.36346884 -230.62963867 336.43237305 C-229.79985504 336.43164291 -228.97007141 336.43091278 -228.11514282 336.43016052 C-225.38207827 336.43363419 -222.65073422 336.4724834 -219.91796875 336.51171875 C-218.01940339 336.5210477 -216.12082597 336.52816342 -214.22224426 336.53315735 C-209.23245843 336.55222073 -204.24340378 336.60131597 -199.25390625 336.65667725 C-194.15960582 336.70788389 -189.0651869 336.73067442 -183.97070312 336.75585938 C-173.98014803 336.80943524 -163.99013489 336.89474019 -154 337 C-154 332.38 -154 327.76 -154 323 C-155.76988281 323.02320313 -157.53976563 323.04640625 -159.36328125 323.0703125 C-161.67968329 323.08906879 -163.99608988 323.10726914 -166.3125 323.125 C-167.47974609 323.14175781 -168.64699219 323.15851563 -169.84960938 323.17578125 C-170.96787109 323.18222656 -172.08613281 323.18867188 -173.23828125 323.1953125 C-174.26993408 323.20578613 -175.30158691 323.21625977 -176.36450195 323.22705078 C-179 323 -179 323 -182 321 C-182.28433228 319.08958435 -182.28433228 319.08958435 -182.16259766 316.72827148 C-182.12826126 315.84178925 -182.09392487 314.95530701 -182.05854797 314.04196167 C-182.01086777 313.07807526 -181.96318756 312.11418884 -181.9140625 311.12109375 C-179.96766887 288.46663872 -179.96766887 288.46663872 -186.41796875 267.6640625 C-189.81154723 264.08749119 -193.70601779 261.31432657 -197.81445312 258.61181641 C-201.47762945 255.91026479 -203.95372053 252.4381115 -206.5625 248.75 C-207.28687256 247.74610229 -207.28687256 247.74610229 -208.02587891 246.72192383 C-209.37329661 244.82921204 -210.69165382 242.91986698 -212 241 C-212.72445312 239.948125 -213.44890625 238.89625 -214.1953125 237.8125 C-236.8228313 203.02823581 -244.75325392 158.09699345 -236.96484375 117.44140625 C-236.65092591 115.9592864 -236.3293768 114.47876117 -236 113 C-235.83902832 112.26249512 -235.67805664 111.52499023 -235.51220703 110.76513672 C-225.90149248 68.45398897 -198.52040075 31.0768674 -162 8 C-113.02590962 -22.69484205 -51.67296901 -25.20838858 0 0 Z " fill="#014960" transform="translate(329,36)"/>
<path d="M0 0 C0.65838867 0.31694824 1.31677734 0.63389648 1.99511719 0.96044922 C18.34140638 8.91905393 32.32935527 20.00446694 45 33 C45.63035156 33.58523437 46.26070313 34.17046875 46.91015625 34.7734375 C75.17692241 61.59446077 91.17272919 103.11355076 92.203125 141.671875 C92.7896424 187.24091482 78.57406843 229.95698513 46.7890625 263.265625 C43.96765055 266.03171515 41.07049336 268.5182443 38 271 C37.97812622 269.75126099 37.97812622 269.75126099 37.95581055 268.47729492 C37.8947137 265.38510347 37.82055444 262.29357918 37.73754883 259.2019043 C37.68798681 257.2070937 37.65348867 255.21192743 37.61914062 253.21679688 C37.5659668 251.33637695 37.5659668 251.33637695 37.51171875 249.41796875 C37.48553467 248.26063232 37.45935059 247.1032959 37.43237305 245.91088867 C37.24292396 242.6473822 37.24292396 242.6473822 34 240 C30.7 239.67 27.4 239.34 24 239 C24 229.1 24 219.2 24 209 C27.3 208.67 30.6 208.34 34 208 C37.2143733 204.7856267 37.34899334 204.0641876 37.39547729 199.76243591 C37.38783356 199.05635696 37.38018982 198.35027802 37.37231445 197.62280273 C37.37596512 196.87455231 37.37961578 196.12630188 37.38337708 195.3553772 C37.39148559 192.88121878 37.37787168 190.40771462 37.36328125 187.93359375 C37.36276273 186.21631368 37.36328011 184.49903302 37.36479187 182.78175354 C37.36470214 179.18294412 37.35426956 175.58435867 37.33618164 171.9855957 C37.31347731 167.36613041 37.3129533 162.74699198 37.31969929 158.12748623 C37.32303582 154.5819456 37.31641544 151.03647988 37.30657005 147.49095345 C37.30271359 145.78725641 37.30157168 144.08355105 37.3031559 142.37985039 C37.30352555 140.00233868 37.2909355 137.62525093 37.2746582 135.24780273 C37.27713562 134.53969955 37.27961304 133.83159637 37.28216553 133.10203552 C37.34348145 129.10537281 37.34348145 129.10537281 35 126 C32.18389421 125.80216638 29.46601601 125.73080584 26.64868164 125.74603271 C25.77450372 125.74291273 24.90032579 125.73979275 23.99965763 125.73657823 C21.05308977 125.72856323 18.10672586 125.73493545 15.16015625 125.74121094 C13.05475747 125.73850263 10.94935964 125.7349426 8.84396362 125.73059082 C3.11270211 125.7214455 -2.61848769 125.72501988 -8.34975052 125.73134899 C-14.33595224 125.73639792 -20.32214766 125.73172063 -26.30834961 125.72857666 C-36.36280423 125.72493377 -46.41722951 125.72974456 -56.47167969 125.73925781 C-68.11078842 125.75014297 -79.7498271 125.74661762 -91.38893414 125.735605 C-101.3659993 125.7265413 -111.34304332 125.72524235 -121.32011127 125.73048234 C-127.28600018 125.7336071 -133.25185611 125.73399757 -139.21774292 125.72740936 C-144.82534962 125.72164984 -150.43286563 125.72560716 -156.04046249 125.73719788 C-158.10369592 125.73985195 -160.16693693 125.73906673 -162.23016739 125.73467255 C-165.03644334 125.729245 -167.8424247 125.73601705 -170.64868164 125.74603271 C-171.47415465 125.74157127 -172.29962767 125.73710983 -173.15011501 125.73251319 C-177.54367716 125.58656097 -177.54367716 125.58656097 -181 128 C-181.19819282 130.45842922 -181.27281958 132.80419599 -181.25878906 135.26367188 C-181.2622937 136.01177628 -181.26579834 136.75988068 -181.26940918 137.53065491 C-181.2782309 140.01011359 -181.27237589 142.48928828 -181.265625 144.96875 C-181.26697153 146.68745987 -181.26891195 148.40616937 -181.27142334 150.12487793 C-181.2743752 153.7296104 -181.27007501 157.33424386 -181.26074219 160.93896484 C-181.24934759 165.5662906 -181.25590674 170.19338436 -181.26788712 174.8207016 C-181.27510407 178.37052162 -181.27281855 181.92028637 -181.26763153 185.47010803 C-181.26629458 187.17660042 -181.26794435 188.88309777 -181.27259064 190.58958435 C-181.27765322 192.97196805 -181.26994966 195.35397275 -181.25878906 197.73632812 C-181.26283752 198.44600235 -181.26688599 199.15567657 -181.27105713 199.88685608 C-181.34362687 203.88951798 -181.34362687 203.88951798 -179 207 C-174.71 207.33 -170.42 207.66 -166 208 C-166 218.23 -166 228.46 -166 239 C-169.96 239.33 -173.92 239.66 -178 240 C-181.71723336 243.71723336 -181.40708059 244.9469488 -181.51171875 250.07421875 C-181.52966995 250.7580513 -181.54762115 251.44188385 -181.56611633 252.1464386 C-181.62022075 254.32673 -181.6541134 256.50680256 -181.6875 258.6875 C-181.7206732 260.16734817 -181.75516287 261.64716745 -181.79101562 263.12695312 C-181.87594524 266.75109169 -181.94275635 270.37530652 -182 274 C-214.45651437 246.54267001 -235.21891912 207.53566661 -239 165 C-239.94945453 147.61379915 -239.79873235 130.05468614 -236 113 C-235.83902832 112.26249512 -235.67805664 111.52499023 -235.51220703 110.76513672 C-225.90149248 68.45398897 -198.52040075 31.0768674 -162 8 C-113.02590962 -22.69484205 -51.67296901 -25.20838858 0 0 Z " fill="#2E91F0" transform="translate(329,36)"/>
<path d="M0 0 C0.87432678 -0.00467997 1.74865356 -0.00935994 2.6494751 -0.01418173 C5.590688 -0.02618522 8.53143956 -0.01665363 11.47265625 -0.00723267 C13.57658155 -0.01129599 15.68050472 -0.01663651 17.78442383 -0.02316284 C23.50745854 -0.03687069 29.2303315 -0.03152346 34.95336914 -0.02202559 C40.93376105 -0.01444694 46.91413882 -0.02146959 52.89453125 -0.02618408 C62.93882746 -0.03164688 72.98305757 -0.02443627 83.02734375 -0.01016235 C94.65114642 0.00616512 106.27479125 0.00087699 117.89859009 -0.01564157 C127.86635696 -0.02924151 137.83407622 -0.03118341 147.80184937 -0.02332556 C153.76050403 -0.01864083 159.71908443 -0.01804613 165.67773438 -0.02793503 C171.27883315 -0.0365807 176.87972779 -0.03062672 182.48080444 -0.01325226 C184.54039165 -0.00927457 186.59999594 -0.01044324 188.65957642 -0.01704025 C191.46338959 -0.02519525 194.26654185 -0.01500762 197.0703125 0 C197.89219055 -0.00669217 198.7140686 -0.01338433 199.56085205 -0.02027929 C205.01227649 0.0366171 205.01227649 0.0366171 207.53997898 1.70119381 C209.20993861 4.51991432 208.95958841 7.54414152 208.93920898 10.72640991 C208.94607224 11.47144775 208.95293549 12.2164856 208.96000671 12.98410034 C208.9783183 15.44860862 208.97443109 17.91248292 208.96875 20.37704468 C208.97330989 22.0895356 208.97861488 23.80202469 208.9846344 25.51451111 C208.99357416 29.10491364 208.9911328 32.69509384 208.98120117 36.28549194 C208.96971311 40.88701808 208.98991563 45.48777665 209.01911831 50.08920193 C209.03746391 53.62626523 209.03719111 57.16314406 209.03148079 60.700243 C209.03132736 62.39671976 209.03738977 64.09320885 209.04977226 65.78964043 C209.06464926 68.16228246 209.05403084 70.53349999 209.03686523 72.90609741 C209.05136719 73.95746635 209.05136719 73.95746635 209.06616211 75.03007507 C209.01970816 78.09603578 208.65386493 80.17269973 207.12879944 82.84812927 C204.53515625 84.38095093 204.53515625 84.38095093 194.53515625 84.38095093 C194.53515625 94.28095093 194.53515625 104.18095093 194.53515625 114.38095093 C197.83515625 114.38095093 201.13515625 114.38095093 204.53515625 114.38095093 C207.43145138 116.27737369 208.28594423 117.33350257 209.08105469 120.67538452 C209.10200195 121.53470581 209.12294922 122.3940271 209.14453125 123.27938843 C209.19323364 124.80197266 209.19323364 124.80197266 209.24291992 126.35531616 C209.25685791 127.47752563 209.2707959 128.59973511 209.28515625 129.75595093 C209.31262939 130.93810181 209.34010254 132.12025269 209.3684082 133.33822632 C209.43739405 136.84905867 209.48236187 140.35860787 209.51300049 143.86990356 C209.53727597 146.62119205 209.56732689 149.3723932 209.59716797 152.12362671 C209.64993717 157.31192327 209.68517185 162.50011841 209.70837402 167.68862915 C209.71788071 169.77193445 209.72983596 171.85523004 209.7442627 173.93850708 C209.76206776 176.89727336 209.76589465 179.85573125 209.765625 182.81454468 C209.77275009 183.70617813 209.77987518 184.59781158 209.78721619 185.51646423 C209.77143591 189.86473463 209.7341531 193.491013 207.53515625 197.38095093 C204.57851106 198.85927352 201.79285888 198.44127875 198.53515625 198.38095093 C198.52929001 197.51064743 198.52342377 196.64034393 198.51737976 195.7436676 C198.45951002 187.54752744 198.38746649 179.35166146 198.29944134 171.15578747 C198.25468656 166.94204299 198.21544195 162.72839634 198.1887207 158.51449585 C198.1627383 154.44890248 198.12237252 150.38368455 198.07196999 146.31832314 C198.05526683 144.76621477 198.04377406 143.21404142 198.03754234 141.6618557 C198.02793827 139.4899382 197.99992595 137.31898865 197.9675293 135.14730835 C197.95642624 133.9104277 197.94532318 132.67354706 197.93388367 131.39918518 C197.7566268 128.49238018 197.7566268 128.49238018 196.5215683 126.71723175 C193.37357004 124.59953935 190.02140572 124.95979806 186.35383606 124.98222351 C185.510061 124.97557668 184.66628594 124.96892986 183.79694194 124.96208161 C180.95931455 124.94337507 178.12210599 124.94606202 175.28442383 124.94857788 C173.25444438 124.93956539 171.2244704 124.92923945 169.19450378 124.91769409 C163.6741821 124.89003773 158.15396341 124.88082786 152.6335814 124.87484002 C146.86795839 124.86547879 141.10241301 124.83927729 135.33683777 124.81483459 C124.4146687 124.77110384 113.49251463 124.74259729 102.57028455 124.71951121 C90.13751704 124.69249475 77.70482737 124.64858109 65.27211535 124.60322249 C39.69317114 124.51028203 14.11420252 124.43864438 -11.46484375 124.38095093 C-11.71484375 121.63095093 -11.71484375 121.63095093 -11.46484375 118.38095093 C-10.14484375 117.06095093 -8.82484375 115.74095093 -7.46484375 114.38095093 C-3.50484375 114.38095093 0.45515625 114.38095093 4.53515625 114.38095093 C4.53515625 104.15095093 4.53515625 93.92095093 4.53515625 83.38095093 C0.24515625 83.38095093 -4.04484375 83.38095093 -8.46484375 83.38095093 C-11.67447674 80.17131794 -11.81533042 79.44957705 -11.87142944 75.15449524 C-11.86535675 74.44998734 -11.85928406 73.74547943 -11.85302734 73.0196228 C-11.8582843 72.27297867 -11.86354126 71.52633453 -11.86895752 70.75706482 C-11.882167 68.28773104 -11.87341642 65.81904132 -11.86328125 63.34970093 C-11.86530172 61.63481523 -11.86821293 59.91993036 -11.87197876 58.20504761 C-11.87640339 54.61044131 -11.86996669 51.01605859 -11.85595703 47.42147827 C-11.83886496 42.81099399 -11.84870542 38.2010336 -11.86667442 33.59056854 C-11.87750858 30.04926599 -11.87406764 26.50808789 -11.86629105 22.96678162 C-11.86428801 21.26669757 -11.86675193 19.56660228 -11.87372971 17.86653137 C-11.88133827 15.49147558 -11.86974914 13.11727133 -11.85302734 10.74227905 C-11.85910004 10.03777115 -11.86517273 9.33326324 -11.87142944 8.60740662 C-11.83784185 6.03585685 -11.80039498 3.9477083 -10.47008705 1.70077324 C-7.23717991 -0.42707976 -3.74481885 -0.03049229 0 0 Z " fill="#004960" transform="translate(158.46484375,160.61904907226563)"/>
<path d="M0 0 C20.79 0 41.58 0 63 0 C62.32513392 6.07379474 61.48881243 11.67090763 60.125 17.5625 C57.59766372 28.92971663 56.28850812 40.43756939 55 52 C54.08476562 52.12117188 53.16953125 52.24234375 52.2265625 52.3671875 C50.44378906 52.61855469 50.44378906 52.61855469 48.625 52.875 C47.44164062 53.03742188 46.25828125 53.19984375 45.0390625 53.3671875 C41.90433341 53.7302585 41.90433341 53.7302585 40 56 C39.80180718 58.45842922 39.72718042 60.80419599 39.74121094 63.26367188 C39.7377063 64.01177628 39.73420166 64.75988068 39.73059082 65.53065491 C39.7217691 68.01011359 39.72762411 70.48928828 39.734375 72.96875 C39.73302847 74.68745987 39.73108805 76.40616937 39.72857666 78.12487793 C39.7256248 81.7296104 39.72992499 85.33424386 39.73925781 88.93896484 C39.75065241 93.5662906 39.74409326 98.19338436 39.73211288 102.8207016 C39.72489593 106.37052162 39.72718145 109.92028637 39.73236847 113.47010803 C39.73370542 115.17660042 39.73205565 116.88309777 39.72740936 118.58958435 C39.72234678 120.97196805 39.73005034 123.35397275 39.74121094 125.73632812 C39.73716248 126.44600235 39.73311401 127.15567657 39.72894287 127.88685608 C39.65637313 131.88951798 39.65637313 131.88951798 42 135 C46.29 135.33 50.58 135.66 55 136 C55 146.23 55 156.46 55 167 C51.04 167.33 47.08 167.66 43 168 C39.28276664 171.71723336 39.59291941 172.9469488 39.48828125 178.07421875 C39.47033005 178.7580513 39.45237885 179.44188385 39.43388367 180.1464386 C39.37977925 182.32673 39.3458866 184.50680256 39.3125 186.6875 C39.2793268 188.16734817 39.24483713 189.64716745 39.20898438 191.12695312 C39.12405476 194.75109169 39.05724365 198.37530652 39 202 C6.54348563 174.54267001 -14.21891912 135.53566661 -18 93 C-18.94945453 75.61379915 -18.79873235 58.05468614 -15 41 C-14.83902832 40.26249512 -14.67805664 39.52499023 -14.51220703 38.76513672 C-11.44545169 25.2637537 -6.18448951 12.36897902 0 0 Z " fill="#63B4F5" transform="translate(108,108)"/>
<path d="M0 0 C1.32452111 1.76011733 2.20275079 3.42382528 3.06962585 5.44944763 C3.39551697 6.20959167 3.72140808 6.96973572 4.05717468 7.75291443 C4.39386169 8.56800476 4.73054871 9.38309509 5.07743835 10.22288513 C5.42894958 11.0695575 5.78046082 11.91622986 6.1426239 12.78855896 C22.41322792 52.83209508 23.10715257 99.29664559 6.38993835 139.34788513 C-3.38645458 161.87410448 -16.49982468 183.00030422 -35.79756165 198.59788513 C-35.81214417 197.76539246 -35.82672668 196.93289978 -35.8417511 196.07518005 C-35.90284795 192.9829886 -35.9770072 189.89146431 -36.06001282 186.79978943 C-36.10957483 184.80497883 -36.14407298 182.80981256 -36.17842102 180.81468201 C-36.21387024 179.56106873 -36.24931946 178.30745544 -36.2858429 177.01585388 C-36.31202698 175.85851746 -36.33821106 174.70118103 -36.3651886 173.5087738 C-36.55463768 170.24526734 -36.55463768 170.24526734 -39.79756165 167.59788513 C-43.09756165 167.26788513 -46.39756165 166.93788513 -49.79756165 166.59788513 C-49.79756165 156.69788513 -49.79756165 146.79788513 -49.79756165 136.59788513 C-46.49756165 136.26788513 -43.19756165 135.93788513 -39.79756165 135.59788513 C-36.59308657 132.39341006 -36.44392486 131.66077651 -36.36875916 127.37142944 C-36.37168976 126.66692154 -36.37462036 125.96241364 -36.37763977 125.23655701 C-36.36493546 124.11659081 -36.36493546 124.11659081 -36.35197449 122.97399902 C-36.32856525 120.50470474 -36.32758311 118.036032 -36.32881165 115.56663513 C-36.3217131 113.85174814 -36.31401456 112.13686353 -36.30574036 110.42198181 C-36.29228706 106.82739153 -36.29073085 103.23302091 -36.29658508 99.63841248 C-36.30248622 95.02769102 -36.27187734 90.41802073 -36.2314682 85.80750275 C-36.2056448 82.26618248 -36.20270878 78.72511726 -36.20635986 75.18371582 C-36.20466399 73.4836055 -36.19497664 71.78348397 -36.17721558 70.08346558 C-36.15512679 67.70799435 -36.16467299 65.33467586 -36.18232727 62.95921326 C-36.16906403 62.25470535 -36.15580078 61.55019745 -36.14213562 60.82434082 C-36.1244883 58.62940815 -36.1244883 58.62940815 -36.79756165 55.59788513 C-40.271277 52.75693168 -43.18739507 52.17681083 -47.61006165 51.91038513 C-48.58588196 51.84464294 -49.56170227 51.77890076 -50.5670929 51.71116638 C-51.30314758 51.67378357 -52.03920227 51.63640076 -52.79756165 51.59788513 C-53.88510176 45.59327533 -54.82089644 39.60336403 -55.45088196 33.53440857 C-56.24258091 25.94874685 -57.53307098 18.6861649 -59.47676086 11.30613708 C-60.51490311 7.2807577 -60.87281727 3.74023253 -60.79756165 -0.40211487 C-53.15710639 -0.60227968 -45.51640633 -0.7860039 -37.8750639 -0.94870281 C-34.32692124 -1.02476731 -30.7790981 -1.10650566 -27.23139954 -1.20118713 C-23.15345716 -1.30977158 -19.07533209 -1.39371757 -14.9967804 -1.47633362 C-13.08417671 -1.53237007 -13.08417671 -1.53237007 -11.13293457 -1.58953857 C-9.9519368 -1.60978592 -8.77093903 -1.63003326 -7.55415344 -1.65089417 C-6.51268661 -1.67532089 -5.47121979 -1.69974762 -4.39819336 -1.72491455 C-1.79756165 -1.40211487 -1.79756165 -1.40211487 0 0 Z " fill="#3C9FF3" transform="translate(402.7975616455078,108.40211486816406)"/>
<path d="M0 0 C5.61 0 11.22 0 17 0 C17.10795246 4.06321081 17.1873055 8.12355279 17.25 12.1875 C17.28351563 13.33798828 17.31703125 14.48847656 17.3515625 15.67382812 C17.36445313 16.78564453 17.37734375 17.89746094 17.390625 19.04296875 C17.41157227 20.06414795 17.43251953 21.08532715 17.45410156 22.13745117 C16.88121902 25.74876717 15.50385825 27.38934073 13 30 C9.86002332 31.56998834 6.50823639 31.12944545 3.06201172 31.11352539 C2.24241974 31.11367142 1.42282776 31.11381744 0.57839966 31.1139679 C-2.1378644 31.11326974 -4.85406038 31.10548188 -7.5703125 31.09765625 C-9.45075442 31.09579173 -11.33119683 31.09436798 -13.2116394 31.09336853 C-18.16661922 31.08954607 -23.12156983 31.07971808 -28.07653809 31.06866455 C-34.01865536 31.0566485 -39.96078238 31.0520469 -45.90290833 31.04621124 C-54.93529254 31.0365062 -63.96761265 31.01734773 -73 31 C-73 47.83 -73 64.66 -73 82 C-61.61636289 81.88134667 -61.61636289 81.88134667 -50.2331543 81.72973633 C-48.80518261 81.72097383 -47.37720343 81.71332933 -45.94921875 81.70703125 C-45.20885376 81.69168335 -44.46848877 81.67633545 -43.70568848 81.66052246 C-38.50160196 81.65786596 -38.50160196 81.65786596 -36.30117798 83.15873718 C-34.46491127 85.75719002 -34.62578793 87.63464914 -34.62768555 90.80078125 C-34.61834236 92.58778442 -34.61834236 92.58778442 -34.60881042 94.41088867 C-34.61802017 95.69842041 -34.62722992 96.98595215 -34.63671875 98.3125 C-34.63723746 99.64624023 -34.63671934 100.97998123 -34.63520813 102.3137207 C-34.63529782 105.10802637 -34.64571951 107.9020433 -34.66381836 110.69628906 C-34.68650571 114.27763485 -34.68704936 117.8585588 -34.68030071 121.43995667 C-34.67695882 124.19376371 -34.68359491 126.94747462 -34.69342995 129.70126343 C-34.69914989 131.66387132 -34.69784619 133.62649559 -34.69645691 135.58911133 C-34.70598892 136.78044678 -34.71552094 137.97178223 -34.7253418 139.19921875 C-34.73225288 140.77449341 -34.73225288 140.77449341 -34.73930359 142.3815918 C-35 145 -35 145 -37 148 C-39.82988613 148.29681708 -42.44125536 148.39895765 -45.2734375 148.37231445 C-46.12883118 148.37596512 -46.98422485 148.37961578 -47.86553955 148.38337708 C-50.7022263 148.39150457 -53.53834575 148.37785434 -56.375 148.36328125 C-58.34033203 148.36276291 -60.30566458 148.36327961 -62.27099609 148.36479187 C-66.39363323 148.36470205 -70.51607521 148.3542523 -74.63867188 148.33618164 C-79.93187659 148.31349415 -85.22479594 148.3129493 -90.51803589 148.31969929 C-94.57741853 148.32303554 -98.63673572 148.31641567 -102.69610596 148.30657005 C-104.64821022 148.30271182 -106.60032176 148.3015724 -108.5524292 148.3031559 C-111.27728224 148.3035254 -114.00176492 148.29093872 -116.7265625 148.2746582 C-117.94536102 148.27837433 -117.94536102 148.27837433 -119.18878174 148.28216553 C-124.77125949 148.22874051 -124.77125949 148.22874051 -127 146 C-127.25396729 143.41918945 -127.25396729 143.41918945 -127.25878906 140.11328125 C-127.26509338 138.87860107 -127.27139771 137.6439209 -127.27789307 136.37182617 C-127.27431338 135.018716 -127.27021145 133.66560713 -127.265625 132.3125 C-127.26697175 130.93009371 -127.26891236 129.54768787 -127.27142334 128.1652832 C-127.27437418 125.26671849 -127.27007836 122.36827697 -127.26074219 119.46972656 C-127.24934755 115.75039363 -127.25590725 112.03134932 -127.26788712 108.31202698 C-127.27510688 105.45704973 -127.27281728 102.60214115 -127.26763153 99.74716187 C-127.26629535 98.37559983 -127.26794166 97.00403161 -127.27259064 95.63247681 C-127.27765748 93.7172253 -127.26856831 91.80195199 -127.25878906 89.88671875 C-127.25719788 88.79576904 -127.25560669 87.70481934 -127.25396729 86.58081055 C-127 84 -127 84 -125 82 C-122.34708243 81.82489614 -119.80013826 81.76844517 -117.1484375 81.8046875 C-116.37440582 81.8075174 -115.60037415 81.81034729 -114.80288696 81.81326294 C-112.32676843 81.82447246 -109.8510095 81.84957797 -107.375 81.875 C-105.69792188 81.88502882 -104.02083811 81.89415484 -102.34375 81.90234375 C-98.22902777 81.92441426 -94.11457489 81.95894898 -90 82 C-90.01665459 80.83275139 -90.01665459 80.83275139 -90.03364563 79.641922 C-90.13392665 72.30017949 -90.2100041 64.95877009 -90.25906086 57.61652088 C-90.28512982 53.8419499 -90.32047629 50.06794586 -90.37719727 46.29370117 C-90.43161681 42.64969519 -90.46144086 39.00623369 -90.47438622 35.36185265 C-90.48360857 33.97314573 -90.50161853 32.58446785 -90.52865028 31.19599342 C-90.56506071 29.24790256 -90.56704339 27.29926109 -90.56762695 25.35083008 C-90.58428154 23.68870232 -90.58428154 23.68870232 -90.60127258 21.99299622 C-89.76967104 17.85347556 -88.41872059 16.44709156 -85 14 C-82.01199498 13.530692 -79.60728464 13.36346884 -76.62963867 13.43237305 C-75.79985504 13.43164291 -74.97007141 13.43091278 -74.11514282 13.43016052 C-71.38207827 13.43363419 -68.65073422 13.4724834 -65.91796875 13.51171875 C-64.01940339 13.5210477 -62.12082597 13.52816342 -60.22224426 13.53315735 C-55.23245843 13.55222073 -50.24340378 13.60131597 -45.25390625 13.65667725 C-40.15960582 13.70788389 -35.0651869 13.73067442 -29.97070312 13.75585938 C-19.98014803 13.80943524 -9.99013489 13.89474019 0 14 C0 9.38 0 4.76 0 0 Z " fill="#64B5F5" transform="translate(175,359)"/>
<path d="M0 0 C5.61 0 11.22 0 17 0 C17 4.62 17 9.24 17 14 C18.05600403 13.99111755 19.11200806 13.98223511 20.20001221 13.9730835 C30.14681962 13.89203319 40.09356013 13.83205168 50.04062271 13.79275131 C55.1546631 13.77186736 60.26843713 13.74353484 65.38232422 13.69824219 C70.31658296 13.65481345 75.25058535 13.63086898 80.18502045 13.62049103 C82.06853014 13.61309432 83.95202564 13.59865039 85.83542633 13.57707977 C88.47164848 13.54808508 91.10680838 13.54404231 93.74316406 13.54589844 C94.52359573 13.53151733 95.3040274 13.51713623 96.10810852 13.50231934 C99.66132527 13.52942891 101.60421255 13.69296173 104.45355225 15.90338135 C107.07065026 19.45154939 107.12240739 21.53075039 107.11352539 25.91845703 C107.11341209 27.78016037 107.11341209 27.78016037 107.11329651 29.67947388 C107.1081895 31.03892049 107.1029735 32.39836669 107.09765625 33.7578125 C107.09579142 35.14500884 107.09436782 36.53220584 107.09336853 37.91940308 C107.08954848 41.57234512 107.07972255 45.22524748 107.06866455 48.87817383 C107.05843944 52.60497501 107.05386855 56.33178259 107.04882812 60.05859375 C107.03809983 67.37241394 107.02102954 74.68620141 107 82 C108.01425049 81.98428955 109.02850098 81.9685791 110.07348633 81.95239258 C113.83610087 81.89809681 117.59868078 81.86365149 121.36157227 81.83520508 C122.99021223 81.82011757 124.61881156 81.79964494 126.24731445 81.77368164 C128.58815535 81.73729551 130.92845919 81.7202738 133.26953125 81.70703125 C133.99775589 81.69154739 134.72598053 81.67606354 135.47627258 81.66011047 C140.49801312 81.65843828 140.49801312 81.65843828 142.69308472 83.15200806 C144.55117667 85.77936961 144.37419588 87.70721376 144.37231445 90.90844727 C144.37854324 92.12303116 144.38477203 93.33761505 144.39118958 94.58900452 C144.37737495 96.55781837 144.37737495 96.55781837 144.36328125 98.56640625 C144.36276261 99.92496236 144.36328047 101.28351922 144.36479187 102.64207458 C144.36470219 105.48765279 144.35428037 108.33294742 144.33618164 111.1784668 C144.31347271 114.82941085 144.31295458 118.47994135 144.31969929 122.13093662 C144.32303714 124.93531483 144.31641308 127.73959839 144.30657005 130.54395866 C144.30083982 132.54594517 144.30215508 134.54794779 144.30354309 136.54994202 C144.29401108 137.76137375 144.28447906 138.97280548 144.2746582 140.22094727 C144.27005081 141.29111588 144.26544342 142.36128448 144.26069641 143.46388245 C144 146 144 146 142 148 C139.20948909 148.19863343 136.51820952 148.27269851 133.7265625 148.25878906 C132.87116882 148.2622937 132.01577515 148.26579834 131.13446045 148.26940918 C128.29789186 148.27823477 125.46157127 148.27237445 122.625 148.265625 C120.65966748 148.26697141 118.69433528 148.26891174 116.72900391 148.27142334 C112.60641311 148.27437572 108.48390887 148.27007328 104.36132812 148.26074219 C99.0681367 148.2493476 93.77514809 148.25590646 88.48196411 148.26788712 C84.42259178 148.27510263 80.3632678 148.27281921 76.30389404 148.26763153 C74.35178605 148.26629418 72.39967372 148.26794573 70.4475708 148.27259064 C67.72274085 148.2776508 64.99824264 148.26995288 62.2734375 148.25878906 C61.46090515 148.26283752 60.6483728 148.26688599 59.81121826 148.27105713 C54.22852813 148.22852813 54.22852813 148.22852813 52 146 C51.73930359 143.46388245 51.73930359 143.46388245 51.7253418 140.22094727 C51.71104378 138.40379967 51.71104378 138.40379967 51.69645691 136.54994202 C51.69736832 135.23537521 51.69827972 133.92080841 51.69921875 132.56640625 C51.69533295 131.20881519 51.69099852 129.85122534 51.68623352 128.49363708 C51.67876605 125.64635276 51.6790662 122.79919241 51.68432617 119.9519043 C51.69011987 116.30207465 51.67319545 112.65275263 51.6499815 109.00300694 C51.63525275 106.19859344 51.63437127 103.39430242 51.63749123 100.5898571 C51.63672759 98.58955021 51.62284568 96.58926232 51.60881042 94.58900452 C51.61503922 93.37442062 51.62126801 92.15983673 51.62768555 90.90844727 C51.62705612 89.83748306 51.6264267 88.76651886 51.6257782 87.6631012 C52 85 52 85 53.30117798 83.15200806 C56.21334234 81.17720625 59.55569779 81.63668295 62.94921875 81.70703125 C63.63423462 81.71005249 64.31925049 81.71307373 65.02502441 81.71618652 C67.57933661 81.73186062 70.13343373 81.77374487 72.6875 81.8125 C78.400625 81.874375 84.11375 81.93625 90 82 C90 65.17 90 48.34 90 31 C83.98265625 31.02320313 77.9653125 31.04640625 71.765625 31.0703125 C67.95572486 31.08053039 64.14584159 31.09015825 60.3359375 31.09765625 C54.28739925 31.1096163 48.23892149 31.12377205 42.19042969 31.15087891 C37.31454556 31.17259411 32.4387263 31.18456586 27.56279755 31.18975449 C25.70164722 31.19345261 23.84050049 31.20067403 21.97937775 31.21146011 C19.37451986 31.22595741 16.76993074 31.22797868 14.16503906 31.22705078 C13.00841766 31.23783661 13.00841766 31.23783661 11.82843018 31.24884033 C5.05885047 31.22271072 5.05885047 31.22271072 2 29 C-0.32891212 25.50663182 -0.23551143 24.13992135 -0.1953125 20.01953125 C-0.18886719 18.85615234 -0.18242187 17.69277344 -0.17578125 16.49414062 C-0.15902344 15.27919922 -0.14226562 14.06425781 -0.125 12.8125 C-0.11597656 11.58595703 -0.10695313 10.35941406 -0.09765625 9.09570312 C-0.07406104 6.06371915 -0.03818967 3.03183527 0 0 Z " fill="#64B5F5" transform="translate(319,359)"/>
<path d="M0 0 C62.7 0 125.4 0 190 0 C190 9.9 190 19.8 190 30 C193.3 30 196.6 30 200 30 C202.89629513 31.89642277 203.75078798 32.95255164 204.54589844 36.29443359 C204.5668457 37.15375488 204.58779297 38.01307617 204.609375 38.8984375 C204.65807739 40.42102173 204.65807739 40.42102173 204.70776367 41.97436523 C204.72170166 43.09657471 204.73563965 44.21878418 204.75 45.375 C204.77747314 46.55715088 204.80494629 47.73930176 204.83325195 48.95727539 C204.9022378 52.46810774 204.94720562 55.97765694 204.97784424 59.48895264 C205.00211972 62.24024112 205.03217064 64.99144227 205.06201172 67.74267578 C205.11478092 72.93097234 205.1500156 78.11916749 205.17321777 83.30767822 C205.18272446 85.39098352 205.19467971 87.47427911 205.20910645 89.55755615 C205.22691151 92.51632243 205.2307384 95.47478032 205.23046875 98.43359375 C205.23759384 99.3252272 205.24471893 100.21686066 205.25205994 101.13551331 C205.23627966 105.4837837 205.19899685 109.11006207 203 113 C200.04335481 114.4783226 197.25770263 114.06032783 194 114 C193.99413376 113.1296965 193.98826752 112.25939301 193.98222351 111.36271667 C193.92435377 103.16657651 193.85231024 94.97071053 193.76428509 86.77483654 C193.71953031 82.56109206 193.6802857 78.34744541 193.65356445 74.13354492 C193.62758205 70.06795155 193.58721627 66.00273362 193.53681374 61.93737221 C193.52011058 60.38526385 193.50861781 58.8330905 193.50238609 57.28090477 C193.49278202 55.10898727 193.4647697 52.93803772 193.43237305 50.76635742 C193.42126999 49.52947678 193.41016693 48.29259613 193.39872742 47.01823425 C193.22147055 44.11142925 193.22147055 44.11142925 191.98641205 42.33628082 C188.83841379 40.21858842 185.48624947 40.57884714 181.81867981 40.60127258 C180.97490475 40.59462576 180.13112969 40.58797893 179.26178569 40.58113068 C176.4241583 40.56242415 173.58694974 40.5651111 170.74926758 40.56762695 C168.71928813 40.55861446 166.68931415 40.54828852 164.65934753 40.53674316 C159.13902585 40.5090868 153.61880716 40.49987693 148.09842515 40.49388909 C142.33280214 40.48452786 136.56725676 40.45832636 130.80168152 40.43388367 C119.87951245 40.39015291 108.95735838 40.36164636 98.0351283 40.33856028 C85.60236079 40.31154382 73.16967112 40.26763016 60.7369591 40.22227156 C35.15801489 40.1293311 9.57904627 40.05769346 -16 40 C-16.25 37.25 -16.25 37.25 -16 34 C-14.68 32.68 -13.36 31.36 -12 30 C-8.04 30 -4.08 30 0 30 C0 20.1 0 10.2 0 0 Z " fill="#003242" transform="translate(163,245)"/>
<path d="M0 0 C5.61 0 11.22 0 17 0 C17 27.06 17 54.12 17 82 C28.55 82 40.1 82 52 82 C54 84 54 84 54.24723816 86.62550354 C54.24581314 87.73723434 54.24438812 88.84896515 54.24291992 89.99438477 C54.24753487 91.88127769 54.24753487 91.88127769 54.25224304 93.80628967 C54.24534582 95.18466372 54.23807889 96.56303596 54.23046875 97.94140625 C54.22927704 99.3486273 54.22882377 100.75584915 54.2290802 102.16307068 C54.22751513 105.11291479 54.21922299 108.06263758 54.20581055 111.01245117 C54.18880504 114.80131829 54.18499663 118.59005217 54.18575573 122.37895298 C54.18548437 125.28449281 54.18000893 128.19000328 54.17275429 131.09553337 C54.16956334 132.49303909 54.16759922 133.89054816 54.16686058 135.28805733 C54.16470242 137.23705357 54.15517313 139.18603752 54.14526367 141.13500977 C54.14145187 142.24594498 54.13764008 143.35688019 54.13371277 144.5014801 C54 147 54 147 53 148 C50.23598592 148.10050214 47.49692774 148.13616075 44.73242188 148.12939453 C43.4325106 148.13202301 43.4325106 148.13202301 42.1063385 148.13470459 C39.22712227 148.13912425 36.34796691 148.13618472 33.46875 148.1328125 C31.47717273 148.13348551 29.48559554 148.1344555 27.49401855 148.13571167 C23.31420105 148.1371888 19.13440487 148.13503361 14.95458984 148.13037109 C9.58397474 148.1246738 4.2134096 148.12795273 -1.15720367 148.13394356 C-5.2714272 148.13754877 -9.38563879 148.13641077 -13.49986267 148.13381577 C-15.48070786 148.13314639 -17.46155412 148.1339753 -19.44239807 148.13629532 C-22.20576876 148.13882119 -24.96905734 148.13498218 -27.73242188 148.12939453 C-28.55947128 148.13141876 -29.38652069 148.13344299 -30.2386322 148.13552856 C-35.88573756 148.11426244 -35.88573756 148.11426244 -37 147 C-37.10450769 145.04719816 -37.13855374 143.09059455 -37.14526367 141.13500977 C-37.15164352 139.88023331 -37.15802338 138.62545685 -37.16459656 137.33265686 C-37.16612512 135.95224038 -37.16723914 134.57182338 -37.16796875 133.19140625 C-37.17117967 131.78515081 -37.17454362 130.37889571 -37.17805481 128.97264099 C-37.18405232 126.02105942 -37.18589408 123.06950716 -37.18530273 120.11791992 C-37.18520109 116.33019954 -37.19885285 112.54266653 -37.21607494 108.75499058 C-37.22717742 105.84941235 -37.22922248 102.94387967 -37.22869301 100.03828239 C-37.2298758 98.64159436 -37.23431421 97.24490524 -37.24202538 95.84823799 C-37.25178925 93.89697799 -37.24769234 91.94566336 -37.24291992 89.99438477 C-37.24434494 88.88265396 -37.24576996 87.77092316 -37.24723816 86.62550354 C-37 84 -37 84 -35 82 C-23.45 82 -11.9 82 0 82 C0 54.94 0 27.88 0 0 Z " fill="#63B4F5" transform="translate(247,359)"/>
<path d="M0 0 C0.84304687 0.00088623 1.68609375 0.00177246 2.5546875 0.00268555 C3.90046875 0.02262573 3.90046875 0.02262573 5.2734375 0.04296875 C6.19898438 0.05303955 7.12453125 0.06311035 8.078125 0.07348633 C9.99261412 0.10013094 11.90702291 0.13330865 13.82128906 0.17285156 C15.65120131 0.21014511 17.48132091 0.23871512 19.31152344 0.25683594 C21.75861247 0.28403624 24.20232889 0.3451831 26.6484375 0.41796875 C27.38271973 0.42352783 28.11700195 0.42908691 28.87353516 0.43481445 C32.30676754 0.58057625 34.62491842 1.21728942 37.625 2.8984375 C40.95853358 8.38782773 40.20517523 14.07611694 40.0234375 20.35546875 C40.00925781 21.62390625 39.99507813 22.89234375 39.98046875 24.19921875 C39.6642138 44.65037229 39.6642138 44.65037229 36.9609375 48.85546875 C34.04440849 50.58962114 32.050306 51.16104286 28.6484375 51.23046875 C25.49280925 49.93952992 24.05508765 49.03956232 22.515625 45.9765625 C21.56343866 42.96130574 21.44747502 40.57041157 21.5234375 37.41796875 C21.54148437 36.44214844 21.55953125 35.46632812 21.578125 34.4609375 C21.60132812 33.72488281 21.62453125 32.98882812 21.6484375 32.23046875 C8.96368689 45.22391904 -1.04179229 60.12304642 -9.3515625 76.23046875 C-9.91786377 77.32415771 -9.91786377 77.32415771 -10.49560547 78.43994141 C-34.90035866 126.1954899 -38.56205424 181.46432912 -22.60083008 232.49243164 C-14.45231377 257.36800244 -2.11909029 280.18177813 15.05078125 300.00390625 C20.47601919 306.35400901 20.47601919 306.35400901 21.3984375 311.04296875 C20.48823147 314.91134438 19.73296255 316.68573559 16.6484375 319.23046875 C10.04090612 320.1744018 10.04090612 320.1744018 6.2109375 317.578125 C3.35777981 314.96418023 0.94310825 312.15886862 -1.4140625 309.10546875 C-2.12187866 308.19075806 -2.12187866 308.19075806 -2.84399414 307.25756836 C-18.6826153 286.49982946 -30.99501074 263.99323078 -39.3515625 239.23046875 C-39.59986816 238.49666992 -39.84817383 237.76287109 -40.10400391 237.00683594 C-58.39355519 181.77061662 -51.8604557 120.39169385 -26.10009766 68.72021484 C-17.71297049 52.4491215 -7.37925723 37.98175837 4.6484375 24.23046875 C6.32595221 22.23920727 7.98802082 20.23606166 9.6484375 18.23046875 C8.11123047 18.20919922 8.11123047 18.20919922 6.54296875 18.1875 C5.18224779 18.14057859 3.82157209 18.09233131 2.4609375 18.04296875 C1.78740234 18.03716797 1.11386719 18.03136719 0.41992188 18.02539062 C-3.46625105 17.85477816 -5.24134155 17.31829653 -8.3125 14.87109375 C-10.3515625 12.23046875 -10.3515625 12.23046875 -10.7890625 9.16796875 C-10.36413763 6.31490176 -10.02068419 4.56723912 -8.3515625 2.23046875 C-5.47514693 0.48665639 -3.34315448 -0.01845647 0 0 Z " fill="#455658" transform="translate(90.3515625,10.76953125)"/>
<path d="M0 0 C4.72249986 0.87143296 8.05539168 3.77558154 11.73999023 6.70947266 C12.56192871 7.33974365 13.38386719 7.97001465 14.23071289 8.61938477 C22.33359458 14.92153821 29.81253233 21.77490615 37.06030273 29.03369141 C38.58711039 30.55804439 40.13407439 32.06273458 41.70874023 33.53759766 C81.85413802 71.7582161 99.99142408 128.1160226 102.67358398 182.15869141 C103.43904133 219.4859937 94.45866006 259.13201621 75.48999023 291.45947266 C76.51842041 291.11360107 76.51842041 291.11360107 77.56762695 290.76074219 C83.74552347 288.71721706 89.62624223 286.87434527 95.92749023 289.45947266 C97.93318646 292.02676382 98.30481218 294.15396257 98.80249023 297.32666016 C98.3039994 300.72886011 96.98077376 302.11003728 94.48999023 304.45947266 C91.65404846 305.68469513 88.74903658 306.35076761 85.73999023 307.02197266 C84.90250244 307.22322754 84.06501465 307.42448242 83.20214844 307.63183594 C81.47691317 308.04630981 79.75007585 308.45416983 78.02172852 308.85546875 C75.63099257 309.42583333 73.26250248 310.0477774 70.89233398 310.69775391 C70.17980469 310.88974365 69.46727539 311.0817334 68.7331543 311.27954102 C66.7909316 311.80384888 64.84942243 312.3307978 62.90795898 312.85791016 C59.29415789 313.49393915 56.99459284 313.52502826 53.48999023 312.45947266 C49.46757344 309.29340102 48.55464889 306.20622973 47.34936523 301.31494141 C47.17745667 300.62692947 47.0055481 299.93891754 46.82843018 299.23005676 C46.46896043 297.7784793 46.11636611 296.3251839 45.77026367 294.87036133 C45.24321976 292.66051378 44.69272296 290.45754575 44.13842773 288.25439453 C40.1632856 272.05760256 40.1632856 272.05760256 42.98999023 266.52197266 C46.03465856 264.01012128 47.66434217 263.93094691 51.48999023 263.99072266 C54.17398677 264.61978434 55.519048 265.52587459 57.48999023 267.45947266 C58.50170898 270.12353516 58.50170898 270.12353516 59.17749023 273.08447266 C59.75573934 276.56970743 59.75573934 276.56970743 61.48999023 279.45947266 C86.60955893 230.93147755 90.97385509 175.38539595 74.78979492 123.30078125 C61.21113269 81.64477638 35.08195802 46.82439471 0.00170898 20.87353516 C-0.54815674 20.46570801 -1.09802246 20.05788086 -1.66455078 19.63769531 C-3.16512687 18.52954226 -4.6732653 17.43165045 -6.18188477 16.33447266 C-9.12070789 13.96763524 -10.39240588 12.36110241 -10.88500977 8.58447266 C-10.03663422 1.51467645 -6.52082411 -0.17179044 0 0 Z " fill="#465658" transform="translate(369.510009765625,4.54052734375)"/>
<path d="M0 0 C20.13 0 40.26 0 61 0 C65.55519199 18.22076797 68.27936587 33.07302459 70 52 C46.9 52 23.8 52 0 52 C0 34.84 0 17.68 0 0 Z " fill="#63B4F5" transform="translate(264,108)"/>
<path d="M0 0 C6.15611444 -0.24770796 12.30931698 -0.42887371 18.46923828 -0.54931641 C20.56285123 -0.59952684 22.65611482 -0.66771462 24.74853516 -0.75439453 C42.09615329 -1.45489218 42.09615329 -1.45489218 46.59448242 1.98266602 C48.20492841 4.62649631 49.12290849 7.03835079 50 10 C50.69451911 11.40226116 51.41305341 12.79300311 52.16015625 14.16796875 C52.80237482 15.503947 53.43642706 16.8438798 54.0625 18.1875 C54.56946411 19.27260864 54.56946411 19.27260864 55.08666992 20.37963867 C62.09263421 35.70779878 67 52.0902115 67 69 C53.14 69 39.28 69 25 69 C24.505 62.565 24.505 62.565 24 56 C19.44587613 53.26752568 18.10656986 52.60882951 13.1875 52.3125 C12.21167969 52.24675781 11.23585938 52.18101562 10.23046875 52.11328125 C9.49441406 52.07589844 8.75835937 52.03851563 8 52 C6.91245988 45.9953902 5.9766652 40.0054789 5.34667969 33.93652344 C4.55498074 26.35086172 3.26449067 19.08827977 1.32080078 11.70825195 C0.28265853 7.68287257 -0.07525563 4.1423474 0 0 Z " fill="#63B4F5" transform="translate(342,108)"/>
<path d="M0 0 C19.47 0 38.94 0 59 0 C59 17.16 59 34.32 59 52 C36.56 52 14.12 52 -9 52 C-6.69501069 25.49262288 -6.69501069 25.49262288 -3.9375 14.1875 C-3.66873047 13.02025391 -3.39996094 11.85300781 -3.12304688 10.65039062 C-1.19706754 2.39413509 -1.19706754 2.39413509 0 0 Z " fill="#63B4F5" transform="translate(188,108)"/>
<path d="M0 0 C1.2994628 -0.00935994 1.2994628 -0.00935994 2.62517738 -0.01890898 C5.53343395 -0.03488752 8.44085803 -0.02221575 11.34912109 -0.00964355 C13.4318694 -0.01506251 15.51461388 -0.02218389 17.59735107 -0.03088379 C23.25845454 -0.04914693 28.919267 -0.04203718 34.58037567 -0.02936745 C40.49890439 -0.01925531 46.41740783 -0.02862815 52.3359375 -0.03491211 C62.27592451 -0.04219372 72.21579273 -0.0325873 82.15576172 -0.0135498 C93.65520816 0.00821984 105.15437094 0.00116884 116.6538105 -0.02085543 C126.51886489 -0.03899475 136.38383378 -0.04157491 146.24889946 -0.03110075 C152.14443488 -0.02485777 158.03983687 -0.02405234 163.93536377 -0.0372467 C169.47744302 -0.04878317 175.0191558 -0.0408196 180.56119537 -0.01766968 C182.59778484 -0.01237082 184.63440503 -0.01391637 186.67098236 -0.02272034 C189.44611338 -0.0336129 192.220062 -0.01998854 194.99511719 0 C195.80561838 -0.00892289 196.61611958 -0.01784577 197.45118141 -0.02703905 C201.04329382 0.02332443 203.08803672 0.19827091 205.99484253 2.39627838 C207.7966669 4.92824944 208.03159265 6.31565456 208.10693359 9.40637207 C208.15563599 10.9289563 208.15563599 10.9289563 208.20532227 12.4822998 C208.21926025 13.60450928 208.23319824 14.72671875 208.24755859 15.88293457 C208.27503174 17.06508545 208.30250488 18.24723633 208.33081055 19.46520996 C208.3997964 22.97604231 208.44476422 26.48559151 208.47540283 29.99688721 C208.49967832 32.74817569 208.52972924 35.49937685 208.55957031 38.25061035 C208.61233951 43.43890691 208.64757419 48.62710206 208.67077637 53.81561279 C208.68028305 55.89891809 208.69223831 57.98221368 208.70666504 60.06549072 C208.72447011 63.024257 208.72829699 65.98271489 208.72802734 68.94152832 C208.73515244 69.83316177 208.74227753 70.72479523 208.74961853 71.64344788 C208.73383825 75.99171827 208.69655544 79.61799664 206.49755859 83.50793457 C203.5409134 84.98625717 200.75526122 84.5682624 197.49755859 84.50793457 C197.49169235 83.63763107 197.48582611 82.76732758 197.4797821 81.87065125 C197.42191237 73.67451108 197.34986884 65.4786451 197.26184368 57.28277111 C197.21708891 53.06902663 197.1778443 48.85537998 197.15112305 44.64147949 C197.12514065 40.57588612 197.08477486 36.51066819 197.03437233 32.44530678 C197.01766918 30.89319842 197.0061764 29.34102507 196.99994469 27.78883934 C196.99034061 25.61692184 196.9623283 23.44597229 196.92993164 21.27429199 C196.91882858 20.03741135 196.90772552 18.8005307 196.89628601 17.52616882 C196.71902915 14.61936382 196.71902915 14.61936382 195.48397064 12.84421539 C192.33597239 10.72652299 188.98380807 11.08678171 185.3162384 11.10920715 C184.47246334 11.10256033 183.62868828 11.0959135 182.75934428 11.08906525 C179.9217169 11.07035872 177.08450833 11.07304567 174.24682617 11.07556152 C172.21684673 11.06654903 170.18687275 11.05622309 168.15690613 11.04467773 C162.63658444 11.01702137 157.11636576 11.0078115 151.59598374 11.00182366 C145.83036073 10.99246243 140.06481536 10.96626093 134.29924011 10.94181824 C123.37707104 10.89808748 112.45491698 10.86958093 101.53268689 10.84649485 C89.09991938 10.81947839 76.66722971 10.77556473 64.23451769 10.73020613 C38.65557348 10.63726567 13.07660486 10.56562803 -12.50244141 10.50793457 C-12.81383405 7.08261553 -12.88601535 5.11995472 -11.03384399 2.16468048 C-7.45043384 -0.18058066 -4.14312406 -0.04561206 0 0 Z " fill="#003C4F" transform="translate(159.50244140625,274.4920654296875)"/>
<path d="M0 0 C5.61 0 11.22 0 17 0 C17 27.06 17 54.12 17 82 C28.55 82 40.1 82 52 82 C54 84 54 84 54.24723816 86.62550354 C54.24581314 87.73723434 54.24438812 88.84896515 54.24291992 89.99438477 C54.24753487 91.88127769 54.24753487 91.88127769 54.25224304 93.80628967 C54.24534582 95.18466372 54.23807889 96.56303596 54.23046875 97.94140625 C54.22927704 99.3486273 54.22882377 100.75584915 54.2290802 102.16307068 C54.22751513 105.11291479 54.21922299 108.06263758 54.20581055 111.01245117 C54.18880504 114.80131829 54.18499663 118.59005217 54.18575573 122.37895298 C54.18548437 125.28449281 54.18000893 128.19000328 54.17275429 131.09553337 C54.16956334 132.49303909 54.16759922 133.89054816 54.16686058 135.28805733 C54.16470242 137.23705357 54.15517313 139.18603752 54.14526367 141.13500977 C54.14145187 142.24594498 54.13764008 143.35688019 54.13371277 144.5014801 C54 147 54 147 53 148 C51.48071962 148.07179964 49.95832518 148.08392007 48.4375 148.0625 C47.61121094 148.05347656 46.78492188 148.04445313 45.93359375 148.03515625 C45.29550781 148.02355469 44.65742188 148.01195312 44 148 C43.9845388 147.00734886 43.9845388 147.00734886 43.96876526 145.99464417 C43.86094051 139.13328687 43.74632391 132.27206734 43.62768555 125.41088867 C43.58425934 122.84711579 43.54259015 120.28331254 43.50268555 117.71948242 C43.44516853 114.04336372 43.38142137 110.36739901 43.31640625 106.69140625 C43.29969376 105.53725723 43.28298126 104.38310822 43.26576233 103.19398499 C43.2358445 101.6024485 43.2358445 101.6024485 43.20532227 99.97875977 C43.18200584 98.56978172 43.18200584 98.56978172 43.15821838 97.13233948 C43.23454841 95.01693335 43.23454841 95.01693335 42 94 C39.536507 93.87504973 37.09963233 93.81397797 34.63452148 93.79467773 C33.86384338 93.78477814 33.09316528 93.77487854 32.2991333 93.76467896 C29.73981853 93.73297299 27.18048517 93.7082708 24.62109375 93.68359375 C22.85131841 93.66303206 21.08154806 93.64203581 19.31178284 93.62062073 C14.6445418 93.56531891 9.97725586 93.51594554 5.30993652 93.46777344 C0.55098454 93.41761747 -4.20790191 93.36190066 -8.96679688 93.30664062 C-18.31114198 93.19895992 -27.6555439 93.09753712 -37 93 C-37.05399736 91.54207116 -37.09279177 90.08357288 -37.125 88.625 C-37.14820313 87.81289063 -37.17140625 87.00078125 -37.1953125 86.1640625 C-37 84 -37 84 -35 82 C-23.45 82 -11.9 82 0 82 C0 54.94 0 27.88 0 0 Z " fill="#44A5F4" transform="translate(247,359)"/>
<path d="M0 0 C14.19 0 28.38 0 43 0 C43 24.39170507 43 24.39170507 40 37 C39.77183594 38.03125 39.54367187 39.0625 39.30859375 40.125 C37.42469131 48.22039792 34.97099133 56.23737937 32 64 C31.67862061 64.88397461 31.35724121 65.76794922 31.02612305 66.67871094 C29 69 29 69 27.06765747 69.43385315 C24.46462002 69.58168517 21.90708218 69.56098705 19.30078125 69.48828125 C18.35059616 69.48120651 17.40041107 69.47413177 16.4214325 69.46684265 C13.38432324 69.4388367 10.34905265 69.37608644 7.3125 69.3125 C5.2545839 69.28742516 3.19663893 69.26461058 1.13867188 69.24414062 C-3.90826134 69.18898955 -8.95381888 69.10267382 -14 69 C-14 63.39 -14 57.78 -14 52 C-11.49348958 51.83723958 -8.98697917 51.67447917 -6.48046875 51.51171875 C-3.5697014 50.91122974 -2.802413 50.31831025 -1 48 C-0.52934376 45.76641457 -0.52934376 45.76641457 -0.56762695 43.25317383 C-0.54783279 42.29240433 -0.52803864 41.33163483 -0.50764465 40.3417511 C-0.50125473 39.30729355 -0.49486481 38.272836 -0.48828125 37.20703125 C-0.47033005 36.14586594 -0.45237885 35.08470062 -0.43388367 33.99137878 C-0.37965476 30.59845975 -0.3458441 27.20568238 -0.3125 23.8125 C-0.2793381 21.5136521 -0.2448495 19.21482294 -0.20898438 16.91601562 C-0.1214207 11.27732192 -0.06145778 5.63928091 0 0 Z " fill="#63B4F5" transform="translate(367,193)"/>
<path d="M0 0 C0.87432678 -0.00467997 1.74865356 -0.00935994 2.6494751 -0.01418173 C5.590688 -0.02618522 8.53143956 -0.01665363 11.47265625 -0.00723267 C13.57658155 -0.01129599 15.68050472 -0.01663651 17.78442383 -0.02316284 C23.50745854 -0.03687069 29.2303315 -0.03152346 34.95336914 -0.02202559 C40.93376105 -0.01444694 46.91413882 -0.02146959 52.89453125 -0.02618408 C62.93882746 -0.03164688 72.98305757 -0.02443627 83.02734375 -0.01016235 C94.65114642 0.00616512 106.27479125 0.00087699 117.89859009 -0.01564157 C127.86635696 -0.02924151 137.83407622 -0.03118341 147.80184937 -0.02332556 C153.76050403 -0.01864083 159.71908443 -0.01804613 165.67773438 -0.02793503 C171.27883315 -0.0365807 176.87972779 -0.03062672 182.48080444 -0.01325226 C184.54039165 -0.00927457 186.59999594 -0.01044324 188.65957642 -0.01704025 C191.46338959 -0.02519525 194.26654185 -0.01500762 197.0703125 0 C197.89219055 -0.00669217 198.7140686 -0.01338433 199.56085205 -0.02027929 C205.0118842 0.03661301 205.0118842 0.03661301 207.54082012 1.70077324 C209.21222251 4.52502242 208.94204064 7.55603799 208.9074707 10.74227905 C208.91112137 11.48892319 208.91477203 12.23556732 208.91853333 13.00483704 C208.9266428 15.47418933 208.91302585 17.94288623 208.8984375 20.41220093 C208.89791894 22.12708536 208.89843648 23.8419704 208.89994812 25.55685425 C208.89985838 29.15146759 208.88942522 32.74585675 208.87133789 36.34042358 C208.84865062 40.95082256 208.8481064 45.56089388 208.85485554 50.17133331 C208.85819513 53.71262531 208.85156562 57.25384244 208.8417263 60.79512024 C208.83787384 62.49519967 208.83672628 64.19528743 208.83831215 65.89537048 C208.83868252 68.270283 208.82607078 70.64477359 208.80981445 73.0196228 C208.81229187 73.72413071 208.81476929 74.42863861 208.81732178 75.15449524 C208.77754529 78.7907788 208.61239296 80.26509587 206.53515625 83.38095093 C204.58984375 83.67391968 204.58984375 83.67391968 202.41015625 83.56845093 C201.13140625 83.50657593 199.85265625 83.44470093 198.53515625 83.38095093 C198.52929001 82.52317551 198.52342377 81.66540009 198.51737976 80.78163147 C198.45950845 72.7032179 198.38746404 64.62508245 198.29944134 56.5469389 C198.2546878 52.39372886 198.21544293 48.24061805 198.1887207 44.08724976 C198.16273705 40.08000817 198.12237041 36.07314741 198.07196999 32.06614113 C198.05526768 30.53636214 198.04377437 29.00651724 198.03754234 27.47665977 C198.02793733 25.33586959 197.99992404 23.19606106 197.9675293 21.05551147 C197.95642624 19.83639572 197.94532318 18.61727997 197.93388367 17.36122131 C197.75314751 14.48726376 197.75314751 14.48726376 196.5215683 12.71960449 C193.37428568 10.59863413 190.02230333 10.95979258 186.35383606 10.98222351 C185.510061 10.97557668 184.66628594 10.96892986 183.79694194 10.96208161 C180.95931455 10.94337507 178.12210599 10.94606202 175.28442383 10.94857788 C173.25444438 10.93956539 171.2244704 10.92923945 169.19450378 10.91769409 C163.6741821 10.89003773 158.15396341 10.88082786 152.6335814 10.87484002 C146.86795839 10.86547879 141.10241301 10.83927729 135.33683777 10.81483459 C124.4146687 10.77110384 113.49251463 10.74259729 102.57028455 10.71951121 C90.13751704 10.69249475 77.70482737 10.64858109 65.27211535 10.60322249 C39.69317114 10.51028203 14.11420252 10.43864438 -11.46484375 10.38095093 C-11.82130245 4.08351395 -11.82130245 4.08351395 -10.49389648 1.46726036 C-7.16571682 -0.31457256 -3.68304253 -0.02998928 0 0 Z " fill="#003D50" transform="translate(158.46484375,160.61904907226563)"/>
<path d="M0 0 C5.61 0 11.22 0 17 0 C17 4.62 17 9.24 17 14 C18.05600403 13.99111755 19.11200806 13.98223511 20.20001221 13.9730835 C30.14681962 13.89203319 40.09356013 13.83205168 50.04062271 13.79275131 C55.1546631 13.77186736 60.26843713 13.74353484 65.38232422 13.69824219 C70.31658296 13.65481345 75.25058535 13.63086898 80.18502045 13.62049103 C82.06853014 13.61309432 83.95202564 13.59865039 85.83542633 13.57707977 C88.47164848 13.54808508 91.10680838 13.54404231 93.74316406 13.54589844 C94.52359573 13.53151733 95.3040274 13.51713623 96.10810852 13.50231934 C99.66132527 13.52942891 101.60421255 13.69296173 104.45355225 15.90338135 C107.07065026 19.45154939 107.12240739 21.53075039 107.11352539 25.91845703 C107.11341209 27.78016037 107.11341209 27.78016037 107.11329651 29.67947388 C107.1081895 31.03892049 107.1029735 32.39836669 107.09765625 33.7578125 C107.09579142 35.14500884 107.09436782 36.53220584 107.09336853 37.91940308 C107.08954848 41.57234512 107.07972255 45.22524748 107.06866455 48.87817383 C107.05843944 52.60497501 107.05386855 56.33178259 107.04882812 60.05859375 C107.03809983 67.37241603 107.02050717 74.6861974 107 82 C101.39 82 95.78 82 90 82 C90 65.17 90 48.34 90 31 C83.98265625 31.02320313 77.9653125 31.04640625 71.765625 31.0703125 C67.95572486 31.08053039 64.14584159 31.09015825 60.3359375 31.09765625 C54.28739925 31.1096163 48.23892149 31.12377205 42.19042969 31.15087891 C37.31454556 31.17259411 32.4387263 31.18456586 27.56279755 31.18975449 C25.70164722 31.19345261 23.84050049 31.20067403 21.97937775 31.21146011 C19.37451986 31.22595741 16.76993074 31.22797868 14.16503906 31.22705078 C13.00841766 31.23783661 13.00841766 31.23783661 11.82843018 31.24884033 C5.05885047 31.22271072 5.05885047 31.22271072 2 29 C-0.32891212 25.50663182 -0.23551143 24.13992135 -0.1953125 20.01953125 C-0.18886719 18.85615234 -0.18242187 17.69277344 -0.17578125 16.49414062 C-0.15902344 15.27919922 -0.14226562 14.06425781 -0.125 12.8125 C-0.11597656 11.58595703 -0.10695313 10.35941406 -0.09765625 9.09570312 C-0.07406104 6.06371915 -0.03818967 3.03183527 0 0 Z " fill="#95A4AF" transform="translate(319,359)"/>
<path d="M0 0 C5.61 0 11.22 0 17 0 C17.10795246 4.06321081 17.1873055 8.12355279 17.25 12.1875 C17.28351563 13.33798828 17.31703125 14.48847656 17.3515625 15.67382812 C17.37089844 17.34155273 17.37089844 17.34155273 17.390625 19.04296875 C17.4220459 20.57473755 17.4220459 20.57473755 17.45410156 22.13745117 C16.88121902 25.74876717 15.50385825 27.38934073 13 30 C9.86002332 31.56998834 6.50823639 31.12944545 3.06201172 31.11352539 C2.24241974 31.11367142 1.42282776 31.11381744 0.57839966 31.1139679 C-2.1378644 31.11326974 -4.85406038 31.10548188 -7.5703125 31.09765625 C-9.45075442 31.09579173 -11.33119683 31.09436798 -13.2116394 31.09336853 C-18.16661922 31.08954607 -23.12156983 31.07971808 -28.07653809 31.06866455 C-34.01865536 31.0566485 -39.96078238 31.0520469 -45.90290833 31.04621124 C-54.93529254 31.0365062 -63.96761265 31.01734773 -73 31 C-73 47.83 -73 64.66 -73 82 C-78.61 82 -84.22 82 -90 82 C-90.11306543 73.87216101 -90.20475139 65.74493566 -90.25906086 57.61652088 C-90.28512982 53.8419499 -90.32047629 50.06794586 -90.37719727 46.29370117 C-90.43161681 42.64969519 -90.46144086 39.00623369 -90.47438622 35.36185265 C-90.48360857 33.97314573 -90.50161853 32.58446785 -90.52865028 31.19599342 C-90.56506071 29.24790256 -90.56704339 27.29926109 -90.56762695 25.35083008 C-90.57873001 24.2427449 -90.58983307 23.13465973 -90.60127258 21.99299622 C-89.76967104 17.85347556 -88.41872059 16.44709156 -85 14 C-82.01199498 13.530692 -79.60728464 13.36346884 -76.62963867 13.43237305 C-75.79985504 13.43164291 -74.97007141 13.43091278 -74.11514282 13.43016052 C-71.38207827 13.43363419 -68.65073422 13.4724834 -65.91796875 13.51171875 C-64.01940339 13.5210477 -62.12082597 13.52816342 -60.22224426 13.53315735 C-55.23245843 13.55222073 -50.24340378 13.60131597 -45.25390625 13.65667725 C-40.15960582 13.70788389 -35.0651869 13.73067442 -29.97070312 13.75585938 C-19.98014803 13.80943524 -9.99013489 13.89474019 0 14 C0 9.38 0 4.76 0 0 Z " fill="#95A4AF" transform="translate(175,359)"/>
<path d="M0 0 C-0.81082031 0.70382813 -1.62164062 1.40765625 -2.45703125 2.1328125 C-18.24408743 16.0964397 -28.35060202 32.03592252 -37.375 50.9375 C-37.69686279 51.61079346 -38.01872559 52.28408691 -38.3503418 52.9777832 C-40.65793611 57.94512256 -42.24236487 62.72709462 -44 68 C-63.14 68 -82.28 68 -102 68 C-99.42173257 61.55433143 -95.50472838 57.21848205 -91 52 C-90.14792969 51.01128906 -89.29585937 50.02257812 -88.41796875 49.00390625 C-72.81448231 31.26781828 -26.16595203 -8.72198401 0 0 Z " fill="#62B4F5" transform="translate(221,24)"/>
<path d="M0 0 C13.07728339 3.01560415 24.95759104 7.07796173 37 13 C37.65983887 13.31839844 38.31967773 13.63679688 38.99951172 13.96484375 C55.34502963 21.92095547 69.33059051 33.00573385 82 46 C82.65355469 46.62003906 83.30710937 47.24007812 83.98046875 47.87890625 C90.05103829 53.71960913 95.35666168 59.96364099 100 67 C100 67.66 100 68.32 100 69 C81.52 69 63.04 69 44 69 C42.02 64.05 40.04 59.1 38 54 C30.3912161 36.14631809 18.13309388 11.06654694 0 2 C0 1.34 0 0.68 0 0 Z " fill="#42A5F5" transform="translate(292,23)"/>
<path d="M0 0 C11.79469953 1.96578325 20.73850122 8.62779437 29 17 C29.75925781 17.74894531 30.51851563 18.49789062 31.30078125 19.26953125 C40.48639699 28.8358979 46.3823377 40.39491523 52.0625 52.25 C52.65417969 53.48351196 52.65417969 53.48351196 53.2578125 54.74194336 C53.61746094 55.5128833 53.97710937 56.28382324 54.34765625 57.078125 C54.66742432 57.76293945 54.98719238 58.44775391 55.31665039 59.15332031 C56 61 56 61 56 64 C37.52 64 19.04 64 0 64 C0 42.88 0 21.76 0 0 Z " fill="#63B4F5" transform="translate(263,28)"/>
<path d="M0 0 C0 20.13 0 40.26 0 61 C-17.49 61 -34.98 61 -53 61 C-51.00719743 55.02159229 -49.07935722 49.66130031 -46.25 44.125 C-45.72176636 43.08702271 -45.72176636 43.08702271 -45.18286133 42.02807617 C-36.66215148 25.52147717 -20.93886559 0 0 0 Z " fill="#63B4F5" transform="translate(247,30)"/>
<path d="M0 0 C1.20241585 0.00371613 1.20241585 0.00371613 2.42912292 0.00750732 C3.27315674 0.00239639 4.11719055 -0.00271454 4.98680115 -0.00798035 C7.7860873 -0.02191812 10.5851284 -0.02091643 13.38444519 -0.01861572 C15.32496228 -0.02250041 17.26547852 -0.0268346 19.20599365 -0.03160095 C23.27730564 -0.03907221 27.34853093 -0.03876538 31.41984558 -0.0335083 C36.64350389 -0.02771305 41.8668077 -0.04464165 47.09040737 -0.06785297 C51.0992135 -0.08256765 55.10793382 -0.0834651 59.11676216 -0.08034325 C61.04293075 -0.08085762 62.969104 -0.08611701 64.89524651 -0.09615517 C67.58646204 -0.10845821 70.27698147 -0.10176496 72.96818542 -0.09014893 C73.76777176 -0.09779266 74.56735809 -0.1054364 75.39117432 -0.11331177 C80.67036548 -0.06281175 80.67036548 -0.06281175 83.25852966 1.44288635 C84.68960027 4.06239403 84.63745224 6.10246339 84.63566589 9.08294678 C84.64500908 10.86994995 84.64500908 10.86994995 84.65454102 12.6930542 C84.64533127 13.98058594 84.63612152 15.26811768 84.62663269 16.59466553 C84.62611398 17.92840576 84.6266321 19.26214676 84.62814331 20.59588623 C84.62805362 23.39019189 84.61763193 26.18420883 84.59953308 28.97845459 C84.57684573 32.55980038 84.57630208 36.14072432 84.58305073 39.72212219 C84.58639262 42.47592924 84.57975653 45.22964015 84.56992149 47.98342896 C84.56420156 49.94603685 84.56550525 51.90866112 84.56689453 53.87127686 C84.55736252 55.0626123 84.54783051 56.25394775 84.53800964 57.48138428 C84.53109856 59.05665894 84.53109856 59.05665894 84.52404785 60.66375732 C84.26335144 63.28216553 84.26335144 63.28216553 82.26335144 66.28216553 C79.29335144 66.28216553 76.32335144 66.28216553 73.26335144 66.28216553 C72.93335144 48.13216553 72.60335144 29.98216553 72.26335144 11.28216553 C45.86335144 11.28216553 19.46335144 11.28216553 -7.73664856 11.28216553 C-7.73664856 0.07504008 -7.73664856 0.07504008 0 0 Z " fill="#44A6F4" transform="translate(55.73664855957031,440.71783447265625)"/>
<path d="M0 0 C0.83442627 -0.00525696 1.66885254 -0.01051392 2.52856445 -0.01593018 C5.29006605 -0.02914689 8.05099242 -0.02038627 10.8125 -0.01025391 C12.72916779 -0.01227416 14.64583484 -0.0151852 16.5625 -0.01895142 C20.58080356 -0.02337703 24.59890716 -0.01693606 28.6171875 -0.00292969 C33.77246008 0.01416231 38.92726414 0.0043224 44.08251953 -0.01364708 C48.04072613 -0.02447849 51.99882133 -0.02104153 55.95703125 -0.0132637 C57.85807348 -0.01125992 59.75912576 -0.01372721 61.66015625 -0.02070236 C64.3153774 -0.02830628 66.96983578 -0.01672777 69.625 0 C70.41366455 -0.00607269 71.2023291 -0.01214539 72.01489258 -0.0184021 C74.9389826 0.01579207 77.23627885 0.05348761 79.8009491 1.54316711 C81.25403591 4.19352224 81.18658758 6.27965643 81.18481445 9.29663086 C81.19415764 11.1185067 81.19415764 11.1185067 81.20368958 12.97718811 C81.19447983 14.28973068 81.18527008 15.60227325 81.17578125 16.95458984 C81.17526261 18.31314595 81.17578047 19.67170281 81.17729187 21.03025818 C81.17720219 23.87583638 81.16678037 26.72113102 81.14868164 29.56665039 C81.12597271 33.21759444 81.12545458 36.86812495 81.13219929 40.51912022 C81.13553714 43.32349842 81.12891308 46.12778199 81.11907005 48.93214226 C81.11333982 50.93412876 81.11465508 52.93613139 81.11604309 54.93812561 C81.10651108 56.14955734 81.09697906 57.36098907 81.0871582 58.60913086 C81.08024712 60.21438377 81.08024712 60.21438377 81.07319641 61.85206604 C80.8125 64.38818359 80.8125 64.38818359 78.8125 66.38818359 C75.8425 66.38818359 72.8725 66.38818359 69.8125 66.38818359 C69.4825 48.56818359 69.1525 30.74818359 68.8125 12.38818359 C42.4125 12.05818359 16.0125 11.72818359 -11.1875 11.38818359 C-11.1875 3.38818359 -11.1875 3.38818359 -10.19921875 1.41244507 C-6.93488066 -0.24958435 -3.57966124 -0.02756328 0 0 Z " fill="#44A6F4" transform="translate(382.1875,440.61181640625)"/>
<path d="M0 0 C5.61 0 11.22 0 17 0 C17 27.06 17 54.12 17 82 C11.39 82 5.78 82 0 82 C0 54.94 0 27.88 0 0 Z " fill="#96A4AF" transform="translate(247,359)"/>
<path d="M0 0 C3.96 0 7.92 0 12 0 C12 10.23 12 20.46 12 31 C8.04 31.33 4.08 31.66 0 32 C-3.71723336 35.71723336 -3.40708059 36.9469488 -3.51171875 42.07421875 C-3.52966995 42.7580513 -3.54762115 43.44188385 -3.56611633 44.1464386 C-3.62022075 46.32673 -3.6541134 48.50680256 -3.6875 50.6875 C-3.7206732 52.16734817 -3.75516287 53.64716745 -3.79101562 55.12695312 C-3.87594524 58.75109169 -3.94275635 62.37530652 -4 66 C-19.41859627 52.95628616 -32.41045022 37.88168989 -42 20 C-42 19.34 -42 18.68 -42 18 C-24.51 18 -7.02 18 11 18 C11 12.39 11 6.78 11 1 C7.37 1 3.74 1 0 1 C0 0.67 0 0.34 0 0 Z " fill="#2D8FED" transform="translate(151,244)"/>
<path d="M0 0 C21.72998197 6.39922304 45.52735588 25.01028861 59 43 C59.66 44.32 60.32 45.64 61 47 C48.79 47 36.58 47 24 47 C21.525 41.245625 21.525 41.245625 19 35.375 C14.85546045 25.86885406 10.48701967 16.8015768 5 8 C4.20722656 6.70642578 4.20722656 6.70642578 3.3984375 5.38671875 C2.28192618 3.58096441 1.14443858 1.78818528 0 0 Z " fill="#63B4F5" transform="translate(312,44)"/>
<path d="M0 0 C18.81 0 37.62 0 57 0 C57 5.28 57 10.56 57 16 C38.19 16 19.38 16 0 16 C0 10.72 0 5.44 0 0 Z " fill="#2D90F1" transform="translate(90,177)"/>
<path d="M0 0 C17.49 0 34.98 0 53 0 C53 5.28 53 10.56 53 16 C35.51 16 18.02 16 0 16 C0 10.72 0 5.44 0 0 Z " fill="#2D90F1" transform="translate(367,177)"/>
<path d="M0 0 C3.26737874 2.60193658 4.82317338 4.10952783 5.64697266 8.25805664 C5.6526123 9.46324951 5.65825195 10.66844238 5.6640625 11.91015625 C5.67050781 13.22951172 5.67695313 14.54886719 5.68359375 15.90820312 C5.67312012 16.59019775 5.66264648 17.27219238 5.65185547 17.97485352 C5.62501611 20.06124732 5.65165289 22.14228575 5.68359375 24.22851562 C5.67714844 25.54658203 5.67070312 26.86464844 5.6640625 28.22265625 C5.65842285 29.42672119 5.6527832 30.63078613 5.64697266 31.87133789 C5 35 5 35 2.64990234 37.39233398 C-0.59224973 39.35931126 -2.27049713 39.634809 -6 39 C-8.30275556 37.1329009 -9.67823871 35.64352259 -11 33 C-11.29868306 28.56836739 -11.27811301 24.12800678 -11.3125 19.6875 C-11.34150391 18.45064453 -11.37050781 17.21378906 -11.40039062 15.93945312 C-11.40876953 14.74642578 -11.41714844 13.55339844 -11.42578125 12.32421875 C-11.44036377 11.23197998 -11.45494629 10.13974121 -11.4699707 9.0144043 C-10.89184704 5.30630408 -9.58368018 3.66845014 -7 1 C-4.35955695 -0.32022153 -2.93650531 -0.40974493 0 0 Z " fill="#E8EFF2" transform="translate(244,183)"/>
<path d="M0 0 C4.11085833 1.34537182 5.12019558 2.53330261 7.4375 6.125 C7.95507812 9.09179688 7.95507812 9.09179688 7.96875 12.34375 C7.97390625 13.52324219 7.9790625 14.70273438 7.984375 15.91796875 C7.96890625 17.14128906 7.9534375 18.36460937 7.9375 19.625 C7.95296875 20.84832031 7.9684375 22.07164062 7.984375 23.33203125 C7.97921875 24.51152344 7.9740625 25.69101563 7.96875 26.90625 C7.96423828 27.97939453 7.95972656 29.05253906 7.95507812 30.15820312 C7.31864999 33.80625722 5.98046446 35.48231144 3.4375 38.125 C0.59666359 39.54541821 -1.41727278 39.43952272 -4.5625 39.125 C-7.55570193 36.91333943 -8.46430795 35.70089527 -9.09594727 31.99633789 C-9.16164456 24.72340432 -9.16164456 24.72340432 -9.13891602 22.28051758 C-9.12505951 20.19645122 -9.15911189 18.11688953 -9.19726562 16.03320312 C-9.19533203 14.71384766 -9.19339844 13.39449219 -9.19140625 12.03515625 C-9.19213135 10.82996338 -9.19285645 9.62477051 -9.19360352 8.38305664 C-8.15172935 3.00440644 -5.5055767 0.19317813 0 0 Z " fill="#E7EEF2" transform="translate(179.5625,182.875)"/>
<path d="M0 0 C3.32216486 1.22775658 4.67799084 2.29762351 6.875 5.0625 C7.37670898 8.00756836 7.37670898 8.00756836 7.37109375 11.40234375 C7.37173828 12.63017578 7.37238281 13.85800781 7.37304688 15.12304688 C7.35306641 16.40244141 7.33308594 17.68183594 7.3125 19 C7.31958984 20.27552734 7.32667969 21.55105469 7.33398438 22.86523438 C7.26156255 33.48895892 7.26156255 33.48895892 3.875 38.0625 C0.98638291 39.50680855 -0.92147701 39.43938506 -4.125 39.0625 C-7.34492195 36.50716615 -8.9314346 34.98248817 -9.7878418 30.91210938 C-9.82711641 27.12698525 -9.85505171 23.34775235 -9.8125 19.5625 C-9.84021484 18.24378906 -9.86792969 16.92507812 -9.89648438 15.56640625 C-9.87282922 6.24627641 -9.87282922 6.24627641 -7.85058594 3.04516602 C-5.25851201 0.76322384 -3.4432465 0.06886493 0 0 Z " fill="#EBF1F4" transform="translate(211.125,182.9375)"/>
<path d="M0 0 C3.42708547 0.54111876 5.1612447 1.06066907 7.53491211 3.59399414 C10.02502165 8.36418973 9.22320798 14.32828015 9.125 19.5625 C9.13595703 20.83351563 9.14691406 22.10453125 9.15820312 23.4140625 C9.07508079 33.94289106 9.07508079 33.94289106 4.5625 38.5625 C2.5625 39.2265625 2.5625 39.2265625 0.5625 39.1875 C-0.4275 39.20683594 -0.4275 39.20683594 -1.4375 39.2265625 C-4.57260106 38.18561098 -5.63781746 36.27560892 -7.4375 33.5625 C-7.95507812 30.39624023 -7.95507812 30.39624023 -7.96875 26.87109375 C-7.97390625 25.59685547 -7.9790625 24.32261719 -7.984375 23.00976562 C-7.97599609 22.35145752 -7.96761719 21.69314941 -7.95898438 21.01489258 C-7.93751649 19.00154667 -7.95883191 16.99175297 -7.984375 14.97851562 C-7.97921875 13.70556641 -7.9740625 12.43261719 -7.96875 11.12109375 C-7.96423828 9.95892334 -7.95972656 8.79675293 -7.95507812 7.59936523 C-7.10066755 2.58615151 -4.92505381 0.8059179 0 0 Z " fill="#ECF2F5" transform="translate(209.4375,297.4375)"/>
<path d="M0 0 C3.01404575 2.22343214 3.9031944 3.41186032 4.51757812 7.14453125 C4.52208984 8.35496094 4.52660156 9.56539063 4.53125 10.8125 C4.5350769 11.46323486 4.53890381 12.11396973 4.54284668 12.78442383 C4.54556076 14.15610304 4.53823453 15.52783444 4.52148438 16.89941406 C4.50006119 18.99401685 4.52129637 21.08519084 4.546875 23.1796875 C4.54423163 24.51563254 4.53910643 25.85157545 4.53125 27.1875 C4.52673828 28.39792969 4.52222656 29.60835938 4.51757812 30.85546875 C3.90328668 34.58757904 3.02211206 35.78540493 0 38 C-3.75349462 38.46918683 -6.03848453 38.53136381 -9.375 36.6875 C-13.69526586 32.20107007 -12.30870417 24.42287145 -12.375 18.625 C-12.41238281 17.39265625 -12.44976562 16.1603125 -12.48828125 14.890625 C-12.58716932 4.76009148 -12.58716932 4.76009148 -9.69921875 1.68359375 C-6.15257599 -0.52856693 -4.10696346 -0.67204857 0 0 Z " fill="#E9EFF3" transform="translate(245,298)"/>
<path d="M0 0 C3.44357719 0.54372271 5.15561693 1.08218904 7.53930664 3.62524414 C9.97701685 8.24066541 9.18011911 13.98883923 9.0625 19.0625 C9.06636719 20.89748047 9.06636719 20.89748047 9.0703125 22.76953125 C8.95921279 32.93515442 8.95921279 32.93515442 5.5625 37.5625 C2.47076248 39.10836876 -0.03179552 38.85609521 -3.4375 38.5625 C-6.47092964 36.35833385 -7.34067853 35.15073608 -7.95507812 31.41796875 C-7.95958984 30.20753906 -7.96410156 28.99710937 -7.96875 27.75 C-7.9725769 27.09926514 -7.97640381 26.44853027 -7.98034668 25.77807617 C-7.98306076 24.40639696 -7.97573453 23.03466556 -7.95898438 21.66308594 C-7.93756119 19.56848315 -7.95879637 17.47730916 -7.984375 15.3828125 C-7.98173163 14.04686746 -7.97660643 12.71092455 -7.96875 11.375 C-7.96423828 10.16457031 -7.95972656 8.95414062 -7.95507812 7.70703125 C-7.11794225 2.62103592 -5.0053115 0.81905097 0 0 Z " fill="#E8EFF2" transform="translate(178.4375,297.4375)"/>
<path d="M0 0 C9.24 0 18.48 0 28 0 C28 10.56 28 21.12 28 32 C19.28241236 24.52778202 11.32482988 17.01012099 4.3125 7.9375 C3.87832764 7.37732178 3.44415527 6.81714355 2.99682617 6.23999023 C0 2.26196194 0 2.26196194 0 0 Z " fill="#63B4F6" transform="translate(119,278)"/>
<path d="M0 0 C-7.46441419 8.13171109 -13.12874822 11.17019264 -24.03955078 13.53271484 C-46.95676753 18.99517473 -69.06674623 32.96268558 -86 49 C-86.66 48.67 -87.32 48.34 -88 48 C-72.14819401 31.4436693 -25.81276521 -8.60425507 0 0 Z " fill="#44A6F5" transform="translate(221,24)"/>
<path d="M0 0 C8.25 0 16.5 0 25 0 C20.49461673 7.88442072 20.49461673 7.88442072 18.51953125 10.2109375 C17.86283447 10.98884644 17.86283447 10.98884644 17.19287109 11.7824707 C16.73734863 12.30800537 16.28182617 12.83354004 15.8125 13.375 C15.33635254 13.93082764 14.86020508 14.48665527 14.36962891 15.05932617 C10.15421324 19.92774549 5.79053655 24.6885171 1 29 C0.67 29 0.34 29 0 29 C0 19.43 0 9.86 0 0 Z " fill="#62B4F5" transform="translate(367,278)"/>
<path d="M0 0 C3.3 0 6.6 0 10 0 C10 9.9 10 19.8 10 30 C6.7 30 3.4 30 0 30 C0 20.1 0 10.2 0 0 Z " fill="#002A38" transform="translate(343,245)"/>
<path d="M0 0 C3.38121991 2.44598887 4.76936783 3.89296559 5.625 8 C4.76936783 12.10703441 3.38121991 13.55401113 0 16 C-3.95779649 16.62491523 -6.00863886 16.61006839 -9.4375 14.5 C-11.63828902 10.97873756 -11.80414661 8.04560357 -11 4 C-8.16650967 -0.53358453 -5.10426635 -0.80593679 0 0 Z " fill="#F5D42E" transform="translate(341,309)"/>
<path d="M0 0 C2.5 1.5625 2.5 1.5625 4 4 C4.5625 7.4375 4.5625 7.4375 4 11 C1.55401113 14.38121991 0.10703441 15.76936783 -4 16.625 C-8.10703441 15.76936783 -9.55401113 14.38121991 -12 11 C-12.62491523 7.04220351 -12.61006839 4.99136114 -10.5 1.5625 C-6.97873756 -0.63828902 -4.04560357 -0.80414661 0 0 Z " fill="#F2665B" transform="translate(281,195)"/>
<path d="M0 0 C2.4375 1.5 2.4375 1.5 4 4 C4.60984064 6.80756825 4.66017005 9.19858274 4 12 C1.46528234 14.98202078 -0.18712339 15.83065071 -4 16.625 C-7.46122187 15.90391211 -9.05420345 14.63992305 -11.1484375 11.7890625 C-12.67373104 8.58454672 -12.04902601 6.27049287 -11 3 C-7.92160879 -0.67038952 -4.56677188 -0.57084649 0 0 Z " fill="#F2665B" transform="translate(311,195)"/>
<path d="M0 0 C4.0743356 0.84881992 5.54405875 2.30225596 8 5.625 C8.625 8.625 8.625 8.625 8 11.625 C5.54405875 14.94774404 4.0743356 16.40118008 0 17.25 C-4.0743356 16.40118008 -5.54405875 14.94774404 -8 11.625 C-8.625 8.625 -8.625 8.625 -8 5.625 C-5.54405875 2.30225596 -4.0743356 0.84881992 0 0 Z " fill="#F9D62E" transform="translate(277,308.375)"/>
<path d="M0 0 C3.8425303 0.72047443 5.45767292 1.57152696 8 4.5625 C8.66017005 7.36391726 8.60984064 9.75493175 8 12.5625 C6.4375 15.0625 6.4375 15.0625 4 16.5625 C0.08548544 17.12171637 -2.0382229 17.19524809 -5.375 15 C-7.5699479 11.70757816 -8.06944397 9.52080645 -8 5.5625 C-5.59321321 2.13465214 -4.14162899 0.77655544 0 0 Z " fill="#F7D52E" transform="translate(307,308.4375)"/>
<path d="M0 0 C3 2.0625 3 2.0625 5 5 C5.1506132 9.29247606 4.66257079 11.22050496 1.875 14.5 C-1.93532871 16.48799759 -3.91964404 16.20899436 -8 15 C-10.81972931 12.63506574 -10.97850831 11.1719335 -11.4375 7.5 C-11 4 -11 4 -9.4375 1.5625 C-6.01685857 -0.63021887 -3.99048721 -0.63007693 0 0 Z " fill="#F6675B" transform="translate(341,195)"/>
<path d="M0 0 C6.75 1.125 6.75 1.125 10 4 C7.03 3.67 4.06 3.34 1 3 C1 22.8 1 42.6 1 63 C18.82 63 36.64 63 55 63 C55.495 62.01 55.495 62.01 56 61 C56 61.99 56 62.98 56 64 C37.52 64 19.04 64 0 64 C0 42.88 0 21.76 0 0 Z " fill="#4DA6F3" transform="translate(263,28)"/>
<path d="M0 0 C1.32 0.33 2.64 0.66 4 1 C-0.26289237 7.20501239 -4.72865145 13.01771811 -9.8125 18.5625 C-10.28018799 19.07458008 -10.74787598 19.58666016 -11.22973633 20.11425781 C-13.38511278 22.42878736 -15.3526036 24.23506907 -18 26 C-16.32968228 22.16754879 -13.82569365 19.06422998 -11.25 15.8125 C-7.24770962 10.6941167 -3.48804523 5.48729066 0 0 Z " fill="#45A9F5" transform="translate(388,278)"/>
<path d="M0 0 C4.61691161 0.52464905 6.09987886 1.07490914 10 4 C6.7 3.67 3.4 3.34 0 3 C0 2.01 0 1.02 0 0 Z " fill="#41A3F4" transform="translate(263,28)"/>
</svg>
