<?xml version="1.0" encoding="UTF-8"?>
<svg version="1.1" xmlns="http://www.w3.org/2000/svg" width="512" height="512">
<path d="M0 0 C1.13150172 -0.00352835 1.13150172 -0.00352835 2.28586206 -0.00712797 C4.82794583 -0.0138151 7.36997845 -0.01335983 9.91207027 -0.01294994 C11.74734463 -0.01624875 13.58261826 -0.01997435 15.41789097 -0.02409142 C20.47271983 -0.03411769 25.52753682 -0.03782923 30.58237422 -0.04048073 C36.02974142 -0.04438193 41.47709921 -0.05396041 46.92446041 -0.0626936 C60.08573299 -0.08246338 73.24700634 -0.09252494 86.40829006 -0.10142139 C92.60470992 -0.10580351 98.80112892 -0.11117052 104.9975481 -0.11641026 C125.59346909 -0.13342317 146.18938954 -0.14791758 166.78531647 -0.155159 C172.13102945 -0.15706892 177.47674244 -0.15898759 182.82245541 -0.16094494 C183.48658535 -0.16118509 184.1507153 -0.16142524 184.8349704 -0.16167267 C206.36318403 -0.16956397 227.89134253 -0.19299214 249.4195321 -0.22550088 C272.1837554 -0.25981329 294.94794797 -0.27951033 317.71219772 -0.28280324 C330.11984574 -0.28496904 342.52741274 -0.29372798 354.93503666 -0.31926441 C365.50153554 -0.34096121 376.06793373 -0.34902682 386.63445235 -0.33929763 C392.02515593 -0.33474999 397.41565172 -0.33666633 402.80632687 -0.35605907 C407.74440667 -0.3736701 412.68212677 -0.37270958 417.62021028 -0.35716178 C419.4035899 -0.3547826 421.18699429 -0.35912535 422.97033603 -0.37099043 C436.40543582 -0.45481816 447.16113417 0.98490584 457.57318783 10.13422108 C458.1790472 10.63566639 458.78490658 11.1371117 459.40912533 11.65375233 C465.5119152 17.13027337 470.00121667 25.05045033 471.57318783 33.13422108 C471.66831607 35.34182213 471.70588145 37.55210856 471.71020222 39.76175404 C471.71285404 40.42968186 471.71550587 41.09760969 471.71823806 41.78577775 C471.7259248 44.03393836 471.72648999 46.28204429 471.72708797 48.53021717 C471.73110302 50.15441429 471.73554131 51.77861041 471.74036753 53.40280533 C471.75233436 57.8742215 471.75798175 62.34562689 471.76254869 66.81705594 C471.76850441 71.63662661 471.78011438 76.45618438 471.7908392 81.27574635 C471.81536458 92.91976619 471.82999091 104.56379031 471.84289926 116.20782804 C471.84661121 119.49671201 471.85058444 122.78559556 471.85465193 126.0744791 C471.87988936 146.49825336 471.90194237 166.92202829 471.91438007 187.3458147 C471.91730977 192.07687857 471.92027143 196.80794242 471.92328548 201.53900623 C471.92403153 202.71488934 471.92477759 203.89077244 471.92554624 205.10228837 C471.93819776 224.14759317 471.97141797 243.19280457 472.01308732 262.23806572 C472.05551877 281.7919855 472.07907655 301.34585749 472.08430064 320.89982319 C472.08771346 331.87838985 472.09945348 342.85681058 472.13240337 353.83533192 C472.16042168 363.18604195 472.17139536 372.53657612 472.16020791 381.88732487 C472.15502579 386.6564574 472.15787908 391.42522175 472.18267345 396.19430065 C472.20520995 400.56567469 472.20439211 404.93641701 472.18546958 409.30780244 C472.18267572 410.88393772 472.18823385 412.46011625 472.20328252 414.03618217 C472.33231338 428.43756721 468.78898444 439.48410923 458.79975033 450.00140858 C452.0058182 456.46257669 442.87472128 461.28005031 433.34288692 461.24533558 C432.50608898 461.24500828 431.66929104 461.24468098 430.80713558 461.24434376 C429.89744015 461.23910191 428.98774471 461.23386005 428.05048275 461.22845936 C426.05131196 461.22567321 424.05214101 461.22300327 422.05296993 461.22043324 C420.99421846 461.21738304 419.935467 461.21433285 418.84463215 461.21119022 C413.23523648 461.19984412 407.62592174 461.22034582 402.0165472 461.23578358 C394.87959647 461.25408008 387.74307874 461.26274269 380.60614681 461.23383045 C374.83702011 461.21129386 369.06883416 461.222719 363.29977512 461.25683689 C361.10339605 461.26360582 358.9069415 461.25792712 356.71062946 461.23948002 C353.63405752 461.2153027 350.56054247 461.23453223 347.4840765 461.26361561 C346.58045376 461.24622837 345.67683102 461.22884113 344.74582577 461.21092701 C339.75352051 461.30892148 337.18801803 461.98400533 333.59706783 465.56827259 C332.57989599 466.74904879 331.57068996 467.93678194 330.57318783 469.13422108 C329.21032782 470.27883775 327.82183353 471.39552165 326.38568783 472.44672108 C325.4362933 473.1524828 325.4362933 473.1524828 324.46771908 473.87250233 C318.90001911 477.58047571 314.18701109 477.87113732 307.57318783 477.13422108 C304.60962461 476.19947712 302.1748879 474.81767407 299.57318783 473.13422108 C298.75076595 472.60570545 297.92834408 472.07718983 297.08100033 471.53265858 C294.89157935 470.09350647 292.72513322 468.6286276 290.57318783 467.13422108 C289.63861752 467.63051014 288.7040472 468.1267992 287.74115658 468.63812733 C276.26886255 474.61241763 264.21051574 480.13347241 251.57318783 483.13422108 C251.14006283 484.83578358 251.14006283 484.83578358 250.69818783 486.57172108 C250.51256283 487.30004139 250.32693783 488.0283617 250.13568783 488.77875233 C249.76518342 490.33023955 249.43076232 491.8908566 249.13568783 493.45843983 C247.94372517 499.72688629 245.92434056 503.90681323 241.19818783 508.38422108 C236.00403356 511.84699059 230.95026685 512.44311284 224.83100033 512.43500233 C224.10379787 512.43928745 223.37659542 512.44357258 222.62735653 512.44798756 C221.09612724 512.45370347 219.56487081 512.45425142 218.03363705 512.44989491 C215.71170548 512.44673945 213.39105562 512.47021092 211.06928158 512.4955492 C209.57318941 512.4978232 208.07709387 512.49852522 206.58100033 512.49750233 C205.89740444 512.50671207 205.21380856 512.51592182 204.50949764 512.52541065 C198.68900305 512.4705405 193.14472719 511.22918172 188.54975033 507.48578358 C187.88072689 506.63113514 187.88072689 506.63113514 187.19818783 505.75922108 C186.73670345 505.1946117 186.27521908 504.63000233 185.79975033 504.04828358 C183.14087029 499.89907587 182.22504268 495.77912154 181.51068783 490.94672108 C180.97337223 486.9039557 180.97337223 486.9039557 179.57318783 483.13422108 C177.71854715 482.32791711 177.71854715 482.32791711 175.44428158 481.68890858 C174.5810931 481.42030018 173.71790462 481.15169178 172.82855892 480.87494373 C171.89866146 480.58925526 170.968764 480.30356678 170.01068783 480.00922108 C161.43787369 477.28250648 153.56009864 473.95799484 145.62787533 469.73578358 C142.65175375 468.07127171 142.65175375 468.07127171 139.57318783 467.13422108 C137.28739305 468.51865864 135.20701603 469.91949541 133.07318783 471.50922108 C126.18229931 476.55133463 121.15182881 478.13860742 112.57318783 477.13422108 C105.20544725 474.38806323 99.03007613 467.59110938 93.57318783 462.13422108 C90.52653552 462.03011734 87.50180743 461.99061301 84.45453548 461.99237537 C83.49670162 461.98890095 82.53886776 461.98542652 81.55200863 461.98184681 C79.46270616 461.9744727 77.37339578 461.96913619 75.28408337 461.96555614 C71.97083062 461.95840438 68.65772717 461.94274418 65.34451962 461.92421436 C55.92060138 461.87170771 46.49676065 461.82383178 37.07269955 461.80829334 C31.31366113 461.79817398 25.55499184 461.76873995 19.79609966 461.72697353 C17.60584343 461.71470535 15.41553492 461.70953458 13.22524548 461.71177197 C-2.95294101 461.72422205 -16.36483531 460.78440885 -28.62212467 449.02875233 C-36.0612789 441.05430841 -40.67097534 432.34328054 -40.68408108 421.25779915 C-40.68758715 420.58726404 -40.69109323 419.91672893 -40.69470555 419.22587457 C-40.70400339 416.98082877 -40.69910047 414.7360433 -40.69423771 412.49098682 C-40.6979748 410.86434982 -40.70257655 409.23771461 -40.70796835 407.61108226 C-40.72020674 403.14223285 -40.71993689 398.67345826 -40.7175796 394.20459592 C-40.71717164 389.38439331 -40.72820865 384.56421475 -40.73769474 379.74402332 C-40.75431079 370.30025 -40.75980458 360.85650165 -40.7609195 351.41271494 C-40.76186977 343.73560256 -40.76597905 336.05849843 -40.77232075 328.38138866 C-40.78993553 306.61423195 -40.79915936 284.84709495 -40.7976598 263.07993106 C-40.79757989 261.90635018 -40.79749997 260.73276931 -40.79741764 259.52362537 C-40.79733588 258.34861096 -40.79725412 257.17359655 -40.79716988 255.96297564 C-40.79635712 236.92360063 -40.81549167 217.88430475 -40.84369437 198.84495262 C-40.87242575 179.29435937 -40.8862345 159.7438047 -40.88450682 140.1931898 C-40.88384296 129.2175091 -40.88933334 118.24191134 -40.91086292 107.26624966 C-40.92907812 97.92032612 -40.9334193 88.57452312 -40.91984408 79.22858951 C-40.91331591 74.46164844 -40.91319177 69.69493858 -40.93055058 64.92801952 C-40.94629317 60.55992699 -40.94340557 56.19224876 -40.92598231 51.82416626 C-40.92291501 50.2481154 -40.92653463 48.67203352 -40.93770246 47.09601925 C-41.02311798 34.1816886 -39.11727783 24.02409724 -30.42681217 14.13422108 C-29.92536686 13.5283617 -29.42392155 12.92250233 -28.90728092 12.29828358 C-21.31529936 3.83811921 -11.12299966 -0.02351144 0 0 Z " fill="#000001" transform="translate(40.426812171936035,-0.13422107696533203)"/>
<path d="M0 0 C157.74 0 315.48 0 478 0 C478.0825 47.14875 478.165 94.2975 478.25 142.875 C478.28641602 157.76737793 478.32283203 172.65975586 478.36035156 188.00341797 C478.37841797 206.17602539 478.37841797 206.17602539 478.3817749 214.68093872 C478.38550446 220.62639695 478.40017458 226.57170478 478.42230225 232.51712036 C478.44779413 239.37661726 478.45933667 246.23596994 478.4537798 253.09551454 C478.45137382 256.60325315 478.4551436 260.11066957 478.47686052 263.61834884 C478.49677333 267.37976939 478.49195421 271.14038569 478.48101807 274.90182495 C478.49266872 275.98908434 478.50431938 277.07634373 478.51632309 278.19655037 C478.45371986 286.21474181 476.96842826 293.19155762 471.95703125 299.62109375 C470.89548828 300.52021484 470.89548828 300.52021484 469.8125 301.4375 C469.11769531 302.05496094 468.42289062 302.67242187 467.70703125 303.30859375 C458.20752507 309.24407164 447.94794386 308.39029993 437.18359375 308.29296875 C435.35800019 308.28736577 433.53240208 308.28309899 431.70680237 308.28010559 C426.92771711 308.26871206 422.14891021 308.23929279 417.36993408 308.20599365 C412.48298913 308.17517371 407.59599873 308.16157488 402.70898438 308.14648438 C393.13920137 308.11441731 383.56962393 308.06328819 374 308 C373.93699203 306.76649559 373.93699203 306.76649559 373.87271118 305.5080719 C373.80337372 304.42847702 373.73403625 303.34888214 373.66259766 302.23657227 C373.56865219 300.63181786 373.56865219 300.63181786 373.47280884 298.99464417 C372.75598551 294.45447775 370.40108982 292.20103493 367.375 288.9375 C365.38241177 286.41393078 363.83803381 284.12489636 363 281 C363.85676917 274.88662243 367.56895898 269.55960172 370.68017578 264.35009766 C372.67785474 260.79300227 374.07406965 257.08600765 375.4375 253.25 C376.11619141 251.40148437 376.11619141 251.40148437 376.80859375 249.515625 C377.98979772 246.0301051 379.02236518 242.5467682 380 239 C381.15757812 238.82984375 382.31515625 238.6596875 383.5078125 238.484375 C385.04699798 238.24035779 386.58605394 237.99552264 388.125 237.75 C388.88554687 237.64042969 389.64609375 237.53085937 390.4296875 237.41796875 C396.68614296 236.39320449 400.92371763 234.30698041 405.25 229.5 C411.33884742 217.32230516 411.07820412 196.91042904 407 184 C404.52282458 178.95390191 401.32355479 175.8338667 396 174 C392.37469241 173.35350045 388.77150118 172.87726085 385.109375 172.4921875 C382 172 382 172 379 170 C378.20347362 167.55631718 377.54715721 165.17770873 376.9375 162.6875 C374.70699091 154.2663402 371.23677074 146.71189558 367.30249023 138.95776367 C366.66355835 137.68509644 366.66355835 137.68509644 366.01171875 136.38671875 C365.62459717 135.63608154 365.23747559 134.88544434 364.83862305 134.11206055 C364 132 364 132 364 128 C365.71484375 125.08984375 365.71484375 125.08984375 367.9375 121.9375 C371.32082867 117.1101404 373.15929163 113.79325083 373.4375 107.875 C373.49808594 106.98554688 373.55867188 106.09609375 373.62109375 105.1796875 C371.93817363 96.56398324 364.54343749 90.09817305 358.5 84.1875 C357.76652344 83.45080078 357.03304688 82.71410156 356.27734375 81.95507812 C349.20706831 74.67052287 349.20706831 74.67052287 340 71 C339.33742188 70.89816406 338.67484375 70.79632813 337.9921875 70.69140625 C329.84409121 70.19530445 324.17261107 74.25040374 318.1875 79.4375 C316 81 316 81 313.80078125 80.82421875 C310.27525343 79.78672033 307.21458862 78.11385365 304 76.375 C294.9773804 71.6479436 285.50147441 68.60993006 275.78735352 65.62915039 C274 65 274 65 273 64 C272.68820625 62.21139937 272.38105501 60.42182349 272.10131836 58.62792969 C270.5820927 48.41343868 270.5820927 48.41343868 265 40 C257.38294322 35.22059236 248.83204417 35.38137706 240.15869141 35.47851562 C237.87165128 35.5000315 235.58772829 35.47859539 233.30078125 35.453125 C224.37498676 35.43659294 217.72888555 35.91015303 210.6875 42 C206.93710883 48.66736208 206.00493564 56.50524636 205 64 C203.75347656 64.4125 202.50695312 64.825 201.22265625 65.25 C190.99303226 68.69758632 181.19309908 72.53856162 171.50390625 77.30078125 C170.34761719 77.86152344 169.19132813 78.42226562 168 79 C167.16726562 79.495 166.33453125 79.99 165.4765625 80.5 C163 81 163 81 159.51953125 79.26171875 C158.2712839 78.42203695 157.03580758 77.56311724 155.8125 76.6875 C154.56920331 75.83695755 153.32572198 74.98668493 152.08203125 74.13671875 C151.06496094 73.43160156 150.04789063 72.72648437 149 72 C144.49322691 69.74661345 139.09375297 70.67379297 134.4375 72.0625 C130.0128765 74.5563787 126.6520789 77.4877136 123 81 C122.4529541 81.52126465 121.9059082 82.0425293 121.34228516 82.57958984 C119.46663437 84.37484841 117.60638743 86.184839 115.75 88 C114.84592407 88.87168823 114.84592407 88.87168823 113.92358398 89.76098633 C109.48863905 94.1637895 105.66576334 98.48026587 104.46875 104.80859375 C104.5828987 114.41135328 107.73145576 119.96076182 114.0234375 127.04296875 C115 129 115 129 114.4375 131.171875 C113.963125 132.10515625 113.48875 133.0384375 113 134 C112.32372362 135.40668947 111.6494437 136.81433956 110.9765625 138.22265625 C110.59701416 139.00294189 110.21746582 139.78322754 109.82641602 140.5871582 C105.9442977 148.5856946 102.53212258 156.45900623 100 165 C99.3389817 167.00187393 98.67366167 169.00234527 98 171 C96.9378125 171.15855469 95.875625 171.31710937 94.78125 171.48046875 C81.85406013 173.43832647 81.85406013 173.43832647 72.0625 181.5625 C70.03246632 186.21963608 69.82756515 190.50656249 69.796875 195.546875 C69.79117493 196.27690735 69.78547485 197.0069397 69.77960205 197.75909424 C69.7701741 199.30227215 69.76362685 200.84546999 69.75976562 202.38867188 C69.75009003 204.72823042 69.71905955 207.06689849 69.6875 209.40625 C69.68096592 210.91145316 69.67571704 212.41666256 69.671875 213.921875 C69.6533548 214.95667999 69.6533548 214.95667999 69.63446045 216.01239014 C69.66407698 222.59660162 71.12747191 227.94478625 75.5625 232.8125 C82.06006518 237.58917539 90.22475998 238.23915924 98 239 C98.20044922 239.61294922 98.40089844 240.22589844 98.60742188 240.85742188 C102.50115991 252.66224671 106.57932283 264.03291756 112.43359375 275.015625 C114 278 114 278 115 281 C113.01994732 284.03783748 110.9321044 286.91157574 108.69140625 289.75976562 C105.67119428 293.9286907 104.67541932 297.10085037 104.35498047 302.27172852 C104.28310516 303.34624771 104.21122986 304.42076691 104.13717651 305.52784729 C104.06927414 306.75156288 104.06927414 306.75156288 104 308 C93.33365563 308.09289965 82.66740837 308.16386614 72.000741 308.20724869 C67.04714169 308.22807582 62.09382027 308.25630402 57.14038086 308.30175781 C52.35522691 308.34538992 47.57033937 308.36917373 42.78500175 308.37950897 C40.96423591 308.38686927 39.14348377 308.40124201 37.32283211 308.42292023 C18.9058527 308.63338074 18.9058527 308.63338074 12 304 C11.37517227 303.59235413 10.75034454 303.18470825 10.10658264 302.76470947 C4.37125589 298.47164019 0.69072298 292.27202133 -0.45439589 285.18962741 C-0.62634103 282.07031608 -0.64296507 278.9876486 -0.60127258 275.86386108 C-0.60555267 274.6820929 -0.60983276 273.50032471 -0.61424255 272.28274536 C-0.62104168 269.02266366 -0.60550375 265.76359157 -0.58036365 262.50362894 C-0.55842276 258.92674379 -0.56584373 255.34989283 -0.56945324 251.77295876 C-0.57210426 244.83951647 -0.54908931 237.90639976 -0.5169466 230.97304098 C-0.48086065 222.94789738 -0.47696821 214.92294763 -0.47302246 206.89770508 C-0.44680087 185.72341868 -0.37699495 164.54920441 -0.3125 143.375 C-0.209375 96.06125 -0.10625 48.7475 0 0 Z " fill="#F4F4F4" transform="translate(17,136)"/>
<path d="M0 0 C4.25414623 -0.02465622 8.50825498 -0.04283899 12.76245117 -0.05493164 C14.21070073 -0.05997101 15.65894517 -0.06680253 17.10717773 -0.07543945 C19.18474588 -0.08752247 21.26224697 -0.09323211 23.33984375 -0.09765625 C24.59144287 -0.10289307 25.84304199 -0.10812988 27.13256836 -0.11352539 C30 0 30 0 31 1 C31.2600666 2.42497151 31.46656589 3.85982902 31.6484375 5.296875 C31.76703125 6.1734375 31.885625 7.05 32.0078125 7.953125 C32.25045636 9.80134847 32.48753894 11.65031152 32.71875 13.5 C33.52315189 20.29923744 33.52315189 20.29923744 37 26 C39.54926734 27.00225032 41.79789403 27.69404885 44.4375 28.3125 C58.52147262 32.05651485 72.19158236 36.90677911 83.98046875 45.62890625 C88.26221215 47.57313902 91.53393076 47.36848795 96 46 C98.84036543 44.3901545 101.26780763 42.42417722 103.75 40.3125 C105.00190992 39.25054383 106.26716748 38.20407014 107.546875 37.17578125 C108.36430176 36.47835815 108.36430176 36.47835815 109.19824219 35.7668457 C111 35 111 35 113.45068359 35.63037109 C117.96693408 38.05674202 121.27090695 41.71741718 124.875 45.3125 C125.67164063 46.07240234 126.46828125 46.83230469 127.2890625 47.61523438 C128.03671875 48.35708984 128.784375 49.09894531 129.5546875 49.86328125 C130.24030762 50.53657471 130.92592773 51.20986816 131.63232422 51.90356445 C133 54 133 54 132.87402344 56.5246582 C131.99898035 59.00288779 131.05826462 60.66906081 129.4609375 62.7421875 C128.96335937 63.41636719 128.46578125 64.09054688 127.953125 64.78515625 C126.90194095 66.17719454 125.84201787 67.56267694 124.7734375 68.94140625 C122.26907559 72.36533855 121.02195463 74.20524235 120.90234375 78.53515625 C122.19333602 82.61028131 123.9693025 85.93071881 126.1875 89.5625 C132.77637456 100.87357551 137.36238729 111.9146376 140.17675781 124.69262695 C141.20594194 129.13736974 141.20594194 129.13736974 143.5859375 132.94921875 C147.27902614 134.5567282 151.02922242 135.06680762 155 135.625 C156.604359 135.86591014 158.20853303 136.10805596 159.8125 136.3515625 C160.87404297 136.50359131 160.87404297 136.50359131 161.95703125 136.65869141 C163.99217185 136.99869219 165.9982601 137.49956503 168 138 C168 147.9 168 157.8 168 168 C160.18260537 170.23354132 160.18260537 170.23354132 156.95703125 170.67578125 C155.93512695 170.83530273 155.93512695 170.83530273 154.89257812 170.99804688 C153.49607216 171.20916186 152.09748548 171.40691097 150.69726562 171.59179688 C147.36853778 172.13338818 145.26081247 172.77575414 142.6875 174.98828125 C140.37282741 179.11932885 139.33282305 183.30229466 138.1875 187.875 C134.7081578 200.8300451 129.66541219 212.00188172 122.1875 223.21875 C120.55174623 227.04985751 120.86561225 228.99552594 122 233 C123.66021769 235.89650468 125.6089277 238.53017698 127.625 241.1875 C128.67038231 242.56816956 129.70481512 243.9572181 130.7265625 245.35546875 C131.18627441 245.96028076 131.64598633 246.56509277 132.11962891 247.18823242 C133 249 133 249 132.74926758 251.08642578 C129.49030174 259.40958454 119.58946039 266.30472526 113 272 C110.30146504 270.81127827 107.96790787 269.31760822 105.57421875 267.6171875 C104.94193359 267.17246094 104.30964844 266.72773438 103.65820312 266.26953125 C102.34848196 265.34273153 101.04626317 264.40523417 99.75195312 263.45703125 C95.39197418 260.42669128 92.46488616 259.12291951 87 260 C84.37490686 261.26107416 82.06986709 262.52458979 79.625 264.0625 C67.46019194 271.27217244 55.18004173 276.18061375 41.29296875 278.8828125 C37.21707228 280.26561961 36.05796184 281.22136699 34 285 C33.01475036 289.26926054 32.65824305 293.60618385 32.22265625 297.95898438 C32.11824219 298.83232422 32.01382813 299.70566406 31.90625 300.60546875 C31.82697266 301.40106201 31.74769531 302.19665527 31.66601562 303.01635742 C31 305 31 305 29.25537109 306.25805664 C26.71849115 307.09260721 24.67737297 307.25864315 22.0078125 307.265625 C20.57888672 307.26949219 20.57888672 307.26949219 19.12109375 307.2734375 C18.13238281 307.26570313 17.14367187 307.25796875 16.125 307.25 C15.14402344 307.25773437 14.16304687 307.26546875 13.15234375 307.2734375 C8.04283002 307.25964664 3.77854944 307.04100756 -1 305 C-1.06993164 304.42032471 -1.13986328 303.84064941 -1.21191406 303.2434082 C-1.54092106 300.59733505 -1.89519713 297.95523273 -2.25 295.3125 C-2.35957031 294.40048828 -2.46914062 293.48847656 -2.58203125 292.54882812 C-3.54372822 285.42762593 -3.54372822 285.42762593 -8 280 C-10.8530475 278.87484919 -13.75362973 278.25263219 -16.75 277.625 C-30.3019241 274.41018892 -42.01194042 268.99114976 -53.71875 261.50390625 C-57.6389847 259.70713201 -60.81183893 258.9965456 -65 260 C-68.12159838 261.66539987 -70.77304624 263.75783802 -73.5 266 C-74.22703125 266.57234375 -74.9540625 267.1446875 -75.703125 267.734375 C-77.48315693 269.13966336 -79.24718922 270.56101123 -81 272 C-89.25057825 268.06893148 -98.09158436 259.70901316 -103 252 C-102.56472286 249.00465122 -101.50798967 247.00362417 -99.75 244.57421875 C-99.3065625 243.94193359 -98.863125 243.30964844 -98.40625 242.65820312 C-97.47428248 241.3521542 -96.53683128 240.04999972 -95.59375 238.75195312 C-92.66732901 234.55372998 -90.89837386 231.29053725 -91 226 C-92.25160089 223.40844992 -93.44811202 221.33377862 -95.0625 219 C-102.77294897 207.04408525 -107.95854247 193.31698488 -111.0625 179.4375 C-112.00169571 175.9937824 -112.29318727 175.08742542 -115 173 C-117.38352075 172.24286321 -117.38352075 172.24286321 -120.0703125 171.8671875 C-121.04871094 171.70089844 -122.02710937 171.53460938 -123.03515625 171.36328125 C-124.05480469 171.20214844 -125.07445313 171.04101562 -126.125 170.875 C-128.14897666 170.5423263 -130.17244802 170.20655842 -132.1953125 169.8671875 C-133.09266113 169.72394043 -133.99000977 169.58069336 -134.91455078 169.43310547 C-137 169 -137 169 -138 168 C-138.08775605 165.85441173 -138.10695219 163.70595579 -138.09765625 161.55859375 C-138.09443359 160.25341797 -138.09121094 158.94824219 -138.08789062 157.60351562 C-138.07953401 156.2148431 -138.07106905 154.82617123 -138.0625 153.4375 C-138.05748666 152.04492344 -138.05292347 150.65234519 -138.04882812 149.25976562 C-138.03699434 145.8398013 -138.0205088 142.41992156 -138 139 C-131.0976431 136.52889647 -124.49639645 135.1039667 -117.2578125 133.94140625 C-114.02726722 133.26325911 -114.02726722 133.26325911 -112.16796875 131.359375 C-110.62443587 128.24133534 -109.90624723 125.065693 -109.1875 121.6875 C-106.16316889 108.80109207 -101.13915346 97.45962857 -94.16357422 86.25244141 C-92.0795043 82.75047519 -91.02238088 80.58190284 -90.86328125 76.4453125 C-92.5807589 71.2397617 -95.78051649 67.61537265 -99.2265625 63.4296875 C-99.7215625 62.800625 -100.2165625 62.1715625 -100.7265625 61.5234375 C-101.18627441 60.96575684 -101.64598633 60.40807617 -102.11962891 59.83349609 C-103.39859063 57.1698792 -102.94731681 55.76050929 -102 53 C-100.3894043 50.88769531 -100.3894043 50.88769531 -98.32421875 48.828125 C-97.57849609 48.08175781 -96.83277344 47.33539063 -96.06445312 46.56640625 C-95.28005859 45.80199219 -94.49566406 45.03757813 -93.6875 44.25 C-92.91470703 43.47011719 -92.14191406 42.69023437 -91.34570312 41.88671875 C-84.65790897 35.27368067 -84.65790897 35.27368067 -81 35 C-78.48237598 36.51880002 -76.25574473 38.03349392 -73.9375 39.8125 C-72.69667379 40.73575666 -71.45579039 41.65893647 -70.21484375 42.58203125 C-69.66948975 42.99686768 -69.12413574 43.4117041 -68.56225586 43.83911133 C-64.68255579 46.7220577 -62.83446668 47.59579695 -58 47 C-55.10473506 45.71847697 -52.45167107 44.08179037 -49.75 42.4375 C-37.15152487 35.12242367 -24.16345749 30.13396103 -9.94140625 27.01953125 C-7.02608064 26.20445632 -7.02608064 26.20445632 -5.19140625 24.484375 C-3.34197878 20.62786395 -2.93128372 16.65071706 -2.375 12.4375 C-2.13491984 10.72756738 -1.89281632 9.01791731 -1.6484375 7.30859375 C-1.49640869 6.17635376 -1.49640869 6.17635376 -1.34130859 5.02124023 C-1 3 -1 3 0 0 Z " fill="#7D8C92" transform="translate(241,188)"/>
<path d="M0 0 C1.80730889 -0.00532851 3.61461335 -0.01239595 5.42190939 -0.02104706 C10.37625401 -0.03966077 15.33029944 -0.03337373 20.28465641 -0.02289402 C25.63241415 -0.01589846 30.98011065 -0.03190266 36.32785034 -0.04489136 C46.7996175 -0.06653049 57.27127597 -0.06640467 67.74305814 -0.05826581 C76.25440135 -0.05196534 84.76571287 -0.05310329 93.27705574 -0.05953789 C94.48855733 -0.06043954 95.70005891 -0.0613412 96.94827266 -0.06227018 C99.40944755 -0.06412138 101.87062244 -0.06598394 104.33179731 -0.06785773 C127.40996793 -0.08443588 150.48807742 -0.07571683 173.56624437 -0.05887216 C194.6786455 -0.04417496 215.79090431 -0.05880391 236.90328711 -0.08764232 C258.58405378 -0.11703648 280.26475476 -0.12800854 301.94554049 -0.11846012 C304.39795433 -0.11743757 306.85036819 -0.11644296 309.30278206 -0.11547661 C311.11270949 -0.11476202 311.11270949 -0.11476202 312.95920111 -0.114033 C321.45909252 -0.11186892 329.95892174 -0.12167268 338.45879936 -0.13624763 C348.81919589 -0.15376511 359.17941096 -0.15366185 369.53980034 -0.13089598 C374.82513335 -0.11974867 380.1101466 -0.11660266 385.39546585 -0.13519669 C390.23593197 -0.15200651 395.07579955 -0.14564333 399.91622693 -0.1209799 C401.66511222 -0.11609791 403.41404583 -0.11960876 405.16289067 -0.13246734 C415.51875337 -0.2031015 424.5077269 0.04522478 432.48467773 7.50439733 C439.62501949 14.94310272 440.80221441 21.71856347 440.64979553 31.69825745 C440.64555069 32.75376297 440.64130585 33.80926849 440.63693237 34.89675903 C440.62021728 38.24882641 440.58257766 41.6002798 440.54432678 44.9521637 C440.52927071 47.23275394 440.51558392 49.51335365 440.50331116 51.79396057 C440.47033728 57.36773572 440.42020946 62.94115583 440.35682678 68.5146637 C409.48522215 68.65150493 378.61369761 68.7577038 347.74186175 68.82105567 C344.0981354 68.82856002 340.45440965 68.83632594 336.8106842 68.84425354 C336.08527637 68.8458274 335.35986853 68.84740127 334.61247864 68.84902282 C322.86285119 68.87513907 311.11339966 68.92245102 299.36387662 68.97758047 C287.31002117 69.03366666 275.25625794 69.06701149 263.20227736 69.07919466 C256.43071404 69.08669262 249.65951776 69.1047433 242.88808632 69.14904404 C236.51788045 69.18969034 230.14823918 69.20234854 223.77791595 69.19330978 C221.43693921 69.19496397 219.09594409 69.20694559 216.75507927 69.22989655 C213.56379357 69.25965743 210.3746522 69.25260754 207.18331909 69.2361908 C206.25238286 69.25366784 205.32144663 69.27114489 204.36230022 69.28915155 C198.27097819 69.20418311 198.27097819 69.20418311 195.66180837 67.23615766 C192.56147623 63.69861642 191.76025894 61.00521003 191.86073303 56.3740387 C191.85879944 55.22032776 191.85686584 54.06661682 191.85487366 52.87794495 C191.89756509 50.4846375 191.94438554 48.09139985 191.99549866 45.69825745 C191.96896216 36.15573428 189.63062903 30.01948228 183.04432678 23.0771637 C176.4705457 19.25519795 169.93037175 18.06918845 162.41601562 18.11593628 C161.56303046 18.10928945 160.7100453 18.10264263 159.8312121 18.09579438 C156.99839872 18.07727401 154.1660118 18.07976223 151.33314514 18.08229065 C149.29242868 18.07326679 147.25171763 18.06293805 145.21101379 18.05140686 C139.68898117 18.02388411 134.16705153 18.01455872 128.64495921 18.00855279 C122.86736028 17.99915686 117.08983789 17.97295245 111.31228638 17.94854736 C100.37969221 17.90491228 89.44711293 17.8763469 78.51445824 17.85322398 C66.06462362 17.82615632 53.61486613 17.78224573 41.16508663 17.73693526 C15.56237519 17.64413178 -10.04036044 17.57243133 -35.64317322 17.5146637 C-34.40896915 13.62138596 -33.49674568 10.79884237 -30.58067322 7.8896637 C-30.05344666 7.34052307 -29.52622009 6.79138245 -28.98301697 6.2256012 C-19.95273747 -0.37750802 -10.73602543 -0.05519469 0 0 Z " fill="#3E50B4" transform="translate(54.64317321777344,16.485336303710938)"/>
<path d="M0 0 C4.25414623 -0.02465622 8.50825498 -0.04283899 12.76245117 -0.05493164 C14.21070073 -0.05997101 15.65894517 -0.06680253 17.10717773 -0.07543945 C19.18474588 -0.08752247 21.26224697 -0.09323211 23.33984375 -0.09765625 C24.59144287 -0.10289307 25.84304199 -0.10812988 27.13256836 -0.11352539 C30 0 30 0 31 1 C31.2600666 2.42497151 31.46656589 3.85982902 31.6484375 5.296875 C31.76703125 6.1734375 31.885625 7.05 32.0078125 7.953125 C32.25045636 9.80134847 32.48753894 11.65031152 32.71875 13.5 C33.52315189 20.29923744 33.52315189 20.29923744 37 26 C39.54926734 27.00225032 41.79789403 27.69404885 44.4375 28.3125 C58.52147262 32.05651485 72.19158236 36.90677911 83.98046875 45.62890625 C88.26221215 47.57313902 91.53393076 47.36848795 96 46 C98.84036543 44.3901545 101.26780763 42.42417722 103.75 40.3125 C105.00190992 39.25054383 106.26716748 38.20407014 107.546875 37.17578125 C108.36430176 36.47835815 108.36430176 36.47835815 109.19824219 35.7668457 C111 35 111 35 113.45068359 35.63037109 C117.96693408 38.05674202 121.27090695 41.71741718 124.875 45.3125 C125.67164063 46.07240234 126.46828125 46.83230469 127.2890625 47.61523438 C128.03671875 48.35708984 128.784375 49.09894531 129.5546875 49.86328125 C130.24030762 50.53657471 130.92592773 51.20986816 131.63232422 51.90356445 C133 54 133 54 132.87402344 56.5246582 C131.99898035 59.00288779 131.05826462 60.66906081 129.4609375 62.7421875 C128.96335937 63.41636719 128.46578125 64.09054688 127.953125 64.78515625 C126.90194095 66.17719454 125.84201787 67.56267694 124.7734375 68.94140625 C122.26907559 72.36533855 121.02195463 74.20524235 120.90234375 78.53515625 C122.19333602 82.61028131 123.9693025 85.93071881 126.1875 89.5625 C132.77637456 100.87357551 137.36238729 111.9146376 140.17675781 124.69262695 C141.20594194 129.13736974 141.20594194 129.13736974 143.5859375 132.94921875 C147.27902614 134.5567282 151.02922242 135.06680762 155 135.625 C156.604359 135.86591014 158.20853303 136.10805596 159.8125 136.3515625 C160.87404297 136.50359131 160.87404297 136.50359131 161.95703125 136.65869141 C163.99217185 136.99869219 165.9982601 137.49956503 168 138 C168 147.9 168 157.8 168 168 C160.18260537 170.23354132 160.18260537 170.23354132 156.95703125 170.67578125 C155.93512695 170.83530273 155.93512695 170.83530273 154.89257812 170.99804688 C153.49607216 171.20916186 152.09748548 171.40691097 150.69726562 171.59179688 C147.36853778 172.13338818 145.26081247 172.77575414 142.6875 174.98828125 C140.37282741 179.11932885 139.33282305 183.30229466 138.1875 187.875 C134.7081578 200.8300451 129.66541219 212.00188172 122.1875 223.21875 C120.55174623 227.04985751 120.86561225 228.99552594 122 233 C123.66021769 235.89650468 125.6089277 238.53017698 127.625 241.1875 C128.67038231 242.56816956 129.70481512 243.9572181 130.7265625 245.35546875 C131.18627441 245.96028076 131.64598633 246.56509277 132.11962891 247.18823242 C133 249 133 249 132.74926758 251.08642578 C129.49030174 259.40958454 119.58946039 266.30472526 113 272 C110.30146504 270.81127827 107.96790787 269.31760822 105.57421875 267.6171875 C104.94193359 267.17246094 104.30964844 266.72773438 103.65820312 266.26953125 C102.34848196 265.34273153 101.04626317 264.40523417 99.75195312 263.45703125 C95.39197418 260.42669128 92.46488616 259.12291951 87 260 C84.37490686 261.26107416 82.06986709 262.52458979 79.625 264.0625 C67.46019194 271.27217244 55.18004173 276.18061375 41.29296875 278.8828125 C37.21707228 280.26561961 36.05796184 281.22136699 34 285 C33.01475036 289.26926054 32.65824305 293.60618385 32.22265625 297.95898438 C32.11824219 298.83232422 32.01382813 299.70566406 31.90625 300.60546875 C31.82697266 301.40106201 31.74769531 302.19665527 31.66601562 303.01635742 C31 305 31 305 29.25537109 306.25805664 C26.71849115 307.09260721 24.67737297 307.25864315 22.0078125 307.265625 C20.57888672 307.26949219 20.57888672 307.26949219 19.12109375 307.2734375 C18.13238281 307.26570313 17.14367187 307.25796875 16.125 307.25 C15.14402344 307.25773437 14.16304687 307.26546875 13.15234375 307.2734375 C8.04283002 307.25964664 3.77854944 307.04100756 -1 305 C-1.06993164 304.42032471 -1.13986328 303.84064941 -1.21191406 303.2434082 C-1.54092106 300.59733505 -1.89519713 297.95523273 -2.25 295.3125 C-2.35957031 294.40048828 -2.46914062 293.48847656 -2.58203125 292.54882812 C-3.54372822 285.42762593 -3.54372822 285.42762593 -8 280 C-10.8530475 278.87484919 -13.75362973 278.25263219 -16.75 277.625 C-30.3019241 274.41018892 -42.01194042 268.99114976 -53.71875 261.50390625 C-57.6389847 259.70713201 -60.81183893 258.9965456 -65 260 C-68.12159838 261.66539987 -70.77304624 263.75783802 -73.5 266 C-74.22703125 266.57234375 -74.9540625 267.1446875 -75.703125 267.734375 C-77.48315693 269.13966336 -79.24718922 270.56101123 -81 272 C-89.25057825 268.06893148 -98.09158436 259.70901316 -103 252 C-102.56472286 249.00465122 -101.50798967 247.00362417 -99.75 244.57421875 C-99.3065625 243.94193359 -98.863125 243.30964844 -98.40625 242.65820312 C-97.47428248 241.3521542 -96.53683128 240.04999972 -95.59375 238.75195312 C-92.66732901 234.55372998 -90.89837386 231.29053725 -91 226 C-92.25160089 223.40844992 -93.44811202 221.33377862 -95.0625 219 C-102.77294897 207.04408525 -107.95854247 193.31698488 -111.0625 179.4375 C-112.00169571 175.9937824 -112.29318727 175.08742542 -115 173 C-117.38352075 172.24286321 -117.38352075 172.24286321 -120.0703125 171.8671875 C-121.04871094 171.70089844 -122.02710937 171.53460938 -123.03515625 171.36328125 C-124.05480469 171.20214844 -125.07445313 171.04101562 -126.125 170.875 C-128.14897666 170.5423263 -130.17244802 170.20655842 -132.1953125 169.8671875 C-133.09266113 169.72394043 -133.99000977 169.58069336 -134.91455078 169.43310547 C-137 169 -137 169 -138 168 C-138.08775605 165.85441173 -138.10695219 163.70595579 -138.09765625 161.55859375 C-138.09443359 160.25341797 -138.09121094 158.94824219 -138.08789062 157.60351562 C-138.07953401 156.2148431 -138.07106905 154.82617123 -138.0625 153.4375 C-138.05748666 152.04492344 -138.05292347 150.65234519 -138.04882812 149.25976562 C-138.03699434 145.8398013 -138.0205088 142.41992156 -138 139 C-131.0976431 136.52889647 -124.49639645 135.1039667 -117.2578125 133.94140625 C-114.02726722 133.26325911 -114.02726722 133.26325911 -112.16796875 131.359375 C-110.62443587 128.24133534 -109.90624723 125.065693 -109.1875 121.6875 C-106.16316889 108.80109207 -101.13915346 97.45962857 -94.16357422 86.25244141 C-92.0795043 82.75047519 -91.02238088 80.58190284 -90.86328125 76.4453125 C-92.5807589 71.2397617 -95.78051649 67.61537265 -99.2265625 63.4296875 C-99.7215625 62.800625 -100.2165625 62.1715625 -100.7265625 61.5234375 C-101.18627441 60.96575684 -101.64598633 60.40807617 -102.11962891 59.83349609 C-103.39859063 57.1698792 -102.94731681 55.76050929 -102 53 C-100.3894043 50.88769531 -100.3894043 50.88769531 -98.32421875 48.828125 C-97.57849609 48.08175781 -96.83277344 47.33539063 -96.06445312 46.56640625 C-95.28005859 45.80199219 -94.49566406 45.03757813 -93.6875 44.25 C-92.91470703 43.47011719 -92.14191406 42.69023437 -91.34570312 41.88671875 C-84.65790897 35.27368067 -84.65790897 35.27368067 -81 35 C-78.48237598 36.51880002 -76.25574473 38.03349392 -73.9375 39.8125 C-72.69667379 40.73575666 -71.45579039 41.65893647 -70.21484375 42.58203125 C-69.66948975 42.99686768 -69.12413574 43.4117041 -68.56225586 43.83911133 C-64.68255579 46.7220577 -62.83446668 47.59579695 -58 47 C-55.10473506 45.71847697 -52.45167107 44.08179037 -49.75 42.4375 C-37.15152487 35.12242367 -24.16345749 30.13396103 -9.94140625 27.01953125 C-7.02608064 26.20445632 -7.02608064 26.20445632 -5.19140625 24.484375 C-3.34197878 20.62786395 -2.93128372 16.65071706 -2.375 12.4375 C-2.13491984 10.72756738 -1.89281632 9.01791731 -1.6484375 7.30859375 C-1.49640869 6.17635376 -1.49640869 6.17635376 -1.34130859 5.02124023 C-1 3 -1 3 0 0 Z M-65 76 C-66.10601562 77.06734375 -66.10601562 77.06734375 -67.234375 78.15625 C-88.64873389 100.32998332 -96.68297133 130.25880175 -96.27734375 160.3203125 C-95.47199598 184.11212883 -84.6874208 208.39552777 -69 226 C-68.30261719 226.84046875 -67.60523438 227.6809375 -66.88671875 228.546875 C-50.44842496 247.90018616 -24.29564877 261.67467868 1 264 C36.11082193 265.73556127 65.35635407 257.83273506 91.7421875 234.1015625 C108.05234598 218.89717748 118.51515558 198.44326109 124 177 C124.22558594 176.12085938 124.45117188 175.24171875 124.68359375 174.3359375 C126.12993169 167.41346486 126.20275831 160.48213626 126.25 153.4375 C126.26401855 152.00108154 126.26401855 152.00108154 126.27832031 150.53564453 C126.15459878 122.74112695 114.11605777 97.50319173 96 77 C95.38898438 76.30519531 94.77796875 75.61039063 94.1484375 74.89453125 C80.83210288 60.69988519 62.55917829 51.194147 44 46 C43.14704346 45.73888428 42.29408691 45.47776855 41.4152832 45.20874023 C33.07360981 42.83911381 25.1978524 42.58203649 16.5625 42.6875 C15.24701172 42.68427734 13.93152344 42.68105469 12.57617188 42.67773438 C-18.12199348 42.84481989 -43.08521935 54.81087434 -65 76 Z " fill="#9C9C9C" transform="translate(241,188)"/>
<path d="M0 0 C26.9030967 -0.06768555 53.80612461 -0.1229635 80.70928478 -0.15543652 C93.20050794 -0.17091416 105.6916745 -0.19202086 118.18286133 -0.22631836 C129.06848653 -0.2561932 139.95407075 -0.27556847 150.83973581 -0.28226548 C156.60514004 -0.28618097 162.37042699 -0.29540165 168.13579369 -0.31719017 C173.56036049 -0.33752499 178.9847615 -0.34383985 184.40936279 -0.33932304 C186.40200514 -0.34014959 188.39465292 -0.34613304 190.38726234 -0.35761642 C193.10511525 -0.37251345 195.82233986 -0.36896377 198.54020691 -0.36076355 C199.72650004 -0.37387134 199.72650004 -0.37387134 200.9367587 -0.38724393 C205.46100592 -0.35027633 208.41210425 0.17300791 212 3 C213.25629253 5.51258507 213.15830141 7.31867004 213.2109375 10.12890625 C213.23929688 11.16466797 213.26765625 12.20042969 213.296875 13.26757812 C213.34830625 15.436691 213.3927614 17.60598234 213.4296875 19.77539062 C213.67323385 28.00015389 214.45630385 35.95509239 220.1875 42.3125 C220.71730469 42.92738281 221.24710938 43.54226562 221.79296875 44.17578125 C228.19980058 49.4713396 234.14760809 50.58673744 242.30114746 50.51898193 C243.81823138 50.53023381 243.81823138 50.53023381 245.36596346 50.541713 C248.74093125 50.56194583 252.11522441 50.55389583 255.49023438 50.54589844 C257.91503563 50.5546358 260.33983112 50.56512215 262.76461792 50.57722473 C267.97778687 50.59931873 273.19082793 50.60928728 278.40403748 50.60811615 C285.94134363 50.60644405 293.47846506 50.6268106 301.01572186 50.65247145 C313.2458238 50.69351456 325.47589242 50.71685572 337.70605469 50.72900391 C349.58304037 50.74083933 361.45996337 50.76104942 373.33691406 50.79248047 C374.06961319 50.79441657 374.80231231 50.79635267 375.55721444 50.79834744 C379.23313127 50.8081123 382.90904763 50.81804136 386.5849638 50.82805204 C417.05661441 50.91082375 447.52825543 50.9645453 478 51 C478 56.94 478 62.88 478 69 C320.26 69 162.52 69 0 69 C0 46.23 0 23.46 0 0 Z " fill="#01A7F2" transform="translate(17,51)"/>
<path d="M0 0 C0.98097656 0.35191406 1.96195312 0.70382812 2.97265625 1.06640625 C10.08351238 3.79028667 16.01105712 7.32272712 22 12 C23.03060547 12.76570313 23.03060547 12.76570313 24.08203125 13.546875 C33.35137295 20.933096 39.94376293 31.99248608 44 43 C44.31839844 43.85078125 44.63679687 44.7015625 44.96484375 45.578125 C50.47876115 63.36495532 47.39398978 81.54267715 39.58203125 97.984375 C36.0097842 104.42842849 31.13342194 109.7601859 26 115 C25.40832031 115.62777344 24.81664062 116.25554687 24.20703125 116.90234375 C20.03446002 120.96438329 15.33278992 123.62100215 10.1875 126.25 C9.54804443 126.5795166 8.90858887 126.9090332 8.24975586 127.24853516 C-1.23360301 131.87485246 -10.43490104 133.52312544 -20.9375 133.375 C-21.99509521 133.36339844 -23.05269043 133.35179687 -24.14233398 133.33984375 C-42.06467814 132.96349251 -56.7585569 126.32432822 -69.4140625 113.71875 C-82.68134872 99.77006237 -89.60458544 83.43664269 -89.33862305 64.1784668 C-89.16109693 58.28403606 -88.69570681 52.67368567 -87 47 C-86.80535156 46.27296875 -86.61070312 45.5459375 -86.41015625 44.796875 C-81.53144281 28.28430644 -70.10430824 14.19547018 -55.16015625 5.765625 C-38.33623351 -3.25384441 -18.34636812 -7.1267483 0 0 Z " fill="#5F7C8A" transform="translate(277,276)"/>
<path d="M0 0 C18.59072633 15.24556115 31.09587554 34.03991081 38 57 C38.49113281 58.59908203 38.49113281 58.59908203 38.9921875 60.23046875 C43.92983655 77.27711428 43.80278598 96.95374824 39 114 C38.80664062 114.69367676 38.61328125 115.38735352 38.4140625 116.10205078 C33.69259064 132.62355918 26.54162486 147.16671316 15 160 C14.38898438 160.7528125 13.77796875 161.505625 13.1484375 162.28125 C-3.25907438 182.10990266 -29.58141143 195.27519618 -55 198 C-69.41181202 198.91219334 -84.04474145 199.07542949 -98 195 C-98.98871094 194.73316406 -99.97742188 194.46632813 -100.99609375 194.19140625 C-130.03015629 185.51588956 -153.50277289 165.05912289 -167.875 138.6875 C-172.47780122 129.8623958 -175.43699365 120.58977987 -178 111 C-178.26683594 110.05253906 -178.53367188 109.10507812 -178.80859375 108.12890625 C-181.94418098 94.61344406 -180.91887722 78.43784985 -178 65 C-177.80535156 64.03578125 -177.61070312 63.0715625 -177.41015625 62.078125 C-173.17692402 43.14129916 -163.92825619 26.37984987 -151 12 C-150.32710937 11.24460937 -149.65421875 10.48921875 -148.9609375 9.7109375 C-110.2782024 -31.28986413 -43.78179488 -34.48796118 0 0 Z M-134 19 C-134.63808594 19.55300781 -135.27617187 20.10601562 -135.93359375 20.67578125 C-147.21797716 31.17833671 -156.09407361 47.16239284 -160 62 C-160.27714844 62.96421875 -160.55429688 63.9284375 -160.83984375 64.921875 C-167.03099638 89.22999502 -161.98761232 114.91532234 -149.63671875 136.47265625 C-146.75360539 140.92462366 -143.4162995 144.95211572 -140 149 C-139.236875 150.010625 -138.47375 151.02125 -137.6875 152.0625 C-122.1369619 169.05959978 -99.62111544 179.88364612 -76.67749023 181.12573242 C-58.18043339 181.73914042 -42.55664076 179.42331926 -26 171 C-24.92878906 170.46375 -23.85757813 169.9275 -22.75390625 169.375 C-14.70760039 165.02225197 -8.49317853 159.33226886 -2 153 C-1.34257812 152.41605469 -0.68515625 151.83210937 -0.0078125 151.23046875 C14.89271583 137.66892799 23.9213113 114.41896268 25.14160156 94.71337891 C26.43039179 66.91774755 18.2784245 43.56177376 -0.3125 22.75 C-14.69842915 7.30336874 -37.17693657 -5.12325207 -58.63647461 -6.12280273 C-88.35885297 -6.93115708 -111.35227384 -0.77738065 -134 19 Z " fill="#020202" transform="translate(325,254)"/>
<path d="M0 0 C0.98097656 0.35191406 1.96195312 0.70382812 2.97265625 1.06640625 C10.08351238 3.79028667 16.01105712 7.32272712 22 12 C23.03060547 12.76570313 23.03060547 12.76570313 24.08203125 13.546875 C33.35137295 20.933096 39.94376293 31.99248608 44 43 C44.31839844 43.85078125 44.63679687 44.7015625 44.96484375 45.578125 C50.47876115 63.36495532 47.39398978 81.54267715 39.58203125 97.984375 C36.0097842 104.42842849 31.13342194 109.7601859 26 115 C25.40832031 115.62777344 24.81664062 116.25554687 24.20703125 116.90234375 C20.03446002 120.96438329 15.33278992 123.62100215 10.1875 126.25 C9.54804443 126.5795166 8.90858887 126.9090332 8.24975586 127.24853516 C-1.23360301 131.87485246 -10.43490104 133.52312544 -20.9375 133.375 C-21.99509521 133.36339844 -23.05269043 133.35179687 -24.14233398 133.33984375 C-42.06467814 132.96349251 -56.7585569 126.32432822 -69.4140625 113.71875 C-82.68134872 99.77006237 -89.60458544 83.43664269 -89.33862305 64.1784668 C-89.16109693 58.28403606 -88.69570681 52.67368567 -87 47 C-86.80535156 46.27296875 -86.61070312 45.5459375 -86.41015625 44.796875 C-81.53144281 28.28430644 -70.10430824 14.19547018 -55.16015625 5.765625 C-38.33623351 -3.25384441 -18.34636812 -7.1267483 0 0 Z M-60.09765625 31.48046875 C-69.95858776 45.06620541 -73.97070558 58.36751109 -71.6875 75.3203125 C-71.25080404 77.24645361 -70.62455768 79.12632697 -70 81 C-69.74347656 81.78761719 -69.48695313 82.57523437 -69.22265625 83.38671875 C-63.97708592 98.08782358 -52.76146978 107.07229347 -39.13671875 113.65234375 C-28.58235752 118.18690741 -13.45601909 117.84808182 -2.75 113.9375 C11.39908137 107.38015811 22.03511259 97.346974 27.8125 82.75 C32.19839841 68.8997945 31.11816082 54.11012042 24.57421875 41.18359375 C16.7296905 27.58235742 5.14033735 18.67442103 -10.11328125 14.5078125 C-28.4855866 11.27587787 -47.7922153 16.92934211 -60.09765625 31.48046875 Z " fill="#010102" transform="translate(277,276)"/>
<path d="M0 0 C157.74 0 315.48 0 478 0 C478.0825 47.14875 478.165 94.2975 478.25 142.875 C478.28641602 157.76737793 478.32283203 172.65975586 478.36035156 188.00341797 C478.37841797 206.17602539 478.37841797 206.17602539 478.3817749 214.68093872 C478.38550446 220.62639695 478.40017458 226.57170478 478.42230225 232.51712036 C478.44779413 239.37661726 478.45933667 246.23596994 478.4537798 253.09551454 C478.45137382 256.60325315 478.4551436 260.11066957 478.47686052 263.61834884 C478.49677333 267.37976939 478.49195421 271.14038569 478.48101807 274.90182495 C478.49266872 275.98908434 478.50431938 277.07634373 478.51632309 278.19655037 C478.45371986 286.21474181 476.96842826 293.19155762 471.95703125 299.62109375 C470.89548828 300.52021484 470.89548828 300.52021484 469.8125 301.4375 C469.11769531 302.05496094 468.42289062 302.67242187 467.70703125 303.30859375 C458.20752507 309.24407164 447.94794386 308.39029993 437.18359375 308.29296875 C435.35800019 308.28736577 433.53240208 308.28309899 431.70680237 308.28010559 C426.92771711 308.26871206 422.14891021 308.23929279 417.36993408 308.20599365 C412.48298913 308.17517371 407.59599873 308.16157488 402.70898438 308.14648438 C393.13920137 308.11441731 383.56962393 308.06328819 374 308 C374 307.67 374 307.34 374 307 C375.42700729 307.01118614 375.42700729 307.01118614 376.88284302 307.02259827 C385.85808692 307.08707834 394.83234416 307.10417986 403.80778694 307.07515812 C408.42212959 307.06175348 413.03521094 307.06491259 417.64941406 307.10620117 C422.10450721 307.14545205 426.55761307 307.14083286 431.01272202 307.10607719 C432.7103475 307.10048771 434.40810089 307.11058059 436.1055336 307.13676643 C445.17556081 307.55387029 445.17556081 307.55387029 453.30413818 304.30978394 C459.61279466 295.65896915 460.44521066 284.17944744 460.39872742 273.85749817 C460.40536911 272.68709488 460.4120108 271.51669159 460.41885376 270.31082153 C460.43418543 267.08746876 460.43631037 263.86442929 460.43271695 260.6410525 C460.43212384 257.1021886 460.44895195 253.56339765 460.46350574 250.02456951 C460.48913529 243.16734405 460.49957422 236.31018092 460.50458832 229.45291276 C460.51105631 221.51457322 460.53661634 213.57636936 460.56213379 205.63806152 C460.62008784 184.69624618 460.65222338 163.75436582 460.6875 142.8125 C460.790625 96.014375 460.89375 49.21625 461 1 C308.87 1 156.74 1 0 1 C0 0.67 0 0.34 0 0 Z " fill="#C5CED1" transform="translate(17,136)"/>
<path d="M0 0 C4.53421884 2.39433412 7.82973714 6.06897017 11.43310547 9.66333008 C12.22974609 10.42323242 13.02638672 11.18313477 13.84716797 11.96606445 C14.59482422 12.70791992 15.34248047 13.44977539 16.11279297 14.21411133 C16.79841309 14.88740479 17.4840332 15.56069824 18.19042969 16.25439453 C19.55810547 18.35083008 19.55810547 18.35083008 19.43212891 20.87548828 C18.55708581 23.35371787 17.61637009 25.01989089 16.01904297 27.09301758 C15.27267578 28.10428711 15.27267578 28.10428711 14.51123047 29.13598633 C13.46004641 30.52802462 12.40012334 31.91350702 11.33154297 33.29223633 C8.82718106 36.71616863 7.5800601 38.55607243 7.46044922 42.88598633 C8.75144149 46.96111139 10.52740797 50.28154889 12.74560547 53.91333008 C19.33448003 65.22440558 23.92049276 76.26546768 26.73486328 89.04345703 C27.76404741 93.48819982 27.76404741 93.48819982 30.14404297 97.30004883 C33.8371316 98.90755828 37.58732789 99.4176377 41.55810547 99.97583008 C43.16246446 100.21674021 44.7666385 100.45888604 46.37060547 100.70239258 C47.43214844 100.85442139 47.43214844 100.85442139 48.51513672 101.00952148 C50.55027732 101.34952227 52.55636557 101.8503951 54.55810547 102.35083008 C54.55810547 112.25083008 54.55810547 122.15083008 54.55810547 132.35083008 C46.74071084 134.5843714 46.74071084 134.5843714 43.51513672 135.02661133 C42.49323242 135.18613281 42.49323242 135.18613281 41.45068359 135.34887695 C40.05417763 135.55999194 38.65559095 135.75774104 37.25537109 135.94262695 C33.92664325 136.48421826 31.81891794 137.12658422 29.24560547 139.33911133 C26.93093288 143.47015893 25.89092852 147.65312474 24.74560547 152.22583008 C21.26626327 165.18087518 16.22351765 176.3527118 8.74560547 187.56958008 C7.1098517 191.40068759 7.42371771 193.34635601 8.55810547 197.35083008 C10.21832316 200.24733476 12.16703317 202.88100706 14.18310547 205.53833008 C15.22848778 206.91899964 16.26292058 208.30804818 17.28466797 209.70629883 C17.74437988 210.31111084 18.2040918 210.91592285 18.67773438 211.5390625 C19.55810547 213.35083008 19.55810547 213.35083008 19.30737305 215.43725586 C16.04840721 223.76041462 6.14756586 230.65555534 -0.44189453 236.35083008 C-3.84401752 234.73700251 -6.54513972 232.76479242 -9.44189453 230.35083008 C-8.89919922 229.90352539 -8.35650391 229.4562207 -7.79736328 228.99536133 C-0.70489015 223.14864941 -0.70489015 223.14864941 1.93310547 214.63208008 C1.86995135 209.6705347 -0.35013506 206.97755118 -3.44189453 203.28833008 C-6.42967226 199.69895927 -8.30546839 197.41836463 -8.91064453 192.68286133 C-8.43768067 189.32087652 -7.88760831 187.81240992 -5.94189453 185.10083008 C0.53449303 175.01616944 5.78877015 163.14567229 7.19873047 151.19458008 C7.74936059 146.83741995 8.84313581 142.62308803 9.87451172 138.35864258 C11.42324574 131.54421289 11.74110119 125.13144378 11.74560547 118.16333008 C11.76397461 116.69669922 11.76397461 116.69669922 11.78271484 115.20043945 C11.80179271 105.57883378 10.04564087 96.65357242 7.49560547 87.41333008 C7.15400391 86.16680664 6.81240234 84.9202832 6.46044922 83.63598633 C6.16267578 82.55188477 5.86490234 81.4677832 5.55810547 80.35083008 C4.94555442 78.08481955 4.51548681 75.99704386 4.23388672 73.65942383 C3.33707805 69.26869006 1.60286463 65.47503116 -0.25439453 61.41333008 C-0.59792969 60.64053711 -0.94146484 59.86774414 -1.29541016 59.0715332 C-2.92334044 55.45832208 -4.60599638 52.02356129 -6.70361328 48.65942383 C-8.62583347 45.00072608 -9.1948102 43.3977518 -8.44189453 39.35083008 C-6.62769642 36.02913743 -4.29626772 33.08882435 -1.99658203 30.09301758 C1.48178595 25.28293157 2.46026361 22.30148905 1.55810547 16.35083008 C-0.29177643 13.15871104 -0.29177643 13.15871104 -2.87939453 10.47583008 C-3.70310547 9.5502832 -4.52681641 8.62473633 -5.37548828 7.67114258 C-6.05740234 6.90543945 -6.73931641 6.13973633 -7.44189453 5.35083008 C-7.77189453 4.69083008 -8.10189453 4.03083008 -8.44189453 3.35083008 C-3.14625298 -0.83642138 -3.14625298 -0.83642138 0 0 Z " fill="#9D9D9D" transform="translate(354.44189453125,223.649169921875)"/>
<path d="M0 0 C0.96805573 -0.0071553 1.93611145 -0.01431061 2.9335022 -0.02168274 C6.12932713 -0.03857362 9.32375011 -0.01916411 12.51953125 0.00219727 C14.74243282 0.00136861 16.96533433 -0.00109065 19.18823242 -0.00511169 C23.84540262 -0.00796998 28.50209197 0.00673508 33.15917969 0.03417969 C39.12815682 0.06826197 45.09627407 0.06224424 51.06529236 0.04351711 C55.65498009 0.03294748 60.24446782 0.04188473 64.83413696 0.05690193 C67.03495693 0.06208443 69.23579778 0.06160113 71.43661499 0.05535698 C74.51288755 0.04990541 77.58793009 0.07027907 80.6640625 0.09765625 C81.57330475 0.09113037 82.482547 0.08460449 83.41934204 0.07788086 C87.59262968 0.14101861 89.78172433 0.28870851 93.39916992 2.53944397 C95.33203125 4.63110352 95.33203125 4.63110352 95.92578125 6.63110352 C95.73057568 10.79548901 95.56074316 13.64155545 92.33203125 16.63110352 C89.62458492 17.53358563 88.02936754 17.76349005 85.24649048 17.78500366 C84.00164131 17.79790436 84.00164131 17.79790436 82.73164368 17.81106567 C81.82456161 17.81532562 80.91747955 17.81958557 79.98291016 17.82397461 C78.545895 17.83624084 78.545895 17.83624084 77.07984924 17.84875488 C73.90610378 17.87359053 70.73240291 17.89011826 67.55859375 17.90454102 C66.47536205 17.90986469 65.39213036 17.91518837 64.27607346 17.92067337 C58.54505877 17.9473941 52.81406582 17.96677444 47.08300781 17.98120117 C41.15883147 17.99786695 35.23520948 18.04266437 29.31124306 18.09357262 C24.75936224 18.12719188 20.20761405 18.13877264 15.65562057 18.14442825 C13.47149787 18.15115297 11.28738426 18.16640651 9.10338211 18.19031906 C6.04843842 18.22186519 2.99500456 18.22202324 -0.06005859 18.21459961 C-1.41460899 18.23920761 -1.41460899 18.23920761 -2.79652405 18.26431274 C-7.22555125 18.22021812 -9.09589001 18.06420722 -12.72940063 15.31338501 C-14.66796875 12.63110352 -14.66796875 12.63110352 -15.29296875 9.13110352 C-13.72131596 0.3298479 -7.56506846 -0.09728133 0 0 Z " fill="#000102" transform="translate(57.66796875,76.368896484375)"/>
<path d="M0 0 C4.53421884 2.39433412 7.82973714 6.06897017 11.43310547 9.66333008 C12.22974609 10.42323242 13.02638672 11.18313477 13.84716797 11.96606445 C14.59482422 12.70791992 15.34248047 13.44977539 16.11279297 14.21411133 C16.79841309 14.88740479 17.4840332 15.56069824 18.19042969 16.25439453 C19.55810547 18.35083008 19.55810547 18.35083008 19.43212891 20.87548828 C18.55708581 23.35371787 17.61637009 25.01989089 16.01904297 27.09301758 C15.27267578 28.10428711 15.27267578 28.10428711 14.51123047 29.13598633 C13.46004641 30.52802462 12.40012334 31.91350702 11.33154297 33.29223633 C8.82718106 36.71616863 7.5800601 38.55607243 7.46044922 42.88598633 C8.75143271 46.96108368 10.52734154 50.2816033 12.74560547 53.91333008 C20.13289368 66.5912958 24.61250422 79.03867342 27.55810547 93.35083008 C20.92717253 93.0030958 15.50417746 92.38993354 9.55810547 89.35083008 C9.22810547 90.01083008 8.89810547 90.67083008 8.55810547 91.35083008 C7.88074066 89.31268775 7.21667013 87.27012453 6.55810547 85.22583008 C6.18685547 84.08887695 5.81560547 82.95192383 5.43310547 81.78051758 C4.55810547 78.35083008 4.55810547 78.35083008 4.69873047 75.54223633 C4.48384276 70.6654791 2.36909844 66.78405655 0.30810547 62.41333008 C-0.08763672 61.54514648 -0.48337891 60.67696289 -0.89111328 59.7824707 C-2.6711544 55.92182414 -4.48941927 52.20600037 -6.73876953 48.59692383 C-8.63989204 44.9734541 -9.18810932 43.36173456 -8.44189453 39.35083008 C-6.62769642 36.02913743 -4.29626772 33.08882435 -1.99658203 30.09301758 C1.48178595 25.28293157 2.46026361 22.30148905 1.55810547 16.35083008 C-0.29177643 13.15871104 -0.29177643 13.15871104 -2.87939453 10.47583008 C-3.70310547 9.5502832 -4.52681641 8.62473633 -5.37548828 7.67114258 C-6.05740234 6.90543945 -6.73931641 6.13973633 -7.44189453 5.35083008 C-7.77189453 4.69083008 -8.10189453 4.03083008 -8.44189453 3.35083008 C-3.14625298 -0.83642138 -3.14625298 -0.83642138 0 0 Z " fill="#6F6F6F" transform="translate(354.44189453125,223.649169921875)"/>
<path d="M0 0 C-4.28039125 16.44896604 -9.30522403 30.95783605 -18.8125 45.21875 C-20.44825377 49.04985751 -20.13438775 50.99552594 -19 55 C-17.33978231 57.89650468 -15.3910723 60.53017698 -13.375 63.1875 C-12.32961769 64.56816956 -11.29518488 65.9572181 -10.2734375 67.35546875 C-9.81372559 67.96028076 -9.35401367 68.56509277 -8.88037109 69.18823242 C-8 71 -8 71 -8.25073242 73.08642578 C-11.50969826 81.40958454 -21.41053961 88.30472526 -28 94 C-31.40212299 92.38617243 -34.10324519 90.41396234 -37 88 C-36.45730469 87.55269531 -35.91460937 87.10539062 -35.35546875 86.64453125 C-28.26299562 80.79781933 -28.26299562 80.79781933 -25.625 72.28125 C-25.68815412 67.31970463 -27.90824053 64.6267211 -31 60.9375 C-33.98777773 57.34812919 -35.86357386 55.06753455 -36.46875 50.33203125 C-35.99578614 46.97004645 -35.44571378 45.46157984 -33.5 42.75 C-26.9484764 32.54834182 -21.57285286 20.4733248 -20.3515625 8.34765625 C-19.98160751 5.87717902 -19.23157871 4.15776595 -18 2 C-17.01 2 -16.02 2 -15 2 C-11.92050828 1.24295829 -8.869514 0.4015204 -5.8125 -0.44140625 C-3 -1 -3 -1 0 0 Z " fill="#6F6F6F" transform="translate(382,366)"/>
<path d="M0 0 C7.13512446 -0.66065967 12.0547409 0.99130739 18 5 C23.26587181 9.71364555 27.50045959 15.27851957 28.2624054 22.48016357 C28.34589016 25.38588307 28.33736067 28.277013 28.29296875 31.18359375 C28.28872391 32.23909927 28.28447906 33.2946048 28.28010559 34.38209534 C28.26339049 37.73416271 28.22575088 41.0856161 28.1875 44.4375 C28.17244393 46.71809024 28.15875714 48.99868996 28.14648438 51.27929688 C28.11351034 56.85309907 28.06177702 62.42644564 28 68 C22.39 68 16.78 68 11 68 C10.99589111 66.57848633 10.99178223 65.15697266 10.98754883 63.69238281 C10.96561715 58.36927058 10.91118261 53.04688283 10.84741211 47.72412109 C10.82435399 45.42959589 10.80986531 43.13496668 10.80444336 40.84033203 C10.75921984 24.84511994 10.27346565 12.91521396 0 0 Z " fill="#273491" transform="translate(467,17)"/>
<path d="M0 0 C80.19 0 160.38 0 243 0 C243 5.94 243 11.88 243 18 C85.26 18 -72.48 18 -235 18 C-235 17.67 -235 17.34 -235 17 C-82.87 17 69.26 17 226 17 C226 11.72 226 6.44 226 1 C151.42 1 76.84 1 0 1 C0 0.67 0 0.34 0 0 Z " fill="#015E8C" transform="translate(252,102)"/>
<path d="M0 0 C3.65528434 1.17244969 5.20365975 1.85706281 7.3125 5.0625 C8.06456612 11.07902893 8.06456612 11.07902893 5.6875 14.1875 C5.23375 14.80625 4.78 15.425 4.3125 16.0625 C4.98021183 18.45513407 5.53347385 20.28347385 7.3125 22.0625 C7.81029089 26.37668769 7.77968467 28.39711577 5.25 32 C1.58346589 34.57437502 -0.29156563 34.70190864 -4.6875 34.0625 C-7.125 32.5625 -7.125 32.5625 -8.6875 31.0625 C-9.30625 31.371875 -9.925 31.68125 -10.5625 32 C-14.60304251 34.02027126 -17.05986161 34.53310729 -21.6875 34.0625 C-25.03984564 31.6373989 -26.46634572 30.2174168 -27.25 26.125 C-26.55772451 22.35594454 -24.99115137 20.08604243 -22.6875 17.0625 C-23.3475 16.175625 -24.0075 15.28875 -24.6875 14.375 C-27.52228261 9.6798913 -27.52228261 9.6798913 -26.6875 6.0625 C-24.68169506 3.24183681 -23.19249797 1.34944514 -19.6796875 0.6796875 C-15.86680832 0.58119985 -13.88794414 0.92887057 -10.6875 3.0625 C-10.6875 3.7225 -10.6875 4.3825 -10.6875 5.0625 C-9.1715625 3.7940625 -9.1715625 3.7940625 -7.625 2.5 C-4.65446489 0.3833434 -3.83201118 0.06494934 0 0 Z " fill="#000304" transform="translate(205.6875,67.9375)"/>
<path d="M0 0 C10 1 10 1 18 3 C18 12.9 18 22.8 18 33 C11 35 11 35 0 36 C0 24.12 0 12.24 0 0 Z " fill="#6F6F6F" transform="translate(391,323)"/>
<path d="M0 0 C-0.38686186 3.62883554 -0.81448651 7.25170738 -1.25 10.875 C-1.41435547 12.42380859 -1.41435547 12.42380859 -1.58203125 14.00390625 C-1.70449219 14.99003906 -1.82695312 15.97617187 -1.953125 16.9921875 C-2.05786133 17.90339355 -2.16259766 18.81459961 -2.27050781 19.75341797 C-3 22 -3 22 -4.74023438 23.30078125 C-7.34649918 24.10721409 -9.47511254 24.22703358 -12.203125 24.1953125 C-13.67265625 24.18564453 -13.67265625 24.18564453 -15.171875 24.17578125 C-16.18765625 24.15902344 -17.2034375 24.14226562 -18.25 24.125 C-19.28125 24.11597656 -20.3125 24.10695313 -21.375 24.09765625 C-23.91690287 24.07412011 -26.4583328 24.04124023 -29 24 C-29 23.67 -29 23.34 -29 23 C-26.03 23 -23.06 23 -20 23 C-20.04125 21.845 -20.0825 20.69 -20.125 19.5 C-20.10601235 14.1454832 -19.47954424 9.28096404 -16.5 4.6875 C-11.55671961 1.35078574 -5.91233631 0 0 0 Z " fill="#6F6F6F" transform="translate(275,471)"/>
<path d="M0 0 C2.81256281 -0.02684312 5.62487241 -0.04676188 8.4375 -0.0625 C9.23994141 -0.07087891 10.04238281 -0.07925781 10.86914062 -0.08789062 C12.91295221 -0.0965143 14.95683902 -0.0522815 17 0 C18.54616243 1.54616243 18.43718331 3.22787766 18.75390625 5.3671875 C18.95209961 6.69556641 18.95209961 6.69556641 19.15429688 8.05078125 C19.28900391 8.98277344 19.42371094 9.91476563 19.5625 10.875 C19.70107422 11.79925781 19.83964844 12.72351563 19.98242188 13.67578125 C21 20.58328202 21 20.58328202 21 24 C17.36989024 23.53460131 13.88293815 22.77628934 10.375 21.75 C9.64023437 21.53859375 8.90546875 21.3271875 8.1484375 21.109375 C5.11658547 19.54383686 3.81298501 17.89214276 2 15 C1.40854282 12.30775386 0.99942889 9.90263737 0.75 7.1875 C0.67265625 6.49462891 0.5953125 5.80175781 0.515625 5.08789062 C0.32866043 3.39352419 0.16222073 1.6969142 0 0 Z " fill="#6E6E6E" transform="translate(254,188)"/>
<path d="M0 0 C3.48326597 0.85529699 4.97293913 2.60978164 6.97265625 5.484375 C7.68501311 9.2836116 7.28529613 10.92162321 5.41015625 14.296875 C2.16820644 17.20631713 0.31428893 17.63408647 -4.02734375 17.484375 C-7.46484375 15.484375 -7.46484375 15.484375 -10.02734375 12.484375 C-10.76698898 8.34236169 -10.43573715 6.28414541 -8.52734375 2.546875 C-5.66681763 0.18694095 -3.70334803 -0.24919725 0 0 Z " fill="#020306" transform="translate(454.02734375,42.515625)"/>
<path d="M0 0 C3.79436208 0.99930724 4.98119894 3.22118008 6.97265625 6.51953125 C7.59765625 9.08203125 7.59765625 9.08203125 6.97265625 11.51953125 C4.53515625 14.26953125 4.53515625 14.26953125 1.97265625 16.51953125 C1.64265625 16.84953125 1.31265625 17.17953125 0.97265625 17.51953125 C-2.7274655 17.3100904 -5.31984113 16.97305857 -8.46484375 14.95703125 C-10.69606769 11.4763219 -10.81860447 8.54177326 -10.02734375 4.51953125 C-7.58276926 0.44524043 -4.70748532 -0.23757403 0 0 Z " fill="#020306" transform="translate(420.02734375,42.48046875)"/>
<path d="M0 0 C2.5 1.5 2.5 1.5 4 4 C4.79126072 8.02224201 4.66872394 10.95679065 2.4375 14.4375 C-0.86357636 16.55357459 -3.07466612 17.06886551 -7 17 C-9.98170781 15.03334166 -11.64103498 13.59330089 -12.4453125 10.0234375 C-12.6333015 6.67723326 -12.22201079 4.37001798 -10.5 1.5 C-6.96411027 -0.62153384 -4.02098277 -0.791013 0 0 Z " fill="#010204" transform="translate(388,43)"/>
<path d="M0 0 C1.4650113 4.50371428 -0.13630407 7.58005406 -1.9375 11.75 C-2.22818359 12.44738281 -2.51886719 13.14476562 -2.81835938 13.86328125 C-3.53551703 15.57975695 -4.26643402 17.29047232 -5 19 C-5.99 19 -6.98 19 -8 19 C-6.60121198 14.53202662 -4.86369228 10.36177921 -2.875 6.125 C-2.33617187 4.97257812 -1.79734375 3.82015625 -1.2421875 2.6328125 C-0.62730469 1.32957031 -0.62730469 1.32957031 0 0 Z " fill="#898989" transform="translate(361,377)"/>
<path d="M0 0 C6.85618326 1.92556636 13.43252132 4.2472483 20 7 C20 7.33 20 7.66 20 8 C11.91443171 9.08844189 6.53818037 5.54403536 0 1 C0 0.67 0 0.34 0 0 Z " fill="#6E6E6E" transform="translate(291,218)"/>
<path d="M0 0 C-2.96828999 1.97885999 -5.77447054 3.25864997 -9.0625 4.625 C-10.12597656 5.07101562 -11.18945312 5.51703125 -12.28515625 5.9765625 C-15 7 -15 7 -17 7 C-17 6.34 -17 5.68 -17 5 C-11.18524285 1.72408048 -6.75479274 -0.7342166 0 0 Z " fill="#6C6C6C" transform="translate(310,457)"/>
</svg>
