<?xml version="1.0" encoding="UTF-8"?>
<svg version="1.1" xmlns="http://www.w3.org/2000/svg" width="512" height="512">
<path d="M0 0 C0.70629055 -0.00350607 1.41258111 -0.00701215 2.14027441 -0.01062447 C4.50693661 -0.01992827 6.87335219 -0.01501783 9.24002457 -0.01015663 C10.95399496 -0.01389341 12.66796365 -0.01849504 14.38192964 -0.02388728 C19.09214164 -0.03612934 23.80228268 -0.03585538 28.51250696 -0.03349853 C33.59240598 -0.03309066 38.67228216 -0.04412661 43.75217056 -0.05361366 C53.70495152 -0.07023139 63.65770878 -0.07572356 73.61050245 -0.07683842 C81.70047608 -0.07778855 89.7904419 -0.08189711 97.88041306 -0.08823967 C120.81472332 -0.1058544 143.74901486 -0.11507821 166.68333194 -0.11357872 C168.5381877 -0.11345885 168.5381877 -0.11345885 170.43051529 -0.11333656 C172.28763474 -0.11321392 172.28763474 -0.11321392 174.18227175 -0.1130888 C194.24726503 -0.1122759 214.31218323 -0.13141413 234.3771548 -0.1596133 C254.97752445 -0.18833655 275.5778575 -0.20215389 296.17824769 -0.20042574 C307.74466639 -0.19976164 319.3110064 -0.20526301 330.87740707 -0.22678185 C340.72547917 -0.24498628 350.57343691 -0.24934702 360.42151853 -0.235763 C365.44554023 -0.22922959 370.46934249 -0.2291297 375.49334335 -0.2464695 C380.09514663 -0.26218867 384.69655627 -0.25934831 389.29834989 -0.24190123 C390.96051957 -0.2388288 392.62271854 -0.24247291 394.28485367 -0.25362138 C404.74287309 -0.31910469 413.135725 0.44960882 422.04281998 6.44476891 C428.58240761 13.13298353 433.03606237 20.38260141 433.05008888 29.94511986 C433.05653777 31.06108575 433.06298667 32.17705164 433.06963098 33.32683468 C433.06498517 35.15046237 433.06498517 35.15046237 433.06024551 37.01093102 C433.06477663 38.31039382 433.06930774 39.60985662 433.07397616 40.94869709 C433.08619663 44.54928342 433.08594684 48.14977676 433.08358741 51.75037909 C433.08317901 55.6359198 433.09422038 59.52143079 433.10370255 63.40695763 C433.12030706 71.01621988 433.1258118 78.62545115 433.1269273 86.23473001 C433.12787781 92.41875096 433.13198821 98.60276169 433.13832855 104.7867794 C433.15593759 122.31827575 433.16516767 139.84974763 433.1636676 157.38125288 C433.16358769 158.32614872 433.16350778 159.27104455 433.16342545 160.24457359 C433.16334368 161.19062222 433.16326192 162.13667084 433.16317768 163.11138761 C433.16236434 178.4520622 433.18151505 193.79263871 433.20970218 209.13328493 C433.23841394 224.8836237 433.25224349 240.63391459 433.25051463 256.3842802 C433.24985025 265.22755451 433.25536366 274.07072592 433.27687073 282.91397667 C433.29505983 290.4411413 433.29944843 297.96815637 433.28585188 305.49533343 C433.27931136 309.33612856 433.27924387 313.17663655 433.29655838 317.01740456 C433.3151296 321.17969046 433.30276348 325.34130843 433.2872963 329.5036068 C433.29758342 330.71935859 433.30787055 331.93511038 433.31846941 333.18770313 C433.23255866 343.6114603 433.23255866 343.6114603 428.79281998 348.25726891 C424.33550511 351.99762249 421.26723902 352.75501758 415.50354385 352.73828697 C414.79196275 352.74170467 414.08038164 352.74512237 413.34723747 352.74864364 C410.97467805 352.7552063 408.60326256 352.73327483 406.23080826 352.71137047 C404.5255117 352.71024163 402.82021319 352.71087655 401.11491776 352.71314049 C396.49334873 352.71428716 391.87219578 352.6907854 387.25072336 352.66284466 C382.41808722 352.63782327 377.58544132 352.63548842 372.7527504 352.63074303 C363.60491396 352.61831543 354.45726896 352.5854967 345.30951679 352.54534507 C334.89364156 352.50062068 324.47775714 352.47863863 314.06180978 352.45856333 C292.63870637 352.41676392 271.21577524 352.34641601 249.79281998 352.25726891 C249.98074112 353.18577156 250.16866226 354.11427422 250.36227798 355.07091331 C252.13326353 363.82445009 253.89916089 372.57899992 255.6600914 381.33456516 C256.56554906 385.83576883 257.47279085 390.33659744 258.38412857 394.83661461 C259.26367231 399.17997763 260.13850507 403.52426531 261.01008987 407.86923218 C261.34331796 409.52613953 261.67823755 411.18270763 262.01488113 412.83892441 C262.48636892 415.16003092 262.95180967 417.48227452 263.41586685 419.80487633 C263.55612793 420.48820534 263.69638901 421.17153435 263.84090042 421.8755703 C264.53585874 425.38820823 264.94433593 428.675824 264.79281998 432.25726891 C265.67018814 432.23632164 266.5475563 432.21537437 267.45151138 432.19379234 C270.72798681 432.1253429 274.0036951 432.0753384 277.28061295 432.03754234 C278.69479793 432.01751048 280.10890094 431.99027643 281.52280045 431.95551109 C283.56353416 431.90661402 285.60316687 431.88421768 287.64438248 431.86664391 C288.86979752 431.84569664 290.09521255 431.82474937 291.35776138 431.80316734 C296.58097001 432.49365548 299.60855543 435.01067465 303.16781998 438.75726891 C305.56585573 443.92226899 305.54663533 448.6574977 304.79281998 454.25726891 C302.48440132 459.22924754 299.52610537 461.59957448 294.79281998 464.25726891 C292.04734259 464.63510649 289.71042987 464.79959109 286.9744606 464.76520348 C285.8215591 464.77456342 285.8215591 464.77456342 284.64536667 464.78411245 C282.07961888 464.80001928 279.51482418 464.78744775 276.94906998 464.77484703 C275.10572126 464.78026919 273.26237687 464.78739238 271.41904068 464.79608727 C266.41904436 464.81431235 261.41937842 464.8072564 256.41937637 464.79457092 C251.1851246 464.78443908 245.95090099 464.79383712 240.7166481 464.80011559 C231.92688293 464.80739144 223.13725223 464.79780587 214.34750748 464.77875328 C204.18747812 464.7569847 194.02776984 464.76403611 183.86774826 464.7860589 C175.1423124 464.80421462 166.41697316 464.80677037 157.69152451 464.79630423 C152.48117688 464.79007026 147.27098015 464.78923106 142.06064224 464.80245018 C137.16200109 464.81401051 132.26377364 464.80597949 127.36517715 464.78287315 C125.56808534 464.77758706 123.77095868 464.77909815 121.97388077 464.78792381 C119.51917801 464.79886709 117.06579799 464.78513154 114.61117935 464.76520348 C113.54628658 464.77858781 113.54628658 464.77858781 112.45988083 464.79224253 C107.45974537 464.71359008 104.66587838 463.35086964 100.79281998 460.25726891 C97.16448334 456.43796719 96.4828154 453.37447884 96.29281998 448.25726891 C96.4828154 443.14005897 97.16448334 440.07657063 100.79281998 436.25726891 C105.31846308 432.68615779 108.20045401 431.76851051 113.94125748 431.86664391 C114.59864914 431.8723037 115.2560408 431.87796349 115.93335342 431.88379478 C118.01228189 431.90600615 120.08942161 431.9561647 122.16781998 432.00726891 C123.58576365 432.02735401 125.00373462 432.04560125 126.42172623 432.06195641 C129.87932875 432.10581824 133.33589948 432.17473453 136.79281998 432.25726891 C136.89264175 430.94323082 136.99246353 429.62919273 137.09531021 428.27533531 C137.85293599 420.74527927 139.44523862 413.37505968 140.95297623 405.96820641 C141.265853 404.41316645 141.57830002 402.85803996 141.8903389 401.30283165 C142.70640526 397.24144464 143.52824343 393.18124724 144.35135269 389.12128258 C145.19280167 384.96550089 146.02869894 380.80860307 146.8650856 376.65180016 C148.50227959 368.51919687 150.14558227 360.38784379 151.79281998 352.25726891 C150.90675505 352.26095608 150.02069012 352.26464325 149.10777473 352.26844215 C127.55005236 352.35677106 105.99236116 352.42296778 84.43449593 352.46451759 C74.00927482 352.48514474 63.5841745 352.51326831 53.15903091 352.55902672 C44.07270386 352.59888974 34.98646426 352.62470061 25.90005219 352.63362288 C21.08862298 352.63883853 16.277444 352.65110042 11.46609497 352.68018913 C6.93694208 352.70734974 2.40814238 352.71571259 -2.12108421 352.70969963 C-3.78274264 352.71079958 -5.44441293 352.71874972 -7.1060009 352.73409081 C-9.37706764 352.7540296 -11.64680562 352.74919498 -13.9179039 352.73828697 C-15.18813463 352.74197414 -16.45836536 352.74566132 -17.76708794 352.74946022 C-23.08744894 351.98824935 -25.90639613 349.61985099 -29.55043411 345.80269051 C-32.05839921 340.43566737 -31.75818492 335.38572553 -31.71511459 329.5305233 C-31.72135456 328.23388276 -31.72759452 326.93724222 -31.73402357 325.60130954 C-31.75071176 322.00833004 -31.74247305 318.41577588 -31.7300787 314.82279491 C-31.72102797 310.94534305 -31.73499827 307.0679643 -31.74599838 303.19052696 C-31.76379 295.5959189 -31.7599402 288.00146893 -31.74834782 280.40685466 C-31.73931363 274.23239408 -31.73808944 268.05797779 -31.74244308 261.8835125 C-31.74305602 261.00464779 -31.74366895 260.12578309 -31.74430045 259.22028612 C-31.74557937 257.43482662 -31.74687622 255.64936714 -31.74819082 253.86390767 C-31.75959919 237.11792323 -31.74648029 220.37202636 -31.72498935 203.62605628 C-31.7071306 189.26610407 -31.71021188 174.90628126 -31.7286644 160.54633141 C-31.75008809 143.86640313 -31.7584874 127.1865517 -31.74621534 110.50661159 C-31.74494117 108.72650386 -31.74368369 106.94639612 -31.74244308 105.16628838 C-31.74182598 104.29047836 -31.74120888 103.41466834 -31.74057308 102.51231863 C-31.73712374 96.34935407 -31.74293981 90.18643836 -31.7523613 84.02348137 C-31.76359987 76.50666219 -31.76050281 68.99001002 -31.73923832 61.47320989 C-31.72875087 57.64003153 -31.72456623 53.80713124 -31.73783493 49.97395515 C-31.75201973 45.81304612 -31.73504257 41.65283451 -31.71511459 37.49194908 C-31.72849892 35.68579844 -31.72849892 35.68579844 -31.74215364 33.84315991 C-31.6525859 24.19231293 -29.6324488 15.98596578 -22.91030502 8.78851891 C-16.17000526 2.72843288 -9.07451507 0.01017876 0 0 Z " fill="#E2DED9" transform="translate(55.20718002319336,23.74273109436035)"/>
<path d="M0 0 C12.58061273 9.07389075 19.56803015 22.32327302 26.48046875 35.7890625 C27.31779541 35.64903809 28.15512207 35.50901367 29.01782227 35.36474609 C48.31577497 32.34489352 74.82908962 29.19409549 91.7109375 41.2578125 C99.28533085 47.81225443 104.50958814 54.69701079 105.890625 64.78515625 C106.75464483 82.88526406 96.74198409 99.20188355 85.8125 112.81640625 C83.52613633 115.73084972 81.49354568 118.68383348 79.48046875 121.7890625 C80.62322266 123.13484375 80.62322266 123.13484375 81.7890625 124.5078125 C94.09625419 139.27724261 106.25912131 156.71188947 105.78125 176.70703125 C104.79152035 186.8485467 100.07737344 194.15227215 92.48046875 200.7890625 C76.84130341 211.78658686 53.32120752 210.53127366 35.31542969 207.70947266 C32.02145238 207.1318526 28.75034907 206.49064602 25.48046875 205.7890625 C25.21492187 206.66046875 24.949375 207.531875 24.67578125 208.4296875 C19.59928399 222.69696738 7.86620337 238.1117722 -5.70703125 245.2265625 C-6.96667352 245.77390706 -8.23716545 246.29730782 -9.51953125 246.7890625 C-11.09734375 247.4078125 -11.09734375 247.4078125 -12.70703125 248.0390625 C-24.7074325 250.39979717 -33.90685668 248.4332415 -44.14453125 242.0390625 C-56.34365292 233.44813175 -64.16677668 221.07385017 -70.51953125 207.7890625 C-70.51953125 207.1290625 -70.51953125 206.4690625 -70.51953125 205.7890625 C-71.31875 205.92183594 -72.11796875 206.05460938 -72.94140625 206.19140625 C-92.55990982 209.34602478 -118.77591484 213.4195255 -136.3046875 201.578125 C-144.08461834 195.29380696 -149.66358582 188.04000252 -150.859375 177.91015625 C-151.56833639 156.15922078 -138.55005032 137.29647831 -124.51953125 121.7890625 C-126.05452694 118.29088811 -128.15601284 115.73460213 -130.64453125 112.8515625 C-142.70926531 98.2305766 -152.04269141 81.16455573 -150.51953125 61.7890625 C-148.55479109 52.53619836 -142.51078968 45.27560332 -134.86328125 39.93359375 C-119.45463865 31.36147802 -101.14715138 31.73759915 -84.22265625 34.25390625 C-79.99693173 34.86458585 -75.76492281 35.33972832 -71.51953125 35.7890625 C-70.96265625 34.67789063 -70.40578125 33.56671875 -69.83203125 32.421875 C-65.45604377 23.83412031 -61.06392088 15.95543957 -54.51953125 8.7890625 C-53.9575 8.14710937 -53.39546875 7.50515625 -52.81640625 6.84375 C-48.37180025 2.04606782 -43.29097366 -1.187801 -37.51953125 -4.2109375 C-36.87242187 -4.55382813 -36.2253125 -4.89671875 -35.55859375 -5.25 C-23.4696541 -10.7078757 -10.57738075 -6.65801021 0 0 Z " fill="#235A87" transform="translate(278.51953125,55.2109375)"/>
<path d="M0 0 C153.12 0 306.24 0 464 0 C464 38 464 38 460 44 C455.54268513 47.74035358 452.47441904 48.49774868 446.71072388 48.48101807 C445.99914277 48.48443577 445.28756166 48.48785347 444.55441749 48.49137473 C442.18185807 48.4979374 439.81044258 48.47600592 437.43798828 48.45410156 C435.73269172 48.45297273 434.02739321 48.45360765 432.32209778 48.45587158 C427.70052875 48.45701826 423.0793758 48.4335165 418.45790339 48.40557575 C413.62526724 48.38055436 408.79262134 48.37821951 403.95993042 48.37347412 C394.81209399 48.36104652 385.66444899 48.3282278 376.51669681 48.28807616 C366.10082158 48.24335177 355.68493716 48.22136972 345.2689898 48.20129442 C323.8458864 48.15949501 302.42295526 48.0891471 281 48 C281.18792114 48.92850266 281.37584229 49.85700531 281.56945801 50.81364441 C283.34044355 59.56718119 285.10634091 68.32173101 286.86727142 77.07729626 C287.77272908 81.57849993 288.67997088 86.07932854 289.59130859 90.5793457 C290.47085233 94.92270872 291.34568509 99.2669964 292.2172699 103.61196327 C292.55049799 105.26887062 292.88541757 106.92543872 293.22206116 108.5816555 C293.69354894 110.90276201 294.15898969 113.22500561 294.62304688 115.54760742 C294.76330795 116.23093643 294.90356903 116.91426544 295.04808044 117.61830139 C295.74303877 121.13093932 296.15151595 124.41855509 296 128 C296.87736816 127.97905273 297.75473633 127.95810547 298.65869141 127.93652344 C301.93516683 127.868074 305.21087512 127.81806949 308.48779297 127.78027344 C309.90197795 127.76024157 311.31608097 127.73300752 312.72998047 127.69824219 C314.77071419 127.64934511 316.8103469 127.62694877 318.8515625 127.609375 C320.68968506 127.5779541 320.68968506 127.5779541 322.56494141 127.54589844 C327.78815003 128.23638657 330.81573546 130.75340574 334.375 134.5 C336.77303575 139.66500009 336.75381535 144.4002288 336 150 C333.69158135 154.97197864 330.73328539 157.34230557 326 160 C323.25452261 160.37783759 320.9176099 160.54232218 318.18164062 160.50793457 C317.41303963 160.51417453 316.64443863 160.5204145 315.85254669 160.52684355 C313.2867989 160.54275038 310.7220042 160.53017885 308.15625 160.51757812 C306.31290128 160.52300028 304.46955689 160.53012347 302.6262207 160.53881836 C297.62622438 160.55704345 292.62655845 160.5499875 287.6265564 160.53730202 C282.39230463 160.52717017 277.15808101 160.53656821 271.92382812 160.54284668 C263.13406296 160.55012253 254.34443225 160.54053697 245.5546875 160.52148438 C235.39465814 160.49971579 225.23494986 160.5067672 215.07492828 160.52879 C206.34949242 160.54694572 197.62415318 160.54950146 188.89870453 160.53903532 C183.68835691 160.53280136 178.47816017 160.53196215 173.26782227 160.54518127 C168.36918112 160.5567416 163.47095367 160.54871058 158.57235718 160.52560425 C156.77526537 160.52031815 154.9781387 160.52182924 153.18106079 160.53065491 C150.72635804 160.54159818 148.27297801 160.52786263 145.81835938 160.50793457 C145.10843086 160.51685746 144.39850235 160.52578034 143.66706085 160.53497362 C138.66692539 160.45632118 135.87305841 159.09360074 132 156 C128.37166337 152.18069828 127.68999542 149.11720994 127.5 144 C127.68999542 138.88279006 128.37166337 135.81930172 132 132 C136.5256431 128.42888889 139.40763403 127.51124161 145.1484375 127.609375 C145.80582916 127.61503479 146.46322083 127.62069458 147.14053345 127.62652588 C149.21946191 127.64873725 151.29660163 127.6988958 153.375 127.75 C154.79294368 127.77008511 156.21091465 127.78833235 157.62890625 127.8046875 C161.08650877 127.84854933 164.54307951 127.91746563 168 128 C168.09982178 126.68596191 168.19964355 125.37192383 168.30249023 124.01806641 C169.06011601 116.48801037 170.65241864 109.11779077 172.16015625 101.7109375 C172.47303302 100.15589754 172.78548005 98.60077106 173.09751892 97.04556274 C173.91358528 92.98417573 174.73542345 88.92397833 175.55853271 84.86401367 C176.3999817 80.70823198 177.23587896 76.55133416 178.07226562 72.39453125 C179.70945961 64.26192796 181.35276229 56.13057488 183 48 C182.11393507 48.00368717 181.22787014 48.00737434 180.31495476 48.01117325 C158.75723238 48.09950216 137.19954118 48.16569888 115.64167595 48.20724869 C105.21645485 48.22787583 94.79135452 48.25599941 84.36621094 48.30175781 C75.27988388 48.34162083 66.19364429 48.36743171 57.10723221 48.37635398 C52.295803 48.38156962 47.48462402 48.39383152 42.67327499 48.42292023 C38.1441221 48.45008083 33.61532241 48.45844368 29.08609581 48.45243073 C27.42443739 48.45353067 25.76276709 48.46148082 24.10117912 48.4768219 C21.83011238 48.4967607 19.56037441 48.49192607 17.28927612 48.48101807 C15.38393003 48.48654882 15.38393003 48.48654882 13.44009209 48.49219131 C9.25461661 47.89335424 7.22907834 46.7096795 4 44 C0 38 0 38 0 0 Z " fill="#A5A3A2" transform="translate(24,328)"/>
<path d="M0 0 C32.34 0 64.68 0 98 0 C101.7125 18.4078125 101.7125 18.4078125 105.5 37.1875 C106.6746582 42.99251099 106.6746582 42.99251099 107.87304688 48.91479492 C108.82519531 53.6529541 108.82519531 53.6529541 109.2701416 55.87348938 C109.58086831 57.41946046 109.8934969 58.96505004 110.2076416 60.5103302 C110.68395067 62.85520803 111.15415295 65.20123717 111.62304688 67.54760742 C111.83383503 68.57456238 111.83383503 68.57456238 112.04888153 69.62226391 C112.74354546 73.13357136 113.15145691 76.41995074 113 80 C113.87736816 79.97905273 114.75473633 79.95810547 115.65869141 79.93652344 C118.93516683 79.868074 122.21087512 79.81806949 125.48779297 79.78027344 C126.90197795 79.76024157 128.31608097 79.73300752 129.72998047 79.69824219 C131.77071419 79.64934511 133.8103469 79.62694877 135.8515625 79.609375 C137.68968506 79.5779541 137.68968506 79.5779541 139.56494141 79.54589844 C144.78815003 80.23638657 147.81573546 82.75340574 151.375 86.5 C153.77303575 91.66500009 153.75381535 96.4002288 153 102 C150.69158135 106.97197864 147.73328539 109.34230557 143 112 C140.25452261 112.37783759 137.9176099 112.54232218 135.18164062 112.50793457 C134.41303963 112.51417453 133.64443863 112.5204145 132.85254669 112.52684355 C130.2867989 112.54275038 127.7220042 112.53017885 125.15625 112.51757812 C123.31290128 112.52300028 121.46955689 112.53012347 119.6262207 112.53881836 C114.62622438 112.55704345 109.62655845 112.5499875 104.6265564 112.53730202 C99.39230463 112.52717017 94.15808101 112.53656821 88.92382812 112.54284668 C80.13406296 112.55012253 71.34443225 112.54053697 62.5546875 112.52148438 C52.39465814 112.49971579 42.23494986 112.5067672 32.07492828 112.52879 C23.34949242 112.54694572 14.62415318 112.54950146 5.89870453 112.53903532 C0.68835691 112.53280136 -4.52183983 112.53196215 -9.73217773 112.54518127 C-14.63081888 112.5567416 -19.52904633 112.54871058 -24.42764282 112.52560425 C-26.22473463 112.52031815 -28.0218613 112.52182924 -29.81893921 112.53065491 C-32.27364196 112.54159818 -34.72702199 112.52786263 -37.18164062 112.50793457 C-37.89156914 112.51685746 -38.60149765 112.52578034 -39.33293915 112.53497362 C-44.33307461 112.45632118 -47.12694159 111.09360074 -51 108 C-54.62833663 104.18069828 -55.31000458 101.11720994 -55.5 96 C-55.31000458 90.88279006 -54.62833663 87.81930172 -51 84 C-46.4743569 80.42888889 -43.59236597 79.51124161 -37.8515625 79.609375 C-37.19417084 79.61503479 -36.53677917 79.62069458 -35.85946655 79.62652588 C-33.78053809 79.64873725 -31.70339837 79.6988958 -29.625 79.75 C-28.20705632 79.77008511 -26.78908535 79.78833235 -25.37109375 79.8046875 C-21.91349123 79.84854933 -18.45692049 79.91746563 -15 80 C-14.90017822 78.68596191 -14.80035645 77.37192383 -14.69750977 76.01806641 C-13.93988659 68.4880362 -12.34784054 61.11774972 -10.83984375 53.7109375 C-10.56242737 52.33122423 -10.28544903 50.95142281 -10.00891113 49.5715332 C-8.99039286 44.50495675 -7.96345553 39.44007568 -6.9375 34.375 C-4.648125 23.03125 -2.35875 11.6875 0 0 Z " fill="#C8C5C2" transform="translate(207,376)"/>
<path d="M0 0 C0.6511377 0.33443115 1.30227539 0.6688623 1.97314453 1.01342773 C2.6629541 1.36397217 3.35276367 1.7145166 4.06347656 2.07568359 C11.74838223 6.01628557 19.33541225 10.12302315 26.80761719 14.45336914 C28.54886976 15.44155469 30.32714688 16.36388722 32.10986328 17.27514648 C35.84896451 19.39272593 38.26557486 20.94604433 39.60205078 25.13452148 C39.89672278 28.12227174 39.93702061 31.02023491 39.84423828 34.01928711 C39.77201693 37.17054524 39.81076413 40.31470532 39.84814453 43.46655273 C39.91320847 50.50674558 39.93712154 57.53690743 39.78564453 64.57592773 C39.80369141 65.8662793 39.82173828 67.15663086 39.84033203 68.48608398 C37.02927272 76.72144664 25.71967114 81.16095918 18.53564453 85.13842773 C17.524375 85.70126465 16.51310547 86.26410156 15.47119141 86.84399414 C-5.62628398 98.49226351 -5.62628398 98.49226351 -13.21435547 96.57592773 C-16.95012458 94.98482223 -20.51236213 93.1189869 -24.08935547 91.20092773 C-25.09571045 90.66870605 -26.10206543 90.13648438 -27.13891602 89.58813477 C-48.86192655 77.92835666 -48.86192655 77.92835666 -55.21435547 71.57592773 C-57.48528178 61.35675931 -56.35716852 50.23840358 -56.23388672 39.84350586 C-56.21797043 37.18071122 -56.25703512 34.53368704 -56.33935547 31.87280273 C-56.33935547 28.46228693 -56.17557524 25.83789167 -55.21435547 22.57592773 C-53.31689453 20.7199707 -53.31689453 20.7199707 -50.85498047 19.13061523 C-49.9495752 18.54143311 -49.04416992 17.95225098 -48.11132812 17.34521484 C-43.4049049 14.47083012 -38.65858336 11.69453048 -33.83935547 9.01342773 C-32.83146973 8.45059082 -31.82358398 7.88775391 -30.78515625 7.30786133 C-27.93279459 5.7220901 -25.0747114 4.14722082 -22.21435547 2.57592773 C-21.50730469 2.18324707 -20.80025391 1.79056641 -20.07177734 1.38598633 C-18.42024498 0.47396567 -16.75556792 -0.41415595 -15.08935547 -1.29907227 C-14.24115234 -1.75024414 -13.39294922 -2.20141602 -12.51904297 -2.66625977 C-7.84479592 -4.20321558 -4.22257698 -2.10796101 0 0 Z " fill="#E1DED9" transform="translate(264.21435546875,128.424072265625)"/>
<path d="M0 0 C0.768601 -0.00623996 1.537202 -0.01247993 2.32909393 -0.01890898 C4.89484172 -0.03481581 7.45963642 -0.02224428 10.02539062 -0.00964355 C11.86873935 -0.01506571 13.71208373 -0.0221889 15.55541992 -0.03088379 C20.55541624 -0.04910888 25.55508218 -0.04205293 30.55508423 -0.02936745 C35.789336 -0.0192356 41.02355961 -0.02863364 46.2578125 -0.03491211 C55.04757767 -0.04218796 63.83720837 -0.0326024 72.62695312 -0.0135498 C82.78698248 0.00821878 92.94669076 0.00116737 103.10671234 -0.02085543 C111.8321482 -0.03901115 120.55748745 -0.04156689 129.2829361 -0.03110075 C134.49328372 -0.02486679 139.70348045 -0.02402758 144.91381836 -0.0372467 C149.81245951 -0.04880703 154.71068696 -0.04077601 159.60928345 -0.01766968 C161.40637526 -0.01238358 163.20350192 -0.01389467 165.00057983 -0.02272034 C167.45528259 -0.03366361 169.90866261 -0.01992806 172.36328125 0 C173.07320976 -0.00892289 173.78313828 -0.01784577 174.51457977 -0.02703905 C179.51471523 0.05161339 182.30858222 1.41433383 186.18164062 4.50793457 C189.80997726 8.32723629 190.49164521 11.39072463 190.68164062 16.50793457 C190.49164521 21.62514451 189.80997726 24.68863285 186.18164062 28.50793457 C181.59872912 32.16852961 178.09590311 33.08792081 172.36328125 33.01586914 C171.59468025 33.0221091 170.82607925 33.02834907 170.03418732 33.03477812 C167.46843953 33.05068495 164.90364483 33.03811342 162.33789062 33.0255127 C160.4945419 33.03093485 158.65119752 33.03805804 156.80786133 33.04675293 C151.80786501 33.06497802 146.80819907 33.05792207 141.80819702 33.04523659 C136.57394525 33.03510474 131.33972164 33.04450278 126.10546875 33.05078125 C117.31570358 33.0580571 108.52607288 33.04847154 99.73632812 33.02941895 C89.57629877 33.00765036 79.41659049 33.01470177 69.25656891 33.03672457 C60.53113305 33.05488029 51.8057938 33.05743603 43.08034515 33.04696989 C37.86999753 33.04073593 32.6598008 33.03989672 27.44946289 33.05311584 C22.55082174 33.06467617 17.65259429 33.05664515 12.7539978 33.03353882 C10.95690599 33.02825272 9.15977933 33.02976381 7.36270142 33.03858948 C4.90799866 33.04953275 2.45461864 33.0357972 0 33.01586914 C-0.70992851 33.02479203 -1.41985703 33.03371491 -2.15129852 33.04290819 C-7.15143398 32.96425575 -9.94530097 31.60153531 -13.81835938 28.50793457 C-17.44669601 24.68863285 -18.12836396 21.62514451 -18.31835938 16.50793457 C-18.12836396 11.39072463 -17.44669601 8.32723629 -13.81835938 4.50793457 C-9.23544787 0.84733953 -5.73262186 -0.07205167 0 0 Z " fill="#999896" transform="translate(169.818359375,455.4920654296875)"/>
<path d="M0 0 C12.58061273 9.07389075 19.56803015 22.32327302 26.48046875 35.7890625 C27.31779541 35.64903809 28.15512207 35.50901367 29.01782227 35.36474609 C48.31577497 32.34489352 74.82908962 29.19409549 91.7109375 41.2578125 C99.28533085 47.81225443 104.50958814 54.69701079 105.890625 64.78515625 C106.8231359 84.32006404 95.25336646 101.27507135 83.48046875 115.7890625 C82.14685931 117.45550825 80.81342836 119.12209692 79.48046875 120.7890625 C76.13225977 119.32280394 73.78780516 117.45247803 71.16796875 114.9140625 C70.44996094 114.23601562 69.73195313 113.55796875 68.9921875 112.859375 C67.48046875 110.7890625 67.48046875 110.7890625 67.52734375 108.8046875 C68.71266255 106.2980297 70.21922889 104.50547455 72.04296875 102.4140625 C80.88269525 91.68238015 88.32158288 79.28724299 87.9453125 65.109375 C87.37462679 61.0330485 86.43924816 58.91863886 83.4609375 56.1171875 C75.46772987 50.75685102 66.97822147 49.61151729 57.60546875 49.6640625 C56.35866333 49.66696289 56.35866333 49.66696289 55.08666992 49.66992188 C47.51933613 49.72197576 40.02165867 50.18332913 32.48046875 50.7890625 C32.66222656 51.55984131 32.84398437 52.33062012 33.03125 53.12475586 C33.85791842 56.65637875 34.66928853 60.19135141 35.48046875 63.7265625 C35.76664062 64.93892578 36.0528125 66.15128906 36.34765625 67.40039062 C37.85639373 74.02805884 38.83242442 79.99191854 38.48046875 86.7890625 C36.77159896 85.70657559 35.06340004 84.62302956 33.35546875 83.5390625 C32.40414062 82.93578125 31.4528125 82.3325 30.47265625 81.7109375 C29.48523438 81.07671875 28.4978125 80.4425 27.48046875 79.7890625 C25.90265625 78.94794922 25.90265625 78.94794922 24.29296875 78.08984375 C20.44909699 74.9453431 19.76428181 71.92927988 18.60546875 67.2265625 C18.3940625 66.45892578 18.18265625 65.69128906 17.96484375 64.90039062 C17.13169902 61.79773801 16.48046875 59.01311475 16.48046875 55.7890625 C15.40667969 56.15 14.33289063 56.5109375 13.2265625 56.8828125 C11.79054038 57.35210077 10.3543324 57.8208206 8.91796875 58.2890625 C8.21349609 58.52753906 7.50902344 58.76601562 6.78320312 59.01171875 C0.7642787 60.95330727 -4.02741392 61.87091188 -10.046875 59.2578125 C-11.17222656 58.608125 -12.29757812 57.9584375 -13.45703125 57.2890625 C-14.60042969 56.639375 -15.74382812 55.9896875 -16.921875 55.3203125 C-17.77910156 54.815 -18.63632812 54.3096875 -19.51953125 53.7890625 C-15.04898621 48.12901545 -9.4124909 46.63525354 -2.70703125 44.4765625 C-1.63259766 44.11755859 -0.55816406 43.75855469 0.54882812 43.38867188 C3.18860325 42.50874683 5.83212616 41.64278149 8.48046875 40.7890625 C4.8744513 29.18271796 -2.68467595 17.63669236 -13.51953125 11.6640625 C-18.28326719 9.61300953 -22.4038062 8.58896947 -27.51953125 9.7890625 C-39.14816774 14.51779601 -46.27647287 24.45307043 -51.86962891 35.23046875 C-54.22262936 39.6900952 -54.22262936 39.6900952 -57.51953125 40.7890625 C-60.4375 40.23046875 -60.4375 40.23046875 -63.70703125 39.3515625 C-64.79371094 39.06410156 -65.88039062 38.77664062 -67 38.48046875 C-67.83144531 38.25230469 -68.66289062 38.02414063 -69.51953125 37.7890625 C-70.234375 36.234375 -70.234375 36.234375 -70.51953125 33.7890625 C-69.47809455 31.26706479 -68.40413804 29.03109365 -67.08203125 26.6640625 C-66.53494507 25.66536133 -66.53494507 25.66536133 -65.97680664 24.64648438 C-62.72348072 18.86217287 -58.96130438 13.72636813 -54.51953125 8.7890625 C-53.95621094 8.14453125 -53.39289063 7.5 -52.8125 6.8359375 C-48.36521058 2.04494655 -43.28870894 -1.18898728 -37.51953125 -4.2109375 C-36.87242187 -4.55382813 -36.2253125 -4.89671875 -35.55859375 -5.25 C-23.4696541 -10.7078757 -10.57738075 -6.65801021 0 0 Z " fill="#1E4A6F" transform="translate(278.51953125,55.2109375)"/>
<path d="M0 0 C2.85114555 1.30444568 5.04747746 2.70552431 7.3125 4.875 C7.84488281 5.36742187 8.37726563 5.85984375 8.92578125 6.3671875 C10 8 10 8 9.953125 9.8359375 C8.61363129 12.877247 6.54706992 15.22069452 4.4375 17.75 C-3.95698185 28.1842483 -10.51605181 40.17292474 -10.41015625 53.7578125 C-9.88563548 57.90402434 -8.6950869 59.88166234 -5.6953125 62.70703125 C4.52434815 70.50128856 18.71257398 69.96326795 30.8984375 68.546875 C33.26130841 68.20012246 35.62132445 67.83278471 37.9765625 67.4375 C40.70762772 67.0423071 43.24694612 66.91812479 46 67 C45.73445313 65.90042969 45.46890625 64.80085938 45.1953125 63.66796875 C39.60322685 40.34030332 39.60322685 40.34030332 40 33 C43.06053518 34.57006178 46.03640562 36.25407582 49 38 C49.81210938 38.46148437 50.62421875 38.92296875 51.4609375 39.3984375 C57.99872003 43.67731842 59.62134452 48.32667108 61.44140625 55.79296875 C62 59 62 59 62 63 C63.051875 62.60167969 63.051875 62.60167969 64.125 62.1953125 C65.07375 61.84210938 66.0225 61.48890625 67 61.125 C67.928125 60.77695313 68.85625 60.42890625 69.8125 60.0703125 C70.864375 59.71710938 71.91625 59.36390625 73 59 C73.89525391 58.63720947 73.89525391 58.63720947 74.80859375 58.26708984 C79.14135401 56.76435433 81.70743395 56.94942646 85.9375 58.7734375 C87.63710545 59.61665261 89.32464907 60.48456771 91 61.375 C91.87011719 61.81328125 92.74023438 62.2515625 93.63671875 62.703125 C95.76961586 63.78129277 97.88883673 64.88003809 100 66 C97.64047934 68.71602971 95.47029447 69.79383861 92.10546875 71.0078125 C91.14962891 71.35457031 90.19378906 71.70132813 89.20898438 72.05859375 C88.21189453 72.41050781 87.21480469 72.76242188 86.1875 73.125 C84.70926758 73.66447266 84.70926758 73.66447266 83.20117188 74.21484375 C78.4895412 75.90457564 74.00437451 77.43923817 69 78 C74.56352233 90.26503787 81.48921654 100.44948905 92.875 107.875 C99.11199445 110.120318 104.10988364 109.70737881 110.125 106.9375 C121.32059219 100.72541716 126.95986936 89.87223516 133 79 C138.23880078 79.55145271 142.97350697 80.42922093 148 82 C147.72598217 94.05678465 137.63596486 105.2921249 129.55078125 113.48046875 C124.74897611 117.98813575 120.17162747 121.63333777 114 124 C112.948125 124.4125 111.89625 124.825 110.8125 125.25 C98.81209875 127.61073467 89.61267457 125.644179 79.375 119.25 C67.17587833 110.65906925 59.35275457 98.28478767 53 85 C53 84.34 53 83.68 53 83 C52.20078125 83.13277344 51.4015625 83.26554687 50.578125 83.40234375 C30.95962143 86.55696228 4.74361641 90.630463 -12.78515625 78.7890625 C-20.56508709 72.50474446 -26.14405457 65.25094002 -27.33984375 55.12109375 C-27.95014509 36.39704854 -18.42692385 20.1284969 -7 6 C-4.75250609 3.7365097 -2.56987217 1.89947073 0 0 Z " fill="#1D4A6F" transform="translate(155,178)"/>
<path d="M0 0 C0.60328125 0.40484619 1.2065625 0.80969238 1.828125 1.22680664 C2.62734375 1.76168701 3.4265625 2.29656738 4.25 2.84765625 C5.03890625 3.37625244 5.8278125 3.90484863 6.640625 4.44946289 C8.11053872 5.41546269 9.59795796 6.35593724 11.109375 7.25561523 C13 8.4375 13 8.4375 16 11 C17.2118735 16.44304328 17.120596 21.8915667 17.0625 27.4375 C17.05798828 28.26443359 17.05347656 29.09136719 17.04882812 29.94335938 C17.03715811 31.96227146 17.01922718 33.98114574 17 36 C17.74765625 35.37351563 18.4953125 34.74703125 19.265625 34.1015625 C20.25046875 33.28429687 21.2353125 32.46703125 22.25 31.625 C23.71179688 30.40683594 23.71179688 30.40683594 25.203125 29.1640625 C27.4552682 27.42148243 29.40711386 26.123584 32 25 C33.7021698 26.5675518 35.38640554 28.15459784 37.0625 29.75 C38.00222656 30.63171875 38.94195312 31.5134375 39.91015625 32.421875 C42 35 42 35 42.171875 37.00390625 C40.40039791 40.02132223 37.87222513 42.01825743 35.1875 44.1875 C34.32257935 44.90824707 34.32257935 44.90824707 33.44018555 45.64355469 C30.54553244 48.03058843 27.60795859 50.31387691 24.5390625 52.47265625 C23.47429687 53.22417969 22.40953125 53.97570312 21.3125 54.75 C20.33925781 55.40484375 19.36601562 56.0596875 18.36328125 56.734375 C12.89691899 61.97485452 12.8335918 72.01307077 11.58789062 79.26171875 C10.62598093 84.57329977 9.34668442 89.13280268 7 94 C2.38 93.01 -2.24 92.02 -7 91 C-8.05584567 85.72077163 -7.60859144 83.70058436 -6.0625 78.6875 C-5.49208984 76.80611328 -5.49208984 76.80611328 -4.91015625 74.88671875 C-4.60980469 73.93410156 -4.30945313 72.98148437 -4 72 C-4.82407349 72.49197876 -4.82407349 72.49197876 -5.66479492 72.99389648 C-8.16798114 74.48261272 -10.67760627 75.96012273 -13.1875 77.4375 C-14.48397461 78.2119043 -14.48397461 78.2119043 -15.80664062 79.00195312 C-16.64775391 79.49501953 -17.48886719 79.98808594 -18.35546875 80.49609375 C-19.12528076 80.95169678 -19.89509277 81.4072998 -20.68823242 81.87670898 C-23.93239312 83.45305109 -26.56242656 84.35737314 -30.12817383 83.47094727 C-30.81419678 83.17244873 -31.50021973 82.8739502 -32.20703125 82.56640625 C-32.95791016 82.24736328 -33.70878906 81.92832031 -34.48242188 81.59960938 C-35.25134766 81.25736328 -36.02027344 80.91511719 -36.8125 80.5625 C-37.60076172 80.22412109 -38.38902344 79.88574219 -39.20117188 79.53710938 C-41.13921598 78.70316313 -43.07032833 77.8531404 -45 77 C-45 76.01 -45 75.02 -45 74 C-43.86046875 73.48953125 -42.7209375 72.9790625 -41.546875 72.453125 C-32.45707624 68.30579523 -23.68904145 63.84246145 -15.125 58.6875 C-14.28807617 58.18444336 -13.45115234 57.68138672 -12.58886719 57.16308594 C-10.37071283 55.80649133 -8.18129313 54.41487828 -6 53 C-5.00742187 52.36707031 -4.01484375 51.73414063 -2.9921875 51.08203125 C1.37817401 46.514575 0.13266986 38.1161644 0.09765625 32.12890625 C0.09553383 30.74541237 0.09553383 30.74541237 0.09336853 29.33396912 C0.08780506 26.41011202 0.07525942 23.48633365 0.0625 20.5625 C0.05748028 18.57096465 0.0529182 16.5794281 0.04882812 14.58789062 C0.03784762 9.72523044 0.02060839 4.86262853 0 0 Z " fill="#1D496F" transform="translate(303,151)"/>
<path d="M0 0 C1.93798521 0.30947671 3.87537426 0.62268834 5.8125 0.9375 C7.43091797 1.19853516 7.43091797 1.19853516 9.08203125 1.46484375 C12 2 12 2 15 3 C14.52283086 6.81735312 13.92174994 10.46689561 12.9375 14.1875 C11.84080792 17.99303535 11.84080792 17.99303535 12 22 C12.5347998 21.70230713 13.06959961 21.40461426 13.62060547 21.09790039 C16.03849094 19.75232426 18.45674082 18.40740438 20.875 17.0625 C21.71675781 16.59392578 22.55851562 16.12535156 23.42578125 15.64257812 C24.23144531 15.19462891 25.03710938 14.74667969 25.8671875 14.28515625 C26.61081543 13.87144775 27.35444336 13.45773926 28.12060547 13.03149414 C32.58581159 10.5807932 36.08559023 10.938375 41 12 C45.08717205 13.4831295 49.04869806 15.18815089 53 17 C50.69971958 19.55715746 48.41494875 20.97096709 45.34375 22.49609375 C44.41191895 22.9657959 43.48008789 23.43549805 42.52001953 23.91943359 C41.52341309 24.42039551 40.52680664 24.92135742 39.5 25.4375 C36.36208058 27.06826495 33.23205889 28.71324319 30.10449219 30.36376953 C28.09940912 31.42055364 26.08991119 32.46902239 24.07519531 33.50732422 C21.39217939 34.91089985 18.75794445 36.38005336 16.125 37.875 C15.31740234 38.28290771 14.50980469 38.69081543 13.67773438 39.11108398 C11.23379089 40.55462497 9.6934166 41.71423375 8 44 C6.99831264 47.98561822 6.91045631 51.82871718 6.97045898 55.9274292 C7.00129463 58.09083026 6.98009443 60.24923797 6.94921875 62.41259766 C6.89390377 67.06730378 6.91203477 71.72014804 6.9375 76.375 C6.94253144 77.99739443 6.9470914 79.6197904 6.95117188 81.2421875 C6.96203258 85.16149721 6.97920388 89.08073094 7 93 C2.82671235 90.64309717 -1.09617224 88.34314499 -4.875 85.375 C-5.63554687 84.78460938 -6.39609375 84.19421875 -7.1796875 83.5859375 C-9.39145935 81.65894314 -9.93877774 80.66987781 -10.20532227 77.75341797 C-10.24197998 76.84221191 -10.2786377 75.93100586 -10.31640625 74.9921875 C-10.35830078 74.00605469 -10.40019531 73.01992187 -10.44335938 72.00390625 C-10.48267578 70.97136719 -10.52199219 69.93882812 -10.5625 68.875 C-10.60568359 67.83472656 -10.64886719 66.79445313 -10.69335938 65.72265625 C-10.7996288 63.14857472 -10.90166583 60.57439492 -11 58 C-11.81984375 58.73347656 -12.6396875 59.46695313 -13.484375 60.22265625 C-14.57233873 61.16993501 -15.66091246 62.1165135 -16.75 63.0625 C-17.28882813 63.54783203 -17.82765625 64.03316406 -18.3828125 64.53320312 C-19.984375 65.91015625 -19.984375 65.91015625 -23 68 C-25.390625 67.80859375 -25.390625 67.80859375 -27 67 C-27 66.34 -27 65.68 -27 65 C-27.66 65 -28.32 65 -29 65 C-30.2890625 63.46875 -30.2890625 63.46875 -31.625 61.5 C-32.07101563 60.8503125 -32.51703125 60.200625 -32.9765625 59.53125 C-33.31429687 59.0259375 -33.65203125 58.520625 -34 58 C-30.10824749 53.11368852 -26.54793803 48.72097916 -21.05078125 45.68359375 C-15.14071914 42.29358596 -10.2872182 39.33138859 -7.74121094 32.7421875 C-5.73237529 25.28023691 -4.62339719 17.74816847 -3.55224609 10.10302734 C-2.88134892 6.3333089 -1.76323119 3.37994747 0 0 Z " fill="#1D496F" transform="translate(202,107)"/>
<path d="M0 0 C4.08236738 0.53740171 6.03383676 2.63863062 8.9375 5.4375 C12.03021387 8.35539021 15.06012735 11.11202487 18.50390625 13.60546875 C19.08599854 14.02836182 19.66809082 14.45125488 20.26782227 14.88696289 C21.91835199 16.06664383 23.58384025 17.2253121 25.25 18.3828125 C31.07159544 23.92325134 31.76253824 31.92726431 33.125 39.5625 C33.29386719 40.46935547 33.46273437 41.37621094 33.63671875 42.31054688 C34.53635198 47.19477612 35.33832977 52.07798371 36 57 C-1.22569526 63.73188031 -1.22569526 63.73188031 -13.7734375 55.08984375 C-20.79208526 48.99004104 -20.79208526 48.99004104 -21.2734375 44.3828125 C-21.83327946 26.42480504 -11.18011627 13.10684832 0 0 Z " fill="#E0DCD8" transform="translate(165,188)"/>
<path d="M0 0 C10.0763607 3.83641256 16.16096337 18.50552208 20.50390625 27.6640625 C23.39616386 34.11311733 24.01044417 39.9848671 23 47 C20.14616938 52.33649829 15.70407016 56.02551418 10 58 C-2.03890073 61.17132117 -22.35841029 62.82079485 -34 57 C-33.2173964 51.126439 -32.16977265 45.32038485 -31.0625 39.5 C-30.89298828 38.58863281 -30.72347656 37.67726562 -30.54882812 36.73828125 C-27.72667481 21.86564059 -27.72667481 21.86564059 -22 17.5625 C-21.01644531 16.80582031 -20.03289062 16.04914063 -19.01953125 15.26953125 C-18.02308594 14.52058594 -17.02664063 13.77164063 -16 13 C-14.22448138 11.58920988 -12.45335539 10.17286678 -10.6875 8.75 C-9.87925781 8.10546875 -9.07101562 7.4609375 -8.23828125 6.796875 C-5.46083786 4.56716478 -2.72432581 2.2941691 0 0 Z " fill="#E0DDD8" transform="translate(345,188)"/>
<path d="M0 0 C0.21236589 4.75260227 -0.56139141 8.88837061 -1.8125 13.4375 C-2.95899233 17.61719749 -4.03857167 21.6673555 -4.44140625 25.9921875 C-5.21297714 32.79035266 -6.30307604 37.09222534 -11.60351562 41.44873047 C-14.05540084 43.27197738 -16.56269304 44.99556174 -19.10595703 46.68847656 C-22.19253939 48.82576974 -25.02204118 51.25196268 -27.875 53.6875 C-28.86242187 54.51636719 -29.84984375 55.34523437 -30.8671875 56.19921875 C-31.57101563 56.79347656 -32.27484375 57.38773438 -33 58 C-43.53353667 53.61879448 -49.97500201 38.18875736 -54.703125 28.515625 C-57.20818175 21.72480851 -57.34685725 14.00452771 -54.375 7.375 C-40.92939577 -6.07060423 -17.27276989 -3.58914699 0 0 Z " fill="#E0DDD8" transform="translate(201,106)"/>
<path d="M0 0 C0.94875 0.78375 1.8975 1.5675 2.875 2.375 C6.00304798 6.477358 5.85865583 11.09078185 5.6796875 16.0703125 C3.26127309 30.05263949 -6.79958184 42.67757963 -16 53 C-20.91469593 51.3910745 -23.83527613 48.62173764 -27.47924805 45.0480957 C-29.98933079 42.65110597 -32.04793682 40.97520509 -35.171875 39.359375 C-40.43618512 36.55698105 -43.16080059 34.45460203 -45.09277344 28.80371094 C-47.04403554 21.19874118 -48.37713504 13.51114102 -49.52612305 5.74633789 C-49.85564381 3.04819872 -49.85564381 3.04819872 -51 1 C-51.039992 -0.99960012 -51.04346799 -3.00047242 -51 -5 C-34.98347243 -7.68139176 -13.48246527 -11.23538772 0 0 Z " fill="#E1DDD8" transform="translate(362,111)"/>
<path d="M0 0 C11.53345619 8.3186188 19.75072928 20.93633384 25.48046875 33.7890625 C25.48046875 35.1090625 25.48046875 36.4290625 25.48046875 37.7890625 C20.53046875 38.7790625 15.58046875 39.7690625 10.48046875 40.7890625 C9.79984375 39.6959375 9.11921875 38.6028125 8.41796875 37.4765625 C7.96035156 36.74953125 7.50273437 36.0225 7.03125 35.2734375 C5.95116083 33.54311833 4.88721789 31.80265964 3.8359375 30.0546875 C-1.96042383 20.58162745 -7.75873231 13.56361967 -18.51953125 9.7890625 C-23.87140029 8.58352203 -27.73774073 9.57392597 -32.51953125 12.1640625 C-41.36106052 18.04929096 -47.04859653 25.94086806 -51.86962891 35.23046875 C-54.22262936 39.6900952 -54.22262936 39.6900952 -57.51953125 40.7890625 C-60.4375 40.23046875 -60.4375 40.23046875 -63.70703125 39.3515625 C-64.79371094 39.06410156 -65.88039062 38.77664062 -67 38.48046875 C-67.83144531 38.25230469 -68.66289062 38.02414063 -69.51953125 37.7890625 C-70.234375 36.234375 -70.234375 36.234375 -70.51953125 33.7890625 C-69.47809455 31.26706479 -68.40413804 29.03109365 -67.08203125 26.6640625 C-66.53494507 25.66536133 -66.53494507 25.66536133 -65.97680664 24.64648438 C-62.72348072 18.86217287 -58.96130438 13.72636813 -54.51953125 8.7890625 C-53.95621094 8.14453125 -53.39289063 7.5 -52.8125 6.8359375 C-48.36521058 2.04494655 -43.28870894 -1.18898728 -37.51953125 -4.2109375 C-36.87242187 -4.55382813 -36.2253125 -4.89671875 -35.55859375 -5.25 C-23.4696541 -10.7078757 -10.57738075 -6.65801021 0 0 Z " fill="#173854" transform="translate(278.51953125,55.2109375)"/>
<path d="M0 0 C0.46148437 0.88300781 0.92296875 1.76601563 1.3984375 2.67578125 C7.28225268 13.62651306 14.57242182 25.80624128 27 30 C33.27051821 31.31835984 38.15327377 29.58641765 43.65234375 26.53515625 C53.29409313 20.23031847 58.53551616 9.83607091 64 0 C69.23880078 0.55145271 73.97350697 1.42922093 79 3 C78.72598217 15.05678465 68.63596486 26.2921249 60.55078125 34.48046875 C55.74897611 38.98813575 51.17162747 42.63333777 45 45 C43.4221875 45.61875 43.4221875 45.61875 41.8125 46.25 C29.81209875 48.61073467 20.61267457 46.644179 10.375 40.25 C-0.46067232 32.61924485 -10.40636943 20.52134783 -15 8 C-14.65625 4.671875 -14.65625 4.671875 -14 2 C-12.60582227 1.65980848 -11.20955342 1.32818221 -9.8125 1 C-8.64654297 0.7215625 -8.64654297 0.7215625 -7.45703125 0.4375 C-4.92009775 -0.01422743 -2.57120097 -0.07307143 0 0 Z " fill="#163853" transform="translate(224,257)"/>
<path d="M0 0 C10.72490955 4.79755496 16.74672232 13.22345231 22.49609375 23.14453125 C22.87121094 23.78132813 23.24632812 24.418125 23.6328125 25.07421875 C24.49609375 26.64453125 24.49609375 26.64453125 25.49609375 29.14453125 C25.00109375 30.62953125 25.00109375 30.62953125 24.49609375 32.14453125 C21.87573242 33.38720703 21.87573242 33.38720703 18.4140625 34.58984375 C17.17205078 35.02683594 15.93003906 35.46382812 14.65039062 35.9140625 C13.32815971 36.36598699 12.00589372 36.81780884 10.68359375 37.26953125 C9.37268416 37.72813115 8.06213221 38.18775476 6.75195312 38.6484375 C3.34034448 39.83799995 -0.06982463 41.02148094 -3.50390625 42.14453125 C-4.20201416 42.3856665 -4.90012207 42.62680176 -5.61938477 42.87524414 C-8.17888428 43.24098167 -9.74217685 42.58116754 -12.13671875 41.6328125 C-13.02617187 41.28669922 -13.915625 40.94058594 -14.83203125 40.58398438 C-16.21648437 40.02614258 -16.21648437 40.02614258 -17.62890625 39.45703125 C-18.52867187 39.10447266 -19.4284375 38.75191406 -20.35546875 38.38867188 C-23.07659739 37.31937779 -25.79084768 36.23412275 -28.50390625 35.14453125 C-30.3971071 34.38794998 -32.29033485 33.63143601 -34.18359375 32.875 C-35.62376492 32.29834439 -37.06389546 31.72158724 -38.50390625 31.14453125 C-35.37143567 19.24114306 -26.67696299 8.24891351 -16.50390625 1.51953125 C-10.71101929 -1.61828252 -6.23770448 -2.1311346 0 0 Z " fill="#E0DDD8" transform="translate(262.50390625,64.85546875)"/>
<path d="M0 0 C1.49527222 0.54817383 1.49527222 0.54817383 3.02075195 1.10742188 C4.11581055 1.50574219 5.21086914 1.9040625 6.33911133 2.31445312 C7.46768555 2.73082031 8.59625977 3.1471875 9.7590332 3.57617188 C12.01288776 4.39923012 14.26679169 5.22215316 16.52075195 6.04492188 C17.51421631 6.41037109 18.50768066 6.77582031 19.53125 7.15234375 C21.36846216 7.82048511 23.21692131 8.45796791 25.0715332 9.07617188 C22.05319464 20.54585841 13.65585151 31.76763737 3.6965332 38.13867188 C-1.39878819 41.08473219 -6.11437278 42.00786028 -11.9284668 41.07617188 C-23.35840333 36.20496605 -29.7584091 27.43087265 -35.9284668 17.07617188 C-36.49049805 16.2021875 -37.0525293 15.32820313 -37.6315918 14.42773438 C-38.9284668 12.07617188 -38.9284668 12.07617188 -38.9284668 9.07617188 C-37.67187256 8.62963257 -37.67187256 8.62963257 -36.38989258 8.17407227 C-33.28471133 7.06994553 -30.17993953 5.96468239 -27.07543945 4.85864258 C-25.73120119 4.37999507 -24.3868009 3.90180236 -23.04223633 3.42407227 C-21.11065674 2.73768439 -19.17966398 2.04966804 -17.2487793 1.36132812 C-16.08620605 0.94761963 -14.92363281 0.53391113 -13.72583008 0.10766602 C-8.31385045 -1.88793653 -5.6910069 -1.79531222 0 0 Z " fill="#E0DDD8" transform="translate(262.928466796875,246.923828125)"/>
<path d="M0 0 C5.67476113 1.96434039 9.31400331 5.62800662 12 11 C12.54360446 15.95482094 12.56437074 19.87125852 10.3125 24.375 C6.72054254 28.45235712 3.52833982 31.59004052 -2.05078125 32.23828125 C-7.58896758 32.42001793 -10.64755155 31.74513006 -15 28 C-19.3022759 23.23261319 -20.36282503 19.56252705 -20.28125 13.28125 C-19.69180611 8.50020514 -16.85179203 5.75038822 -13.375 2.6875 C-8.92314854 -0.47565762 -5.3540278 -0.48837416 0 0 Z " fill="#0BC15C" transform="translate(260,160)"/>
<path d="M0 0 C0 16.17 0 32.34 0 49 C-4.36967337 46.50304379 -8.01778565 44.40471508 -11.875 41.375 C-12.63554687 40.78460938 -13.39609375 40.19421875 -14.1796875 39.5859375 C-16 38 -16 38 -17 36 C-17.09939834 33.28116316 -17.13886955 30.59343251 -17.125 27.875 C-17.12886719 27.14023438 -17.13273438 26.40546875 -17.13671875 25.6484375 C-17.13281218 23.42950347 -17.06995056 21.21772817 -17 19 C-17.01063477 18.2977832 -17.02126953 17.59556641 -17.03222656 16.87207031 C-16.92821442 13.87851547 -16.54558346 11.61398496 -14.52783203 9.34326172 C-12.58726894 7.75608058 -10.60031386 6.36809435 -8.5 5 C-7.44619141 4.26716797 -7.44619141 4.26716797 -6.37109375 3.51953125 C-1.25446429 0 -1.25446429 0 0 0 Z " fill="#163753" transform="translate(209,151)"/>
<path d="M0 0 C4.455 2.97 4.455 2.97 9 6 C10.98 7.2065625 10.98 7.2065625 13 8.4375 C16 11 16 11 16.9375 14.1875 C16.958125 15.445625 16.97875 16.70375 17 18 C17.02449219 18.76570313 17.04898437 19.53140625 17.07421875 20.3203125 C17.10867636 22.01138577 17.09938003 23.70380528 17.05078125 25.39453125 C16.95212226 27.98778821 16.95212226 27.98778821 17.23046875 30.51171875 C17.34762957 34.06559681 17.21746864 36.66782539 14.72509766 39.39501953 C10.38727568 43.29597714 5.56122596 47.14625801 0 49 C0 32.83 0 16.66 0 0 Z " fill="#153753" transform="translate(303,151)"/>
<path d="M0 0 C4.57819207 11.17822531 7.63911495 22.85681595 7 35 C5.29113021 33.91751309 3.58293129 32.83396706 1.875 31.75 C0.92367188 31.14671875 -0.02765625 30.5434375 -1.0078125 29.921875 C-1.99523437 29.28765625 -2.98265625 28.6534375 -4 28 C-5.051875 27.43796875 -6.10375 26.8759375 -7.1875 26.296875 C-11.02082173 23.16632892 -11.71359482 20.18539485 -12.875 15.5 C-13.08640625 14.74074219 -13.2978125 13.98148438 -13.515625 13.19921875 C-14.48949024 9.58832882 -15 6.79636812 -15 3 C-13.25183142 2.49363393 -11.50137737 1.99515381 -9.75 1.5 C-8.77546875 1.2215625 -7.8009375 0.943125 -6.796875 0.65625 C-4 0 -4 0 0 0 Z " fill="#163853" transform="translate(310,107)"/>
<path d="M0 0 C1.93798521 0.30947671 3.87537426 0.62268834 5.8125 0.9375 C6.89144531 1.11152344 7.97039062 1.28554687 9.08203125 1.46484375 C12 2 12 2 15 3 C14.67122864 5.33398049 14.33691117 7.66718059 14 10 C13.86464844 11.10859375 13.72929687 12.2171875 13.58984375 13.359375 C12.1394401 20.89799997 10.24235834 24.46047474 4.04711914 28.90332031 C-5.21016506 35 -5.21016506 35 -7 35 C-7.18898368 28.49635463 -6.59376953 22.71599715 -5.1875 16.375 C-5.02185547 15.56804687 -4.85621094 14.76109375 -4.68554688 13.9296875 C-3.61980423 8.97498961 -2.14783436 4.59107287 0 0 Z " fill="#163853" transform="translate(202,107)"/>
<path d="M0 0 C3.06053518 1.57006178 6.03640562 3.25407582 9 5 C10.21816406 5.69222656 10.21816406 5.69222656 11.4609375 6.3984375 C17.9579742 10.65065089 19.644919 15.29682037 21.5390625 22.6953125 C22 26 22 26 21 31 C14.07 32.485 14.07 32.485 7 34 C4.32386346 27.44807949 2.4710474 21.1348906 1.25 14.1875 C1.05893677 13.11254272 1.05893677 13.11254272 0.86401367 12.01586914 C0.19213903 7.97002557 -0.12868855 4.0987303 0 0 Z " fill="#163854" transform="translate(195,211)"/>
<path d="M0 0 C-0.40511701 11.82941664 -2.60212441 23.00531103 -7 34 C-11.62 33.01 -16.24 32.02 -21 31 C-22.40584321 23.97078396 -20.87126586 18.51672121 -18 12 C-15.35785758 8.95894588 -12.45922414 7.02353308 -9 5 C-8.23171875 4.49726563 -7.4634375 3.99453125 -6.671875 3.4765625 C-1.33218232 0 -1.33218232 0 0 0 Z " fill="#163854" transform="translate(317,211)"/>
<path d="M0 0 C5.28 0 10.56 0 16 0 C16 5.28 16 10.56 16 16 C10.72 16 5.44 16 0 16 C0 10.72 0 5.44 0 0 Z " fill="#F4C675" transform="translate(392,280)"/>
<path d="M0 0 C5.28 0 10.56 0 16 0 C16 5.28 16 10.56 16 16 C10.72 16 5.44 16 0 16 C0 10.72 0 5.44 0 0 Z " fill="#F4C675" transform="translate(88,280)"/>
<path d="M0 0 C5.28 0 10.56 0 16 0 C16 5.28 16 10.56 16 16 C10.72 16 5.44 16 0 16 C0 10.72 0 5.44 0 0 Z " fill="#F4C675" transform="translate(104,264)"/>
<path d="M0 0 C5.28 0 10.56 0 16 0 C16 5.28 16 10.56 16 16 C10.72 16 5.44 16 0 16 C0 10.72 0 5.44 0 0 Z " fill="#F4C675" transform="translate(72,264)"/>
<path d="M0 0 C5.28 0 10.56 0 16 0 C16 5.28 16 10.56 16 16 C10.72 16 5.44 16 0 16 C0 10.72 0 5.44 0 0 Z " fill="#F4C675" transform="translate(88,248)"/>
<path d="M0 0 C5.28 0 10.56 0 16 0 C16 5.28 16 10.56 16 16 C10.72 16 5.44 16 0 16 C0 10.72 0 5.44 0 0 Z " fill="#F4C675" transform="translate(408,184)"/>
<path d="M0 0 C5.28 0 10.56 0 16 0 C16 5.28 16 10.56 16 16 C10.72 16 5.44 16 0 16 C0 10.72 0 5.44 0 0 Z " fill="#F4C675" transform="translate(424,168)"/>
<path d="M0 0 C5.28 0 10.56 0 16 0 C16 5.28 16 10.56 16 16 C10.72 16 5.44 16 0 16 C0 10.72 0 5.44 0 0 Z " fill="#F4C675" transform="translate(392,168)"/>
<path d="M0 0 C5.28 0 10.56 0 16 0 C16 5.28 16 10.56 16 16 C10.72 16 5.44 16 0 16 C0 10.72 0 5.44 0 0 Z " fill="#F4C675" transform="translate(408,152)"/>
<path d="M0 0 C5.28 0 10.56 0 16 0 C16 5.28 16 10.56 16 16 C10.72 16 5.44 16 0 16 C0 10.72 0 5.44 0 0 Z " fill="#F4C675" transform="translate(56,144)"/>
<path d="M0 0 C5.28 0 10.56 0 16 0 C16 5.28 16 10.56 16 16 C10.72 16 5.44 16 0 16 C0 10.72 0 5.44 0 0 Z " fill="#F4C675" transform="translate(424,88)"/>
<path d="M0 0 C5.28 0 10.56 0 16 0 C16 5.28 16 10.56 16 16 C10.72 16 5.44 16 0 16 C0 10.72 0 5.44 0 0 Z " fill="#F4C675" transform="translate(440,72)"/>
<path d="M0 0 C5.28 0 10.56 0 16 0 C16 5.28 16 10.56 16 16 C10.72 16 5.44 16 0 16 C0 10.72 0 5.44 0 0 Z " fill="#F4C675" transform="translate(408,72)"/>
<path d="M0 0 C5.28 0 10.56 0 16 0 C16 5.28 16 10.56 16 16 C10.72 16 5.44 16 0 16 C0 10.72 0 5.44 0 0 Z " fill="#F4C675" transform="translate(96,72)"/>
<path d="M0 0 C5.28 0 10.56 0 16 0 C16 5.28 16 10.56 16 16 C10.72 16 5.44 16 0 16 C0 10.72 0 5.44 0 0 Z " fill="#F4C675" transform="translate(424,56)"/>
<path d="M0 0 C0.67493341 2.22667765 1.33963044 4.45645977 2 6.6875 C2.37125 7.92886719 2.7425 9.17023438 3.125 10.44921875 C3.87703457 13.5010019 4.19034899 15.88898362 4 19 C-3.77471824 15.19161657 -11.3959849 11.13572608 -19 7 C-19 6.34 -19 5.68 -19 5 C-16.58570231 4.15919981 -14.16896007 3.32718598 -11.75 2.5 C-10.72712891 2.14228516 -10.72712891 2.14228516 -9.68359375 1.77734375 C-6.23586997 0.60578713 -3.68297096 0 0 0 Z " fill="#D8D6D4" transform="translate(295,111)"/>
<path d="M0 0 C6.17222879 1.24028238 12.06682122 2.89603589 18 5 C16.58824446 9.23526662 13.58271816 10.09880942 9.8125 12 C9.15185547 12.34289062 8.49121094 12.68578125 7.81054688 13.0390625 C3.89353111 15.06523847 -0.05190905 17.03516469 -4 19 C-3.46048934 12.31006781 -2.11293829 6.36539272 0 0 Z " fill="#DBD8D5" transform="translate(217,111)"/>
<path d="M0 0 C0.66 0 1.32 0 2 0 C0.07289294 12.66970387 0.07289294 12.66970387 -2 18 C-7.92863717 16.83348574 -13.38798394 15.24480642 -19 13 C-19 12.34 -19 11.68 -19 11 C-18.18994507 10.55346069 -18.18994507 10.55346069 -17.36352539 10.09790039 C-14.92887423 8.75452698 -12.4956726 7.40854945 -10.0625 6.0625 C-9.21236328 5.59392578 -8.36222656 5.12535156 -7.48632812 4.64257812 C-6.67744141 4.19462891 -5.86855469 3.74667969 -5.03515625 3.28515625 C-3.91185913 2.66459351 -3.91185913 2.66459351 -2.76586914 2.03149414 C-1.03748855 1.1221285 -1.03748855 1.1221285 0 0 Z " fill="#D8D6D4" transform="translate(297,223)"/>
<path d="M0 0 C4.73474097 1.6996506 8.96167111 4.13659027 13.3125 6.625 C14.05306641 7.04523438 14.79363281 7.46546875 15.55664062 7.8984375 C17.37269011 8.92948495 19.18656533 9.96436046 21 11 C18.23123546 13.9886295 15.84099903 14.94957382 11.9375 16.1875 C10.87402344 16.53167969 9.81054688 16.87585938 8.71484375 17.23046875 C6 18 6 18 4 18 C3.32873871 15.5636811 2.66283646 13.12611117 2 10.6875 C1.71382812 9.65206055 1.71382812 9.65206055 1.421875 8.59570312 C0.62283816 5.64212051 0 3.07440781 0 0 Z " fill="#DAD8D5" transform="translate(213,223)"/>
<path d="M0 0 C3.83279025 2.5551935 7.02432214 4.74594399 10.375 7.75 C11.06335938 8.36359375 11.75171875 8.9771875 12.4609375 9.609375 C12.96882813 10.06828125 13.47671875 10.5271875 14 11 C10.33133644 15.5142775 6.66465192 19.50151106 2 23 C1.34 23 0.68 23 0 23 C0 15.41 0 7.82 0 0 Z " fill="#DEDBD7" transform="translate(320,164)"/>
<path d="M0 0 C0 7.59 0 15.18 0 23 C-3.80620672 21.09689664 -6.15036368 19.22992819 -9.25 16.375 C-10.14203125 15.55773437 -11.0340625 14.74046875 -11.953125 13.8984375 C-12.62859375 13.27195313 -13.3040625 12.64546875 -14 12 C-11.38479561 8.5350038 -8.76912969 5.80996782 -5.3125 3.1875 C-4.13107422 2.28064453 -4.13107422 2.28064453 -2.92578125 1.35546875 C-1 0 -1 0 0 0 Z " fill="#DEDBD7" transform="translate(192,164)"/>
</svg>
