<?xml version="1.0" encoding="UTF-8"?>
<svg version="1.1" xmlns="http://www.w3.org/2000/svg" width="512" height="512">
<path d="M0 0 C8.0549638 4.9157702 14.59876514 11.35879541 17.625 20.4375 C17.82362586 22.61954698 17.93749221 24.80982329 18 27 C18.04898437 28.15628906 18.09796875 29.31257813 18.1484375 30.50390625 C16.86186141 40.17242955 11.08701848 46.66017939 4.2265625 53.1484375 C3.03503067 54.31156967 3.03503067 54.31156967 1.81942749 55.49819946 C-0.69185022 57.94889817 -3.21869434 60.38250446 -5.75 62.8125 C-9.10535166 66.03522907 -12.44401755 69.2739505 -15.7734375 72.5234375 C-16.55036957 73.25887787 -17.32730164 73.99431824 -18.1277771 74.75204468 C-18.83246124 75.44021271 -19.53714539 76.12838074 -20.26318359 76.83740234 C-20.88985931 77.43789398 -21.51653503 78.03838562 -22.16220093 78.65707397 C-23.61581064 80.37446126 -23.61581064 80.37446126 -23.13296509 82.55578613 C-22.328975 84.55176103 -21.40070973 86.08892007 -20.125 87.8203125 C-19.6815625 88.43003906 -19.238125 89.03976563 -18.78125 89.66796875 C-18.3171875 90.29316406 -17.853125 90.91835937 -17.375 91.5625 C-12.46233624 98.26282751 -12.46233624 98.26282751 -11.375 100.4375 C-10.9728125 98.8596875 -10.9728125 98.8596875 -10.5625 97.25 C-9.50053785 93.84054258 -8.42090182 91.33586091 -6.375 88.4375 C-3.15190922 86.82595461 0.13935871 86.85196737 3.625 87.4375 C6.125 89.375 6.125 89.375 7.625 92.4375 C8.06190915 100.30995566 6.89234758 107.90981435 5.75 115.6875 C5.57597656 116.94046875 5.40195312 118.1934375 5.22265625 119.484375 C4.96162109 121.29421875 4.96162109 121.29421875 4.6953125 123.140625 C4.53820801 124.23020508 4.38110352 125.31978516 4.21923828 126.44238281 C3.46146284 130.26177027 2.6170237 133.37199306 -0.0625 136.25 C-3.34226936 137.93420589 -5.70786289 137.69857999 -9.375 137.4375 C-11.89585932 136.48743183 -14.11159889 135.52728233 -16.48046875 134.296875 C-17.45020378 133.81169403 -17.45020378 133.81169403 -18.43952942 133.31671143 C-19.79663925 132.63398819 -21.15035217 131.94447428 -22.50073242 131.24853516 C-24.55941855 130.18908579 -26.62889902 129.15367042 -28.70117188 128.12109375 C-30.02413928 127.45190644 -31.34642942 126.78137815 -32.66796875 126.109375 C-33.28157761 125.80191345 -33.89518646 125.4944519 -34.52738953 125.17767334 C-39.17325014 122.76511222 -42.68176033 120.60965097 -44.3125 115.5 C-44.3878328 111.80869268 -43.62074926 110.3248919 -41.375 107.4375 C-37.88695905 105.11213937 -36.47359246 105.10292102 -32.375 105.4375 C-31.055 106.0975 -29.735 106.7575 -28.375 107.4375 C-32.335 101.4975 -32.335 101.4975 -36.375 95.4375 C-39.76234436 97.13117218 -41.48170428 98.27279517 -44.10205078 100.81054688 C-45.17303513 101.84302551 -45.17303513 101.84302551 -46.26565552 102.8963623 C-47.02619232 103.64212524 -47.78672913 104.38788818 -48.5703125 105.15625 C-49.35896698 105.92876099 -50.14762146 106.70127197 -50.96017456 107.49719238 C-52.62569234 109.13506594 -54.28814687 110.77605942 -55.94775391 112.41992188 C-58.48040326 114.91816945 -61.03843183 117.3883997 -63.59765625 119.859375 C-65.21519729 121.45665845 -66.83113619 123.05556631 -68.4453125 124.65625 C-69.20989777 125.38581909 -69.97448303 126.11538818 -70.76223755 126.86706543 C-75.26939668 131.41148971 -77.3018318 134.80772639 -78.04499817 141.21577454 C-78.54666559 144.59323243 -80.26330863 147.18522121 -81.9375 150.125 C-83.82884231 154.29868328 -84.85117555 157.02135128 -83.3125 161.3515625 C-81.60029907 165.19395972 -79.46558775 168.79141541 -77.375 172.4375 C-75.76219462 176.39868077 -74.375 180.1181834 -74.375 184.4375 C-73.70726562 184.54449219 -73.03953125 184.65148437 -72.3515625 184.76171875 C-68.67894706 185.59552777 -65.2451065 186.87448445 -61.75 188.25 C-60.74839844 188.6222168 -60.74839844 188.6222168 -59.7265625 189.00195312 C-55.76764799 190.55780653 -53.37717606 191.66179832 -51.375 195.4375 C-50.90972398 198.56985286 -50.90697191 201.6772992 -50.90625 204.83984375 C-50.89863647 205.75455948 -50.89102295 206.66927521 -50.88317871 207.61170959 C-50.87238507 209.54409051 -50.86952162 211.47652973 -50.87402344 213.40893555 C-50.87499556 216.3615064 -50.83337128 219.31147632 -50.7890625 222.26367188 C-50.78385513 224.14322376 -50.78116731 226.02278466 -50.78125 227.90234375 C-50.76485474 228.78268784 -50.74845947 229.66303192 -50.73156738 230.5700531 C-50.78094317 234.96131882 -50.91957042 236.8488233 -53.68310547 240.42089844 C-55.8311775 242.03010168 -57.56056637 243.28119411 -60.0390625 244.23828125 C-60.68617188 244.49287109 -61.33328125 244.74746094 -62 245.00976562 C-62.66 245.25404297 -63.32 245.49832031 -64 245.75 C-65.00160156 246.14541992 -65.00160156 246.14541992 -66.0234375 246.54882812 C-68.94665411 247.67426652 -71.21751287 248.4375 -74.375 248.4375 C-74.560625 249.5925 -74.74625 250.7475 -74.9375 251.9375 C-76.31957634 258.29911608 -79.13876362 264.06285797 -81.81640625 269.9609375 C-83.38980503 273.31602207 -83.38980503 273.31602207 -84.375 276.4375 C-83.01458583 279.76995869 -81.50966088 282.97086977 -79.91210938 286.19335938 C-77.71564486 290.87355238 -75.94087832 295.27415251 -77.375 300.4375 C-79.31564646 303.5058829 -81.78714298 305.90808031 -84.375 308.4375 C-85.57310303 309.66895752 -85.57310303 309.66895752 -86.79541016 310.92529297 C-89.40294405 313.59926716 -92.04078732 316.23983661 -94.6875 318.875 C-95.59306641 319.78443359 -96.49863281 320.69386719 -97.43164062 321.63085938 C-98.72811523 322.92540039 -98.72811523 322.92540039 -100.05078125 324.24609375 C-100.83364502 325.02782959 -101.61650879 325.80956543 -102.4230957 326.61499023 C-105.55010063 329.53470152 -107.89964967 329.76923539 -112.16357422 329.72216797 C-115.28155721 329.32080253 -117.60941634 328.05201056 -120.36132812 326.59130859 C-126.59657257 323.24066764 -126.59657257 323.24066764 -133.47216797 322.74462891 C-138.12408816 324.31023293 -142.18962677 326.91743373 -146.375 329.4375 C-150.33004856 331.05994395 -154.05902262 332.4375 -158.375 332.4375 C-158.48199219 333.27925781 -158.58898437 334.12101562 -158.69921875 334.98828125 C-159.44611583 338.80047847 -160.67368882 342.04933967 -162.1875 345.625 C-162.68894531 346.83542969 -163.19039062 348.04585938 -163.70703125 349.29296875 C-165.47507993 352.62617528 -166.10855072 353.68449699 -169.375 355.4375 C-172.50703361 355.90432403 -175.61492638 355.90552812 -178.77734375 355.90625 C-179.69205948 355.91386353 -180.60677521 355.92147705 -181.54920959 355.92932129 C-183.48159051 355.94011493 -185.41402973 355.94297838 -187.34643555 355.93847656 C-190.2990064 355.93750444 -193.24897632 355.97912872 -196.20117188 356.0234375 C-198.08072376 356.02864487 -199.96028466 356.03133269 -201.83984375 356.03125 C-202.72018784 356.04764526 -203.60053192 356.06404053 -204.5075531 356.08093262 C-208.89881882 356.03155683 -210.7863233 355.89292958 -214.35839844 353.12939453 C-215.96760168 350.9813225 -217.21869411 349.25193363 -218.17578125 346.7734375 C-218.55766602 345.80277344 -218.55766602 345.80277344 -218.94726562 344.8125 C-219.19154297 344.1525 -219.43582031 343.4925 -219.6875 342.8125 C-220.08291992 341.81089844 -220.08291992 341.81089844 -220.48632812 340.7890625 C-221.61176652 337.86584589 -222.375 335.59498713 -222.375 332.4375 C-223.53 332.251875 -224.685 332.06625 -225.875 331.875 C-232.23661608 330.49292366 -238.00035797 327.67373638 -243.8984375 324.99609375 C-247.25352207 323.42269497 -247.25352207 323.42269497 -250.375 322.4375 C-253.70745869 323.79791417 -256.90836977 325.30283912 -260.13085938 326.90039062 C-264.81105238 329.09685514 -269.21165251 330.87162168 -274.375 329.4375 C-277.4433829 327.49685354 -279.84558031 325.02535702 -282.375 322.4375 C-283.19597168 321.63876465 -284.01694336 320.8400293 -284.86279297 320.01708984 C-287.53676716 317.40955595 -290.17733661 314.77171268 -292.8125 312.125 C-293.72193359 311.21943359 -294.63136719 310.31386719 -295.56835938 309.38085938 C-296.86290039 308.08438477 -296.86290039 308.08438477 -298.18359375 306.76171875 C-298.96532959 305.97885498 -299.74706543 305.19599121 -300.55249023 304.3894043 C-303.47220152 301.26239937 -303.70673539 298.91285033 -303.65966797 294.64892578 C-303.25830253 291.53094279 -301.98951056 289.20308366 -300.52880859 286.45117188 C-297.17816764 280.21592743 -297.17816764 280.21592743 -296.68212891 273.34033203 C-298.24773293 268.68841184 -300.85493373 264.62287323 -303.375 260.4375 C-304.99744395 256.48245144 -306.375 252.75347738 -306.375 248.4375 C-307.37660156 248.27701172 -307.37660156 248.27701172 -308.3984375 248.11328125 C-312.07105294 247.27947223 -315.5048935 246.00051555 -319 244.625 C-320.00160156 244.2527832 -320.00160156 244.2527832 -321.0234375 243.87304688 C-324.98235201 242.31719347 -327.37282394 241.21320168 -329.375 237.4375 C-329.84027602 234.30514714 -329.84302809 231.1977008 -329.84375 228.03515625 C-329.85136353 227.12044052 -329.85897705 226.20572479 -329.86682129 225.26329041 C-329.87761493 223.33090949 -329.88047838 221.39847027 -329.87597656 219.46606445 C-329.87500444 216.5134936 -329.91662872 213.56352368 -329.9609375 210.61132812 C-329.96614487 208.73177624 -329.96883269 206.85221534 -329.96875 204.97265625 C-329.98514526 204.09231216 -330.00154053 203.21196808 -330.01843262 202.3049469 C-329.96905683 197.91368118 -329.83042958 196.0261767 -327.06689453 192.45410156 C-324.9188225 190.84489832 -323.18943363 189.59380589 -320.7109375 188.63671875 C-320.06382812 188.38212891 -319.41671875 188.12753906 -318.75 187.86523438 C-318.09 187.62095703 -317.43 187.37667969 -316.75 187.125 C-316.08226562 186.86138672 -315.41453125 186.59777344 -314.7265625 186.32617188 C-311.80334589 185.20073348 -309.53248713 184.4375 -306.375 184.4375 C-306.189375 183.2825 -306.00375 182.1275 -305.8125 180.9375 C-304.43042366 174.57588392 -301.61123638 168.81214203 -298.93359375 162.9140625 C-297.36019497 159.55897793 -297.36019497 159.55897793 -296.375 156.4375 C-297.73541417 153.10504131 -299.24033912 149.90413023 -300.83789062 146.68164062 C-303.03435514 142.00144762 -304.80912168 137.60084749 -303.375 132.4375 C-301.43435354 129.3691171 -298.96285702 126.96691969 -296.375 124.4375 C-295.57626465 123.61652832 -294.7775293 122.79555664 -293.95458984 121.94970703 C-291.34705595 119.27573284 -288.70921268 116.63516339 -286.0625 114 C-285.15693359 113.09056641 -284.25136719 112.18113281 -283.31835938 111.24414062 C-282.45404297 110.38111328 -281.58972656 109.51808594 -280.69921875 108.62890625 C-279.91635498 107.84717041 -279.13349121 107.06543457 -278.3269043 106.26000977 C-275.19989937 103.34029848 -272.85035033 103.10576461 -268.58642578 103.15283203 C-265.46844279 103.55419747 -263.14058366 104.82298944 -260.38867188 106.28369141 C-254.15342743 109.63433236 -254.15342743 109.63433236 -247.27783203 110.13037109 C-242.62591184 108.56476707 -238.56037323 105.95756627 -234.375 103.4375 C-230.41995144 101.81505605 -226.69097738 100.4375 -222.375 100.4375 C-222.21451172 99.43589844 -222.21451172 99.43589844 -222.05078125 98.4140625 C-221.21697223 94.74144706 -219.93801555 91.3076065 -218.5625 87.8125 C-218.31435547 87.14476563 -218.06621094 86.47703125 -217.81054688 85.7890625 C-216.25370763 81.82763949 -215.15875967 79.43120906 -211.375 77.4375 C-208.15825705 76.97064283 -204.96506771 76.9694706 -201.71875 76.96875 C-200.77946655 76.96113647 -199.84018311 76.95352295 -198.87243652 76.94567871 C-196.88878027 76.93488498 -194.90506723 76.93202165 -192.92138672 76.93652344 C-189.88543178 76.93749666 -186.85199688 76.89584896 -183.81640625 76.8515625 C-181.8880261 76.84635607 -179.95963717 76.8436673 -178.03125 76.84375 C-177.12387085 76.82735474 -176.2164917 76.81095947 -175.28161621 76.79406738 C-168.99646649 76.86306275 -168.99646649 76.86306275 -165.87792969 79.74560547 C-163.50143088 84.00214801 -163.50143088 84.00214801 -162.671875 86.1015625 C-162.4140625 86.74867187 -162.15625 87.39578125 -161.890625 88.0625 C-161.63796875 88.7225 -161.3853125 89.3825 -161.125 90.0625 C-160.7228125 91.06410156 -160.7228125 91.06410156 -160.3125 92.0859375 C-159.16421521 95.01523543 -158.375 97.26393716 -158.375 100.4375 C-156.580625 100.746875 -156.580625 100.746875 -154.75 101.0625 C-148.9598023 102.29602384 -143.81669785 104.84610257 -138.51171875 107.390625 C-135.58609285 108.71596363 -135.58609285 108.71596363 -133.50468445 107.81347656 C-130.69589856 105.99873657 -128.52715866 103.83627261 -126.16333008 101.46875 C-125.6571666 100.96448486 -125.15100311 100.46021973 -124.62950134 99.94067383 C-122.96292312 98.27779104 -121.30363886 96.60783391 -119.64453125 94.9375 C-118.48715589 93.77893222 -117.32941028 92.6207342 -116.17131042 91.46289062 C-113.74822019 89.03823776 -111.32852287 86.61026605 -108.91137695 84.1796875 C-105.80932668 81.06061931 -102.70070576 77.94820292 -99.58975697 74.8380127 C-97.20033205 72.44831624 -94.81351939 70.05602536 -92.42758751 67.6628418 C-91.28188906 66.51395671 -90.13557999 65.36568022 -88.988657 64.21801758 C-87.38939734 62.61659593 -85.79347043 61.01192858 -84.19848633 59.40625 C-83.28899734 58.49294922 -82.37950836 57.57964844 -81.44245911 56.63867188 C-79.3449437 54.61602928 -79.3449437 54.61602928 -78.375 52.4375 C-78.95749512 52.15680664 -79.53999023 51.87611328 -80.14013672 51.58691406 C-82.23474638 50.50963393 -84.16533608 49.3389943 -86.1328125 48.046875 C-86.83664062 47.58724365 -87.54046875 47.1276123 -88.265625 46.65405273 C-89.00296875 46.17009033 -89.7403125 45.68612793 -90.5 45.1875 C-96.1496396 41.49559068 -101.81991169 37.89875804 -107.6875 34.55859375 C-109.375 33.4375 -109.375 33.4375 -110.375 31.4375 C-110.94372038 24.3853673 -110.94372038 24.3853673 -108.875 20.9375 C-105.4306948 18.87091688 -102.26003667 18.97307348 -98.375 19.4375 C-95.12890625 20.765625 -95.12890625 20.765625 -91.9375 22.6875 C-91.35766357 23.03232422 -90.77782715 23.37714844 -90.18041992 23.73242188 C-84.22881486 27.35343268 -78.57157451 31.43497858 -72.97290039 35.57519531 C-72.28703857 36.07631836 -71.60117676 36.57744141 -70.89453125 37.09375 C-70.28714111 37.54556641 -69.67975098 37.99738281 -69.05395508 38.46289062 C-67.26613021 39.68851618 -67.26613021 39.68851618 -64.375 39.4375 C-62.64660094 38.1259553 -62.64660094 38.1259553 -60.94848633 36.30395508 C-59.93646904 35.27707329 -59.93646904 35.27707329 -58.90400696 34.22944641 C-57.81650398 33.10460091 -57.81650398 33.10460091 -56.70703125 31.95703125 C-55.95338791 31.19202805 -55.19974457 30.42702484 -54.42326355 29.63883972 C-51.19323498 26.35974838 -47.98087779 23.06354638 -44.76733398 19.76831055 C-42.42020106 17.36660983 -40.06388551 14.97418692 -37.70703125 12.58203125 C-36.63471001 11.47236748 -36.63471001 11.47236748 -35.54072571 10.34028625 C-26.12918121 0.79366063 -13.63596874 -6.36889558 0 0 Z " fill="#252322" transform="translate(446.375,39.5625)"/>
<path d="M0 0 C1.00023193 0.00523682 2.00046387 0.01047363 3.03100586 0.01586914 C4.1105957 0.0190918 5.19018555 0.02231445 6.30249023 0.02563477 C8.00695312 0.03820312 8.00695312 0.03820312 9.74584961 0.05102539 C11.45611328 0.05779297 11.45611328 0.05779297 13.20092773 0.06469727 C16.02845312 0.07652792 18.85587601 0.09301129 21.68334961 0.11352539 C23.92688471 4.51388227 26.1073041 8.89442678 27.93334961 13.48852539 C28.26850586 14.32125977 28.60366211 15.15399414 28.94897461 16.01196289 C29.68334961 18.11352539 29.68334961 18.11352539 29.68334961 20.11352539 C30.24280273 20.27208008 30.80225586 20.43063477 31.37866211 20.59399414 C38.93186141 22.79195085 46.29527471 25.4201782 53.68334961 28.11352539 C52.69911853 32.12845789 51.5410583 36.08710298 50.37084961 40.05102539 C50.15082275 40.79795654 49.9307959 41.5448877 49.70410156 42.31445312 C47.74927208 48.93041946 45.73389987 55.52656227 43.68334961 62.11352539 C42.66756836 61.70360352 41.65178711 61.29368164 40.60522461 60.87133789 C21.00144411 53.12362139 1.88950039 51.07654434 -18.01977539 59.65649414 C-35.59906983 67.9705111 -48.81150917 81.43843713 -55.67211914 99.72680664 C-61.67356669 118.85777483 -60.4943377 138.1487908 -51.31665039 156.11352539 C-41.44894495 173.29217786 -27.11913943 184.17064041 -8.31665039 190.11352539 C-7.56254883 190.35844727 -6.80844727 190.60336914 -6.03149414 190.85571289 C10.04915423 195.24407675 28.11169812 191.55778014 42.68334961 184.11352539 C59.62105328 174.38422497 71.1426237 159.87749634 76.68334961 141.11352539 C80.93902697 123.77723971 78.92733246 105.9892059 70.68334961 90.11352539 C68.89229946 87.35061643 67.02902001 84.69694609 65.03881836 82.07446289 C63.68334961 80.11352539 63.68334961 80.11352539 63.68334961 78.11352539 C65.55772048 77.52817369 67.43289874 76.94540752 69.30834961 76.36352539 C71.07952148 75.81245117 71.07952148 75.81245117 72.88647461 75.25024414 C75.38464909 74.50233388 77.8954817 73.79527732 80.41772461 73.13305664 C81.61913086 72.81723633 82.82053711 72.50141602 84.05834961 72.17602539 C85.15920898 71.89887695 86.26006836 71.62172852 87.39428711 71.33618164 C91.45621895 69.8262236 94.25338165 67.74895647 97.68334961 65.11352539 C112.68334961 93.00962929 112.68334961 93.00962929 112.68334961 103.11352539 C113.95758789 103.52924805 113.95758789 103.52924805 115.25756836 103.95336914 C118.7028537 105.12013054 122.09893866 106.37549377 125.49584961 107.67602539 C126.63666992 108.11043945 127.77749023 108.54485352 128.95288086 108.99243164 C131.68334961 110.11352539 131.68334961 110.11352539 132.68334961 111.11352539 C132.77061184 112.89423785 132.79034002 114.67835679 132.78100586 116.46118164 C132.7777832 117.54077148 132.77456055 118.62036133 132.77124023 119.73266602 C132.76286133 120.86897461 132.75448242 122.0052832 132.74584961 123.17602539 C132.74133789 124.31620117 132.73682617 125.45637695 132.73217773 126.63110352 C132.72034708 129.4586289 132.70386371 132.28605179 132.68334961 135.11352539 C122.10757324 140.0678411 122.10757324 140.0678411 116.68334961 141.30102539 C114.07503193 142.15045982 113.00388294 142.52938744 111.67163086 144.95727539 C111.19479993 146.61102429 110.7811751 148.28362954 110.41381836 149.96508789 C109.51564481 153.83635996 108.20743879 157.46154519 106.80834961 161.17602539 C106.55077881 161.86970215 106.29320801 162.56337891 106.02783203 163.27807617 C104.2966338 167.82578204 102.29089985 171.97084846 99.56616211 176.02368164 C97.68332443 180.48084163 98.37864092 184.29831924 100.03100586 188.71899414 C100.5969043 189.90106445 101.16280273 191.08313477 101.74584961 192.30102539 C104.7443772 198.57685525 104.7443772 198.57685525 104.45947266 201.08227539 C102.91181688 205.13276172 99.44576676 207.90509858 96.43334961 210.92602539 C95.76432617 211.63178711 95.09530273 212.33754883 94.40600586 213.06469727 C93.74987305 213.72663086 93.09374023 214.38856445 92.41772461 215.07055664 C91.5239209 215.98285034 91.5239209 215.98285034 90.61206055 216.91357422 C88.68334961 218.11352539 88.68334961 218.11352539 86.12915039 217.87817383 C82.2042003 216.65108821 78.54586423 214.89089832 74.81616211 213.17211914 C69.73681006 211.45577948 65.7224223 211.42050729 60.88647461 213.72290039 C59.56226521 214.42430357 58.24468738 215.1383425 56.93334961 215.86352539 C49.54993593 219.75610074 42.17753388 222.74921945 34.18334961 225.17602539 C30.98624194 226.37494077 29.31373804 227.82216081 27.80786133 230.90698242 C27.57856934 231.55521973 27.34927734 232.20345703 27.11303711 232.87133789 C26.85651367 233.5790332 26.59999023 234.28672852 26.33569336 235.01586914 C25.9509082 236.11608398 25.9509082 236.11608398 25.55834961 237.23852539 C22.78807934 245.00879566 22.78807934 245.00879566 21.68334961 246.11352539 C19.90263715 246.20078762 18.11851821 246.2205158 16.33569336 246.21118164 C15.25610352 246.20795898 14.17651367 246.20473633 13.06420898 246.20141602 C11.92790039 246.19303711 10.7915918 246.1846582 9.62084961 246.17602539 C8.48067383 246.17151367 7.34049805 246.16700195 6.16577148 246.16235352 C3.3382461 246.15052287 0.51082321 246.13403949 -2.31665039 246.11352539 C-2.6427832 245.32848633 -2.96891602 244.54344727 -3.30493164 243.73461914 C-4.20806329 241.56337343 -5.12262878 239.39685693 -6.04711914 237.23461914 C-7.31665039 234.11352539 -7.31665039 234.11352539 -7.92993164 231.89868164 C-8.44008468 229.80919129 -8.44008468 229.80919129 -10.31665039 227.11352539 C-13.81849493 225.28449506 -17.55292376 224.27912395 -21.31665039 223.11352539 C-23.8718638 222.15865441 -26.40931078 221.18724784 -28.94165039 220.17602539 C-29.90711792 219.79571167 -29.90711792 219.79571167 -30.89208984 219.40771484 C-34.54015061 217.93923364 -37.89949802 216.2837625 -41.25415039 214.23852539 C-45.30612187 211.93063069 -48.71779259 210.96381094 -53.31665039 212.11352539 C-56.74573488 213.58077789 -60.05778176 215.17139143 -63.36352539 216.89868164 C-66.57865394 218.22130727 -67.19708503 218.29624433 -70.31665039 217.11352539 C-73.15162716 214.94747573 -75.60498513 212.38058033 -78.12915039 209.86352539 C-78.83491211 209.19450195 -79.54067383 208.52547852 -80.26782227 207.83618164 C-81.26072266 206.85198242 -81.26072266 206.85198242 -82.27368164 205.84790039 C-82.88187744 205.25203125 -83.49007324 204.65616211 -84.11669922 204.04223633 C-85.31665039 202.11352539 -85.31665039 202.11352539 -85.08129883 199.55932617 C-83.85421321 195.63437608 -82.09402332 191.97604001 -80.37524414 188.24633789 C-78.65890448 183.16698584 -78.62363229 179.15259808 -80.92602539 174.31665039 C-81.62756576 172.99251367 -82.34160283 171.67493799 -83.06665039 170.36352539 C-87.08863813 162.71874589 -90.70904062 155.22678558 -92.00415039 146.61352539 C-92.8909045 143.10920479 -92.8909045 143.10920479 -95.05102539 142.13305664 C-96.56874576 141.64598681 -98.10533313 141.21530914 -99.65258789 140.83227539 C-104.45272123 139.53722475 -108.82472731 137.21733746 -113.31665039 135.11352539 C-113.31665039 127.19352539 -113.31665039 119.27352539 -113.31665039 111.11352539 C-110.34665039 109.79352539 -107.37665039 108.47352539 -104.31665039 107.11352539 C-103.40012695 106.69586914 -102.48360352 106.27821289 -101.53930664 105.84790039 C-100.82645508 105.52305664 -100.11360352 105.19821289 -99.37915039 104.86352539 C-98.28280273 104.36079102 -98.28280273 104.36079102 -97.16430664 103.84790039 C-95.31665039 103.11352539 -95.31665039 103.11352539 -93.31665039 103.11352539 C-93.16969727 102.49348633 -93.02274414 101.87344727 -92.87133789 101.23461914 C-90.32292542 91.17278371 -86.85346174 81.07784008 -81.44165039 72.17602539 C-79.13375569 68.12405391 -78.16693594 64.71238319 -79.31665039 60.11352539 C-80.78390289 56.6844409 -82.37451643 53.37239402 -84.10180664 50.06665039 C-85.42443227 46.85152184 -85.49936933 46.23309075 -84.31665039 43.11352539 C-82.15060073 40.27854863 -79.58370533 37.82519065 -77.06665039 35.30102539 C-76.39762695 34.59526367 -75.72860352 33.88950195 -75.03930664 33.16235352 C-74.38317383 32.50041992 -73.72704102 31.83848633 -73.05102539 31.15649414 C-72.45515625 30.54829834 -71.85928711 29.94010254 -71.24536133 29.31347656 C-69.31665039 28.11352539 -69.31665039 28.11352539 -66.74658203 28.34887695 C-63.06282537 29.50807778 -59.75349464 31.28986697 -56.32836914 33.05493164 C-50.83589581 34.98548971 -46.88895982 34.77046061 -41.63305664 32.57446289 C-40.37474349 31.89192031 -39.12361364 31.19600514 -37.87915039 30.48852539 C-32.03859496 27.3620035 -26.20337786 24.78261616 -19.94165039 22.61352539 C-19.21018799 22.35877441 -18.47872559 22.10402344 -17.72509766 21.84155273 C-12.62396578 20.11352539 -12.62396578 20.11352539 -10.31665039 20.11352539 C-10.14649414 19.57985352 -9.97633789 19.04618164 -9.80102539 18.49633789 C-3.8462206 0.18848062 -3.8462206 0.18848062 0 0 Z " fill="#FDDF76" transform="translate(246.316650390625,132.886474609375)"/>
<path d="M0 0 C12.36211853 10.71632968 20.23012506 23.28357496 21.48828125 39.796875 C21.93425909 54.08674817 17.34698073 67.40624528 7.95703125 78.23828125 C-3.59618196 90.27368199 -16.33266092 96.75905817 -33.10546875 97.23828125 C-49.18938371 96.91735806 -61.63332277 90.32643891 -72.73046875 78.92578125 C-83.13889213 67.5434703 -87.28097188 54.47893821 -86.9765625 39.22265625 C-85.7941036 23.38146089 -78.05162888 11.44940896 -66.5390625 0.921875 C-47.19275819 -15.10198707 -19.98420183 -15.18113186 0 0 Z " fill="#EAEDEF" transform="translate(288.73046875,213.07421875)"/>
<path d="M0 0 C8.99828447 6.42734605 15.68649476 15.92174664 17.96484375 26.87109375 C19.6412936 40.8568192 17.73810964 52.65449065 9.15625 64 C2.50940619 71.84545499 -5.6089882 77.03739406 -15.75 79.25 C-30.29534256 80.12935173 -42.08187096 78.79665103 -53.75 69.25 C-63.18520341 60.42351939 -67.68750158 49.33463135 -68.125 36.5625 C-67.89432485 23.87536657 -63.67269547 13.83768346 -55.1640625 4.51171875 C-39.93413983 -9.8638424 -17.2857374 -10.59728624 0 0 Z " fill="#242323" transform="translate(280.75,424.75)"/>
<path d="M0 0 C9.80810887 7.00579205 15.41710338 16.63137993 18.25 28.25 C19.52289624 41.54140489 17.2839355 53.39964436 9.0859375 64.10546875 C2.70225147 71.56215732 -6.04318097 77.19021575 -15.75 79.25 C-30.94221941 80.16845925 -42.83418923 78.58494036 -54.75 68.25 C-64.70559783 58.01929065 -68.17044929 47.06995186 -68.0234375 33.015625 C-67.1323661 20.74429888 -61.82710905 10.84857728 -53 2.4375 C-37.79406712 -10.12521408 -16.31268614 -10.00074226 0 0 Z " fill="#242323" transform="translate(280.75,14.75)"/>
<path d="M0 0 C10.70245123 7.14460933 16.79256481 16.91244673 19.890625 29.3046875 C21.08115673 43.5910682 18.42677408 55.56689185 9.1015625 66.75 C4.09468584 72.11071953 -1.04782269 75.60822243 -7.859375 78.3046875 C-9.22449219 78.85189453 -9.22449219 78.85189453 -10.6171875 79.41015625 C-22.34400978 82.6456289 -34.70500491 80.70270022 -45.2421875 75.01953125 C-56.05848883 68.43808688 -61.92047367 59.12139149 -65.859375 47.3046875 C-67.01587033 34.22432651 -66.54982712 22.43873972 -58.609375 11.5546875 C-43.74153938 -6.12256928 -20.53424043 -12.1746726 0 0 Z " fill="#242222" transform="translate(73.859375,213.6953125)"/>
<path d="M0 0 C7.75620357 5.66799492 13.98761074 12.48679488 17.5859375 21.45703125 C17.94300781 22.33746094 18.30007813 23.21789062 18.66796875 24.125 C21.97555046 36.13081787 20.13148344 49.04293558 14.30078125 59.8359375 C8.14396672 69.97152911 -0.90925468 76.75804515 -12.32275391 79.99902344 C-23.46826959 82.43995122 -35.91829221 81.08520258 -45.609375 75.1015625 C-47.65474206 73.65114061 -49.53110879 72.11162674 -51.4140625 70.45703125 C-52.01992188 69.95558594 -52.62578125 69.45414062 -53.25 68.9375 C-61.48487245 61.54769088 -65.63992784 50.94436219 -66.62890625 40.1015625 C-67.07250675 28.94057396 -63.69526885 19.55046672 -57.4140625 10.45703125 C-56.8365625 9.57015625 -56.2590625 8.68328125 -55.6640625 7.76953125 C-41.38156845 -6.90969874 -17.67532802 -11.29733749 0 0 Z " fill="#242222" transform="translate(484.4140625,213.54296875)"/>
<path d="M0 0 C2.84915274 0.17009867 3.98493399 0.4909604 6.5 2 C8.57370538 5.45617564 8.50174791 8.6045956 8 12.5 C6.88118781 15.20018238 5.80544659 17.4094818 4.3125 19.875 C3.91385742 20.5548999 3.51521484 21.2347998 3.10449219 21.93530273 C-12.23861644 47.50618108 -32.88870552 70.91857071 -57 88.5 C-57.6384082 88.96728516 -58.27681641 89.43457031 -58.93457031 89.91601562 C-70.06788213 98.03394107 -70.06788213 98.03394107 -73 99.5 C-71.948125 99.768125 -70.89625 100.03625 -69.8125 100.3125 C-66.40304258 101.37446215 -63.89836091 102.45409818 -61 104.5 C-59.38845461 107.72309078 -59.41446737 111.01435871 -60 114.5 C-61.9375 117 -61.9375 117 -65 118.5 C-72.80506727 118.98989252 -80.43304227 117.80849129 -88.13110352 116.63842773 C-90.32263471 116.31098575 -92.5170712 116.0139258 -94.71289062 115.71679688 C-96.11746606 115.50706543 -97.52177507 115.29554018 -98.92578125 115.08203125 C-100.18817627 114.89874268 -101.45057129 114.7154541 -102.7512207 114.52661133 C-106.74592679 113.26428781 -107.99167433 112.15942682 -110 108.5 C-110.72294858 103.04347835 -109.3345788 99.15997396 -106.859375 94.39453125 C-106.53592102 93.74804123 -106.21246704 93.10155121 -105.87921143 92.43547058 C-105.19648819 91.07836075 -104.50697428 89.72464783 -103.81103516 88.37426758 C-102.75158579 86.31558145 -101.71617042 84.24610098 -100.68359375 82.17382812 C-100.01440644 80.85086072 -99.34387815 79.52857058 -98.671875 78.20703125 C-98.36441345 77.59342239 -98.0569519 76.97981354 -97.74017334 76.34761047 C-95.32761222 71.70174986 -93.17215097 68.19323967 -88.0625 66.5625 C-84.37119268 66.4871672 -82.8873919 67.25425074 -80 69.5 C-77.67463937 72.98804095 -77.66542102 74.40140754 -78 78.5 C-78.62683468 79.85251636 -79.2873585 81.19066264 -80 82.5 C-70.78387999 76.39111522 -62.27540024 69.82298197 -54 62.5 C-53.47486816 62.03803223 -52.94973633 61.57606445 -52.40869141 61.10009766 C-36.08679258 46.67879777 -23.48852748 30.16381839 -12.36425781 11.5065918 C-11.85217773 10.65363525 -11.34009766 9.80067871 -10.8125 8.921875 C-10.36519531 8.16487305 -9.91789062 7.40787109 -9.45703125 6.62792969 C-6.91133858 2.91005815 -4.73653877 -0.07400842 0 0 Z " fill="#232121" transform="translate(445,335.5)"/>
<path d="M0 0 C1.25296875 0.17402344 2.5059375 0.34804688 3.796875 0.52734375 C5.0034375 0.70136719 6.21 0.87539063 7.453125 1.0546875 C8.54270508 1.21179199 9.63228516 1.36889648 10.75488281 1.53076172 C14.57427027 2.28853716 17.68449306 3.1329763 20.5625 5.8125 C22.24670589 9.09226936 22.01107999 11.45786289 21.75 15.125 C20.79993183 17.64585932 19.83978233 19.86159889 18.609375 22.23046875 C18.28592102 22.87695877 17.96246704 23.52344879 17.62921143 24.18952942 C16.94648819 25.54663925 16.25697428 26.90035217 15.56103516 28.25073242 C14.50158579 30.30941855 13.46617042 32.37889902 12.43359375 34.45117188 C11.76440644 35.77413928 11.09387815 37.09642942 10.421875 38.41796875 C10.11441345 39.03157761 9.8069519 39.64518646 9.49017334 40.27738953 C7.07761222 44.92325014 4.92215097 48.43176033 -0.1875 50.0625 C-3.87880732 50.1378328 -5.3626081 49.37074926 -8.25 47.125 C-10.57536063 43.63695905 -10.58457898 42.22359246 -10.25 38.125 C-9.62316532 36.77248364 -8.9626415 35.43433736 -8.25 34.125 C-17.46612001 40.23388478 -25.97459976 46.80201803 -34.25 54.125 C-35.03769775 54.81795166 -35.03769775 54.81795166 -35.84130859 55.52490234 C-52.15968833 69.94309292 -64.79922639 86.49141704 -75.875 105.1640625 C-81.61880112 114.80940056 -81.61880112 114.80940056 -84.25 116.125 C-91.3021327 116.69372038 -91.3021327 116.69372038 -94.75 114.625 C-96.82370538 111.16882436 -96.75174791 108.0204044 -96.25 104.125 C-95.13118781 101.42481762 -94.05544659 99.2155182 -92.5625 96.75 C-91.96453613 95.73015015 -91.96453613 95.73015015 -91.35449219 94.68969727 C-76.01138356 69.11881892 -55.36129448 45.70642929 -31.25 28.125 C-30.6115918 27.65771484 -29.97318359 27.19042969 -29.31542969 26.70898438 C-18.18211787 18.59105893 -18.18211787 18.59105893 -15.25 17.125 C-16.301875 16.856875 -17.35375 16.58875 -18.4375 16.3125 C-21.84695742 15.25053785 -24.35163909 14.17090182 -27.25 12.125 C-28.81935594 8.98628812 -28.60201103 6.58644178 -28.25 3.125 C-22.35796297 -5.8080884 -9.06741276 -1.33177625 0 0 Z " fill="#232121" transform="translate(155.25,59.875)"/>
<path d="M0 0 C2.52085932 0.95006817 4.73659889 1.91021767 7.10546875 3.140625 C7.75195877 3.46407898 8.39844879 3.78753296 9.06452942 4.12078857 C10.42163925 4.80351181 11.77535217 5.49302572 13.12573242 6.18896484 C15.18441855 7.24841421 17.25389902 8.28382958 19.32617188 9.31640625 C20.64913928 9.98559356 21.97142942 10.65612185 23.29296875 11.328125 C23.90657761 11.63558655 24.52018646 11.9430481 25.15238953 12.25982666 C29.79825014 14.67238778 33.30676033 16.82784903 34.9375 21.9375 C35.0128328 25.62880732 34.24574926 27.1126081 32 30 C28.51195905 32.32536063 27.09859246 32.33457898 23 32 C21.64748364 31.37316532 20.30933736 30.7126415 19 30 C25.11135876 39.21985235 31.69271597 47.7073204 39 56 C39.44069824 56.50917969 39.88139648 57.01835937 40.33544922 57.54296875 C55.33501185 74.85058422 73.65768732 88.03441803 93.20727539 99.76147461 C94.50846313 100.54663452 94.50846313 100.54663452 95.8359375 101.34765625 C96.61501465 101.81179932 97.3940918 102.27594238 98.19677734 102.75415039 C100 104 100 104 101 106 C101.56872038 113.0521327 101.56872038 113.0521327 99.5 116.5 C96.04382436 118.57370538 92.8954044 118.50174791 89 118 C86.29981762 116.88118781 84.0905182 115.80544659 81.625 114.3125 C80.9451001 113.91385742 80.2652002 113.51521484 79.56469727 113.10449219 C53.99381892 97.76138356 30.58142929 77.11129448 13 53 C12.53271484 52.3615918 12.06542969 51.72318359 11.58398438 51.06542969 C3.46605893 39.93211787 3.46605893 39.93211787 2 37 C1.731875 38.051875 1.46375 39.10375 1.1875 40.1875 C0.12553785 43.59695742 -0.95409818 46.10163909 -3 49 C-6.13871188 50.56935594 -8.53855822 50.35201103 -12 50 C-14.9375 48.0625 -14.9375 48.0625 -17 45 C-17.56327635 37.21353282 -16.30623514 29.55211412 -15.13842773 21.86889648 C-14.81098575 19.67736529 -14.5139258 17.4829288 -14.21679688 15.28710938 C-14.00706543 13.88253394 -13.79554018 12.47822493 -13.58203125 11.07421875 C-13.39874268 9.81182373 -13.2154541 8.54942871 -13.02661133 7.2487793 C-10.90232011 0.52631954 -6.65651569 -0.81802425 0 0 Z " fill="#232121" transform="translate(75,335)"/>
<path d="M0 0 C3.2917475 1.64587375 4.79705157 2.5529926 7.234375 5.0390625 C7.80800781 5.61914062 8.38164062 6.19921875 8.97265625 6.796875 C9.55917969 7.40015625 10.14570313 8.0034375 10.75 8.625 C11.35199219 9.23601562 11.95398438 9.84703125 12.57421875 10.4765625 C14.05405305 11.97988624 15.52764676 13.48934856 17 15 C15.57580638 18.23910414 13.85033282 20.40078167 11.35620117 22.89776611 C10.5990683 23.66053864 9.84193542 24.42331116 9.06185913 25.209198 C8.23062531 26.03638336 7.39939148 26.86356873 6.54296875 27.71582031 C5.66806793 28.59422577 4.79316711 29.47263123 3.89175415 30.37765503 C1.49473022 32.78197057 -0.90670573 35.18170161 -3.31054306 37.57919407 C-5.82436344 40.08794983 -8.3332993 42.60158276 -10.84301758 45.11444092 C-15.05614114 49.33120143 -19.27346099 53.54373058 -23.49316406 57.75390625 C-28.37640579 62.62624984 -33.25238165 67.50577581 -38.12467289 72.38906789 C-42.30617337 76.57963214 -46.4915435 80.76630154 -50.68019772 84.94971538 C-53.18289151 87.44928627 -55.68420275 89.95020041 -58.18203735 92.45462799 C-60.9633168 95.24273558 -63.75268942 98.02265566 -66.54296875 100.80175781 C-67.37420258 101.6370401 -68.2054364 102.47232239 -69.06185913 103.33291626 C-69.818992 104.08440948 -70.57612488 104.83590271 -71.35620117 105.61016846 C-72.0154509 106.26866413 -72.67470062 106.92715981 -73.35392761 107.60560989 C-75 109 -75 109 -77 109 C-78.515625 107.42578125 -78.515625 107.42578125 -80.25 105.3125 C-82.46421215 102.69150148 -84.61174016 100.36681177 -87.3125 98.25 C-90 96 -90 96 -92 92 C-61.64 61.64 -31.28 31.28 0 0 Z " fill="#E1A66E" transform="translate(409,76)"/>
<path d="M0 0 C8.09247603 3.36256332 13.9203956 8.36712944 17.56640625 16.41015625 C19.85044263 23.89616096 19.63063932 31.66899925 16.390625 38.81640625 C12.07250471 46.19470702 5.66715903 50.95076445 -2.546875 53.31640625 C-11.29285676 54.84202111 -18.3296604 52.2861549 -25.546875 47.31640625 C-28.05593562 44.87155388 -29.83993188 42.36494676 -31.546875 39.31640625 C-32.165625 38.24390625 -32.784375 37.17140625 -33.421875 36.06640625 C-35.77785616 28.21313573 -35.54105583 20.59991729 -31.734375 13.27734375 C-27.76452956 6.72187529 -23.26083009 3.62721711 -16.546875 0.31640625 C-11.79735152 -2.05835549 -5.0039503 -1.34308482 0 0 Z " fill="#87C6FB" transform="translate(58.546875,224.68359375)"/>
<path d="M0 0 C3.91036603 2.72856652 6.32287888 5.70740693 8.63671875 9.83984375 C9.56484375 11.44859375 9.56484375 11.44859375 10.51171875 13.08984375 C12.72084242 20.45358931 12.76731475 27.2866051 9.38671875 34.27734375 C4.84674183 42.55859794 -0.51750183 46.61638176 -9.36328125 49.83984375 C-17.74822632 51.33474683 -24.29949908 49.10679999 -31.30078125 44.58984375 C-37.38842925 39.97162803 -40.77866424 33.98444565 -41.84375 26.43359375 C-42.20677047 17.4071389 -40.62474973 10.54707253 -34.49609375 3.77734375 C-24.08198595 -5.94789311 -12.34202885 -6.85668269 0 0 Z " fill="#88C7FB" transform="translate(476.36328125,228.16015625)"/>
<path d="M0 0 C5.51975776 3.19317044 9.98688718 7.99243389 12.6328125 13.8203125 C14.35678441 20.39808626 14.60883933 28.79979285 12.2265625 35.26171875 C7.35453456 42.96266614 2.22646526 48.28053497 -6.66015625 50.8984375 C-13.87534532 52.39644818 -19.86593177 51.59088597 -26.3125 48.01171875 C-32.4156149 43.71767048 -36.86300148 38.61728662 -38.7109375 31.32421875 C-39.6261809 21.55452755 -39.35755234 14.15054409 -33.203125 6.43359375 C-24.2398766 -3.48851379 -12.10737258 -5.47714474 0 0 Z " fill="#88C7FC" transform="translate(268.7109375,436.67578125)"/>
<path d="M0 0 C5.51742005 4.00846121 10.33432346 9.07121085 12.328125 15.69140625 C13.13866241 24.02297681 13.45504077 32.66766909 8.328125 39.69140625 C1.86646457 46.88936591 -4.39351649 50.64908274 -14.046875 51.19140625 C-21.06289232 50.95818684 -26.54153896 48.5092982 -31.74609375 43.82421875 C-38.95660543 36.05440113 -40.26381977 29.78563283 -40.015625 19.2890625 C-39.31349491 11.94063281 -35.98938862 7.1865142 -30.640625 2.234375 C-21.49866656 -4.93045354 -10.12537626 -5.73226946 0 0 Z " fill="#88C7FC" transform="translate(269.671875,27.30859375)"/>
<path d="M0 0 C1.32 0.66 2.64 1.32 4 2 C-27.33333333 33.33333333 -58.66666667 64.66666667 -90 96 C-90.66 94.68 -91.32 93.36 -92 92 C-61.64 61.64 -31.28 31.28 0 0 Z " fill="#C28958" transform="translate(409,76)"/>
<path d="M0 0 C4.00795843 1.5531786 6.65816302 4.30292942 9.06640625 7.80078125 C10.24951227 11.61301176 10.54895956 13.59439798 9.06640625 17.30078125 C6.31926315 20.73471013 3.25065856 23.77356056 0.06640625 26.80078125 C-5.96690737 21.81673957 -11.45201085 16.38162822 -16.93359375 10.80078125 C-7.02598168 -1.31987132 -7.02598168 -1.31987132 0 0 Z " fill="#807480" transform="translate(437.93359375,54.19921875)"/>
<path d="M0 0 C0.99 0.33 1.98 0.66 3 1 C3 8.92 3 16.84 3 25 C2.01 25.33 1.02 25.66 0 26 C0 17.42 0 8.84 0 0 Z " fill="#ECC15E" transform="translate(376,243)"/>
<path d="M0 0 C-4.625 4.875 -4.625 4.875 -8 6 C-8.309375 6.61875 -8.61875 7.2375 -8.9375 7.875 C-10.20298687 10.40597375 -11.67272837 11.44848558 -14 13 C-14.66 12.01 -15.32 11.02 -16 10 C-14.54474941 8.51780033 -13.085701 7.03932861 -11.625 5.5625 C-10.81289063 4.73878906 -10.00078125 3.91507813 -9.1640625 3.06640625 C-5.98470548 0.03052202 -4.29521571 -0.11303199 0 0 Z " fill="#665C66" transform="translate(437,54)"/>
<path d="M0 0 C3.57203608 1.78601804 5.43350965 3.06686817 8 6 C8 6.66 8 7.32 8 8 C4.7 8.66 1.4 9.32 -2 10 C-1.34 6.7 -0.68 3.4 0 0 Z " fill="#776B77" transform="translate(309,185)"/>
<path d="M0 0 C7.92 0 15.84 0 24 0 C28.5 9 28.5 9 29 13 C28.34 13 27.68 13 27 13 C26.3291288 11.3767313 25.66342971 9.75132422 25 8.125 C24.62875 7.22007812 24.2575 6.31515625 23.875 5.3828125 C23 3 23 3 23 1 C15.41 1 7.82 1 0 1 C0 0.67 0 0.34 0 0 Z " fill="#CBAF5E" transform="translate(244,133)"/>
<path d="M0 0 C0.99 0 1.98 0 3 0 C0.80148049 8.36980236 -2.49070196 16.11827559 -6 24 C-7.47604848 19.45753931 -5.85590888 16.24649646 -4.125 12 C-3.56324498 10.58406953 -3.00329062 9.16742309 -2.4453125 7.75 C-2.06656982 6.81414062 -2.06656982 6.81414062 -1.68017578 5.859375 C-0.97358133 3.92778011 -0.46458331 2.00230421 0 0 Z " fill="#F2C761" transform="translate(354,282)"/>
<path d="M0 0 C4.70351692 5.93052133 4.5683949 11.64875929 4 19 C3.24976079 21.61711352 2.31158028 23.59543615 1 26 C-0.1316865 22.60494051 0.27314922 21.42018141 1 18 C1.27662893 11.95484437 1.31825577 5.93215097 0 0 Z " fill="#5DABEC" transform="translate(484,238)"/>
<path d="M0 0 C0.66 0.33 1.32 0.66 2 1 C1.67 1.66 1.34 2.32 1 3 C0.8578012 6.83936768 0.82245324 10.32016639 2 14 C1.01 13.67 0.02 13.34 -1 13 C-2.375 9.8125 -2.375 9.8125 -3 6 C-1.625 2.5625 -1.625 2.5625 0 0 Z " fill="#EBC15F" transform="translate(344,308)"/>
<path d="M0 0 C3.2542015 2.83430453 4.5206753 4.68607774 5 9 C4.34 9 3.68 9 3 9 C2.01 6.03 1.02 3.06 0 0 Z " fill="#EAC05E" transform="translate(268,137)"/>
</svg>
